         <svg width="100%" height="100%" viewBox="0 0 122 25" fill="none" xmlns="http://www.w3.org/2000/svg" fit="" preserveAspectRatio="xMidYMid meet" focusable="false">
    <path d="M8.53825 22.6599L17.65 6.87152C18.9095 4.68915 18.1621 1.89856 15.9806 0.638562C13.7991 -0.621433 11.0096 0.126304 9.75012 2.30868L0.638358 18.0971C-0.621128 20.2795 0.126307 23.07 2.3078 24.33C4.48929 25.59 7.27876 24.8423 8.53825 22.6599Z" fill="#D9D9D9"></path>
    <path d="M4.54564 24.9983C7.05613 24.9983 9.09128 22.9623 9.09128 20.4508C9.09128 17.9393 7.05613 15.9034 4.54564 15.9034C2.03515 15.9034 0 17.9393 0 20.4508C0 22.9623 2.03515 24.9983 4.54564 24.9983Z" fill="white"></path>
    <path d="M26.7504 18.0694L17.6387 2.28097C16.3792 0.0986004 13.5897 -0.649136 11.4082 0.610858C9.22672 1.87085 8.47928 4.66144 9.73877 6.84382L18.8505 22.6322C20.11 24.8146 22.8995 25.5623 25.081 24.3023C27.2625 23.0423 28.0099 20.2517 26.7504 18.0694Z" fill="white"></path>
    <path d="M36.0288 7.94743C37.8945 5.65405 41.2402 4.75583 44.0106 5.77359C44.9273 6.12282 45.7593 6.66299 46.4515 7.35829C45.989 7.80057 45.54 8.25651 45.086 8.70733C43.1554 6.69743 39.5878 6.89381 37.8007 8.99763C35.9418 10.9836 36.0852 14.4092 38.0994 16.2381C39.977 18.0687 43.35 18.1165 45.1747 16.192C45.8387 15.5499 46.1358 14.6278 46.2416 13.7312C44.6934 13.7466 43.1452 13.7312 41.5986 13.7312C41.5986 13.0806 41.5986 12.4283 41.5986 11.7777C43.7563 11.7674 45.9156 11.8033 48.0715 11.7589C48.3975 13.0055 48.2029 14.3562 47.7966 15.5653C46.9432 17.8689 44.6097 19.3938 42.1978 19.5304C41.2197 19.5987 40.2377 19.4734 39.308 19.1617C38.3783 18.8499 37.5192 18.3578 36.7799 17.7135C35.2249 16.3849 34.356 14.3494 34.3219 12.319C34.4345 10.7411 34.9825 9.16157 36.0288 7.94743Z" fill="#FEFEFE"></path>
    <path d="M78.906 5.92215C79.5598 5.92215 80.2153 5.92215 80.8707 5.92215C80.8707 10.4286 80.8707 14.9368 80.8707 19.4433C80.2187 19.4433 79.5666 19.4433 78.9146 19.4433C78.9112 14.9283 78.918 10.4252 78.906 5.92215Z" fill="#FEFEFE"></path>
    <path d="M98.4746 6.94844C99.0721 6.92453 99.6695 6.93649 100.27 6.92966C101.82 11.028 103.321 15.1417 104.9 19.2247C104.324 19.2247 103.749 19.2247 103.174 19.2367C102.727 18.1301 102.363 16.9928 101.945 15.876C100.25 15.876 98.5531 15.8982 96.8581 15.876C96.3836 16.9706 96.0439 18.1182 95.6257 19.235C95.047 19.235 94.4701 19.235 93.8931 19.235C95.4106 15.1366 96.9776 11.0605 98.4746 6.95698V6.94844ZM99.3179 8.92248C98.7136 10.777 97.9796 12.5956 97.3275 14.4416C98.7068 14.4416 100.086 14.4416 101.465 14.4416C100.759 12.6486 100.153 10.8163 99.4886 9.00787L99.3179 8.92248Z" fill="#FEFEFE"></path>
    <path d="M112.197 6.93137C112.721 6.93137 113.245 6.93137 113.771 6.93137C113.754 11.0297 113.771 15.1281 113.771 19.2264H112.26C112.26 18.8252 112.274 18.4239 112.279 18.0311C111.615 18.8388 110.679 19.5167 109.587 19.4843C109.005 19.5387 108.419 19.4494 107.88 19.2244C107.34 18.9993 106.865 18.6452 106.494 18.1933C104.724 16.2227 105.035 12.7288 107.233 11.192C108.769 10.07 111.192 10.4167 112.253 12.027C112.18 10.3313 112.223 8.63219 112.204 6.93307L112.197 6.93137ZM108.812 12.1021C106.605 12.8057 106.252 16.1612 108.02 17.512C108.873 18.1831 110.201 18.2616 111.079 17.5837C112.685 16.3508 112.629 13.5144 110.93 12.3873C110.314 11.9672 109.517 11.9536 108.812 12.1021Z" fill="#FEFEFE"></path>
    <path d="M53.0165 10.4474C53.8577 10.3737 54.7028 10.535 55.4578 10.9133C56.2127 11.2917 56.8479 11.8723 57.2925 12.5905C58.4225 14.4211 58.1255 17.0304 56.509 18.4887C54.7713 20.1554 51.6919 20.0393 50.0976 18.2292C48.7696 16.805 48.534 14.5338 49.4319 12.8262C49.7859 12.1638 50.2987 11.5998 50.9244 11.1846C51.55 10.7694 52.2689 10.5161 53.0165 10.4474ZM52.9004 12.2951C52.4732 12.4057 52.0805 12.6214 51.7579 12.9227C51.4353 13.2239 51.1932 13.6011 51.0535 14.0198C50.5175 15.4679 51.2362 17.3839 52.8151 17.7767C54.4435 18.2702 56.1027 16.7077 55.9661 15.0734C56.1317 13.4495 54.5374 11.8887 52.9004 12.2951Z" fill="#FEFEFE"></path>
    <path d="M72.5681 10.4662C73.6742 10.2528 74.7871 10.748 75.5655 11.5147C75.5655 11.2586 75.5501 11.0024 75.5382 10.7514H77.4363C77.4141 13.5007 77.4363 16.25 77.4244 18.9993C77.4244 20.0974 77.1974 21.2415 76.5419 22.1448C75.4784 23.5707 73.4216 24.095 71.7726 23.499C70.5607 23.137 69.6236 22.1602 69.0995 21.0314C69.6833 20.7855 70.2739 20.5533 70.8457 20.2801C71.1581 20.917 71.6412 21.5096 72.3206 21.7691C73.2628 22.0424 74.4577 21.8887 75.0517 21.0229C75.6013 20.3006 75.5536 19.3562 75.5638 18.4973C75.009 19.0096 74.3689 19.4331 73.611 19.5441C72.015 19.7729 70.3866 18.9003 69.5314 17.5632C69.1452 16.9794 68.8965 16.3155 68.804 15.6216C68.7114 14.9276 68.7775 14.2218 68.9971 13.5571C69.5007 11.9758 70.9089 10.7104 72.563 10.4679L72.5681 10.4662ZM72.6346 12.2951C70.617 12.8723 70.1271 15.8112 71.6497 17.1568C72.5032 17.9713 73.9831 18.0004 74.8366 17.179C76.0912 15.9614 75.9786 13.5929 74.5089 12.5854C73.9746 12.1961 73.2611 12.1397 72.6346 12.2951Z" fill="#FEFEFE"></path>
    <path d="M83.1751 11.706C84.3939 10.4525 86.4405 10.0325 88.0092 10.8521C89.2212 11.4498 89.9415 12.6657 90.399 13.89C88.3216 14.7319 86.2664 15.6216 84.1805 16.4515C84.6687 17.6195 86.0821 18.1592 87.2531 17.751C87.8829 17.5922 88.3353 17.0885 88.7415 16.6103C89.2417 16.9758 89.7538 17.3275 90.2778 17.6486C89.4602 18.873 88.0263 19.6978 86.5412 19.6619C85.8059 19.6995 85.0729 19.5519 84.4094 19.2327C83.7459 18.9135 83.173 18.4328 82.7433 17.8347C81.4238 16.0417 81.5877 13.2958 83.1649 11.7111L83.1751 11.706ZM83.8374 14.9283C85.2405 14.3665 86.6232 13.7568 88.0263 13.195C87.7071 12.6827 87.1814 12.2695 86.5617 12.2404C85.0818 12.0219 83.7162 13.4529 83.8477 14.9232L83.8374 14.9283Z" fill="#FEFEFE"></path>
    <path d="M62.2051 10.5601C62.7831 10.4164 63.384 10.389 63.9727 10.4796C64.5614 10.5702 65.1262 10.7769 65.6344 11.0878C67.0187 11.8819 67.8534 13.4785 67.8261 15.0666C67.8364 16.6616 66.9726 18.2633 65.5815 19.0557C63.866 20.0803 61.4455 19.8122 60.0646 18.3402C58.2227 16.5472 58.3286 13.1711 60.3121 11.5215C60.8573 11.0545 61.5064 10.7248 62.2051 10.5601ZM62.2409 12.4812C60.3957 13.3504 60.1926 16.2381 61.8603 17.3941C62.3027 17.7184 62.8416 17.8837 63.3897 17.8633C63.9378 17.8428 64.4629 17.6378 64.8799 17.2814C66.1277 16.2039 66.1704 14.0369 64.9601 12.915C64.6033 12.5771 64.1527 12.355 63.6676 12.2776C63.1824 12.2002 62.6851 12.2712 62.2409 12.4812Z" fill="#FEFEFE"></path>
    <path d="M116.271 11.1954C118.031 10 120.984 10.4115 121.869 12.5068C121.404 12.6776 120.947 12.874 120.503 13.096C119.866 11.8596 117.925 11.4617 117.007 12.5837C116.62 13.0157 117.007 13.6083 117.458 13.8029C118.591 14.2623 119.902 14.2606 120.937 14.9641C121.29 15.1975 121.574 15.5216 121.759 15.9025C121.945 16.2835 122.024 16.7072 121.99 17.1294C121.936 17.4567 121.818 17.7701 121.642 18.0512C121.466 18.3324 121.236 18.5757 120.966 18.7671C119.974 19.5372 118.605 19.6209 117.422 19.3391C116.3 19.0386 115.457 18.1438 114.988 17.1072C115.461 16.9194 115.91 16.665 116.401 16.5215C116.719 17.2046 117.272 17.833 118.024 18.0379C118.707 18.1574 119.477 18.125 120.03 17.6674C120.477 17.3446 120.413 16.5779 119.991 16.2602C119.429 15.8026 118.683 15.7292 118.007 15.5499C117.086 15.3432 116.085 15 115.543 14.1718C115.271 13.6742 115.195 13.0929 115.33 12.5421C115.464 11.9913 115.8 11.5109 116.271 11.1954Z" fill="#FEFEFE"></path>
</svg>