<svg xmlns="http://www.w3.org/2000/svg" viewBox="0 0 4680 3120"><defs><style>.cls-1,.cls-12,.cls-16,.cls-23{fill:#fff;}.cls-10,.cls-2{opacity:0.67;}.cls-10,.cls-3{fill:#f9e2c5;}.cls-4{opacity:0.38;}.cls-5,.cls-6,.cls-7,.cls-8,.cls-9{fill:#eac092;}.cls-6{opacity:0.64;}.cls-7{opacity:0.5;}.cls-8{opacity:0.58;}.cls-9{opacity:0.39;}.cls-11{fill:#fff3e6;opacity:0.17;}.cls-12,.cls-13{stroke:#d8a877;stroke-width:9px;}.cls-12,.cls-13,.cls-17,.cls-36,.cls-40,.cls-46,.cls-54,.cls-55{stroke-miterlimit:10;}.cls-13,.cls-17,.cls-36,.cls-40{fill:none;}.cls-14{fill:#aa6b31;opacity:0.35;}.cls-15{fill:#4f3115;opacity:0.19;}.cls-16{opacity:0.72;}.cls-17{stroke:#fff;stroke-width:18px;}.cls-18{fill:#76a0dd;opacity:0.44;}.cls-19{fill:#4969b2;}.cls-20{fill:#e08532;}.cls-21{fill:#f29a51;}.cls-22{fill:#5b7dc1;}.cls-23,.cls-51{opacity:0.47;}.cls-24{fill:#c66e26;}.cls-25{fill:#a8571b;}.cls-26{fill:#3157a3;}.cls-27{fill:#183e7a;}.cls-28{fill:#aa9494;}.cls-29{fill:#fcfcfc;}.cls-30{fill:#eadfdf;}.cls-31{fill:#5e4f4f;}.cls-32{fill:#d3c1c1;}.cls-33{fill:#f4f2f2;opacity:0.57;}.cls-34{fill:#e5dcdc;}.cls-35{fill:#7f6e6e;}.cls-36,.cls-40{stroke:#5e4f4f;opacity:0.61;}.cls-36{stroke-width:3px;}.cls-37,.cls-42{fill:#a09090;}.cls-37,.cls-41,.cls-50,.cls-68{opacity:0.68;}.cls-38{fill:#8c7e7e;}.cls-39{fill:#9b8c8c;}.cls-43{fill:#847777;}.cls-44{fill:#2b1b23;}.cls-45{fill:#473740;}.cls-46{fill:#efad81;}.cls-46,.cls-55{stroke:#e59e6e;}.cls-47{fill:#5b4d56;}.cls-48{fill:#8c8489;opacity:0.32;}.cls-49{fill:#8c2222;}.cls-50{fill:#724322;}.cls-52{fill:#935227;}.cls-53{fill:#0c0509;}.cls-54,.cls-56{fill:#4c2307;}.cls-54{stroke:#4c2307;stroke-width:4px;}.cls-55{fill:#e89760;}.cls-57,.cls-58{fill:#db884f;}.cls-58{opacity:0.33;}.cls-59{fill:#a86233;}.cls-60{fill:#c64640;}.cls-61{fill:#ad2d2d;}.cls-62{fill:#751717;}.cls-63{fill:#bc3c3c;}.cls-64{fill:#af3535;}.cls-65{fill:#0e2651;}.cls-66{fill:#091d3a;}.cls-67{fill:#5474b5;}.cls-68{fill:#183b6d;}.cls-69{fill:#1f325b;}.cls-70{fill:#365c89;opacity:0.43;}.cls-71{fill:#051e42;}.cls-72{fill:#771818;}.cls-73{fill:#932a2a;}.cls-74{fill:#a82c2c;}.cls-75{fill:#e86d67;}.cls-76{fill:#ef8484;}.cls-77{fill:#bf6922;}.cls-78{fill:#99531f;}.cls-79{fill:#f39c42;}.cls-80{fill:#ffc38d;opacity:0.26;}.cls-81{fill:#cc7229;}.cls-82{fill:#992828;}.cls-83{opacity:0.63;}.cls-84{fill:#edb9b9;}.cls-85{fill:#932424;}</style></defs><title>08</title><g id="_08" data-name="08"><rect id="_08-2" data-name="08" class="cls-1" width="4680" height="3120"/><g class="cls-2"><path class="cls-3" d="M4002.47,2144.06c-15-25.36-39.7-43.18-67-53.65-21.51-8.26-44.46-12.49-65.69-21.44s-41.52-24-48.91-45.81c-14.66-43.19,30.13-60.86,62.11-72.29,35.48-12.7,75.14-24,98.35-56,22.8-31.43,18.79-78.12-4-108.28-19.69-26.06-50.5-42-82.25-49.82-25.36-6.26-51.36-7.64-77.36-8.52-18.69-.63-43.75,1.3-60.82-6.92-16.51-8-26.41-31.59-14.09-45.14,15.13-16.63,40.61-4.9,57.84-16.77,7.75-5.33,11.88-14.75,13-24.09,3.85-33.58-12.58-67.23-44.13-80.69-16.68-7.12-34.9-9.67-52.87-12.15l-81.84-11.3c-16.86-2.33-35.48-5.63-45.91-19.05-30.72-39.52,15.71-83.49,48.57-100.09,30.05-15.18,63.68-21.54,96.83-27.45,57.24-10.21,103.54-27,107-92.17a233.14,233.14,0,0,0-6.21-67c-3.56-14.7-9.05-29.79-20.59-39.59-13.08-11.08-31.29-13.3-48.38-14.86q-84-7.68-168.43-9.31c-12.24-.24-24.71-.42-36.3-4.37-27.51-9.39-30.61-40.8-8.75-59.5,8.81-7.54,20.9-9.65,32.36-11.47l116.89-18.58c7.07-1.13,14.38-2.34,20.35-6.28,29.75-19.59,15.51-92.66-.77-116.67a89.47,89.47,0,0,0-17.91-19.34c-24.51-19.79-58.82-27.91-91.11-30.23-41.25-3-83.7.84-123.12-11.63-46.37-14.67-107.12-87-56.73-131.48,21-18.52,51-21.65,78.92-24.32,38.44-3.67,73.94-9.91,86.34-48.39,5.86-18.16,5.82-37.84,2.59-56.5-2.87-16.6-5.26-33.65-15.63-47.55-7.55-10.12-17.64-18.13-28.52-24.54-16.22-9.55-33-10.59-51-10.59H1788.52c-100.32,0-200.65-.53-301-.87-84.46-.29-174.6-18.64-225.44,66-24.23,40.34-30,89.84-23.32,136.41,1,7.21,2.35,14.44,5,21.21,7.16,18.09,23.09,31.07,38.78,42.61,37.61,27.65,93.17,25.39,126.59,56,29.19,26.71,19.74,82.83-16.59,98.55-14.82,6.41-31.48,6.57-47.63,6.63-76.88.27-235.16-24.66-293.21,42.45-17.88,20.67-21.16,50.41-17.8,77.51,5.32,42.88,30.06,88,69.42,108.55,27.16,14.17,106.16,18,80.61,72.89-17.75,38.09-92.77,20-126.75,20q-81.37,0-162.74,2.17c-27.11.73-54.72,1.73-80.23,10.89s-49,28-56.93,53.82c-11.3,37,13.1,77.52,46.8,96.55s74.18,21.22,112.9,20.65c27.2-.39,55.56-1.7,80.29,9.61s43.94,40.08,34.39,65.49c-9.74,25.94-41.82,34.48-69.43,37.4-68.84,7.28-140,2.45-205.62,24.41-19.42,6.5-39.38,16.5-48.83,34.63-5.4,10.38-6.74,22.33-7.48,34-4.56,72.37,19.92,133.83,96.27,133.83,37.57,0,75.54-1.63,113.06,0,25.55,1.11,64-2.68,85.16,13.46,20.58,15.67,22.7,45.24,23,71.07.29,22.36-1.46,48.71-20.33,60.76-10.71,6.83-24.22,7-36.93,6.9-32.94-.2-66.55-.31-97.87,9.85s-60.56,32.52-70.16,64c-7.73,25.32-2,52.56-3.38,79-1.5,28.54-17.25,50.8-40.16,66.79-21.53,15-51.7,28.48-68.93,48.19-12.91,14.78-18.22,35.73-14.34,55,12.37,61.29,83,43.54,128.19,43.75q67.42.32,134.83,1.07c87.36.86,174.73,1.87,262.1,1.87H3964.36c15.18,0,31.84,1.63,46.57-.68,2.76-26.54,2-54,2.85-80.7C4014.85,2217.71,4020.52,2174.53,4002.47,2144.06Z"/></g><g class="cls-4"><path class="cls-5" d="M3195.4,1495.69a56.31,56.31,0,0,0,6.67,20.72c7.32,13.33,20.39,16.61,32.22,18.92l57.44,11.23c12.61,2.46,25.4,5,37.1,12.06,22.15,13.37,33.68,46.81,31,80.16-.75,9.27-3.65,18.63-9.09,23.93-12.09,11.79-30,.14-40.59,16.66-8.65,13.46-1.7,36.94,9.88,44.84,12,8.16,29.57,6.24,42.69,6.87,18.25.88,36.5,2.24,54.3,8.47a103.48,103.48,0,0,1,57.72,49.48c16,30,18.82,76.34,2.82,107.57-16.29,31.79-44.13,43.06-69,55.67-22.44,11.36-53.88,28.91-43.59,71.81,5.19,21.64,19.43,36.61,34.33,45.51s31,13.09,46.1,21.3c19.14,10.4,36.46,28.1,47,53.29,12.67,30.27,8.69,73.16,7.94,107.09-.59,26.55-.07,53.8-2,80.17-10.33,2.29-22,.66-32.68.66H1519.09c-61.32,0-122.64-1-183.95-1.86q-47.33-.66-94.63-1c-31.72-.21-81.29,17.42-90-43.46-2.73-19.1,1-39.91,10.07-54.59,12.08-19.58,33.26-32.93,48.37-47.86,16.08-15.9,27.13-38,28.19-66.35,1-26.26-3.06-53.32,2.37-78.47,6.73-31.23,27.25-53.45,49.24-63.54s45.57-10,68.69-9.78c8.92.08,18.4-.07,25.92-6.86,13.24-12,14.47-38.14,14.27-60.35-.24-25.66-1.73-55-16.17-70.6-14.87-16-41.83-12.27-59.77-13.37-26.33-1.62-53,0-79.34,0-53.59,0-70.77-61.06-67.57-132.94.52-11.59,1.46-23.47,5.25-33.78,6.63-18,20.64-27.94,34.27-34.39,46.06-21.83,96-17,144.31-24.26,19.38-2.9,41.89-11.38,48.73-37.14,6.7-25.24-6.78-53.83-24.14-65.06s-37.26-9.94-56.34-9.54c-27.18.56-55.59-1.61-79.24-20.52s-40.78-59.19-32.85-95.91c5.55-25.7,22-44.36,40-53.46s37.29-10.1,56.31-10.82c78-3,199.16,9.72,246.19-70.75,7.35-12.56,11.73-28,6.69-41.69-4.29-11.63-14.56-19.89-24.71-27-41.46-29.15-93.94-57.61-99.7-108-5.12-44.79,31.6-84,71.15-105.6s84.79-33.28,120.38-61c10.31-8,19.84-17.55,25.32-29.4,13.55-29.31-.53-63.15-12.12-93.3-14-36.35-24.44-74.92-22.12-113.79s20.36-76.69,51.94-99.48h629.43c204.64,0,409.47-2.94,614.47-2.94H3153.2c8.86,21.47,34.48,20.78,46,42.63,7.28,13.81,9,30.75,11,47.24,2.27,18.54,2.29,38.08-1.81,56.13-8.71,38.22-33.62,44.41-60.6,48.06-19.58,2.65-40.66,5.76-55.39,24.16-35.37,44.17,7.27,116,39.81,130.61,27.67,12.38,57.47,8.61,86.42,11.55,22.66,2.31,46.74,10.37,63.94,30a84.64,84.64,0,0,1,12.57,19.21c11.43,23.85,21.42,96.44.54,115.9-4.19,3.91-9.32,5.11-14.28,6.23l-82,18.47c-8,1.81-16.53,3.9-22.71,11.38-15.35,18.58-13.17,49.79,6.14,59.11,8.13,3.92,16.89,4.1,25.48,4.34a1172.49,1172.49,0,0,1,118.21,9.25c12,1.55,24.77,3.75,33.95,14.77,8.1,9.72,12,24.71,14.45,39.31a324.32,324.32,0,0,1,4.36,66.52c-2.42,64.78-34.91,81.41-75.08,91.55-23.27,5.88-46.87,12.19-68,27.27C3217.11,1430.61,3191.56,1462.78,3195.4,1495.69Z"/></g><rect class="cls-6" x="1870.01" y="1529.68" width="179.52" height="85.25" rx="32.84"/><rect class="cls-6" x="2697.27" y="2039.06" width="179.52" height="85.25" rx="32.84"/><rect class="cls-6" x="1802.26" y="1620.95" width="213.71" height="85.25" rx="32.84"/><rect class="cls-6" x="1286.41" y="2074.57" width="213.71" height="85.25" rx="32.84"/><rect class="cls-6" x="2600.44" y="622.18" width="179.52" height="85.25" rx="32.84"/><rect class="cls-7" x="2532.68" y="713.45" width="213.71" height="85.25" rx="32.84"/><rect class="cls-8" x="2787.03" y="1327.47" width="179.52" height="85.25" rx="32.84"/><rect class="cls-9" x="2719.27" y="1418.74" width="213.71" height="85.25" rx="32.84"/><rect class="cls-7" x="1905.45" y="1712.55" width="213.71" height="85.25" rx="32.84"/><circle class="cls-5" cx="1717.92" cy="753.86" r="393.86"/><circle class="cls-10" cx="1716.13" cy="753.92" r="362.23"/><circle class="cls-11" cx="1707.56" cy="753.86" r="216.59"/><line class="cls-12" x1="1716.13" y1="391.69" x2="1716.13" y2="462.32"/><line class="cls-12" x1="1353.89" y1="753.86" x2="1424.53" y2="753.86"/><line class="cls-12" x1="2007.72" y1="753.92" x2="2078.36" y2="753.92"/><line class="cls-12" x1="1717.92" y1="1045.52" x2="1717.92" y2="1116.15"/><line class="cls-13" x1="1455.67" y1="502.18" x2="1479.2" y2="525.69"/><line class="cls-13" x1="1569.28" y1="423.14" x2="1583.73" y2="453.59"/><line class="cls-13" x1="1382.69" y1="614.21" x2="1421.13" y2="625.96"/><line class="cls-13" x1="1458.44" y1="1009.05" x2="1482.43" y2="986.01"/><line class="cls-13" x1="1381.76" y1="893.83" x2="1412.5" y2="880.01"/><line class="cls-13" x1="1568.94" y1="1084.32" x2="1581.48" y2="1046.14"/><line class="cls-13" x1="1989.87" y1="515.45" x2="1959.36" y2="542.8"/><line class="cls-13" x1="2057.28" y1="629.94" x2="2021.76" y2="644.47"/><line class="cls-13" x1="1875.25" y1="428.45" x2="1859.32" y2="464.39"/><line class="cls-13" x1="1717.92" y1="753.92" x2="1606.82" y2="496.62"/><line class="cls-13" x1="1516.51" y1="954.83" x2="1716.13" y2="753.92"/><ellipse class="cls-5" cx="3198.86" cy="1557.9" rx="253.76" ry="253.11"/><ellipse class="cls-10" cx="3197.7" cy="1557.93" rx="233.39" ry="232.78"/><ellipse class="cls-11" cx="3192.18" cy="1557.9" rx="139.55" ry="139.19"/><line class="cls-12" x1="3197.7" y1="1325.15" x2="3197.7" y2="1370.54"/><line class="cls-12" x1="2964.32" y1="1557.9" x2="3009.83" y2="1557.9"/><line class="cls-12" x1="3385.58" y1="1557.93" x2="3431.09" y2="1557.93"/><line class="cls-12" x1="3198.86" y1="1745.32" x2="3198.86" y2="1790.72"/><line class="cls-13" x1="3029.89" y1="1396.16" x2="3045.05" y2="1411.27"/><line class="cls-13" x1="3103.09" y1="1345.37" x2="3112.4" y2="1364.93"/><line class="cls-13" x1="2982.87" y1="1468.15" x2="3007.64" y2="1475.71"/><line class="cls-13" x1="3031.68" y1="1721.89" x2="3047.13" y2="1707.08"/><line class="cls-13" x1="2982.27" y1="1647.85" x2="3002.08" y2="1638.97"/><line class="cls-13" x1="3102.87" y1="1770.26" x2="3110.95" y2="1745.72"/><line class="cls-13" x1="3374.08" y1="1404.69" x2="3354.42" y2="1422.27"/><line class="cls-13" x1="3417.51" y1="1478.26" x2="3394.62" y2="1487.6"/><line class="cls-13" x1="3300.23" y1="1348.78" x2="3289.96" y2="1371.87"/><line class="cls-13" x1="3198.86" y1="1557.93" x2="3127.28" y2="1392.59"/><line class="cls-13" x1="3069.09" y1="1687.05" x2="3197.7" y2="1557.93"/><ellipse class="cls-5" cx="1493.94" cy="1822.48" rx="184.29" ry="184.09"/><ellipse class="cls-10" cx="1493.1" cy="1822.51" rx="169.49" ry="169.3"/><ellipse class="cls-11" cx="1489.09" cy="1822.48" rx="101.34" ry="101.23"/><line class="cls-12" x1="1493.1" y1="1653.2" x2="1493.1" y2="1686.22"/><line class="cls-12" x1="1323.61" y1="1822.48" x2="1356.66" y2="1822.48"/><line class="cls-12" x1="1629.54" y1="1822.51" x2="1662.59" y2="1822.51"/><line class="cls-12" x1="1493.94" y1="1958.79" x2="1493.94" y2="1991.81"/><line class="cls-13" x1="1371.23" y1="1704.85" x2="1382.24" y2="1715.84"/><line class="cls-13" x1="1424.39" y1="1667.9" x2="1431.15" y2="1682.13"/><line class="cls-13" x1="1337.08" y1="1757.21" x2="1355.07" y2="1762.7"/><line class="cls-13" x1="1372.52" y1="1941.75" x2="1383.75" y2="1930.98"/><line class="cls-13" x1="1336.65" y1="1887.9" x2="1351.03" y2="1881.44"/><line class="cls-13" x1="1424.23" y1="1976.93" x2="1430.1" y2="1959.08"/><line class="cls-13" x1="1621.19" y1="1711.05" x2="1606.91" y2="1723.83"/><line class="cls-13" x1="1652.73" y1="1764.56" x2="1636.11" y2="1771.35"/><line class="cls-13" x1="1567.55" y1="1670.39" x2="1560.1" y2="1687.18"/><line class="cls-13" x1="1493.94" y1="1822.51" x2="1441.95" y2="1702.25"/><line class="cls-13" x1="1399.7" y1="1916.41" x2="1493.1" y2="1822.51"/><path class="cls-14" d="M1687.07,1921c-9.77,19.46-20.77,37.14-42.67,44.91q-57.3,20.34-114.61,40.69c-15,5.32-27,13.07-38.21-2.11-6.94-9.42-7.46-23.81-5.15-34.81,3.67-17.43,12.37-34.69,9-52.19a1204,1204,0,0,0-187.57,50.37c-40.35,14.41-78.35,32.61-117.67,49.16-20.1,8.46-4.53,22.42,5.8,32.21,11.09,10.51,24.66,18,38.06,25.29,40,21.9,84.07,41.35,121.36,67.44,32.87,23,56.16,56.68,83.67,85.28,26.51,27.57,60.13,52.13,98.37,53.16,35.8,1,68.63-18.73,98-39.28,58.34-40.9,113.5-89.46,147.28-152.2,25.9-48.09,38.09-102.32,60.44-152.16,6.43-14.32,13.91-28.57,25.4-39.26,10.56-9.82,23.84-16,36.51-22.94,15.73-8.56,101.07-66.16,50.73-81-6-1.79-12.49-1-18.78-1.4-20.15-1.24-38.82-15.85-44.87-35.12-9.81-31.26,11.61-67.79-3.47-96.88-23.48-45.27-47.59-86.25-12.18-135.61,6.5-9.06,14.56-17.07,19.69-27s6.77-22.73.21-31.74c-7.31-10-21.5-11.63-33.91-11.32a230.92,230.92,0,0,0-64.34,10.8c-21.74,6.93-43.53,18-55.61,37.4-14.1,22.59-11,48.57-9.09,73.72,1.47,19.21-2.1,37.91,1.35,57.37,6.74,38,26.82,81.21,57.63,105.72,4.82,3.84,10.06,7.62,12.78,13.16,12.18,24.76-26.78,48.38-41,62.12a408.49,408.49,0,0,0-57.28,68.82C1699.08,1895.35,1693.33,1908.53,1687.07,1921Z"/><path class="cls-15" d="M1109.64,2549.85a617.87,617.87,0,0,0-99.47,3.47c-9.44,1.1-19.17,2.52-27.27,7.5s-14.18,14.45-12.33,23.78c4.81,12.74,21.19,15.73,34.78,16.55,149.17,9,298.26-7.18,447.46-5.76,69.58.66,139.31,12,208.72,9.93,75.73-2.3,150-19.46,224.94-28.85,97.88-12.26,196.86-11.46,295.51-10.64l296.36,2.45c64.44.54,130.2,1.28,191.18,22.14,19.44,6.65,38.24,15.3,58.15,20.4,27.56,7,56.36,7.08,84.8,7.06,209.85-.11,418.94,2.5,628.66,2.75,6.29,0,13-.13,18.15-3.8s7.4-9.9,12-14c6-5.25,14.6-6,22.56-6.23,78.24-2.75,159.19,9.28,233.06-16.65,12.6-4.42,26.63-12.25,27.93-25.54,1.73-17.77-19.74-27.88-37.32-31-36.44-6.5-73.68-6.5-110.69-6.48l-305.94.19c-96.83.06-196.11,7.4-291.8-7.43-98.89-15.33-197.88-30.67-297.63-38.67-113.2-9.09-226.92-8.7-340.49-8.31l-626.38,2.17c-26.79.1-53.89.23-79.89,6.7-56.37,14-104,61.24-162.8,63.86-71.7,3.18-147.74,1.32-220.13.07-92.07-1.59-188.36-11.71-272.61,25.45"/><path class="cls-15" d="M1138.06,2529.18a617.83,617.83,0,0,0-99.47,3.47c-9.45,1.1-19.17,2.52-27.27,7.5s-14.18,14.45-12.34,23.78c4.82,12.74,21.19,15.73,34.79,16.55,149.16,9,298.26-7.18,447.46-5.76,69.57.66,139.3,12,208.72,9.93,75.72-2.3,150-19.46,224.93-28.85,97.88-12.26,196.87-11.46,295.51-10.64l296.36,2.45c64.45.54,130.2,1.28,191.18,22.14,19.45,6.65,38.24,15.3,58.16,20.4,27.55,7,56.35,7.08,84.8,7.06,209.84-.11,418.93,2.5,628.65,2.75,6.29,0,13.05-.13,18.16-3.8s7.39-9.9,12-14c6-5.26,14.6-6,22.56-6.23,78.23-2.75,159.18,9.28,233.05-16.65,12.6-4.42,26.63-12.25,27.93-25.54,1.74-17.78-19.73-27.89-37.32-31-36.43-6.5-73.68-6.5-110.69-6.48l-305.94.19c-96.83.06-196.1,7.4-291.79-7.43-98.89-15.33-197.89-30.67-297.63-38.67-113.21-9.09-226.93-8.71-340.5-8.31L1773,2444.22c-26.79.09-53.89.22-79.89,6.7-56.37,14-104,61.24-162.8,63.85-71.69,3.19-147.74,1.33-220.12.08-92.07-1.59-188.36-11.71-272.62,25.45"/><path class="cls-15" d="M1423.64,2623.27c-23.09,5.07-46.6,12.23-64.49,27.68s-28.82,41.09-20.9,63.37c11.7,32.9,54.89,41.19,89.45,36.18s70.19-17.78,103.33-6.8c7.51,2.48,14.6,6.13,22.15,8.49,36.38,11.33,74.23-8.92,107.62-27.27,43.3-23.79,88.27-45.7,136.51-56.38s100.41-9.38,145,11.88c23.79,11.35,44.78,28,68.69,39.09a168,168,0,0,0,105.52,11.74c6.26-1.36,12.56-3.09,19-2.72,8,.46,15.48,4.18,22.82,7.51A269.75,269.75,0,0,0,2281,2759.75c17.77-.78,35.9-3.48,51.52-12s28.46-23.67,30.37-41.36c2.87-26.6-19.59-50.38-44.76-59.46s-52.72-7.4-79.48-8c-91.82-2.17-180.45-32.81-271.46-45.2-105.79-14.39-213.21-4-319.46,6.48-18.61,1.83-32.41,11-49.15,14.7s-38.09-2.45-55.26-2.93A494.5,494.5,0,0,0,1423.64,2623.27Z"/><path class="cls-15" d="M1440.38,2605.59c-23.09,5.08-46.59,12.23-64.49,27.68s-28.82,41.1-20.9,63.38c11.7,32.89,54.9,41.19,89.45,36.18s70.19-17.79,103.33-6.81c7.51,2.49,14.6,6.14,22.15,8.49,36.38,11.33,74.23-8.92,107.62-27.27,43.3-23.78,88.28-45.7,136.51-56.38s100.41-9.38,145,11.89c23.79,11.34,44.78,28,68.69,39.09a168.08,168.08,0,0,0,105.52,11.73c6.26-1.36,12.56-3.09,19-2.72,8.05.46,15.48,4.19,22.82,7.51a269.75,269.75,0,0,0,122.67,23.71c17.77-.78,35.9-3.47,51.52-12s28.46-23.67,30.37-41.35c2.87-26.61-19.59-50.39-44.76-59.47s-52.72-7.4-79.47-8c-91.83-2.17-180.46-32.81-271.47-45.19-105.79-14.4-213.21-4-319.46,6.48-18.61,1.83-32.41,11-49.15,14.7s-38.09-2.46-55.26-2.93A494,494,0,0,0,1440.38,2605.59Z"/><path class="cls-16" d="M2987.81,820.58H1699.21v3.2l23.86,33.43,63.15,88.46,89.92,126,104.17,145.92c56,78.48,110.93,157.73,167.41,235.87,26.8,37.07,53.42,74.6,82.45,109.86,22.38,27.19,57.38,65.72,46.45,104.4-2.5,8.88-8,16.54-13.45,24q-104.91,144.25-209.5,288.72l-105.26,145.34L1848,2264.37,1764.27,2380,1709,2456.38l-15.88,21.93,0,3.21,1288.58,8.83,0-3.21-4.64-6.59L2834.49,2278,2600.1,1944.84c-46.69-62.24-88.55-126.78-136.3-188.18-34.27-44.05-66.44-108.64-27.39-160.43,69.88-92.66,135.09-189.26,202.51-283.71l235.69-330.16,113.2-158.58Z"/><path class="cls-14" d="M2992.52,840.49c-9.05-6.32-15.53-1.67-22.23,7.16q-271.41,358-524.43,729.5c-28.32,41.58-45.9,81.3-19.56,128,40.18,71.23,93.3,131.15,144.14,194.67,136,169.88,232.92,368.75,373.51,534.82,16.23,19.18,33.11,38,52.48,54,2.66,2.19-5-24.92-5.42-26.12-3-7.91-6-16.59-9.09-24.84-7.91-21.31-20-40.9-32.74-59.59-24.52-35.9-54.43-67.85-78.59-104l-227-339.28c-45.21-63.39-85.75-129.11-132-191.64-33.18-44.86-64.34-110.64-26.52-163.38,67.66-94.36,130.81-192.74,196.1-288.93l228.23-336.23C2935.62,916.06,2961.27,872.44,2992.52,840.49Z"/><path class="cls-17" d="M2987.81,820.58H1699.21v3.2l23.86,33.43,63.15,88.46,89.92,126,104.17,145.92c56,78.48,110.93,157.73,167.41,235.87,26.8,37.07,53.42,74.6,82.45,109.86,22.38,27.19,57.38,65.72,46.45,104.4-2.5,8.88-8,16.54-13.45,24q-104.91,144.25-209.5,288.72l-105.26,145.34L1848,2264.37,1764.27,2380,1709,2456.38l-15.88,21.93,0,3.21,1288.58,8.83,0-3.21-4.64-6.59L2834.49,2278,2600.1,1944.84c-46.69-62.24-88.55-126.78-136.3-188.18-34.27-44.05-66.44-108.64-27.39-160.43,69.88-92.66,135.09-189.26,202.51-283.71l235.69-330.16,113.2-158.58Z"/><path class="cls-18" d="M2781.22,868.27H1911.41v3l16.11,31.14,42.63,82.43,60.69,117.36,70.32,136c37.8,73.12,74.87,147,113,219.76,18.09,34.54,36.06,69.5,55.65,102.35,15.11,25.33,38.73,61.24,31.36,97.27-1.69,8.27-5.42,15.41-9.08,22.36q-70.82,134.41-141.41,269l-71.06,135.42-67.76,129.15-56.53,107.73L1918,2392.34l-10.72,20.44,0,3L2777,2424l0-3-3.13-6.14-96.2-188.72-158.22-310.4c-31.51-58-59.76-118.12-92-175.32-23.13-41.05-44.85-101.23-18.48-149.48,47.16-86.33,91.18-176.33,136.69-264.33L2704.81,1019l76.41-147.75Z"/><path class="cls-18" d="M2459.44,1150c-47.74-18-329.8-56.13-280.35,104.76,21.25,69.16,48.15,136.14,72.51,203.15,12.56,34.54,25,69.5,38.65,102.35,10.49,25.33,26.89,61.24,21.77,97.27-1.18,8.27-3.77,15.41-6.31,22.36-33.94,92.78-66.17,187.5-101.4,279.13-28,72.78-36.76,160.32,30.12,185.81,53.64,20.44,110.64,18.38,165.53,13,35.53-3.46,108.56.77,111.4-72.74,2.28-59-29.74-118.5-47.74-169.37-21.88-58-41.5-118.12-63.88-175.32-16.06-41.05-31.14-101.23-12.84-149.48,32.75-86.32,63.31-176.33,94.91-264.33,13.39-37.28,25.92-92.26,14.91-133.65C2490.28,1168.71,2476.21,1156.32,2459.44,1150Z"/><path class="cls-19" d="M2547.46,2178.37q-11.85-10.68-23.75-21.29c-33.08-29.46-67.41-57.63-100.14-87.47-23.81-21.71-50.88-52.33-86.87-44.79-56.46,11.82-113.56,73.06-157.36,107.9-35.85,28.52-72,56.72-106.84,86.46-35.06,29.91-68.91,61.42-99.33,96.09q-14.93,17-28.61,35.07c-9.76,12.93-17.27,26.43-25,40.66-2.75,5.05-5.54,10.25-6.32,16a8.26,8.26,0,0,0,.29,4.22c1.43,3.53,6,4.2,9.84,4.31,13.12.36,26.15-.83,39.15-.06,9.45.56,18.94,1,28.41,1.13l98.57.93,254,2.4,219.65,2.08,109.82,1c34.25.32,64.95.8,98.12-4.75-6.36-27.45-30.41-51.06-49.19-70.91C2666.23,2288.52,2607.56,2232.63,2547.46,2178.37Z"/><rect class="cls-20" x="1637.5" y="768.54" width="1413.47" height="69.14" rx="34.57"/><rect class="cls-21" x="1654.35" y="768.54" width="146.77" height="69.14" rx="34.57"/><rect class="cls-20" x="1620.22" y="2455.78" width="1413.47" height="69.14" rx="34.57"/><path class="cls-19" d="M2195.79,1399.13a28.81,28.81,0,0,1,1.1-2.76,17.06,17.06,0,0,1,3-4.7c9-9.56,34.75-5.38,46.66-5.38h161.66c14.79,0,29.58,0,44.37,0,17,.07,34.77-1.22,42.51,17,4.2,9.89.07,17.73-2.93,27a199.93,199.93,0,0,1-11,27.57c-8,16.09-18.16,31-26.24,47-19.63,38.92-40.85,77.08-64.77,113.53-48.37,73.72-100.12-30.12-122.54-69.56-14.82-26.08-28.36-53.08-43.8-78.79-7-11.68-14.74-23-20.89-35.13C2197.16,1423.57,2191.6,1411.49,2195.79,1399.13Z"/><circle class="cls-22" cx="2349.87" cy="1680.15" r="12.7"/><circle class="cls-19" cx="2345.68" cy="1834.28" r="33.17"/><circle class="cls-22" cx="2348.05" cy="1746.98" r="24.15"/><rect class="cls-23" x="2000.41" y="899.73" width="57.91" height="57.91" rx="28.95" transform="translate(-199.51 1042.1) rotate(-27.5)"/><rect class="cls-23" x="2091.53" y="959.95" width="57.91" height="287.47" rx="28.95" transform="translate(-270.03 1103.96) rotate(-27.5)"/><path class="cls-24" d="M3016.4,837.68h-551c-13,0-24.35,1.94-36.79-2.87a61.23,61.23,0,0,1-27.17-20.69c-5.17-7-8.85-15.5-8.78-24.25.06-6.73,2.62-14.15,7.71-18.76,5.33-4.83,15-2.57,21.89-2.57H3016.4a34.57,34.57,0,0,1,0,69.14Z"/><path class="cls-25" d="M3016.4,837.68h-98.85c-42.92,0-85.79-.63-128.65-.63-5.66,0-10.11-14.78-11.88-18.93-5-11.69-15.8-49.16,7.3-49.16,31.71,0,63.4-.42,95.14-.42H3016.4a34.57,34.57,0,0,1,0,69.14Z"/><path class="cls-24" d="M2911.05,2525h-551c-13,0-24.35,1.95-36.79-2.87a61.33,61.33,0,0,1-27.17-20.68c-5.17-7-8.85-15.51-8.78-24.25.06-6.74,2.62-14.15,7.71-18.76,5.33-4.83,15-2.57,21.89-2.57h594.13a34.57,34.57,0,1,1,0,69.13Z"/><path class="cls-25" d="M2911.05,2525h-98.84c-42.93,0-85.8-.63-128.66-.63-5.66,0-10.11-14.78-11.88-18.92-5-11.69-15.8-49.17,7.31-49.17,31.7,0,63.39-.41,95.13-.41h136.94a34.57,34.57,0,1,1,0,69.13Z"/><path class="cls-26" d="M2195.79,1399.13a28.81,28.81,0,0,1,1.1-2.76,17.06,17.06,0,0,1,3-4.7c9-9.56,34.75-5.38,46.66-5.38h161.66c14.79,0,29.58,0,44.37,0,17,.07,34.77-1.22,42.51,17,4.2,9.89.07,17.73-2.93,27a199.93,199.93,0,0,1-11,27.57c-8,16.09-18.16,31-26.24,47q-9.61,19.08-19.79,37.87c-7,12.92-8.2,17.31-23.33,14.89-23.63-3.76-44-18-64.24-29.81a420.76,420.76,0,0,0-73.19-33.93c-15.06-5.29-32-9.67-44.83-19.59-12-9.25-19.85-26-26.62-39.38C2197.16,1423.57,2191.6,1411.49,2195.79,1399.13Z"/><path class="cls-26" d="M2548.67,2190.46c-35.13,2.23-55.5,23.28-83.47,40.51-56.27,34.63-125.09,44.64-190.15,42.28a503.63,503.63,0,0,1-100.61-14c-13.94-3.39-28.92-6.44-41.27-13.64-13.69-8-23.46-19.51-39.56-24.08-23-6.53-44.33,14.75-59.39,29.32-32.26,31.2-62.64,63.65-89.66,99.46-9.76,12.93-17.27,26.43-25,40.66-2.75,5.05-5.54,10.25-6.32,16a8.26,8.26,0,0,0,.29,4.22c1.43,3.53,6,4.2,9.84,4.31,13.12.36,26.15-.83,39.15-.06,9.45.56,18.94,1,28.41,1.13l98.57.93,254,2.4,219.65,2.08,109.82,1c34.25.32,64.95.8,98.12-4.75-6.36-27.45-30.41-51.06-49.19-70.91-40.81-43.14-85-82.52-126.2-125.1-7.4-7.63-14.91-15.16-22.94-22.14C2564.51,2192.93,2559.84,2189.75,2548.67,2190.46Z"/><path class="cls-27" d="M2618.47,2365c-21.56,8.61-42.95,17.81-65.38,23.52-36.43,9.29-74.5,9.19-112.09,9-64.31-.26-128.86-.54-192.54-9.58s-126.86-27.21-181.62-60.94c-14.77-9.11-52.46-42.3-71-36.93-16.72,4.85-41,46.49-51.32,60.24-9.76,12.93-17.27,26.43-25,40.66-2.75,5.05-5.54,10.25-6.32,16a8.26,8.26,0,0,0,.29,4.22c1.43,3.53,6,4.2,9.84,4.31,13.12.36,26.15-.83,39.15-.06,9.45.56,18.94,1,28.41,1.13l98.57.93,254,2.4,219.65,2.08,109.82,1c34.25.32,64.95.8,98.12-4.75-5.1-22-20.48-40-35.33-56.25-17.26-18.9-25.36-20.92-51.12-17.08C2661.63,2348.36,2640,2356.39,2618.47,2365Z"/><path class="cls-27" d="M2450.76,1473c-14-17.91-25.38-38.18-42.82-52.72-5.45-4.54-11.48-8.53-15.9-14.08s-7-13.29-4.25-19.83c6.78-.41,13.64,0,20.43,0,14.79,0,29.58,0,44.37,0,17,.07,34.77-1.22,42.51,17,4.2,9.89.07,17.73-2.93,27a199.93,199.93,0,0,1-11,27.57c-2.69,5.43-5.64,10.72-8.66,16-2.09,3.61-3.54,8.76-8.1,9.86C2458.72,1485.07,2453.71,1476.74,2450.76,1473Z"/><path class="cls-22" d="M2310.7,1596.53a40.38,40.38,0,0,1,7.5-2.85c12.89-3.75,26.78-4.93,39.73-1.42,13.82,3.76,36.18,17.23,27.27,32.94-8.31,14.65-28.6,22.31-44.08,16.4-11.14-4.25-47.95-31.45-33.76-42.89A20.39,20.39,0,0,1,2310.7,1596.53Z"/><path class="cls-28" d="M1618.76,1599.45c-.36,1.9-20.13,3-22.47,3.21-40.14,2.66-76.7-16.55-95.41-52.35-8.41-16.08-13.2-33.8-16.6-51.62-12.67-66.36-6.68-139.27,13.84-203.56a217.29,217.29,0,0,1,14.77-35.71,166.31,166.31,0,0,1,9.92-16.46c1.52-2.21,11.52-12.38,11.22-14.4,6.58,44.6,42.27,73.63,75.71,98.91,40.21,30.4,81.64,61.38,131.4,72.93-37.13,13.82-68.78,45.49-88.87,82.12C1631.49,1520.38,1626.3,1559.08,1618.76,1599.45Z"/><path class="cls-29" d="M1649.2,1599.59c-.36,1.91-20.13,3.06-22.46,3.21-40.14,2.66-76.7-16.55-95.42-52.35-8.4-16.07-13.2-33.8-16.6-51.61-12.66-66.37-6.67-139.27,13.85-203.57a217.29,217.29,0,0,1,14.77-35.71,166.7,166.7,0,0,1,9.92-16.46c1.52-2.21,11.52-12.38,11.22-14.4,6.58,44.6,42.26,73.63,75.71,98.92,40.21,30.39,81.64,61.37,131.4,72.92-37.14,13.82-68.78,45.49-88.88,82.12C1661.94,1520.53,1656.74,1559.23,1649.2,1599.59Z"/><path class="cls-30" d="M1492.86,1415.88c-1.51,24.83-2.59,49.78.26,73.9s9.83,47.57,23.21,66.09a123.71,123.71,0,0,1,48.92-23.07,234.92,234.92,0,0,1-57.88-79.85c-5.54-12.42-13.18-27.55-15.31-41.46-2.56-16.68,2.41-38.94,4.55-56.21,5.56-44.79,18.08-92.06,48.79-126.72,6.58,44.6,42.26,73.63,75.71,98.91,40.2,30.4,81.64,61.38,131.4,72.93-37.14,13.82-68.79,45.49-88.88,82.12-20.78,37.86-26,76.56-33.51,116.93-118.16,25.27-141.75-82.22-138.38-183.8"/><path class="cls-31" d="M1547.92,1312.31c8.15,11.07,18.25,20.46,29.07,28.8s22.29,15.91,33.81,23.32q8.63,5.61,17.36,11c5.83,3.61,11.74,7.08,17.62,10.6s11.84,6.92,17.82,10.27,12,6.68,18,10c-6.22-2.91-12.35-6-18.46-9.14s-12.13-6.44-18.13-9.79c-12-6.72-23.72-13.88-35.29-21.28q-8.62-5.64-17.11-11.5c-5.63-3.94-11.24-7.93-16.57-12.29a174.9,174.9,0,0,1-15.28-13.9A114.31,114.31,0,0,1,1547.92,1312.31Z"/><path class="cls-31" d="M1530.87,1341.2q3.66,3.39,7.26,6.82l7.41,6.65,7.52,6.5,7.69,6.31c10.35,8.28,21,16.15,32.14,23.36s22.47,14,34.18,20.25l8.83,4.57,8.95,4.33,9,4.17q4.58,2,9.13,4-4.66-1.71-9.34-3.48l-9.23-3.77-9.1-4.09-9-4.33a341.53,341.53,0,0,1-66.58-43.8l-7.54-6.54-7.36-6.73-7.11-7Q1534.29,1344.83,1530.87,1341.2Z"/><path class="cls-31" d="M1522.09,1371.8q14.79,11.29,30.05,21.88t31.09,20.29q15.81,9.73,32.16,18.56t33.1,16.9q-17.23-7-33.83-15.52c-11.06-5.64-21.88-11.76-32.47-18.24s-20.92-13.41-31-20.72S1531.46,1379.93,1522.09,1371.8Z"/><path class="cls-31" d="M1514.33,1399.92a235.53,235.53,0,0,0,28.8,22.6,324.12,324.12,0,0,0,31.56,18.49c10.82,5.64,21.91,10.77,33.08,15.74s22.44,9.73,33.66,14.62c-11.5-4.17-23-8.48-34.28-13.19s-22.48-9.76-33.38-15.39a272.21,272.21,0,0,1-31.52-19A186.72,186.72,0,0,1,1514.33,1399.92Z"/><path class="cls-32" d="M1492.83,1491.58c2.43,22.4,9.53,44.25,22.39,63.78,4.47,6.8,10.65-.49,15.4-3.32a107.8,107.8,0,0,1,22.65-10.08c3.17-1,18.57-7.06,20.91-5.23-20.74-16.17-37.12-37.13-50.88-59.38-13.57-21.94-28.38-46.27-32.11-72.21.26,1.83-.43,4.25-.36,6.19.09,2.16.36,4.31.4,6.47C1491.68,1441.82,1490.18,1467.07,1492.83,1491.58Z"/><path class="cls-33" d="M1638.21,1341.66a9.08,9.08,0,0,1,2.87.77c12.05,5.17,23.59,17,34.81,24,23.7,15,49.18,27.55,76.62,33.92-5.32-1.24-19.32,8.92-23.79,11.66a163.26,163.26,0,0,0-23.83,17.88c-4.55,4.09-8.51,8.91-12.92,13.16-4.66,4.5-8.24,10-13.32,14.3a12.89,12.89,0,0,1-.65-5.12c1.36-17.74.51-36.33-.62-54.08a56.42,56.42,0,0,0-2-13.26,48.08,48.08,0,0,0-6.28-12.24,104.26,104.26,0,0,0-24.64-25.69c-2.22-1.64-4.64-3.34-5.64-5.92C1639.39,1341.56,1637.61,1341.19,1638.21,1341.66Z"/><path class="cls-28" d="M3174.45,1126.87c.88-1.77-14.56-14.89-16.37-16.46-31.14-26.9-72.84-33.73-110.18-16-16.77,7.95-31.61,19.47-45.36,31.93-51.23,46.39-91.26,109.63-114.11,174.78a222.55,222.55,0,0,0-9.95,38.26,171.28,171.28,0,0,0-2,19.56c-.13,2.74,1.78,17.21.29,18.67,32.85-32.37,79.88-34.09,122.77-34.13,51.57-.06,104.5.17,152.25,21.4-21.82-34.17-28.15-79.53-22-121.83C3136.13,1199.29,3155.74,1164.49,3174.45,1126.87Z"/><path class="cls-29" d="M3193.64,1148.63c.88-1.77-14.56-14.89-16.37-16.45-31.14-26.91-72.84-33.74-110.18-16-16.77,7.95-31.6,19.47-45.36,31.93-51.23,46.4-91.26,109.63-114.11,174.78a222.66,222.66,0,0,0-9.95,38.27,170.87,170.87,0,0,0-2,19.55c-.13,2.74,1.78,17.21.29,18.67,32.85-32.37,79.88-34.09,122.78-34.13,51.56,0,104.49.17,152.24,21.4-21.81-34.17-28.14-79.53-22-121.83C3155.33,1221.06,3174.93,1186.25,3193.64,1148.63Z"/><path class="cls-30" d="M2958.53,1199.23c14.06-21.21,28.55-42.25,45.75-60.2s37.33-32.79,59.67-39.67a126.64,126.64,0,0,0,25.74,49,240.18,240.18,0,0,0-96.47,29.55c-12.18,6.72-27.75,14.37-38,24.42-12.36,12-22,33.29-30.91,48.71-23.07,40-42,86.32-38.24,133.55,32.85-32.37,79.88-34.09,122.77-34.13,51.57-.06,104.5.17,152.25,21.4-21.82-34.17-28.15-79.53-22-121.83,6.36-43.73,26-78.53,44.68-116.15-80.93-93.43-166.43-20.18-226.26,64.86"/><path class="cls-31" d="M2939.68,1317.74a117.23,117.23,0,0,1,20.42-5.24,180.6,180.6,0,0,1,21-1.93c7-.27,14.09-.08,21.11.18s14,.68,21.06,1.15c14,1.09,28,2.46,41.93,4.36q10.44,1.44,20.84,3.16c6.92,1.22,13.83,2.45,20.71,3.9-7-1-13.89-2-20.86-2.93s-13.91-1.83-20.88-2.6-13.94-1.56-20.92-2.2-14-1.21-21-1.69c-14-1.05-28-1.91-42-1.79S2953.15,1313.71,2939.68,1317.74Z"/><path class="cls-31" d="M2943.56,1283.64c3.35-.56,6.71-1.11,10.07-1.63l10.11-1.31,10.16-1,10.19-.69a350.34,350.34,0,0,1,81.36,5.25l10,2,9.95,2.26,9.86,2.61q4.91,1.42,9.78,2.91-5-1.17-9.91-2.4l-9.95-2.16-10-2-10-1.72a406.14,406.14,0,0,0-40.4-4.52c-13.52-1-27.09-1.11-40.64-.72L2974,1281l-10.16.68-10.14.86Q2948.64,1283.12,2943.56,1283.64Z"/><path class="cls-31" d="M2955.24,1253.24q4.74-.3,9.5-.54l9.52-.34,9.52-.1,9.52.06c12.71.21,25.39,1,38,2.14,12.64,1.29,25.25,2.91,37.76,5.12l9.36,1.75,9.33,1.9,9.28,2.15c3.08.75,6.15,1.54,9.22,2.33-3.11-.58-6.23-1.19-9.33-1.81l-9.36-1.71-9.36-1.62-9.39-1.47c-12.53-1.89-25.09-3.52-37.7-4.65-12.6-1.29-25.24-2.07-37.9-2.6l-9.5-.33-9.5-.18-9.51-.11Q2960,1253.28,2955.24,1253.24Z"/><path class="cls-31" d="M2966.23,1225.49c3.09-.44,6.2-.87,9.31-1.27l9.37-.8,9.41-.29,9.42.09a286.79,286.79,0,0,1,37.44,3.91q18.54,3.25,36.75,8l9.07,2.43,9.06,2.51c6,1.78,12,3.51,18,5.38-3-.72-6.09-1.45-9.12-2.21l-9.13-2.22-9.11-2.24-9.13-2.16c-12.18-2.82-24.39-5.52-36.72-7.53a320.28,320.28,0,0,0-37.17-4.34l-9.35-.37-9.37,0-9.37.34Q2970.92,1225.15,2966.23,1225.49Z"/><path class="cls-32" d="M3005.15,1137.38c15.78-16.79,35-30.26,57.58-38.29,7.84-2.8,8.39,7,10.52,12.2a110.32,110.32,0,0,0,12.3,22.19c2,2.78,10.81,17.2,13.85,17.16-26.9.42-53.19,7.45-78.14,17.14-24.6,9.56-51.69,20.3-70.72,39.19,1.34-1.33,2.27-3.74,3.53-5.28,1.4-1.71,2.95-3.3,4.31-5C2973.55,1177.32,2987.88,1155.76,3005.15,1137.38Z"/><path class="cls-33" d="M3031.5,1349.4a9.36,9.36,0,0,0,2.83,1.14c13,3.2,29.71.68,43.24,1.8,28.58,2.38,57.14,7.8,83.47,19.51-5.1-2.27-10.28-19.19-12.24-24.18a166.65,166.65,0,0,1-8.44-29.28c-1.2-6.15-1.47-12.52-2.45-18.71-1-6.56-.56-13.26-2.07-19.89a13.16,13.16,0,0,0-3.69,3.78c-9.81,15.32-22,30-33.82,43.79a57.79,57.79,0,0,1-9.82,9.58,49.16,49.16,0,0,1-12.67,6.13,107,107,0,0,1-36,5.8c-2.83,0-5.85-.13-8.26,1.35C3032.4,1350.21,3030.73,1349.41,3031.5,1349.4Z"/><rect class="cls-34" x="1218.21" y="2151.73" width="208.39" height="418.7"/><rect class="cls-35" x="1426.59" y="2151.73" width="121.7" height="418.7"/><line class="cls-36" x1="1218.21" y1="2204.7" x2="1548.3" y2="2204.7"/><line class="cls-36" x1="1218.21" y1="2192.56" x2="1548.3" y2="2192.56"/><line class="cls-36" x1="1218.21" y1="2176.38" x2="1548.3" y2="2176.38"/><line class="cls-36" x1="1218.21" y1="2223.58" x2="1548.3" y2="2223.58"/><line class="cls-36" x1="1218.21" y1="2243.81" x2="1548.3" y2="2243.81"/><line class="cls-36" x1="1218.21" y1="2259.31" x2="1548.3" y2="2259.31"/><line class="cls-36" x1="1218.21" y1="2269.43" x2="1548.3" y2="2269.43"/><line class="cls-36" x1="1218.21" y1="2310.56" x2="1548.3" y2="2310.56"/><line class="cls-36" x1="1218.21" y1="2324.89" x2="1548.3" y2="2324.89"/><line class="cls-36" x1="1218.21" y1="2347.64" x2="1548.3" y2="2347.64"/><line class="cls-36" x1="1218.21" y1="2361.08" x2="1548.3" y2="2361.08"/><line class="cls-36" x1="1218.21" y1="2408.83" x2="1548.3" y2="2408.83"/><line class="cls-36" x1="1218.21" y1="2432.6" x2="1548.3" y2="2432.6"/><line class="cls-36" x1="1218.21" y1="2467.66" x2="1548.3" y2="2467.66"/><line class="cls-36" x1="1218.21" y1="2483.78" x2="1548.3" y2="2483.78"/><line class="cls-36" x1="1218.21" y1="2443.32" x2="1548.3" y2="2443.32"/><line class="cls-36" x1="1218.21" y1="2495.24" x2="1398.2" y2="2495.24"/><line class="cls-36" x1="1296.4" y1="2524.58" x2="1476.39" y2="2524.58"/><line class="cls-36" x1="1218.21" y1="2512.84" x2="1550.06" y2="2512.84"/><line class="cls-36" x1="1218.21" y1="2537.79" x2="1548.3" y2="2537.79"/><line class="cls-36" x1="1218.21" y1="2553.97" x2="1548.3" y2="2553.97"/><line class="cls-36" x1="1216.81" y1="2561.19" x2="1549.01" y2="2561.19"/><line class="cls-36" x1="1218.21" y1="2394.67" x2="1548.3" y2="2394.67"/><line class="cls-36" x1="1218.21" y1="2389.11" x2="1548.3" y2="2389.11"/><line class="cls-36" x1="1218.21" y1="2374.95" x2="1548.3" y2="2374.95"/><line class="cls-36" x1="1437.45" y1="2337.53" x2="1537.78" y2="2337.53"/><line class="cls-36" x1="1218.21" y1="2284.26" x2="1548.3" y2="2284.26"/><line class="cls-36" x1="1250.21" y1="2296.4" x2="1380.1" y2="2296.4"/><path class="cls-37" d="M1194.77,2226.51c42,.52,84.14-2.25,126-.22C1278.43,2234.1,1237.06,2227,1194.77,2226.51Z"/><path class="cls-37" d="M1341.87,2285.24c42,.52,84.14-2.26,126-.22C1425.52,2292.82,1384.16,2285.76,1341.87,2285.24Z"/><path class="cls-37" d="M1200,2312.28c42,.52,84.14-2.26,126-.22C1283.69,2319.87,1242.33,2312.8,1200,2312.28Z"/><path class="cls-37" d="M1311.72,2375.93c42,.52,84.14-2.26,126-.22C1395.38,2383.51,1354,2376.45,1311.72,2375.93Z"/><path class="cls-37" d="M1267.08,2409.81c42,.52,84.14-2.26,126-.22C1350.73,2417.4,1309.37,2410.33,1267.08,2409.81Z"/><path class="cls-37" d="M1200,2468.64c42,.52,84.14-2.25,126-.22C1283.69,2476.23,1242.33,2469.16,1200,2468.64Z"/><rect class="cls-34" x="2784.55" y="2170.29" width="212.78" height="427.81"/><rect class="cls-38" x="2997.33" y="2170.29" width="124.27" height="427.81"/><line class="cls-36" x1="2784.55" y1="2224.41" x2="3121.6" y2="2224.41"/><line class="cls-36" x1="2784.55" y1="2212.01" x2="3121.6" y2="2212.01"/><line class="cls-36" x1="2784.55" y1="2195.48" x2="3121.6" y2="2195.48"/><line class="cls-36" x1="2784.55" y1="2243.7" x2="3121.6" y2="2243.7"/><line class="cls-36" x1="2784.55" y1="2264.37" x2="3121.6" y2="2264.37"/><line class="cls-36" x1="2784.55" y1="2280.21" x2="3121.6" y2="2280.21"/><line class="cls-36" x1="2784.55" y1="2290.55" x2="3121.6" y2="2290.55"/><line class="cls-36" x1="2784.55" y1="2332.57" x2="3121.6" y2="2332.57"/><line class="cls-36" x1="2784.55" y1="2347.21" x2="3121.6" y2="2347.21"/><line class="cls-36" x1="2784.55" y1="2370.47" x2="3121.6" y2="2370.47"/><line class="cls-36" x1="2784.55" y1="2384.2" x2="3121.6" y2="2384.2"/><line class="cls-36" x1="2784.55" y1="2432.99" x2="3121.6" y2="2432.99"/><line class="cls-36" x1="2784.55" y1="2457.27" x2="3121.6" y2="2457.27"/><line class="cls-36" x1="2784.55" y1="2493.1" x2="3121.6" y2="2493.1"/><line class="cls-36" x1="2784.55" y1="2509.56" x2="3121.6" y2="2509.56"/><line class="cls-36" x1="2784.55" y1="2468.22" x2="3121.6" y2="2468.22"/><line class="cls-36" x1="2784.55" y1="2521.27" x2="2968.33" y2="2521.27"/><line class="cls-36" x1="2864.39" y1="2551.25" x2="3048.18" y2="2551.25"/><line class="cls-36" x1="2784.55" y1="2539.25" x2="3123.4" y2="2539.25"/><line class="cls-36" x1="2784.55" y1="2564.74" x2="3121.6" y2="2564.74"/><line class="cls-36" x1="2784.55" y1="2581.28" x2="3121.6" y2="2581.28"/><line class="cls-36" x1="2783.13" y1="2588.66" x2="3122.32" y2="2588.66"/><line class="cls-36" x1="2784.55" y1="2418.52" x2="3121.6" y2="2418.52"/><line class="cls-36" x1="2784.55" y1="2412.83" x2="3121.6" y2="2412.83"/><line class="cls-36" x1="2784.55" y1="2398.37" x2="3121.6" y2="2398.37"/><line class="cls-36" x1="3008.42" y1="2360.13" x2="3110.86" y2="2360.13"/><line class="cls-36" x1="2784.55" y1="2305.71" x2="3121.6" y2="2305.71"/><line class="cls-36" x1="2817.22" y1="2318.11" x2="2949.86" y2="2318.11"/><path class="cls-37" d="M2760.62,2246.7c42.85.53,85.91-2.3,128.69-.22C2846,2254.45,2803.8,2247.23,2760.62,2246.7Z"/><path class="cls-37" d="M2910.82,2306.7c42.84.53,85.91-2.3,128.69-.22C2996.23,2314.45,2954,2307.24,2910.82,2306.7Z"/><path class="cls-37" d="M2766,2334.33c42.84.53,85.91-2.3,128.69-.22C2851.41,2342.08,2809.18,2334.87,2766,2334.33Z"/><path class="cls-37" d="M2880,2399.37c42.84.52,85.91-2.31,128.69-.23C2965.45,2407.12,2923.22,2399.9,2880,2399.37Z"/><path class="cls-37" d="M2834.45,2434c42.85.53,85.91-2.3,128.69-.22C2919.87,2441.73,2877.63,2434.52,2834.45,2434Z"/><path class="cls-37" d="M2766,2494.09c42.84.53,85.91-2.3,128.69-.22C2851.41,2501.84,2809.18,2494.63,2766,2494.09Z"/><rect class="cls-34" x="1023" y="2317.78" width="214.77" height="256.41"/><rect class="cls-39" x="1237.77" y="2317.78" width="125.43" height="256.41"/><line class="cls-36" x1="1023" y1="2370.1" x2="1363.21" y2="2370.1"/><line class="cls-36" x1="1023" y1="2358.11" x2="1363.21" y2="2358.11"/><line class="cls-36" x1="1023" y1="2342.13" x2="1363.21" y2="2342.13"/><line class="cls-36" x1="1023" y1="2388.75" x2="1363.21" y2="2388.75"/><line class="cls-36" x1="1023" y1="2408.73" x2="1363.21" y2="2408.73"/><line class="cls-36" x1="1023" y1="2424.05" x2="1363.21" y2="2424.05"/><line class="cls-36" x1="1023" y1="2434.04" x2="1363.21" y2="2434.04"/><line class="cls-36" x1="1023" y1="2474.67" x2="1363.21" y2="2474.67"/><line class="cls-36" x1="1023" y1="2488.82" x2="1363.21" y2="2488.82"/><line class="cls-36" x1="1023" y1="2511.3" x2="1363.21" y2="2511.3"/><line class="cls-36" x1="1023" y1="2524.58" x2="1363.21" y2="2524.58"/><line class="cls-40" x1="1023" y1="2571.74" x2="1363.21" y2="2571.74"/><line class="cls-36" x1="1023" y1="2557.76" x2="1363.21" y2="2557.76"/><line class="cls-36" x1="1023" y1="2552.26" x2="1363.21" y2="2552.26"/><line class="cls-36" x1="1023" y1="2538.28" x2="1363.21" y2="2538.28"/><line class="cls-36" x1="1248.97" y1="2501.31" x2="1352.37" y2="2501.31"/><line class="cls-36" x1="1023" y1="2448.69" x2="1363.21" y2="2448.69"/><g class="cls-41"><path class="cls-42" d="M1044.56,2449.66c43.25.51,86.71-2.23,129.89-.22C1130.77,2457.15,1088.14,2450.17,1044.56,2449.66Z"/></g><g class="cls-41"><path class="cls-42" d="M998.65,2371.07c43.25.51,86.72-2.23,129.9-.22C1084.87,2378.56,1042.24,2371.58,998.65,2371.07Z"/></g><g class="cls-41"><path class="cls-42" d="M1103.46,2526.5c43.25.51,86.72-2.23,129.9-.22C1189.68,2534,1147.05,2527,1103.46,2526.5Z"/></g><g class="cls-41"><path class="cls-42" d="M1005.15,2568.36c43.25.51,86.72-2.23,129.9-.22C1091.37,2575.85,1048.74,2568.87,1005.15,2568.36Z"/></g><rect class="cls-34" x="1550.54" y="2324.84" width="214.77" height="256.41"/><rect class="cls-39" x="1765.31" y="2324.84" width="125.43" height="256.41"/><line class="cls-36" x1="1550.54" y1="2377.16" x2="1890.74" y2="2377.16"/><line class="cls-36" x1="1550.54" y1="2365.17" x2="1890.74" y2="2365.17"/><line class="cls-36" x1="1550.54" y1="2349.19" x2="1890.74" y2="2349.19"/><line class="cls-36" x1="1550.54" y1="2395.81" x2="1890.74" y2="2395.81"/><line class="cls-36" x1="1550.54" y1="2415.79" x2="1890.74" y2="2415.79"/><line class="cls-36" x1="1550.54" y1="2431.11" x2="1890.74" y2="2431.11"/><line class="cls-36" x1="1550.54" y1="2441.1" x2="1890.74" y2="2441.1"/><line class="cls-36" x1="1550.54" y1="2481.73" x2="1890.74" y2="2481.73"/><line class="cls-36" x1="1550.54" y1="2495.88" x2="1890.74" y2="2495.88"/><line class="cls-36" x1="1550.54" y1="2518.36" x2="1890.74" y2="2518.36"/><line class="cls-36" x1="1550.54" y1="2531.64" x2="1890.74" y2="2531.64"/><line class="cls-40" x1="1550.54" y1="2578.81" x2="1890.74" y2="2578.81"/><line class="cls-36" x1="1550.54" y1="2564.82" x2="1890.74" y2="2564.82"/><line class="cls-36" x1="1550.54" y1="2559.32" x2="1890.74" y2="2559.32"/><line class="cls-36" x1="1550.54" y1="2545.34" x2="1890.74" y2="2545.34"/><line class="cls-36" x1="1776.5" y1="2508.37" x2="1879.91" y2="2508.37"/><line class="cls-36" x1="1550.54" y1="2455.75" x2="1890.74" y2="2455.75"/><g class="cls-41"><path class="cls-42" d="M1572.09,2456.72c43.25.51,86.72-2.23,129.9-.22C1658.31,2464.21,1615.68,2457.23,1572.09,2456.72Z"/></g><g class="cls-41"><path class="cls-42" d="M1526.19,2378.13c43.25.51,86.72-2.23,129.9-.22C1612.4,2385.62,1569.77,2378.64,1526.19,2378.13Z"/></g><g class="cls-41"><path class="cls-42" d="M1631,2533.56c43.25.51,86.72-2.23,129.9-.22C1717.22,2541.05,1674.58,2534.07,1631,2533.56Z"/></g><g class="cls-41"><path class="cls-42" d="M1532.69,2575.42c43.25.51,86.72-2.23,129.9-.22C1618.91,2582.91,1576.27,2575.93,1532.69,2575.42Z"/></g><rect class="cls-34" x="3109.01" y="2326.08" width="189.34" height="272.02"/><rect class="cls-39" x="3298.35" y="2326.08" width="110.58" height="272.02"/><line class="cls-36" x1="3109.01" y1="2381.58" x2="3408.93" y2="2381.58"/><line class="cls-36" x1="3109.01" y1="2368.86" x2="3408.93" y2="2368.86"/><line class="cls-36" x1="3109.01" y1="2351.9" x2="3408.93" y2="2351.9"/><line class="cls-36" x1="3109.01" y1="2401.37" x2="3408.93" y2="2401.37"/><line class="cls-36" x1="3109.01" y1="2422.57" x2="3408.93" y2="2422.57"/><line class="cls-36" x1="3109.01" y1="2438.82" x2="3408.93" y2="2438.82"/><line class="cls-36" x1="3109.01" y1="2449.42" x2="3408.93" y2="2449.42"/><line class="cls-36" x1="3109.01" y1="2492.52" x2="3408.93" y2="2492.52"/><line class="cls-36" x1="3109.01" y1="2507.53" x2="3408.93" y2="2507.53"/><line class="cls-36" x1="3109.01" y1="2531.38" x2="3408.93" y2="2531.38"/><line class="cls-36" x1="3109.01" y1="2545.47" x2="3408.93" y2="2545.47"/><line class="cls-40" x1="3109.01" y1="2595.51" x2="3408.93" y2="2595.51"/><line class="cls-36" x1="3109.01" y1="2580.67" x2="3408.93" y2="2580.67"/><line class="cls-36" x1="3109.01" y1="2574.84" x2="3408.93" y2="2574.84"/><line class="cls-36" x1="3109.01" y1="2560" x2="3408.93" y2="2560"/><line class="cls-36" x1="3308.22" y1="2520.78" x2="3399.38" y2="2520.78"/><line class="cls-36" x1="3109.01" y1="2464.96" x2="3408.93" y2="2464.96"/><g class="cls-41"><path class="cls-42" d="M3128,2466c38.12.54,76.44-2.37,114.51-.24C3204,2473.93,3166.44,2466.53,3128,2466Z"/></g><g class="cls-41"><path class="cls-42" d="M3087.55,2382.61c38.12.54,76.45-2.37,114.51-.23C3163.55,2390.55,3126,2383.15,3087.55,2382.61Z"/></g><g class="cls-41"><path class="cls-42" d="M3180,2547.5c38.12.55,76.44-2.36,114.51-.23C3256,2555.45,3218.37,2548.05,3180,2547.5Z"/></g><g class="cls-41"><path class="cls-42" d="M3093.28,2591.91c38.13.55,76.45-2.36,114.51-.23C3169.29,2599.86,3131.7,2592.46,3093.28,2591.91Z"/></g><rect class="cls-34" x="3387.53" y="2409.45" width="189.34" height="166.68"/><rect class="cls-43" x="3576.86" y="2409.45" width="110.58" height="166.68"/><line class="cls-36" x1="3387.53" y1="2464.96" x2="3687.44" y2="2464.96"/><line class="cls-36" x1="3387.53" y1="2452.24" x2="3687.44" y2="2452.24"/><line class="cls-36" x1="3387.53" y1="2435.28" x2="3687.44" y2="2435.28"/><line class="cls-36" x1="3387.53" y1="2484.75" x2="3687.44" y2="2484.75"/><line class="cls-36" x1="3387.53" y1="2505.94" x2="3687.44" y2="2505.94"/><line class="cls-36" x1="3387.53" y1="2522.2" x2="3687.44" y2="2522.2"/><line class="cls-36" x1="3387.53" y1="2532.79" x2="3687.44" y2="2532.79"/><line class="cls-36" x1="3387.53" y1="2575.9" x2="3687.44" y2="2575.9"/><line class="cls-36" x1="3387.53" y1="2548.34" x2="3687.44" y2="2548.34"/><g class="cls-41"><path class="cls-42" d="M3406.53,2549.36c38.13.54,76.45-2.36,114.51-.23C3482.54,2557.31,3445,2549.91,3406.53,2549.36Z"/></g><g class="cls-41"><path class="cls-42" d="M3366.06,2466c38.13.55,76.45-2.36,114.51-.23C3442.07,2473.93,3404.48,2466.53,3366.06,2466Z"/></g><path class="cls-44" d="M2125.84,2586.81c11.48.49,23,2.85,34.5,5.29q22.83,4.84,46.11,7.74c14.33,1.79,29.28-.07,43.4,2.59,9.83,1.94,19.35,6.32,25.93,14.17,15.6,18.62,13.79,53.21,4,76.47-6,14.12-16.5,26.63-29.67,32.4s-27.78,4.41-40.78.26-25-10.92-37.73-15.87c-18.77-7.29-39.08-9-57.79-15.83l-1.7-.62c-18.09-6.61-31.63-17-43.54-32.88-4.16-5.55-7.78-11.87-8.92-19.12-2.44-15.49,7.21-32,19.79-41.26C2094.48,2589,2110.09,2586.15,2125.84,2586.81Z"/><path class="cls-45" d="M2198.08,2616.84c.57-1.39,1.17-2.76,1.79-4.12,1.34-2.94,3.44-9.9,6.18-11.75,3-2.07,9-.41,12.68-.3,10.38.3,20.86-.18,31.12,1.76,9.83,1.94,19.35,6.32,25.93,14.17,15.6,18.62,13.79,53.21,4,76.47-6,14.12-16.5,26.63-29.67,32.4-8.22,3.61-17.29,4.47-26.15,3.48-9.6-1.08-14.38-3.24-20.28-10.76-10.55-13.42-14.8-30.92-15.38-47.71A128.88,128.88,0,0,1,2198.08,2616.84Z"/><path class="cls-46" d="M2126.16,2610.74c9.1,5.34,18.41,10.89,24.76,19.7s9.16,21.77,4.08,32.54a30.68,30.68,0,0,1-16.91,15.12c-7,2.62-19.08,4.91-25.43,1-14.77-9-28.15-18.88-28.76-37.93a45.19,45.19,0,0,1,2.92-17.53,27.54,27.54,0,0,1,7.87-11.61c5.87-4.76,13.51-5.27,20.47-4.71A26.4,26.4,0,0,1,2126.16,2610.74Z"/><path class="cls-47" d="M2198.08,2616.84c.57-1.39,1.17-2.76,1.79-4.12,1.34-2.94,3.44-9.9,6.18-11.75,3-2.07,9-.41,12.68-.3,10.38.3,20.86-.18,31.12,1.76,9.83,1.94,19.35,6.32,25.93,14.17,9.36,11.16,18.63,43.29,9.79,56.88-9.31,14.32-43.73,9.62-57.16,4.61a89.66,89.66,0,0,1-14.76-7.23C2190.87,2657.18,2188.44,2640.08,2198.08,2616.84Z"/><path class="cls-44" d="M1573.32,2706.11c-11,3.22-22.73,4.67-34.37,6q-23.19,2.71-46.17,7.41c-14.15,2.89-27.72,9.44-41.94,11.43-9.94,1.31-20.37.2-29.11-5.13-20.73-12.65-30.09-46-28.24-71.18,1.12-15.28,7.11-30.51,17.74-40.19s24.91-13.06,38.57-13.28,27.18,2.34,40.82,3c20.11.91,39.89-4,59.81-3.48l1.81.05c19.25.47,35.41,6,51.76,17.22,5.73,3.93,11.18,8.76,14.58,15.27,7.27,13.89,3.39,32.58-5.56,45.41C1602.33,2694,1588.46,2701.7,1573.32,2706.11Z"/><path class="cls-45" d="M1495.28,2700.77c-.1,1.49-.23,3-.38,4.47-.33,3.22-.1,10.49-2.1,13.12-2.23,2.93-8.43,3.27-11.92,4.34-9.93,3-19.7,6.83-30,8.28-9.94,1.31-20.37.2-29.11-5.13-20.73-12.65-30.09-46-28.24-71.18,1.12-15.28,7.11-30.51,17.74-40.19a51,51,0,0,1,23.67-11.66c9.44-2.05,14.66-1.52,22.66,3.71,14.28,9.34,23.91,24.57,29.83,40.29A129.11,129.11,0,0,1,1495.28,2700.77Z"/><path class="cls-46" d="M1565.36,2683.55c-10.32-2.15-20.91-4.43-29.75-10.75s-15.64-17.7-14.27-29.52a30.64,30.64,0,0,1,11.18-19.74c5.77-4.71,16.51-10.75,23.77-9.1,16.89,3.85,32.71,8.9,39.38,26.75a44.88,44.88,0,0,1,2.84,17.54,27.48,27.48,0,0,1-3.74,13.52c-4,6.39-11.11,9.31-17.89,11A26.36,26.36,0,0,1,1565.36,2683.55Z"/><path class="cls-47" d="M1464.25,2678.56c-9.61,13-25,21.74-41.19,21.93-26.8.32-31.15-24.25-29.57-45.82,1.12-15.28,7.11-30.51,17.74-40.19a51,51,0,0,1,23.67-11.66c9.44-2.05,14.66-1.52,22.66,3.71,20.6,13.48,21.84,43.76,11.36,64.46A53.48,53.48,0,0,1,1464.25,2678.56Z"/><path class="cls-48" d="M1442,2651.78c-11,8.78-26,12.65-38.08,5.87-17-9.54-2.23-34.49,7.3-43.17,13.28-12.09,41.45-21.07,45.91,4.35C1459.28,2631,1452.37,2643.54,1442,2651.78Z"/><path class="cls-49" d="M1806.89,2080.36a373.33,373.33,0,0,0,30.95-31.52c38.07-43.74,55.36-118,61.34-174,3.17-29.66,1.21-63.94-21.77-83-29.79-24.66-69.86-5.44-93.38,19.15-26.23,27.44-46.46,67.11-60.68,101.83-4.31,10.53-10.19,20.61-14.1,32.41-4.23,12.74-8.69,25.41-14.07,37.71-10.59,24.22-24.7,46.75-44.07,64.93-32,30-66.17,58.67-49.92,107.14,19,56.74,63.75,16.8,96.93-.8C1737.51,2133.35,1774.38,2109.82,1806.89,2080.36Z"/><path class="cls-50" d="M1759.07,1657.6c12.28,42.64,40.49,91.35,88.36,98.91,43.1,6.81,88.41-20.83,107.52-58.52,7.67-15.13,11-30,22-43.72,5.34-6.66,7-20.2,7.11-28.52.14-10.52-2.52-20.92-6.52-30.58a125,125,0,0,0-37.33-49.28,120.88,120.88,0,0,0-171.45,22.92c-19.8,26.75-19.15,53.25-11,84.22C1758.2,1654.54,1758.63,1656.07,1759.07,1657.6Z"/><path class="cls-46" d="M1767.4,1651.6c12.22,42.65,40.08,91.43,87.07,99.17,42.32,7,86.68-20.48,105.29-58.07,7.47-15.09,10.71-30,21.42-43.6,5.22-6.64,6.79-20.17,6.87-28.48.1-10.5-2.55-20.91-6.51-30.58a126,126,0,0,0-36.82-49.38,116.92,116.92,0,0,0-168.14,22.26c-19.34,26.65-18.59,53.13-10.44,84.1C1766.54,1648.54,1767,1650.07,1767.4,1651.6Z"/><g class="cls-51"><path class="cls-52" d="M1988.26,1615.82a6.15,6.15,0,0,0,5.57-2.59,16.9,16.9,0,0,0,2.53-6.39c1.51-6.32,2.77-12.71,3.77-19.13,1-6.79.3-12.18-1.13-18.89a225.84,225.84,0,0,0-11.25-36.94c-34-84.77-148.55-79.42-212.06-33.11-24.83,18.1-37.69,44.92-33.89,75.55,2.85,23,16.92,41.6,42,37.28a244.81,244.81,0,0,0,80-28.8c6.17-3.53,12.28-7.38,19.14-9.24s14.78-1.4,20.3,3.07a28.7,28.7,0,0,1,6.56,8.52c5.28,9.43,8.51,19.83,13.86,29.23,4.48,7.88,9.39,15.37,17.59,4.91,3.2-4.09,5.2-9.24,9.34-12.37a19.07,19.07,0,0,1,8.53-3.33,18.36,18.36,0,0,1,11.72,1.41c4.08,1.89,8.37,2.49,11.61,5.94,1.67,1.77,3,4.14,5.36,4.78Z"/></g><path class="cls-44" d="M1981.26,1636.07c-2,5.93-4.5,11.74-6.29,17.75a6.09,6.09,0,0,0-.32,3.44c1.07,3.69,6.77,2.44,9.54-.23,6.22-6,7-13.48,10-21.08,13.53-34.61,4.87-80.9-8.65-114.55-34-84.77-148.55-79.43-212.06-33.12-24.83,18.11-37.69,44.92-33.89,75.56,2.85,23,16.92,41.6,42,37.28a245,245,0,0,0,80-28.8c6.17-3.54,12.28-7.39,19.14-9.24s14.78-1.41,20.3,3.06a28.62,28.62,0,0,1,6.56,8.53c5.28,9.42,8.51,19.83,13.86,29.23,4.48,7.87,9.39,15.37,17.59,4.9,3.2-4.09,5.2-9.24,9.34-12.37a19.19,19.19,0,0,1,8.53-3.33c21.47-3.49,31.11,15.4,26.93,34.08A82.9,82.9,0,0,1,1981.26,1636.07Z"/><path class="cls-53" d="M1996,1610.25c8.38,4.61,3.67-35.11,2.9-40.19a218.51,218.51,0,0,0-13.39-48.66c-12.67-31.56-39.32-53.4-72-61.85-23.17-6-85.43-15.23-83.36,21.44a210,210,0,0,0,3.13,26.11c1.74,9.42,4.45,19.29,11.54,25.72,9.56,8.68,23.88,8.53,36.78,9s27.78,3.21,34,14.55c2.91,5.33,3.52,12.08,8,16.22,6.51,6.06,16.8,3.11,25.67,2.55,18-1.14,36.08,10.72,42.2,27.71C1992.48,1605.61,1993.42,1608.81,1996,1610.25Z"/><path class="cls-54" d="M1854,1626.67c.6-2.86,3.71-5.71,6.52-5.14,2.18.44,4,3.19,5.31,5.22,2.77,4.35,4.13,10.53-1.57,12a6.19,6.19,0,0,1-3.9-.5C1856.26,1636.48,1853,1631.33,1854,1626.67Z"/><path class="cls-54" d="M1775.6,1643.22c.6-2.86,3.71-5.7,6.52-5.13,2.18.44,4,3.19,5.31,5.21,2.77,4.36,4.13,10.53-1.57,12a6.18,6.18,0,0,1-3.9-.49C1777.84,1653,1774.61,1647.88,1775.6,1643.22Z"/><path class="cls-55" d="M1932,1626.73c6.26,6.31,9.81,15.3,8,26.76-3.64,23.81-30.7,34.74-50.81,22.68-18.54-11.11-25.06-41.1-5.45-54.44C1898,1612.07,1920,1614.64,1932,1626.73Z"/><path class="cls-55" d="M1794.18,1667.89a29.8,29.8,0,0,1,5.54,7.24,31.63,31.63,0,0,1,2.15,24.68c-1.43,4.42-6.2,14.47-10.66,6.58a323.34,323.34,0,0,1-19.84-41.85c-2.93-7.53,4.78-6.1,9.35-4.59A35.23,35.23,0,0,1,1794.18,1667.89Z"/><path class="cls-56" d="M1865.4,1590.75a2.3,2.3,0,0,0-.74-1.49c-1.34-1.28-4-1-5.35-1.07-6.19-.16-13.88,1.49-18.86,5.46a5.85,5.85,0,0,0-1.71,2c-.63,1.32-.23,4.31,1.64,3.85.49-.11,1-1,1.37-1.35a15.65,15.65,0,0,1,2.25-1.49,27.9,27.9,0,0,1,6.44-2.84,47,47,0,0,1,13.73-1.44A1.37,1.37,0,0,0,1865.4,1590.75Z"/><path class="cls-56" d="M1788.91,1610.37a1.28,1.28,0,0,0-.57-1.06c-2.17-1.69-7.45-1.38-10-1.22a31.64,31.64,0,0,0-10.52,2.52,8,8,0,0,0-2.43,1.48c-.6.59-1.85,2.67-.83,3.29.66.4,2-.5,2.6-.74a38.23,38.23,0,0,1,6.66-2.05,64.88,64.88,0,0,1,13.72-1.06A1.34,1.34,0,0,0,1788.91,1610.37Z"/><path class="cls-57" d="M1821.2,1657.29c2.21.5,4.62,1.12,6,2.94a6.42,6.42,0,0,1,.86,5.24,15.82,15.82,0,0,1-2.35,4.92,2.74,2.74,0,0,1-1.52,1.37,2.55,2.55,0,0,1-1.66-.41,19.83,19.83,0,0,1-9.1-10.09c-.61-1.48-2-4.36,0-5.34C1815.19,1655.05,1819.37,1656.87,1821.2,1657.29Z"/><path class="cls-56" d="M1812.43,1655.55a41.24,41.24,0,0,0,11.42,16.65"/><path class="cls-56" d="M1812.43,1655.55a23.62,23.62,0,0,1,4.14,3.58,35.82,35.82,0,0,1,3,3.75A33,33,0,0,1,1822,1667a22.41,22.41,0,0,1,1.83,5.17,11.17,11.17,0,0,1-5.36-2,15.3,15.3,0,0,1-6.1-8.86A11.22,11.22,0,0,1,1812.43,1655.55Z"/><path class="cls-55" d="M1843.36,1677.28a1.94,1.94,0,0,1,.16-1.57c.86-1.63,3.65-2.45,5.06-3,6.29-2.59,14.85-4.21,21.56-2.77a6.44,6.44,0,0,1,2.56,1c1.17.88,2,3.61-.13,4-.55.09-1.42-.49-2-.62a19,19,0,0,0-2.91-.39,35.91,35.91,0,0,0-7.76.11,61.12,61.12,0,0,0-14.68,4.19A1.48,1.48,0,0,1,1843.36,1677.28Z"/><path class="cls-58" d="M1855.94,1743.58c-5.65-1.92-16.47-8.42-6.66-12.31,4.89-1.94,10.32-1.57,15.43-2.42a53,53,0,0,1,8.14-.94,27,27,0,0,1,15.78,4.89c2.61,1.84,5.88,5.83,3.33,9.09-1.64,2.08-6,2.33-8.41,2.87A50.92,50.92,0,0,1,1855.94,1743.58Z"/><path class="cls-55" d="M1961.44,1616.54c1.16-2.49,3.42-4.79,6.16-4.77a6.21,6.21,0,0,1,5.18,3.52,12.34,12.34,0,0,1,1.06,6.42,24.58,24.58,0,0,1-2.4,9.13C1965.87,1642.38,1958.3,1623.3,1961.44,1616.54Z"/><path class="cls-59" d="M1843.36,1675.8a1.92,1.92,0,0,1,.16-1.56c.86-1.64,3.65-2.46,5.06-3,6.29-2.59,14.85-4.21,21.56-2.77a6.3,6.3,0,0,1,2.56,1c1.17.87,2,3.6-.13,4-.55.09-1.42-.49-2-.63a20.33,20.33,0,0,0-2.91-.38,35.91,35.91,0,0,0-7.76.11,61.12,61.12,0,0,0-14.68,4.19A1.48,1.48,0,0,1,1843.36,1675.8Z"/><path class="cls-60" d="M1725.44,2139.39q2.61-13.29,5.08-26.61c16.72-89.54,33.07-180.14,62.41-266.31,5.85-17.18,10.21-46,29-54.53,13.61-6.15,31.37-.5,46-4.37,13.09-3.46,25.13-10,37.62-15.17,53.24-22.25,108.41-14.57,156.4,16.21,44.11,28.28,62.79,69.31,64.73,120.65,4.86,128.89-32.72,254.62-26.83,384,.74,16.22,2.35,33.42,12.1,46.4,8.39,11.16,23.2,22,18.59,35.22-2.46,7-9.77,10.92-16.46,14.17l-134.43,65.17c-22.92,11.11-47.29,22.51-72.67,20.26-13.55-1.2-26.42-6.25-39.07-11.25l-247.76-97.93c21.62-28.32,49.91-56.73,66.75-88.09,8.33-15.5,13.16-32.51,18-49.64C1713.16,2198.52,1719.62,2169,1725.44,2139.39Z"/><path class="cls-61" d="M1725.44,2139.39q2.61-13.29,5.08-26.61c16.72-89.54,33.07-180.14,62.41-266.31,5-14.64,8.24-44.15,24.25-51.74,22.33-10.58,27.85,47.83,31.59,65.55,15.39,72.84,21.18,148,45.14,218.51s70.51,138.38,140.36,164.15c12.37,4.57,25.36,7.78,36.82,14.33,35.51,20.28,20,54.58,40.92,82.4,8.39,11.16,23.2,22,18.59,35.22-2.46,7-9.77,10.92-16.46,14.17l-134.43,65.17c-22.92,11.11-47.29,22.51-72.67,20.26-13.55-1.2-26.42-6.25-39.07-11.25l-247.76-97.93c21.62-28.32,49.91-56.73,66.75-88.09,8.33-15.5,13.16-32.51,18-49.64C1713.16,2198.52,1719.62,2169,1725.44,2139.39Z"/><path class="cls-62" d="M1750.11,2224.63a132,132,0,0,1,13.89-3.17c39.78-6.94,78-9.32,103.07,27.24,11,16.1,17.4,34.87,23.63,53.37q13.14,39,26.29,78.08c2.13,6.33,4.36,12.83,8.71,17.9,9.66,11.23,26.48,12.18,41.28,11.53a443.89,443.89,0,0,0,97-15.14c1.11,23.19-8.68,23.15-28.89,32.94-18.45,8.95-37,17.76-55.37,26.85-22.92,11.11-47.29,22.51-72.67,20.26-13.55-1.2-26.42-6.25-39.07-11.25l-247.76-97.93c21.62-28.32,49.91-56.73,66.75-88.09C1701.68,2249.81,1721.65,2232.78,1750.11,2224.63Z"/><path class="cls-63" d="M1959.4,2010.14a322.17,322.17,0,0,1-34.28-66.14,250.12,250.12,0,0,1-12.82-130.47c5.81-34,19.6-53.82,54.44-53.91,34-.08,66.77,10.71,95.28,29,44.1,28.28,62.78,69.31,64.72,120.65,2.13,49-1.72,98.06-7.69,146.68-3,24.37-6.53,48.66-10.16,72.95-3.22,21.53-3.59,44.48-11.78,64.91-6.82,17-18.69,31.39-29.69,46a572.33,572.33,0,0,0-46,71.82c-6.9,12.79-11.38,16.21-25.62,12.86-2.18-.51-4.57-1.33-5.55-3.35-.89-1.84-.28-4,.34-6,10.27-32.58,16-65.74,23.3-98.88,6.81-30.86,26.47-60.68,22.26-93.28-2.88-22.33-17.14-41.46-32.43-58C1986.87,2046.83,1972.17,2029.09,1959.4,2010.14Z"/><path class="cls-64" d="M2027.63,1977.34c-19.59-27.46-34.63-57.58-41.6-92.26a242.54,242.54,0,0,1-3.3-75.5c1.28-11.14,2-27,7.61-36.91,6.68-11.92,17.33-8.29,28.17-4.78a188.69,188.69,0,0,1,43.51,20.72c44.1,28.28,62.78,69.31,64.72,120.65,2.13,49-1.72,98-7.69,146.67-2.93,23.83-37-16.39-42.53-22C2058.7,2016,2042,1997.4,2027.63,1977.34Z"/><path class="cls-65" d="M1935.36,2640c28.87,10.26,57.18,22.21,86.47,30.51,15.86,4.49,28.84,6.19,44.1,14.26,14,7.41,32.7,19.21,48.09,8.77,18.49-12.54,24.86-58.82,28.48-80,7.58-44.45-19.95-46.83-51.43-59.8L1977.69,2507c-68.79-28.34-137.65-56.71-204.41-90.53-57-28.87-115.89-56.65-177.81-69.34-29.43-6-64-10.59-92.5,3.7-42.91,21.55-48,87.4-19.87,122.79,32.44,40.77,81,60.09,125.82,77.44,31.76,12.29,63.56,24.58,96.08,34.14,62,18.19,126,26.27,188.54,41.87C1907.72,2630.55,1921.6,2635.06,1935.36,2640Z"/><path class="cls-66" d="M2139.46,2631.48c1.27-5.93,2-12,3-18,7.58-44.45-19.95-46.83-51.43-59.8L1977.69,2507c-68.79-28.34-137.65-56.71-204.41-90.53-57-28.87-115.89-56.65-177.81-69.34-29.43-6-64-10.59-92.5,3.7a62.17,62.17,0,0,0-22.79,19.73c.72-1,28.66,11.35,31.49,12.47q15.74,6.26,31.44,12.56,74.72,29.94,149,60.83t148.2,62.4q74,31.56,147.7,63.72,36.92,16.08,73.77,32.28,18.45,8.1,36.89,16.23c11.25,4.95,23.95,9,33.69,16.37.36.27.81.56,1.22.38a1.34,1.34,0,0,0,.55-.64A61.49,61.49,0,0,0,2139.46,2631.48Z"/><path class="cls-67" d="M1478.07,2373.23l21.21,6.82,21.07,7.21,21,7.48,20.9,7.71c27.79,10.51,55.37,21.57,82.79,33s54.72,23.1,82,34.72,54.55,23.38,82,34.77,54.72,23.07,82,34.77,54.52,23.53,81.67,35.56,54.26,24.12,81.31,36.37l40.48,18.58,20.21,9.34,20.16,9.46-164-69.45-82-34.63q-41-17.31-82.1-34.47t-81.89-35.09l-81.6-35.64c-27.24-11.76-54.54-23.4-82-34.55l-20.64-8.32-20.73-8.1L1499,2380.9Z"/><path class="cls-68" d="M1471.46,2407.82c-1.2,36.42,26.78,71.59,67.37,49.16,16.08-8.89,28.87-22.16,41.71-35.09,8.08-8.14,15.49-17.42,18.82-28.39,10.76-35.38-29.29-52.26-58-49.81-26,2.21-49.84,12.1-62.65,36.34A64,64,0,0,0,1471.46,2407.82Z"/><path class="cls-69" d="M1753.34,2664.81c-29.25,9.69-58,21.08-87.61,28.8-16,4.18-29.06,5.62-44.63,13.39-14.28,7.12-33.42,18.56-48.41,7.81-18-12.9-22.6-59.28-25.4-80.57-5.88-44.58,21.74-46.41,53.7-58.76L1716.11,2531c69.85-27,139.77-54,207.8-86.46,58.07-27.74,118-54.35,180.39-65.82,29.65-5.44,64.44-9.32,92.33,5.53,42.07,22.39,44.66,88.31,15.16,123.13-34,40.12-83.24,58.48-128.73,74.94-32.22,11.65-64.48,23.32-97.35,32.22-62.63,17-127,23.78-190.07,38.14C1781.33,2656,1767.28,2660.2,1753.34,2664.81Z"/><path class="cls-65" d="M1729.57,2597.91c-56.55,21.82-113.3,43.4-168.41,67.84-1.5.66-5.62,2.61-7.12,2.13-1-.33-1.57-1.49-1.91-2.53a67.9,67.9,0,0,1-2.13-10.1c-1-6.5-2.67-13.19-3.12-19.75-1.07-15.5-.78-32.05,12.63-42.39,11.85-9.15,27.76-12.33,41.48-17.63L1716.11,2531c69.85-27,139.77-54,207.8-86.46,58.07-27.74,118-54.35,180.39-65.82,29.65-5.44,64.44-9.32,92.33,5.53,13,6.92,27.94,19.08,7,27.32l-200.91,79.05-228.32,89.84Q1752,2589.28,1729.57,2597.91Z"/><path class="cls-67" d="M2220.66,2407.21l-21.21,7.26-21.13,7.44-21,7.69-21,7.92c-27.91,10.61-55.64,21.71-83.32,32.93l-82.92,34q-41.46,17-83.19,33.46-41.73,16.3-83.39,32.84l-83.33,33-166.61,66.17,20.5-9.06,20.55-8.93,41.16-17.77q41.23-17.58,82.64-34.75c27.59-11.5,55.29-22.7,83-33.94s55.5-22.17,83.3-33.14,55.53-22,83.25-33.13,55.45-22.3,83.33-33.09,55.84-21.38,84-31.34l21.2-7.3,21.28-7.07,21.36-6.8Z"/><path class="cls-70" d="M2119.71,2382.07c-18.89,6.26-31.8,23.62-30,43.84.8,9,4,17.54,7.62,25.76a209,209,0,0,0,29.72,48c29.57,35.8,78.67,17.49,94.53-22.08,9.56-23.84,4.13-50.22-12.19-69.79C2189,2383.35,2150,2372,2119.71,2382.07Z"/><path class="cls-71" d="M1599.43,2578.2c-8,2.31-16.2,3.67-24,6.37s-15.47,7-20.23,13.76c-3,4.27-4.69,9.29-6.34,14.23-.73,2.18-2.22,4.05-2.18,6.35.06,4.12,1.85,11.79,5.81,14.08s12,.43,16.23-.29c11.79-2,23-6.7,33.88-11.38,30.56-13.09,61.15-26.19,90.59-41.63,21.24-11.14,41.83-23.47,62.88-35,76.86-42,159.25-72.81,240.7-105.07,34.4-13.62,69.75-28,97.92-52.67,2-1.76,8.71-4.48,8.2-7.59a.7.7,0,0,0-.63-.08c-13.87,4.68-27.63,6.39-42,9.15"/><path class="cls-72" d="M1815.39,1945c-.68,36.18,1.42,72.45-1.46,108.51-2.19,27.37-7.24,54.41-12.28,81.4q-8.22,44.05-16.45,88.11c5.09,4.93,12.89-1.94,16.38-8.12A564.44,564.44,0,0,0,1871.81,1991c2.11-22.35,2.87-44.79,3.16-67.22.24-19-4.42-46,5.21-63.42,5.91-10.68,18.25-15.71,29.52-20.42,16.57-6.92,33-14.91,46.56-26.67s24.21-27.73,26.49-45.55c.63-5-.36-11.43-5.21-12.73-2.83-.76-5.74.7-8.33,2.1a598.29,598.29,0,0,1-85.6,37.87c-10.42,3.67-21.1,7.12-30.22,13.35s-14.39,14.2-17.22,24.61c-3.11,11.47-8.36,22.7-11.53,34.43C1817.81,1892.63,1815.88,1918.93,1815.39,1945Z"/><path class="cls-73" d="M1805.86,1945c-.69,36.18,1.42,72.45-1.46,108.51-2.19,27.37-7.24,54.41-12.28,81.4q-8.22,44.05-16.45,88.11c5.09,4.93,12.89-1.94,16.38-8.12A564.48,564.48,0,0,0,1862.28,1991c3.31-35.1,3.32-70.42,3.32-105.68,0-18.59-12.89-97.08-36.11-54.48C1810.67,1865.36,1806.59,1906.35,1805.86,1945Z"/><path class="cls-74" d="M1819.22,1812c-1.23-4.42-1.64-9.34.44-13.42,1.73-3.39,5-5.76,8.3-7.61a49.15,49.15,0,0,1,30.77-5.59c6.66,1,14.06,4.4,15.43,11,.93,4.49-1.28,9-3.67,12.9a102.49,102.49,0,0,1-10.39,14c-5.57,6.33-15.57,14.68-24.8,11C1827.33,1831.09,1821.36,1819.76,1819.22,1812Z"/><path class="cls-75" d="M1852.74,1776.35c-.84-.23-1.67-.49-2.5-.77-4.07-1.39-8.23-3.39-12.47-2.66-3.27.57-6,2.69-8.63,4.74L1815,1788.83c-4.11,3.25-8.42,6.76-10.16,11.71-2.06,5.86.06,11.94,2,17.53.92,2.69,1.08,7.64,4,9.11,4.45,2.26,9-6.07,11.06-8.67q6.33-7.86,12.16-16.13c3.06-4.34,6.2-12.05,11.22-14.42,7.91-3.71,20.93,45.22,23.82,51.12,1,2,2.22,4.08,4.3,4.81,1.68.6,3.52.17,5.24-.28,22.59-6,43.49-17.44,62-31.64,13.91-10.7,39.41-29.08,43.24-47.38,3.53-16.84-13.86-21.45-26.12-16.51L1912,1766.44C1893.1,1774.07,1872.2,1781.78,1852.74,1776.35Z"/><path class="cls-76" d="M1852.74,1776.35c-.84-.23-1.67-.49-2.5-.77-4.07-1.39-8.23-3.39-12.47-2.66-3.27.57-6,2.69-8.63,4.74L1815,1788.83c-4.11,3.25-8.42,6.76-10.16,11.71-2.06,5.86.06,11.94,2,17.53.92,2.69,1.08,7.64,4,9.11,4.45,2.26,9-6.07,11.06-8.67q6.33-7.86,12.16-16.13c3.06-4.34,6.2-12.05,11.22-14.42,7.91-3.71,20.93,45.22,23.82,51.12,1,2,2.22,4.08,4.3,4.81,1.68.6,3.52.17,5.24-.28,15-4,24.13-12.1,30.52-26.41,6.11-13.68,11.2-28.78,8-43.41-3-13.75-19.34-1.54-28.47,1C1877,1778,1864.57,1779.65,1852.74,1776.35Z"/><path class="cls-20" d="M2187.79,2348.51c-.1-8.83-2.74-7.75-11.17-9.08l-22.41-3.59c-29.6-4.73-59.57-9.46-89.65-8.05a170.08,170.08,0,0,0-40.74,7.06c-10.46,3.07-21,4.21-28.42,13.32-2.56,3.15-4.43,7.43-3,11.23,3.66,9.73,23.42,12.45,32.11,14.66,10.4,2.64,20.52,2.08,31.19,1.46a473,473,0,0,0,132.09-27Z"/><path class="cls-46" d="M2041.51,2326.48c-5.88-1.74-11.72-3.74-16.7-7.62a84.35,84.35,0,0,0-42.52-17.71c-5.64-.62-11.58-.54-16.6,2.7-4,2.56-7,6.87-9.66,11.32a128,128,0,0,0-15.61,41.49c-.61,3.18-1.1,6.61-.08,9.61,1.39,4.08,5,6.08,8.36,7.71,9.78,4.79,19.67,9.61,30.08,11.55,16,3,25.17-8.35,40.48-8.79q16-.47,32,0c7.56.22,16.56-.3,20.57-8.23,2.3-4.53,2.19-10.37,1-15.52C2068.32,2333,2054.79,2330.41,2041.51,2326.48Z"/><path class="cls-77" d="M2192,2342.73l-.29-.07c-5.73-1.31-11.7,1.22-17.2,2.53-25.41,6.08-50.6,13.23-76.44,17.33-27.36,4.35-71.59,16.59-95-4.44-11.52-10.34-16.77-27.49-23.12-41.23-8.51-18.41-15.9-37.41-23.16-56.35-14.37-37.51-27.45-75.51-42.34-112.82-15.93-39.89-30.29-81.24-50.13-119.38-23-44.22-68.49-67.58-118.11-65.1-45.35,2.27-85.89,56.92-75.5,101.12,3.09,13.18,10.09,25.07,17.13,36.63,61.64,101.27,135.06,196.69,227,271.52,16.56,13.48,34.45,26.62,55.37,30.84,12,2.42,24.47,1.75,36.71.76A727.33,727.33,0,0,0,2180,2368.49c6.4-2.15,13.16-4.67,17.17-10.11C2201.33,2352.77,2198.65,2344.47,2192,2342.73Z"/><path class="cls-78" d="M2192,2342.73l-.29-.07c-5.73-1.31-11.7,1.22-17.2,2.53-25.41,6.08-50.6,13.23-76.44,17.33-6,1-25.18,1.17-29.32,5.11-5.33,5.07-.92,20.26,4.41,24.25,7.66,5.73,21.4-.26,29.93-2.12a725.65,725.65,0,0,0,77-21.27c6.4-2.15,13.16-4.67,17.17-10.11C2201.33,2352.77,2198.65,2344.47,2192,2342.73Z"/><path class="cls-79" d="M2202.21,2370.13c-3.56,9.56-11.2,18.16-19.36,24.07-11.83,8.58-26,13.33-40,17a519.73,519.73,0,0,1-52.09,10.93,653.59,653.59,0,0,1-105.23,7.51c-89.2-.45-177.58-15.7-264.82-33.16q-72.84-14.6-144.36-35.09c-37.79-10.84-75.72-19.18-104.86-47.84-35.71-35.12-52.85-83.21-67-130.2-14.61-48.48-31.17-96.41-41-146.11-3.59-18.11-6.48-37.93,2.19-54.22,14.54-27.31,51.81-30,82.63-29.07l266.7,7.66c25.43.73,52.08,1.79,74.06,14.66s36.15,35.81,48.3,58.34c29.86,55.39,53.28,114,75.54,172.75,13.3,35.14,25.31,70.8,40.06,105.37,10,23.43,22,64.34,48.31,74,11.22,4.13,23.48,4.13,35.41,3.53,48.23-2.41,95.39-13.17,140.74-29.28a34.29,34.29,0,0,0,8.73-4.46l6.23-4.41c2-1.42,4.17-2.9,6.64-3.1s4.25,6.55,4.64,8.5A23.45,23.45,0,0,1,2202.21,2370.13Z"/><path class="cls-80" d="M1429.76,2189.33c-13.36-45-28.49-89.43-37.51-135.53-3.28-16.8-5.92-35.18,2-50.29,13.31-25.34,47.41-27.8,75.61-27,39.75,0,79.64,2.3,119.37,3.44,38.29,1.1,81-2.55,118.31,4.08a8.35,8.35,0,0,1-4.4,6.23c-61.12,27.2-129.62,42.62-179.21,87.92-44.85,41-68.48,104.6-61.41,165.37.43,3.66,1.22,8.84-.23,12.37-5.59,13.59-16.6-19-18.31-23.52C1438.61,2218.28,1434.06,2203.83,1429.76,2189.33Z"/><path class="cls-20" d="M2182.85,2394.2c-11.83,8.58-26,13.33-40,17a519.73,519.73,0,0,1-52.09,10.93,653.59,653.59,0,0,1-105.23,7.51c-79.61-.4-158.74-12.49-236.75-27.56q-88.18-17-174.89-40.86c-23.5-6.46-47.07-13.36-68.74-24.52s-41.54-26.91-54-47.85q27.3,5.77,54.59,11.61c78.47,16.74,156,37.53,234.6,53.46q35.63,7.23,71.43,13.54,24.48,4.32,49,8.13c37.35,5.79,75,10.18,112.75,11.85s75.78.61,113.28-4.61a477.52,477.52,0,0,0,55.7-11.08c17.85-4.69,35.83-9.36,51.14-19.92,1.62-1.12,3.52-2.29,5.45-1.85,2.17.49,3.39,2.79,4,4.92a23.62,23.62,0,0,1-4.06,21.63C2193.85,2383,2189.72,2389.23,2182.85,2394.2Z"/><circle class="cls-20" cx="1606.98" cy="2158.89" r="32.87"/><path class="cls-20" d="M1679.66,1979.53c2.06-.27,4.13-.49,6.19-.71s4.14-.37,6.22-.51c4.15-.32,8.31-.44,12.49-.48a149.09,149.09,0,0,1,25.15,1.87,111.2,111.2,0,0,1,12.5,2.75c2.06.57,4.11,1.25,6.15,1.93l3,1.16c1,.39,2,.77,3,1.24a94.41,94.41,0,0,1,22,13.71c1.62,1.42,3.29,2.8,4.85,4.27l4.59,4.52c1.45,1.58,2.86,3.19,4.28,4.79.73.78,1.39,1.62,2.06,2.45l2,2.51a154.28,154.28,0,0,1,13.75,21.33,183.6,183.6,0,0,1,17.12,47c-7.44-14.86-15-29.4-23.89-43a209,209,0,0,0-14.35-19.37,128.68,128.68,0,0,0-16.77-16.81l-1.11-1-1.18-.89-2.34-1.78c-.79-.57-1.54-1.23-2.37-1.74l-2.45-1.61-2.44-1.63-2.53-1.45c-1.66-1-3.44-1.83-5.17-2.73a117.37,117.37,0,0,0-22.35-8C1712.54,1983.29,1696.14,1981.63,1679.66,1979.53Z"/><path class="cls-20" d="M1464.88,1972.44c-14.1,2-28.13,3.31-42,5.06-6.8.9-13.42,2.12-19.08,4.69a25.8,25.8,0,0,0-12.83,11.75,32.2,32.2,0,0,0-3,8.59,48.58,48.58,0,0,0-1.07,9.5,69.54,69.54,0,0,0,.5,9.85c.2,1.65.45,3.25.75,5l.83,5.21c2.19,13.88,4.35,27.9,5.11,42.13-4.84-13.39-9.08-26.82-12.8-40.48-.91-3.44-1.85-6.76-2.59-10.49a66.13,66.13,0,0,1-1.29-11.19,55.31,55.31,0,0,1,.88-11.5,41.12,41.12,0,0,1,3.87-11.3,33.71,33.71,0,0,1,7.63-9.65,36.33,36.33,0,0,1,10.38-6.17,51.76,51.76,0,0,1,11.15-2.89,86.35,86.35,0,0,1,11-.88A255.11,255.11,0,0,1,1464.88,1972.44Z"/><path class="cls-20" d="M1877.06,2254.42a268.5,268.5,0,0,1,29.84,54.13c1,2.39,2,4.8,2.88,7.22a77.47,77.47,0,0,1,2.64,7.65,23.52,23.52,0,0,1,.83,9.33,18.14,18.14,0,0,1-.55,2.57c-.14.41-.28.86-.43,1.25l-.46,1.08a23,23,0,0,1-9.3,10.65,32,32,0,0,1-8.31,3.54,58.33,58.33,0,0,1-16.65,1.67,132.85,132.85,0,0,1-15.85-1.63l-15.16-2.43c-10.11-1.67-20.2-3.39-30.28-5.26-20.14-3.73-40.25-7.77-60.21-12.8,20.57.91,41,2.82,61.36,5,10.18,1.11,20.35,2.36,30.5,3.66l15.23,2a127.65,127.65,0,0,0,14.7,1.42,49.48,49.48,0,0,0,13.82-1.21,23.08,23.08,0,0,0,5.84-2.29,15.67,15.67,0,0,0,4.34-3.77,14.91,14.91,0,0,0,1.5-2.47l.32-.67.22-.55a8.48,8.48,0,0,0,.3-1.18,15.64,15.64,0,0,0-.3-5.88c-.46-2.18-1.24-4.55-2-7s-1.52-4.82-2.32-7.23A587.31,587.31,0,0,0,1877.06,2254.42Z"/><path class="cls-81" d="M2182.85,2394.2c-11.83,8.58-26,13.33-40,17q-16.23,4.3-32.71,7.51c-3.91.76-10.46,3.34-14,1.47-3.28-1.73-5-7.6-6.23-10.78-2.16-5.68-4.34-11.47-4.71-17.53-.43-7.11-.15-8.73,6.62-9.76q8.73-1.32,17.41-2.91,16.77-3.12,33.29-7.45c17.85-4.69,35.83-9.36,51.14-19.92,1.62-1.12,3.52-2.29,5.45-1.85,2.17.49,3.39,2.79,4,4.92a23.62,23.62,0,0,1-4.06,21.63C2193.85,2383,2189.72,2389.23,2182.85,2394.2Z"/><path class="cls-74" d="M2041.79,2345.55c10.23,5.13,21.43,14.22,33.51,9.95,33.44-11.83,70-54.94,96.27-78.44,54.87-49.15,117.41-116.26,109.62-195.95-6.38-65.35-48-123.79-87.81-173.58-30.43-38.09-81.33-111.86-136.27-111.42-40.2.32-67.13,37.58-60.08,76.61,4.71,26.11,20.31,48.78,35.83,70.3q47.41,65.74,98.72,128.59c12.41,15.2,21.18,30.39,13.64,50.22-3.81,10-10.3,18.69-16.7,27.24l-106,141.49c-6.2,8.27-12.75,18.33-9.66,28.2,1.63,5.19,5.7,9.22,9.74,12.87C2028.48,2336.93,2034.78,2342,2041.79,2345.55Z"/><path class="cls-82" d="M2032.15,2327.18l.57-.32c4.64-2.62,8.19-6.77,11.64-10.84,51.14-60.34,110.85-120.68,137.91-196.62,7.06-19.82,10.05-41.66,4.62-62-3.83-14.34-11.62-27.25-19.31-39.94-39.83-65.75-78.28-132.25-124.9-193.52-29.72-39.07-50.37,22.62-45.65,48.76s20.31,48.78,35.83,70.3q47.41,65.74,98.72,128.59c12.41,15.2,21.18,30.39,13.64,50.22-3.81,10-10.3,18.69-16.7,27.24l-106,141.48c-5,6.62-11.16,16.08-10.82,24.73C2012.16,2326.64,2021.87,2332.57,2032.15,2327.18Z"/><g class="cls-83"><path class="cls-84" d="M2041.09,1799a45.38,45.38,0,0,1,9.28,4.55,62.12,62.12,0,0,1,8.19,6.36c2.57,2.32,5,4.78,7.45,7.19s4.88,4.86,7.32,7.3,4.9,4.87,7.2,7.44l7,7.63c4.5,5.23,9.08,10.41,13.35,15.84s8.47,10.91,12.66,16.4c4,5.62,8.13,11.18,12,16.9s7.72,11.45,11.53,17.21l5.58,8.72q2.81,4.35,5.5,8.77c7.32,11.71,14.35,23.58,21.27,35.51l20.65,35.82,10.32,17.91c3.43,6,6.8,12.06,9.89,18.32a146.6,146.6,0,0,1,8,19.4,97.78,97.78,0,0,1,4.39,20.71,89.37,89.37,0,0,1-.63,21.19,126,126,0,0,1-4.73,20.51,184.2,184.2,0,0,1-17.39,38,354.22,354.22,0,0,1-23.41,34.37c-8.37,11-17.3,21.6-26.35,32s-18.25,20.68-27.37,31-18,20.84-26.73,31.47-17.43,21.33-26.1,32l-13,16q-6.57,8-13.24,15.88,6.36-8.14,12.65-16.35l12.59-16.4c8.37-10.94,16.74-21.89,25.23-32.75s17.22-21.56,26.16-32.08,18-20.88,26.89-31.39c17.71-21,34.92-42.55,48.63-66.22a183,183,0,0,0,16.82-37.08,121.94,121.94,0,0,0,4.5-19.73c.48-3.35.7-6.68.87-10v-5l-.33-5a92.24,92.24,0,0,0-4.11-19.65,140.57,140.57,0,0,0-7.72-18.77c-6-12.22-13.22-24-19.92-36-13.55-24-27-48-41.09-71.68q-2.62-4.44-5.33-8.82l-5.42-8.78c-3.7-5.8-7.35-11.63-11.19-17.32s-7.74-11.36-11.65-17c-4.07-5.54-8.05-11.15-12.3-16.54s-8.52-10.79-12.86-16.13l-6.77-7.77c-2.22-2.63-4.61-5.1-7-7.61s-4.69-5-7.11-7.48-4.75-5-7.22-7.37a61.46,61.46,0,0,0-7.89-6.6A44.69,44.69,0,0,0,2041.09,1799Z"/></g><path class="cls-85" d="M2193.59,2072a138.06,138.06,0,0,1,4.68,33.83c.15,10.78-5.74,20.31-6.78,31.1-.8,8.26.68,17.06,5.79,23.61,5.58,7.14,15,10.74,24,10.34s17.69-4.47,24.67-10.25c17.56-14.54,22.1-38.54,21.63-60.25-.59-27.1-7.35-56-21.14-79.52-8.35-14.25-38.49-24.4-52.67-13.66C2174.17,2022,2188.69,2053.71,2193.59,2072Z"/><path class="cls-29" d="M1664.73,2076.54c-17.8-14.45-35.91-28.56-53.85-42.85-28.83-23-57.31-46.44-83.09-72.4a455.3,455.3,0,0,1-36.27-40.92c-5.17-6.64-7.9-16.13-17.76-12.88-8.27,2.73-14.73,8.91-22,13.19q-15.35,9-31.16,17.3c-35.2,18.52-71.83,34.58-109,49.37-18.65,7.42-37.44,14.52-56.3,21.47q-14.15,5.21-28.33,10.3c-3.67,1.33-24.37,11.36-27.2,9.77,70.08,39.46,140.77,78,210.57,117.87,34.88,19.94,69.54,40.22,103.76,61.13q25.68,15.68,51,31.86c14.59,9.33,29.08,18.49,43.35,28.31,3.75,2.58,8.28,5.28,12.58,3.78,1.43-.5-6.62-18.72-7.17-20.49-2.41-7.79-1.78-13.26-.2-21.16,9.3-46.58,32.12-95.28,54.4-137.78,1.47-2.8,3-5.86,2.29-8.9S1667.11,2078.48,1664.73,2076.54Z"/><path class="cls-28" d="M1674.81,2076.68c-16.34-14.26-33-28.19-49.45-42.3-26.48-22.66-52.63-45.84-76.31-71.46a441.1,441.1,0,0,1-33.32-40.4c-4.74-6.55-7.25-15.92-16.3-12.71-7.6,2.7-13.53,8.8-20.25,13q-14.1,8.88-28.61,17.07c-32.33,18.28-66,34.13-100.11,48.73-17.13,7.33-34.39,14.34-51.71,21.19q-13,5.14-26,10.18c-3.37,1.3-22.38,11.21-25,9.63,64.36,39,129.29,77,193.39,116.36,32,19.68,63.87,39.69,95.3,60.33q23.58,15.48,46.84,31.45c6.66,4.58,13.7,8.74,19.92,13.94,3.34,2.79,11.25,16.43,17,13.32,2.88-1.55,3.28-13.33,3.89-16.62l3.73-20.08c8.55-46,29.51-94.05,50-136,1.35-2.77,2.75-5.79,2.1-8.79C1679.32,2080.71,1677,2078.59,1674.81,2076.68Z"/><path class="cls-30" d="M1507,1900.8c-80.42,59-174.8,95.44-267.92,131.19,129,77.93,260.37,152.12,382.57,240.74-5.82-18.35-1.7-38.25,3.26-56.85a668.1,668.1,0,0,1,45.29-121.18c1.35-2.76,2.75-5.79,2.1-8.79-.62-2.85-2.94-5-5.14-6.88-33-28.69-72.27-55.71-100.46-89.23A488.19,488.19,0,0,1,1507,1900.8Z"/><path class="cls-33" d="M1239.05,2032c42.55-16.33,85.12-32.71,126.7-51.39q6.49-2.92,12.94-5.94c3.35-1.57,9.25-6,12.87-6.15,14-.61-1,23.53-3.34,27.49-7.2,12.44-16,23.88-25.21,34.89-5.82,7-12.23,15.43-9.84,24.18.93,3.39,3.09,6.27,5.21,9.06,16.67,21.6,35.74,43.2,50.11,66.34-4.28,3.32-7.48-1.53-11.06-3.69l-12.42-7.49q-11.91-7.15-23.84-14.29C1320.47,2080.65,1279.65,2056.51,1239.05,2032Z"/><path class="cls-31" d="M1346.59,2043q5-1.52,10-3l10-3.12,9.93-3.23,9.86-3.42c13.11-4.67,26.1-9.68,38.84-15.28,12.81-5.44,25.36-11.46,37.74-17.81l9.26-4.84,9.16-5,9.1-5.13q4.5-2.65,9-5.27-4.37,2.89-8.75,5.73l-8.89,5.51-9,5.28-9.15,5.09c-12.27,6.65-24.88,12.68-37.67,18.29s-25.87,10.51-39.13,14.89l-10,3.16-10,3-10.11,2.69Q1351.67,2041.81,1346.59,2043Z"/><path class="cls-31" d="M1397,2081.69q17.08-7.29,33.85-15.21t33.12-16.64q16.38-8.69,32.31-18.16t31.53-19.57q-14.93,11.06-30.72,20.9c-10.49,6.58-21.25,12.76-32.18,18.59s-22.09,11.27-33.41,16.3S1408.63,2077.55,1397,2081.69Z"/><path class="cls-31" d="M1551.71,2025a197.7,197.7,0,0,1-19.46,26.62c-7.15,8.38-14.8,16.3-22.53,24.11s-15.63,15.43-23.36,23.21-15.29,15.73-22.43,24.09a277.6,277.6,0,0,1,21.31-25.17c7.52-8,15.33-15.76,23.06-23.54s15.43-15.6,22.78-23.73A271.84,271.84,0,0,0,1551.71,2025Z"/><path class="cls-28" d="M2356,1710.44c54.57,72.52,88.75,158,122.3,242.3,69.47-118.26,135.52-238.55,214.8-350.69-16.63,5.5-34.78,2-51.75-2.34a606.77,606.77,0,0,1-110.75-39.87c-2.52-1.19-5.29-2.44-8-1.81-2.58.59-4.48,2.73-6.2,4.75-25.73,30.29-49.89,66.36-80.07,92.38A443.75,443.75,0,0,1,2356,1710.44Z"/><path class="cls-28" d="M2398,1708.35a512.22,512.22,0,0,1,100.71,158.06"/><path class="cls-28" d="M2425.75,1691.07a928.67,928.67,0,0,1,100.39,121.38"/><path class="cls-28" d="M2454.25,1665.48a1318.47,1318.47,0,0,1,94.67,106.87"/><path class="cls-28" d="M2478,1640.35c37.16,22.73,71.38,56.25,100.22,98.15"/><path class="cls-29" d="M2328.34,1707.07c44.31,58.88,75.19,126.37,103,194.23,8.07,19.73,15.23,39.77,24,59.13a4.12,4.12,0,0,0,1.27,1.81c1.79,1.2,3.93-.91,5.06-2.75l11.15-18.25c5.35-8.76,10.78-17.69,13.29-27.64,2-8,2.08-16.35,3.53-24.47,1.66-9.27,6.76-16.39,10.7-24.69,5-10.6,11.69-20.62,17.59-30.76q18.36-31.53,37-62.89c17.65-29.59,35.62-59,54.16-88q13.92-21.78,28.28-43.27c8-12,22.53-25.74,2.8-33.89a191.58,191.58,0,0,0-26.47-9.27,608.26,608.26,0,0,1-110.75-39.87c-2.52-1.2-5.29-2.45-8-1.82-2.58.59-4.48,2.73-6.19,4.75-25.74,30.3-49.89,66.36-80.08,92.38A444.31,444.31,0,0,1,2328.34,1707.07Z"/><path class="cls-28" d="M2370.27,1705A512,512,0,0,1,2471,1863"/><path class="cls-28" d="M2398.07,1687.7a927.35,927.35,0,0,1,100.39,121.38"/><path class="cls-28" d="M2426.57,1662.1A1316.7,1316.7,0,0,1,2521.24,1769"/><path class="cls-28" d="M2450.29,1637c37.16,22.74,71.38,56.25,100.22,98.15"/><path class="cls-30" d="M2342.92,1710.44c54.58,72.52,88.75,158,122.31,242.3,69.47-118.26,135.52-238.55,214.8-350.69-16.63,5.5-34.78,2-51.76-2.34a606.67,606.67,0,0,1-110.74-39.87c-2.53-1.19-5.3-2.44-8-1.81s-4.48,2.73-6.2,4.75c-25.74,30.29-49.89,66.36-80.08,92.38A443.75,443.75,0,0,1,2342.92,1710.44Z"/><path class="cls-33" d="M2342.92,1710.44a439.63,439.63,0,0,0,50.65-31.77q12.1-8.79,23.6-18.37c2.82-2.35,2.2,2.68,1.78,4-2.94,8.87-7.07,17-10.9,25.48-4.56,10-8,20.67-9.15,31.69-1.74,17,2.1,34.82-3.43,51-1,3.07-2.52,6.16-5.11,8.13a2,2,0,0,1-1.44.54c-.65-.1-1.07-.72-1.4-1.29-3.29-5.56-6.29-11.34-9.57-16.86q-5.26-8.88-10.82-17.59Q2355.69,1727.48,2342.92,1710.44Z"/><path class="cls-31" d="M2384.85,1708.35q4.09,4.23,8.14,8.52l7.92,8.74,7.65,9,7.44,9.16c9.76,12.34,18.82,25.23,27.34,38.45s16.25,27,23.31,41l5.15,10.61,4.91,10.72,4.57,10.87q2.17,5.47,4.28,11-2.42-5.37-4.77-10.77l-5-10.67-5.14-10.58-5.39-10.46c-7.32-13.87-15.13-27.48-23.62-40.66s-17.4-26.09-26.87-38.59l-7.21-9.3-7.41-9.14-7.57-9Q2388.7,1712.81,2384.85,1708.35Z"/><path class="cls-31" d="M2412.66,1691.07c2.36,2.29,4.72,4.58,7.05,6.89l7,7,6.82,7.13,6.74,7.2c8.93,9.66,17.52,19.63,26,29.71s16.5,20.5,24.32,31.08l5.8,8,5.72,8,5.56,8.15q2.76,4.1,5.45,8.22-3-3.93-5.88-7.91l-5.92-7.88-5.94-7.86-6-7.8c-8.06-10.37-16.2-20.67-24.63-30.73s-16.89-20.1-25.56-30l-6.53-7.37-6.61-7.31-6.63-7.29Q2416,1694.73,2412.66,1691.07Z"/><path class="cls-31" d="M2441.15,1665.48q13,12.3,25.32,25.22t24.22,26.27c7.88,8.93,15.63,18,23.16,27.21s14.88,18.61,22,28.17l-23.17-27.16q-11.64-13.53-23.46-26.89t-23.86-26.54Z"/><path class="cls-31" d="M2464.87,1640.35a243.52,243.52,0,0,1,29.36,19.71,291.94,291.94,0,0,1,26.53,23.43,329.09,329.09,0,0,1,44.33,55q-10.5-14.2-21.87-27.69c-7.61-9-15.53-17.63-23.87-25.9A350.79,350.79,0,0,0,2464.87,1640.35Z"/><path class="cls-29" d="M2810.7,2175c29.28,38.91,52.81,81.78,73.34,125.85,9.8,21,18.95,42.38,27.78,63.84,8.7,21.12,15.58,44,27.34,63.49a2,2,0,0,0,1,1c.85.29,1.61-.58,2.09-1.34l10.54-16.77c3.63-5.76,7.3-11.65,8.92-18.26,2.64-10.79,0-22.15,4.79-32.48,5.27-11.28,12.51-22,18.76-32.76q19.68-33.95,39.57-67.75c26.59-45,53.76-89.72,82.42-133.46q19.8-30.21,40.6-59.73c-16.62,5.5-34.77,2-51.75-2.34a607.42,607.42,0,0,1-110.74-39.87c-2.53-1.2-5.3-2.44-8-1.82s-4.48,2.73-6.2,4.75c-25.74,30.3-49.89,66.37-80.08,92.38A443.8,443.8,0,0,1,2810.7,2175Z"/><path class="cls-28" d="M2839.25,2178.56c54.58,72.51,88.75,158,122.3,242.3,69.48-118.27,135.53-238.55,214.8-350.69-16.62,5.5-34.77,2-51.75-2.34A607.89,607.89,0,0,1,3013.86,2028c-2.53-1.2-5.3-2.45-8-1.82s-4.48,2.73-6.2,4.75c-25.74,30.3-49.89,66.36-80.08,92.38A443.8,443.8,0,0,1,2839.25,2178.56Z"/><path class="cls-28" d="M2881.18,2176.46a511.86,511.86,0,0,1,100.71,158.06"/><path class="cls-28" d="M2909,2159.19a927.94,927.94,0,0,1,100.38,121.38"/><path class="cls-28" d="M2937.48,2133.6a1314.88,1314.88,0,0,1,94.67,106.87"/><path class="cls-28" d="M2961.2,2108.46c37.17,22.74,71.39,56.25,100.22,98.16"/><path class="cls-30" d="M2826.16,2178.56c54.58,72.51,88.75,158,122.3,242.3,69.48-118.27,135.52-238.55,214.8-350.69-16.63,5.5-34.78,2-51.75-2.34A608.26,608.26,0,0,1,3000.76,2028c-2.52-1.2-5.29-2.45-8-1.82s-4.49,2.73-6.2,4.75c-25.74,30.3-49.89,66.36-80.08,92.38A443.8,443.8,0,0,1,2826.16,2178.56Z"/><path class="cls-33" d="M2826.16,2178.56a441.94,441.94,0,0,0,50.65-31.78q12.09-8.78,23.6-18.37c2.82-2.35,2.2,2.69,1.78,4-3,8.87-7.07,17-10.91,25.48-4.55,10.05-8,20.67-9.15,31.69-1.73,17,2.1,34.83-3.43,51-1,3.08-2.52,6.17-5.1,8.13a2,2,0,0,1-1.44.54c-.65-.09-1.07-.72-1.41-1.28-3.29-5.57-6.29-11.34-9.56-16.86q-5.28-8.89-10.83-17.6C2842.73,2201.56,2834.68,2189.88,2826.16,2178.56Z"/><path class="cls-31" d="M2868.09,2176.46q4.08,4.24,8.14,8.52l7.92,8.74,7.65,9,7.43,9.15c9.77,12.34,18.82,25.23,27.35,38.46s16.24,27,23.3,41L2955,2302l4.9,10.73,4.58,10.86q2.16,5.49,4.28,11-2.41-5.37-4.77-10.77l-5-10.67-5.15-10.58-5.39-10.46c-7.31-13.87-15.12-27.48-23.61-40.66s-17.4-26.09-26.88-38.59l-7.2-9.3-7.42-9.14-7.56-9Q2871.94,2180.92,2868.09,2176.46Z"/><path class="cls-31" d="M2895.89,2159.19q3.56,3.42,7.06,6.89l7,7,6.83,7.12,6.74,7.2c8.93,9.66,17.52,19.63,26,29.72s16.49,20.5,24.31,31.08l5.81,8,5.72,8,5.56,8.14q2.74,4.1,5.44,8.23-3-3.95-5.87-7.92l-5.93-7.88-5.94-7.86-6-7.8c-8.06-10.36-16.21-20.66-24.63-30.73s-16.9-20.1-25.57-30l-6.53-7.38-6.61-7.3-6.62-7.3Q2899.21,2162.84,2895.89,2159.19Z"/><path class="cls-31" d="M2924.39,2133.6q13,12.29,25.31,25.21t24.22,26.28q11.84,13.38,23.17,27.21t22,28.17l-23.17-27.17c-7.77-9-15.56-18-23.46-26.89s-15.85-17.74-23.86-26.54Z"/><path class="cls-31" d="M2948.11,2108.46a244.59,244.59,0,0,1,29.35,19.71A293.6,293.6,0,0,1,3004,2151.6a328.62,328.62,0,0,1,44.33,55q-10.51-14.22-21.87-27.7c-7.61-9-15.54-17.63-23.87-25.9A351.94,351.94,0,0,0,2948.11,2108.46Z"/></g></svg>