<?xml version="1.0" encoding="UTF-8"?>
<svg width="153px" height="42px" viewBox="0 0 153 42" version="1.1" xmlns="http://www.w3.org/2000/svg" xmlns:xlink="http://www.w3.org/1999/xlink">
    <!-- Generator: Sketch 52.3 (67297) - http://www.bohemiancoding.com/sketch -->
    <title>Bizao-Logo/Bizao-Logo-Color@SVG</title>
    <desc>Created with Sketch.</desc>
    <defs>
        <path d="M14.85,18.63 C14.8473385,17.9523263 14.7462841,17.2786303 14.55,16.63 C14.3477043,15.9832741 14.0328776,15.3773174 13.62,14.84 C13.2027243,14.2990285 12.6697068,13.8582641 12.06,13.55 C11.3749434,13.2071142 10.615783,13.0387935 9.85,13.06 C9.10826697,13.0468757 8.37535334,13.2223621 7.72,13.57 C7.10313297,13.8977235 6.55354444,14.3387514 6.1,14.87 C5.65984172,15.4078204 5.32101114,16.0211038 5.1,16.68 C4.87647771,17.323491 4.75829103,17.9988435 4.75,18.68 C4.75560561,19.3614035 4.87386801,20.0371886 5.1,20.68 C5.32339956,21.3317595 5.66211699,21.9380637 6.1,22.47 C6.5511881,23.0010353 7.10141747,23.4391809 7.72,23.76 C8.38131971,24.0882545 9.11180684,24.2528714 9.85,24.24 C10.6170857,24.2627971 11.3774324,24.0907729 12.06,23.74 C12.6665339,23.4181878 13.1981626,22.971756 13.62,22.43 C14.036991,21.8879252 14.3521008,21.2746468 14.55,20.62 C14.74452,19.9709739 14.8455359,19.2975345 14.85,18.62 L14.85,18.63 Z M4.89,0 L4.89,12.22 L5,12.22 C5.24536178,11.8895277 5.5234363,11.5846508 5.83,11.31 C6.1878897,10.9791434 6.58011743,10.6874869 7,10.44 C7.52454371,10.158487 8.07768879,9.9338766 8.65,9.77 C9.34733658,9.58107288 10.0675903,9.49019975 10.79,9.5 C13.1023727,9.47731525 15.3157839,10.4368235 16.88,12.14 C17.6513707,12.9702716 18.2556996,13.941272 18.66,15 C19.0783386,16.1503208 19.2882887,17.3659998 19.28,18.59 C19.2881909,19.8188128 19.0852399,21.0399015 18.68,22.2 C18.3191398,23.2901286 17.7484126,24.2990929 17,25.17 C16.2551036,26.0153864 15.3424192,26.6964941 14.32,27.17 C13.1990367,27.6766238 11.9799811,27.9293132 10.75,27.91 C9.55025136,27.9151007 8.36574249,27.6412259 7.29,27.11 C6.24241288,26.5979614 5.36672279,25.7917705 4.77,24.79 L4.7,24.79 L4.7,27.4 L0.54,27.4 L0.54,0 L4.89,0 Z M23.56,9.99 L27.91,9.99 L27.91,27.39 L23.56,27.39 L23.56,9.99 Z M28.23,3.91 C28.23,5.31280326 27.0928033,6.45 25.69,6.45 C24.2871967,6.45 23.15,5.31280326 23.15,3.91 C23.15,2.50719674 24.2871967,1.37 25.69,1.37 C27.0928033,1.37 28.23,2.50719674 28.23,3.91 Z M31.82,23.54 L41.21,13.47 L32.26,13.47 L32.26,9.99 L46.39,9.99 L46.39,13.83 L36.97,23.83 L46.83,23.83 L46.83,27.39 L31.82,27.39 L31.82,23.54 Z M61.4,19.45 L60.4,19.45 C59.7,19.45 58.96,19.45 58.19,19.54 C57.4633966,19.5885386 56.7450786,19.7228037 56.05,19.94 C55.4509855,20.1107981 54.8952901,20.4073963 54.42,20.81 C53.9782864,21.1962402 53.7386156,21.7640756 53.77,22.35 C53.7634978,22.7021746 53.8571288,23.0489563 54.04,23.35 C54.2148874,23.6273348 54.4552754,23.8574205 54.74,24.02 C55.0501236,24.1966725 55.3884279,24.3184621 55.74,24.38 C56.0982075,24.4564806 56.4637343,24.4933687 56.83,24.49 C58.081684,24.5771733 59.3143229,24.1470148 60.24,23.3 C61.0447323,22.4107883 61.4621588,21.237676 61.4,20.04 L61.4,19.45 Z M61.47,25.18 L61.36,25.18 C60.8577332,26.0024785 60.1284778,26.662281 59.26,27.08 C58.2340989,27.5844492 57.1030728,27.8380732 55.96,27.82 C55.2219905,27.8153725 54.4870341,27.7247614 53.77,27.55 C53.0206621,27.3763597 52.309107,27.0680192 51.67,26.64 C51.0211062,26.2110323 50.4747996,25.6442392 50.07,24.98 C49.6266678,24.2015989 49.4085414,23.3152441 49.44,22.42 C49.380362,21.2755592 49.77579,20.1539816 50.54,19.3 C51.3373707,18.4938127 52.3138779,17.8873503 53.39,17.53 C54.6388418,17.1018286 55.9349462,16.8264904 57.25,16.71 C58.66,16.58 60.04,16.51 61.4,16.51 L61.4,16.08 C61.4619559,15.1242371 61.0129415,14.2071824 60.22,13.67 C59.3816497,13.1365525 58.4033642,12.865 57.41,12.89 C56.494926,12.8876394 55.5904257,13.0856055 54.76,13.47 C53.9844584,13.8163429 53.2741396,14.2932712 52.66,14.88 L50.42,12.24 C51.405835,11.3225719 52.5700034,10.6179436 53.84,10.17 C55.1004165,9.71512203 56.4300146,9.48168116 57.77,9.48 C59.0782928,9.43685664 60.3816075,9.66144873 61.6,10.14 C62.5143198,10.5094596 63.3269497,11.0923587 63.97,11.84 C64.5413361,12.5247574 64.9544962,13.3271758 65.18,14.19 C65.409175,15.0411774 65.5268258,15.918516 65.53,16.8 L65.53,27.39 L61.47,27.39 L61.47,25.18 Z M74,18.62 C74.0020807,19.2984696 74.106592,19.9727361 74.31,20.62 C74.5000893,21.2788865 74.8121586,21.8962409 75.23,22.44 C75.6522224,22.9787706 76.1839232,23.4218546 76.79,23.74 C78.2095534,24.4194492 79.8604466,24.4194492 81.28,23.74 C81.8860768,23.4218546 82.4177776,22.9787706 82.84,22.44 C83.2578414,21.8962409 83.5699107,21.2788865 83.76,20.62 C84.1647632,19.3173854 84.1647632,17.9226146 83.76,16.62 C83.5654042,15.9720824 83.2535744,15.36537 82.84,14.83 C82.4201035,14.2915687 81.887704,13.8513153 81.28,13.54 C79.8545709,12.886949 78.2154291,12.886949 76.79,13.54 C76.182296,13.8513153 75.6498965,14.2915687 75.23,14.83 C74.8164256,15.36537 74.5045958,15.9720824 74.31,16.62 C74.1059912,17.2671236 74.0014657,17.9414822 74,18.62 M69.58,18.62 C69.5594095,17.3285647 69.8115694,16.0473195 70.32,14.86 C70.7838074,13.7739418 71.4643571,12.7939502 72.32,11.98 C73.1880456,11.1737377 74.2078463,10.54826 75.32,10.14 C77.7046904,9.25971861 80.3253096,9.25971861 82.71,10.14 C83.8221537,10.54826 84.8419544,11.1737377 85.71,11.98 C86.5624851,12.7966524 87.2425576,13.7759568 87.71,14.86 C88.2184306,16.0473195 88.4705905,17.3285647 88.45,18.62 C88.4696914,19.9113547 88.2175679,21.1924144 87.71,22.38 C87.2455406,23.4774115 86.5654284,24.4703754 85.71,25.3 C84.8449598,26.1248173 83.825423,26.7705239 82.71,27.2 C80.3325395,28.1198551 77.6974605,28.1198551 75.32,27.2 C74.204577,26.7705239 73.1850402,26.1248173 72.32,25.3 C71.4613878,24.4730653 70.7808007,23.4794083 70.32,22.38 C69.8124321,21.1924144 69.5603086,19.9113547 69.58,18.62" id="path-1"></path>
        <path d="M47.42,21.05 C47.048402,21.1526957 46.691989,21.3040031 46.36,21.5 C45.8720851,21.784553 45.4359119,22.1497213 45.07,22.58 C44.6202658,23.130595 44.2592518,23.7480301 44,24.41 C43.6580112,25.2644881 43.4946547,26.1799653 43.52,27.1 L43.52,35.32 C43.5206763,35.7947796 43.4906135,36.269105 43.43,36.74 C43.3728504,37.1766665 43.2480203,37.6017638 43.06,38 C42.9127354,38.3387519 42.6904827,38.6396479 42.41,38.88 C42.099629,39.112836 41.7175032,39.2295967 41.33,39.21 L9.53,39.21 C9.14249679,39.2295967 8.760371,39.112836 8.45,38.88 C8.16788194,38.6388474 7.94251347,38.3383561 7.79,38 C7.61466318,37.5992362 7.50006963,37.174566 7.45,36.74 C7.39079288,36.2823714 7.36073228,35.8214422 7.36,35.36 L7.36,27.1 C7.38746215,26.1286559 7.22789892,25.1610916 6.89,24.25 C6.62401223,23.5857135 6.24884121,22.9705682 5.78,22.43 C5.4197099,22.0153269 4.98139497,21.6755479 4.49,21.43 C4.1585505,21.2532571 3.80053224,21.131666 3.43,21.07 L3.43,20.93 C3.80223575,20.8291404 4.15888892,20.677731 4.49,20.48 C4.9801089,20.1985808 5.41678727,19.8329896 5.78,19.4 C6.24009548,18.8494148 6.61432275,18.2324455 6.89,17.57 C7.22174154,16.7128829 7.38144655,15.7988266 7.36,14.88 L7.36,6.59 C7.35976482,6.11523415 7.3898259,5.6409371 7.45,5.17 C7.49870395,4.74160532 7.6133938,4.32332471 7.79,3.93 C7.94164636,3.59113259 8.16714826,3.29046338 8.45,3.05 C8.75695969,2.80964205 9.14070818,2.68883234 9.53,2.71 L41.33,2.71 C41.7192918,2.68883234 42.1030403,2.80964205 42.41,3.05 C42.6954367,3.29378141 42.9183225,3.60239254 43.06,3.95 C43.2353099,4.35426139 43.3498822,4.7822226 43.4,5.22 C43.4614173,5.70422 43.4914799,6.19190278 43.49,6.68 L43.49,14.86 C43.4690912,15.8344385 43.6424634,16.8032833 44,17.71 C44.2589298,18.3755805 44.6310874,18.9913322 45.1,19.53 C45.4623818,19.9424549 45.9002318,20.2818735 46.39,20.53 C46.72207,20.7053058 47.0798508,20.8268163 47.45,20.89 L47.42,21.05 Z M49.42,19.1 C48.9523181,18.8295125 48.5549217,18.452671 48.26,18 C47.8859083,17.4885483 47.6018316,16.9170129 47.42,16.31 C47.2038555,15.5936093 47.0992974,14.8482108 47.11,14.1 L47.11,5.92 C47.1299084,5.04769927 46.9734475,4.18036202 46.65,3.37 C46.3852883,2.68406923 45.9953256,2.05334689 45.5,1.51 C45.0768559,1.04088351 44.5676562,0.657286401 44,0.38 C43.44346,0.129745331 42.8402164,0.000235413279 42.23,0 L8.63,0 C8.03638689,0.00486331144 7.45041015,0.134323289 6.91,0.38 C6.32281706,0.653941749 5.79333743,1.03747507 5.35,1.51 C4.8546744,2.05334689 4.46471167,2.68406923 4.2,3.37 C3.88486421,4.18244319 3.73198384,5.04876529 3.75,5.92 L3.75,14.14 C3.75478713,14.8754314 3.64686842,15.6072551 3.43,16.31 C3.24526073,16.9140039 2.96505096,17.4845515 2.6,18 C2.27905066,18.4391656 1.8704301,18.8069241 1.4,19.08 C0.976361382,19.3322854 0.493059968,19.4669194 0,19.47 L0,22.54 C0.489033911,22.5440943 0.969652215,22.6676819 1.4,22.9 C1.86509758,23.1463929 2.27377626,23.4869585 2.6,23.9 C2.96888004,24.4058672 3.24950749,24.9705031 3.43,25.57 C3.6496858,26.2858263 3.75762195,27.0312603 3.75,27.78 L3.75,36 C3.73403024,36.8710756 3.88684145,37.7370058 4.2,38.55 C4.46476567,39.2329089 4.85479039,39.86034 5.35,40.4 C5.79063932,40.8755787 6.32075653,41.2595739 6.91,41.53 C7.448928,41.7800899 8.03587182,41.9097635 8.63,41.91 L42.23,41.91 C42.8407751,41.915131 43.4451532,41.7853775 44,41.53 C44.5696645,41.2560005 45.079461,40.8719538 45.5,40.4 C45.9952096,39.86034 46.3852343,39.2329089 46.65,38.55 C46.9716095,37.7391123 47.1280025,36.8721511 47.11,36 L47.11,27.82 C47.0997206,27.0947749 47.2043496,26.3724969 47.42,25.68 C47.6026988,25.0764149 47.8867512,24.5083101 48.26,24 C48.5757407,23.5535176 48.9853099,23.1814922 49.46,22.91 C49.8857243,22.6638468 50.3682436,22.5328773 50.86,22.53 L50.86,19.47 C50.3690829,19.4706281 49.8865059,19.3430899 49.46,19.1 L49.42,19.1 Z M35.79,21 C35.79,22.4028033 34.6528033,23.54 33.25,23.54 C31.8471967,23.54 30.71,22.4028033 30.71,21 C30.71,19.5971967 31.8471967,18.46 33.25,18.46 C34.6528033,18.46 35.79,19.5971967 35.79,21 M20.14,21 C20.139992,22.0282424 19.5200533,22.9550449 18.5696921,23.3475955 C17.6193309,23.7401461 16.5260515,23.5209954 15.8004098,22.7924855 C15.0747681,22.0639757 14.8599318,20.9698403 15.2562282,20.021035 C15.6525247,19.0722297 16.5817656,18.4559518 17.61,18.46 C18.2827339,18.4599947 18.9277694,18.7279198 19.402525,19.2045519 C19.8772805,19.6811839 20.142659,20.3272713 20.14,21" id="path-3"></path>
    </defs>
    <g id="Bizao-Logo/Bizao-Logo-Color" stroke="none" stroke-width="1" fill="none" fill-rule="evenodd">
        <g id="Bizao-Logo">
            <g id="Bizao-Logo/Text" transform="translate(64.000000, 7.000000)">
                <g id="Colors/Primary/Blue">
                    <mask id="mask-2" fill="white">
                        <use xlink:href="#path-1"></use>
                    </mask>
                    <use id="Mask" fill="#000000" fill-rule="nonzero" xlink:href="#path-1"></use>
                    <g id="Colors/Primary/Dark-Blue" mask="url(#mask-2)" fill="#0B0B76">
                        <g transform="translate(-67.000000, -11.000000)" id="Rectangle">
                            <rect x="0" y="0" width="159" height="50"></rect>
                        </g>
                    </g>
                </g>
            </g>
            <g id="Bizao-Logo/Robot-Color">
                <g id="Color">
                    <mask id="mask-4" fill="white">
                        <use xlink:href="#path-3"></use>
                    </mask>
                    <use id="Mask" fill="#000000" fill-rule="nonzero" xlink:href="#path-3"></use>
                    <g id="Colors/Primary/Dark-Blue" mask="url(#mask-4)" fill="#0B0B76">
                        <rect id="Rectangle" x="0" y="0" width="51" height="42"></rect>
                    </g>
                </g>
            </g>
        </g>
    </g>
</svg>