<svg xmlns="http://www.w3.org/2000/svg" width="386.926" height="370.112" viewBox="0 0 386.926 370.112">
  <g id="Chart" transform="translate(-1874.105 -1459.035)">
    <path id="Tracé_166" data-name="Tracé 166" d="M2111.064,1600.332l-120.436-69.391L1979.506,1537a2.864,2.864,0,0,0-.06,5l126.653,72.974a9.916,9.916,0,0,0,9.923-.013l123.793-71.777a3.728,3.728,0,0,0,.047-6.423l-9.414-5.644Z" fill="#7070cc"/>
    <path id="Tracé_167" data-name="Tracé 167" d="M2261.031,1731.441c0,53.962-84.782,97.706-189.365,97.706S1882.3,1785.4,1882.3,1731.441c0-35.576,36.851-66.711,91.932-83.8,28.465-8.83,62.138,11.98,97.771,11.98,44.364,0,84.826-18.017,117.1-4.833C2232.921,1672.686,2261.031,1700.37,2261.031,1731.441Z" fill="#7070cc"/>
    <g id="Groupe_17" data-name="Groupe 17">
      <path id="Tracé_168" data-name="Tracé 168" d="M1874.116,1738.163l-.011.005v.495C1874.106,1738.495,1874.114,1738.33,1874.116,1738.163Z" fill="#f3aa66"/>
      <path id="Tracé_169" data-name="Tracé 169" d="M2211.182,1738.134v-.615l-.013-.005C2211.174,1737.72,2211.179,1737.927,2211.182,1738.134Z" fill="#f3aa66"/>
      <path id="Tracé_170" data-name="Tracé 170" d="M2240.538,1660.331c-.662,53.263-75.857,96.325-168.533,96.325-92.964,0-168.345-43.328-168.545-96.819,0,5.057-.005,30.117-.005,46.176,0,53.59,75.462,97.032,168.55,97.032s168.549-43.442,168.549-97.032C2240.554,1689.2,2240.542,1667.1,2240.538,1660.331Z" fill="#d8368d"/>
    </g>
    <path id="Tracé_171" data-name="Tracé 171" d="M2111.064,1556.067l119.384-68.495c-30.517-17.628-72.737-28.537-119.384-28.537-47.185,0-89.84,11.163-120.436,29.15Z" fill="#ff9e26"/>
    <path id="Tracé_172" data-name="Tracé 172" d="M2191.388,1591.129,2072,1659.624l-120.435-67.882c-29.764,17.5-48.114,41.457-48.114,67.882,0,53.589,75.462,97.032,168.549,97.032s168.55-43.443,168.55-97.032C2240.554,1632.889,2221.77,1608.679,2191.388,1591.129Z" fill="#fc5d9d"/>
    <path id="Tracé_173" data-name="Tracé 173" d="M2111.064,1556.067l-120.436-67.882v42.755l120.436,69.392Z" fill="#d88500"/>
    <path id="Tracé_174" data-name="Tracé 174" d="M2111.064,1556.067l119.383-68.495v43.54l-119.383,69.22Z" fill="#c17200"/>
  </g>
</svg>
