<svg xmlns="http://www.w3.org/2000/svg" width="638.295" height="997.903" viewBox="0 0 638.295 997.903">
  <g id="Chat_Icon" data-name="Chat Icon" transform="translate(-698.937 -188.533)">
    <path id="Tracé_150" data-name="Tracé 150" d="M949.116,695.287,723.422,826.066a24.494,24.494,0,0,0-12.214,21.2l.019,155.564a24.494,24.494,0,0,0,36.788,21.182l161.48-93.787c47.138,4.393,63.572,6.81,63.572,6.81l-14.5-35.286,15.124-8.692a24.5,24.5,0,0,0,12.2-21.186V716.48A24.494,24.494,0,0,0,949.116,695.287Z" fill="#fff"/>
    <g id="Groupe_13" data-name="Groupe 13">
      <path id="Tracé_151" data-name="Tracé 151" d="M711.227,1002.826l-.019-155.564a24.494,24.494,0,0,1,12.214-21.2L949.116,695.287a24.149,24.149,0,0,1,17.2-2.821,24.425,24.425,0,0,0-29.469-3.724L711.15,819.521a24.49,24.49,0,0,0-12.213,21.2l.018,155.564c0,15.523,19.212,31.19,35.12,31.006A24.505,24.505,0,0,1,711.227,1002.826Z" fill="#7070cc"/>
    </g>
    <ellipse id="Ellipse_13" data-name="Ellipse 13" cx="31.618" cy="22.016" rx="31.618" ry="22.016" transform="translate(809.699 824.394) rotate(-62.613)" fill="#7070cc"/>
    <path id="Tracé_152" data-name="Tracé 152" d="M795.246,942.709c-4.875-17.382-2.26-39.782,8.674-60.888,18.384-35.485,53.317-53.874,78.026-41.073,13.311,6.9,20.928,21.442,22.259,38.937Z" fill="#7070cc"/>
    <g id="Chat_Icon-2" data-name="Chat Icon">
      <path id="Tracé_153" data-name="Tracé 153" d="M1300.458,524.377l-225.694,130.78a24.493,24.493,0,0,0-12.214,21.2l.019,155.563a24.494,24.494,0,0,0,36.788,21.183l161.48-93.788c47.138,4.393,63.572,6.81,63.572,6.81l-14.5-35.285,15.124-8.693a24.494,24.494,0,0,0,12.2-21.186V545.57A24.494,24.494,0,0,0,1300.458,524.377Z" fill="#fff"/>
      <g id="Groupe_14" data-name="Groupe 14">
        <path id="Tracé_154" data-name="Tracé 154" d="M1062.569,831.916l-.019-155.563a24.493,24.493,0,0,1,12.214-21.2l225.694-130.78a24.142,24.142,0,0,1,17.2-2.82,24.424,24.424,0,0,0-29.469-3.725l-225.694,130.78a24.489,24.489,0,0,0-12.213,21.2l.018,155.563c0,15.523,19.212,31.19,35.12,31.006A24.5,24.5,0,0,1,1062.569,831.916Z" fill="#7070cc"/>
      </g>
      <path id="Tracé_155" data-name="Tracé 155" d="M1205.905,645.077c8.5-16.593,30.758-47.755,54.23-34.8s0,58.277,0,58.277l-54.23,94.7-63.133-38.042s-16.592-28.733,12.546-62.728C1170.63,644.615,1188.5,639.411,1205.905,645.077Z" fill="#fc5d9d"/>
    </g>
    <g id="Chat_Icon-3" data-name="Chat Icon">
      <path id="Tracé_156" data-name="Tracé 156" d="M1062.569,1161.909l-.019-155.564a24.493,24.493,0,0,1,12.214-21.2l225.694-130.78a24.153,24.153,0,0,1,17.2-2.82,24.427,24.427,0,0,0-29.469-3.725L1062.492,978.6a24.49,24.49,0,0,0-12.213,21.2l.018,155.564c0,15.523,19.212,31.19,35.12,31.006A24.5,24.5,0,0,1,1062.569,1161.909Z" fill="#7070cc"/>
      <path id="Tracé_157" data-name="Tracé 157" d="M1300.458,854.369l-225.694,130.78a24.493,24.493,0,0,0-12.214,21.2l.019,155.564a24.494,24.494,0,0,0,36.788,21.182l161.48-93.787c47.138,4.393,63.572,6.81,63.572,6.81l-14.5-35.286,15.124-8.692a24.5,24.5,0,0,0,12.2-21.186V875.563A24.494,24.494,0,0,0,1300.458,854.369Z" fill="#fff"/>
      <path id="Tracé_158" data-name="Tracé 158" d="M1163.8,1013.7v102.45l-18.652,10.542V1024.58Z" fill="#7070cc"/>
      <path id="Tracé_159" data-name="Tracé 159" d="M1174.617,1007.212v102.451l58.7-33.834a60.271,60.271,0,0,0,30.17-52.215V974.43a10.823,10.823,0,0,0-16.421-9.264l-35.48,21.435-.3-38.624c0-14.282-18.971-19.653-26.191-7.33C1178.532,951.843,1188.876,984.979,1174.617,1007.212Z" fill="#7070cc"/>
    </g>
    <g id="Chat_Icon-4" data-name="Chat Icon">
      <path id="Tracé_160" data-name="Tracé 160" d="M1300.458,524.377l-225.694,130.78a24.493,24.493,0,0,0-12.214,21.2l.019,155.563a24.494,24.494,0,0,0,36.788,21.183l161.48-93.788c47.138,4.393,63.572,6.81,63.572,6.81l-14.5-35.285,15.124-8.693a24.494,24.494,0,0,0,12.2-21.186V545.57A24.494,24.494,0,0,0,1300.458,524.377Z" fill="#fff"/>
      <g id="Groupe_15" data-name="Groupe 15">
        <path id="Tracé_161" data-name="Tracé 161" d="M1062.569,831.916l-.019-155.563a24.493,24.493,0,0,1,12.214-21.2l225.694-130.78a24.142,24.142,0,0,1,17.2-2.82,24.424,24.424,0,0,0-29.469-3.725l-225.694,130.78a24.489,24.489,0,0,0-12.213,21.2l.018,155.563c0,15.523,19.212,31.19,35.12,31.006A24.5,24.5,0,0,1,1062.569,831.916Z" fill="#7070cc"/>
      </g>
      <path id="Tracé_162" data-name="Tracé 162" d="M1205.905,645.077c8.5-16.593,30.758-47.755,54.23-34.8s0,58.277,0,58.277l-54.23,94.7-63.133-38.042s-16.592-28.733,12.546-62.728C1170.63,644.615,1188.5,639.411,1205.905,645.077Z" fill="#fc5d9d"/>
    </g>
    <g id="Chat_Icon-5" data-name="Chat Icon">
      <path id="Tracé_163" data-name="Tracé 163" d="M1300.458,198.416,1074.764,329.2a24.493,24.493,0,0,0-12.214,21.2l.019,155.564a24.494,24.494,0,0,0,36.788,21.183l161.48-93.788c47.138,4.393,63.572,6.81,63.572,6.81l-14.5-35.285,15.124-8.693a24.5,24.5,0,0,0,12.2-21.186V219.609A24.494,24.494,0,0,0,1300.458,198.416Z" fill="#fff"/>
      <g id="Groupe_16" data-name="Groupe 16">
        <path id="Tracé_164" data-name="Tracé 164" d="M1062.569,505.955l-.019-155.564a24.493,24.493,0,0,1,12.214-21.2l225.694-130.779a24.148,24.148,0,0,1,17.2-2.821,24.425,24.425,0,0,0-29.469-3.724l-225.694,130.78a24.488,24.488,0,0,0-12.213,21.2l.018,155.564c0,15.523,19.212,31.19,35.12,31.006A24.5,24.5,0,0,1,1062.569,505.955Z" fill="#7070cc"/>
      </g>
      <path id="Tracé_165" data-name="Tracé 165" d="M1145.979,455.855a37.079,37.079,0,0,0,18.558,4.733c11.237,0,23.829-4.362,36.892-12.955,19.576-12.879,38.224-33.818,52.508-58.96,14.19-24.979,23.2-52.679,24.709-76,1.66-25.6-5.574-44.331-20.37-52.737-14.84-8.431-34.992-5.081-56.74,9.434-20.044,13.377-39.635,35.3-53.747,60.137-14.248,25.079-22.576,51.689-23.451,74.929C1123.409,429.138,1131.094,447.4,1145.979,455.855Zm41.26-162.977c-7.779,14.779-17.726,36.532-23.22,59.785-.188.793-.359,1.578-.534,2.365l-24.038,16.448a191.124,191.124,0,0,1,47.792-78.6Zm-53.763,111.9a120.642,120.642,0,0,1,2.517-19.86l25.194-17.239c-1.808,12.982-1.708,24.931.33,35.655a78.951,78.951,0,0,0,2.934,11.028l-26.773,18.319C1134.526,425.224,1133.062,415.8,1133.476,404.78Zm42.2,12.987,43.543-29.8c-6.174,16.049-14.779,33.38-25.781,51.8A60.623,60.623,0,0,1,1175.672,417.767Zm-3.37-8.775q-6.213-20.424-.627-48.487l58.023-39.7c2.548,14.872.692,32.578-5.441,52.639Zm32.524-126.28c6.222,3.592,17.005,11.942,22.525,28.617l-52.476,35.906c8.058-28.661,22.231-53.984,28.311-64.086A1.218,1.218,0,0,1,1204.826,282.712Zm61.772,1.762-31.437,21.51a59.617,59.617,0,0,0-25.4-30.978c10.856-6.7,21.426-10.431,30.609-10.431a26.739,26.739,0,0,1,13.39,3.312C1259.613,271.213,1263.935,276.868,1266.6,284.474Zm2.923,27.607a146.263,146.263,0,0,1-7.222,35.331l-26.237,17.952c4.541-18.818,5.162-35.576,1.833-50.17l31.012-21.219A84.35,84.35,0,0,1,1269.521,312.081Zm-59.786,117.625q14.864-27.154,22.445-50.6l24.549-16.8a205.747,205.747,0,0,1-10.743,21.852C1235.9,401.906,1223.157,417.83,1209.735,429.706Zm-67.484,10.929,25.8-17.656a69.424,69.424,0,0,0,18.262,22.784c-13.874,6.718-26.343,7.525-35.821,2.141A27.7,27.7,0,0,1,1142.251,440.635Z" fill="#7070cc"/>
    </g>
  </g>
</svg>
