<svg xmlns="http://www.w3.org/2000/svg" xmlns:xlink="http://www.w3.org/1999/xlink" width="690" height="600" viewBox="0 0 690 600"><defs><clipPath id="b"><rect width="690" height="600"/></clipPath></defs><g id="a" clip-path="url(#b)"><g transform="translate(-551 -73.226)"><path d="M748.2,597.519a15.193,15.193,0,0,0,11.565,18.346,15.7,15.7,0,0,0,18.9-11.227A15.191,15.191,0,0,0,767.1,586.291a15.7,15.7,0,0,0-18.9,11.227m-18.5-9.97a34.9,34.9,0,0,1,3.7-6.609l-5.466-5.863a1.151,1.151,0,0,1,.02-1.595l5.285-5.4a1.232,1.232,0,0,1,1.635-.1l6.35,4.99a36.928,36.928,0,0,1,6.575-3.9l-1.717-7.741a1.168,1.168,0,0,1,.838-1.371l7.359-2.111a1.221,1.221,0,0,1,1.469.706l2.924,7.393a37.435,37.435,0,0,1,7.709-.181l2.5-7.534a1.212,1.212,0,0,1,1.432-.78l7.46,1.744a1.172,1.172,0,0,1,.91,1.323l-1.276,7.829a36.552,36.552,0,0,1,6.774,3.575l6.04-5.306a1.238,1.238,0,0,1,1.642.019l5.561,5.131a1.146,1.146,0,0,1,.107,1.587l-5.141,6.165a35.5,35.5,0,0,1,4.019,6.383l7.974-1.667a1.209,1.209,0,0,1,1.412.813l2.175,7.144a1.168,1.168,0,0,1-.725,1.427l-7.616,2.839a34.193,34.193,0,0,1,.187,7.483l7.76,2.427a1.166,1.166,0,0,1,.8,1.39l-1.8,7.242a1.205,1.205,0,0,1-1.362.883l-8.064-1.24a35.014,35.014,0,0,1-3.662,6.548l5.451,5.894a1.149,1.149,0,0,1-.023,1.59l-5.285,5.4a1.233,1.233,0,0,1-1.64.1l-6.318-5.007a36.953,36.953,0,0,1-6.571,3.907l1.687,7.76a1.167,1.167,0,0,1-.839,1.365L772.6,644.31a1.221,1.221,0,0,1-1.471-.709l-2.89-7.393a37.417,37.417,0,0,1-7.709.188l-2.534,7.535a1.211,1.211,0,0,1-1.43.775l-7.46-1.744a1.17,1.17,0,0,1-.91-1.327l1.306-7.812a36.668,36.668,0,0,1-6.778-3.567l-6.071,5.291a1.236,1.236,0,0,1-1.638-.022L729.45,630.4a1.147,1.147,0,0,1-.1-1.592l5.157-6.135a35.462,35.462,0,0,1-4.025-6.378l-7.993,1.638a1.21,1.21,0,0,1-1.407-.814L718.9,609.97a1.167,1.167,0,0,1,.729-1.428l7.616-2.805a34.2,34.2,0,0,1-.195-7.483l-7.762-2.461a1.166,1.166,0,0,1-.8-1.388l1.8-7.242a1.205,1.205,0,0,1,1.368-.882Z" transform="translate(-38.582 -113.328)" fill="#1369b1" fill-rule="evenodd"/><path d="M759,586.3a16.058,16.058,0,0,1,19.853,10.481,15.446,15.446,0,0,1-10.8,19.273,16.058,16.058,0,0,1-19.852-10.481A15.445,15.445,0,0,1,759,586.3m-.474-19.913a37.041,37.041,0,0,1,8.172-.209l2.573-7.757a.9.9,0,0,1,1.06-.577l7.46,1.744a.866.866,0,0,1,.674.979l-1.316,8.073a36.7,36.7,0,0,1,7.142,3.773l6.232-5.475a.911.911,0,0,1,1.215.015l5.562,5.13a.849.849,0,0,1,.079,1.176l-5.29,6.343a34.608,34.608,0,0,1,4.238,6.743l8.214-1.716a.893.893,0,0,1,1.045.6l2.174,7.144a.859.859,0,0,1-.536,1.056l-7.855,2.928a33.756,33.756,0,0,1,.21,7.9l7.991,2.5a.864.864,0,0,1,.595,1.03l-1.8,7.242a.892.892,0,0,1-1.008.654l-8.315-1.278a35.028,35.028,0,0,1-3.888,6.933l5.64,6.05a.847.847,0,0,1-.015,1.18l-5.286,5.4a.912.912,0,0,1-1.21.076l-6.534-5.137a36.034,36.034,0,0,1-6.945,4.115l1.768,7.973a.865.865,0,0,1-.621,1.015l-7.357,2.11a.9.9,0,0,1-1.088-.52l-3.015-7.626a36.916,36.916,0,0,1-8.1.206l-2.61,7.759a.9.9,0,0,1-1.059.575l-7.459-1.744a.867.867,0,0,1-.672-.982l1.346-8.056a36.807,36.807,0,0,1-7.146-3.768l-6.263,5.459a.912.912,0,0,1-1.213-.016l-5.562-5.132a.846.846,0,0,1-.077-1.177l5.309-6.314a34.764,34.764,0,0,1-4.246-6.738l-8.232,1.687a.9.9,0,0,1-1.042-.6l-2.173-7.143a.86.86,0,0,1,.539-1.057l7.856-2.893a33.866,33.866,0,0,1-.217-7.9l-7.993-2.532a.862.862,0,0,1-.591-1.028l1.8-7.241a.891.891,0,0,1,1.012-.653l8.3,1.307a35.1,35.1,0,0,1,3.882-6.937l-5.623-6.08a.847.847,0,0,1,.016-1.178l5.286-5.4a.911.911,0,0,1,1.213-.075l6.5,5.154a36.147,36.147,0,0,1,6.942-4.123l-1.738-7.99a.863.863,0,0,1,.621-1.011l7.358-2.111a.9.9,0,0,1,1.089.524Z" transform="translate(-38.676 -113.431)" fill="#217dc5" fill-rule="evenodd"/><path d="M759.794,592.731a18.247,18.247,0,0,0-8.472,11.3,17.752,17.752,0,0,0,2.243,13.81,18.729,18.729,0,0,0,11.646,8.224,19.233,19.233,0,0,0,14.225-2.177,18.253,18.253,0,0,0,8.473-11.306,17.755,17.755,0,0,0-2.244-13.809,18.739,18.739,0,0,0-11.645-8.226,19.237,19.237,0,0,0-14.225,2.18m-14.415,9.915A24.179,24.179,0,0,1,756.6,587.67a25.484,25.484,0,0,1,18.847-2.885,24.817,24.817,0,0,1,15.428,10.9,23.525,23.525,0,0,1,2.972,18.3,24.182,24.182,0,0,1-11.224,14.977,25.49,25.49,0,0,1-18.847,2.885,24.816,24.816,0,0,1-15.428-10.9A23.529,23.529,0,0,1,745.379,602.646Z" transform="translate(-44.609 -120.063)" fill="#1369b1" fill-rule="evenodd"/><path d="M778.7,591.4a19.64,19.64,0,0,0-14.607-1.5,19.015,19.015,0,0,0-11.421,8.966,18.087,18.087,0,0,0-1.545,14.18,18.7,18.7,0,0,0,9.236,11.088,19.645,19.645,0,0,0,14.606,1.5,19.018,19.018,0,0,0,11.422-8.966,18.091,18.091,0,0,0,1.544-14.18A18.693,18.693,0,0,0,778.7,591.4m-16.127-6.493a25.134,25.134,0,0,1,18.689,1.919,23.926,23.926,0,0,1,11.817,14.185,23.147,23.147,0,0,1-1.978,18.143,24.338,24.338,0,0,1-14.611,11.471,25.126,25.126,0,0,1-18.688-1.919,23.92,23.92,0,0,1-11.817-14.185,23.146,23.146,0,0,1,1.977-18.142A24.338,24.338,0,0,1,762.57,584.907Z" transform="translate(-44.675 -120.016)" fill="#3ea5ec"/><path d="M756.552,606.945a16.011,16.011,0,0,1,19.277-11.451,15.5,15.5,0,0,1,11.8,18.714,16.01,16.01,0,0,1-19.277,11.451,15.5,15.5,0,0,1-11.8-18.714m30.317-.609a15.489,15.489,0,0,0-19.149-10.109,14.9,14.9,0,0,0-10.412,18.588,15.488,15.488,0,0,0,19.147,10.109A14.9,14.9,0,0,0,786.868,606.336Z" transform="translate(-47.234 -122.826)" fill="#1369b1" fill-rule="evenodd"/><path d="M682.095,555.589a7.937,7.937,0,0,0,6.04,9.583,8.2,8.2,0,0,0,9.871-5.863,7.936,7.936,0,0,0-6.04-9.583,8.2,8.2,0,0,0-9.871,5.863m-9.663-5.206a18.2,18.2,0,0,1,1.93-3.452l-2.855-3.062a.6.6,0,0,1,.011-.832l2.76-2.821a.643.643,0,0,1,.854-.055l3.316,2.607a19.289,19.289,0,0,1,3.434-2.037l-.9-4.043a.609.609,0,0,1,.437-.716l3.844-1.1a.636.636,0,0,1,.767.368l1.528,3.861a19.641,19.641,0,0,1,4.026-.094l1.305-3.934a.633.633,0,0,1,.748-.408l3.9.911a.611.611,0,0,1,.475.69l-.667,4.089a19.13,19.13,0,0,1,3.538,1.866l3.155-2.77a.645.645,0,0,1,.857.01l2.905,2.68a.6.6,0,0,1,.056.828l-2.685,3.22a18.523,18.523,0,0,1,2.1,3.334l4.165-.87a.632.632,0,0,1,.738.425l1.135,3.731a.609.609,0,0,1-.379.745l-3.978,1.483a17.874,17.874,0,0,1,.1,3.908l4.053,1.267a.609.609,0,0,1,.42.726l-.938,3.782a.628.628,0,0,1-.712.461l-4.212-.647a18.2,18.2,0,0,1-1.912,3.42l2.847,3.078a.6.6,0,0,1-.012.831l-2.761,2.82a.643.643,0,0,1-.856.053l-3.3-2.615a19.233,19.233,0,0,1-3.432,2.041l.881,4.052a.611.611,0,0,1-.438.714l-3.843,1.1a.637.637,0,0,1-.769-.37l-1.51-3.862a19.482,19.482,0,0,1-4.026.1l-1.323,3.936a.633.633,0,0,1-.748.4l-3.9-.91a.613.613,0,0,1-.474-.694l.682-4.08a19.172,19.172,0,0,1-3.54-1.863l-3.171,2.764a.646.646,0,0,1-.856-.011l-2.905-2.681a.6.6,0,0,1-.055-.831l2.694-3.2a18.505,18.505,0,0,1-2.1-3.331l-4.174.856a.633.633,0,0,1-.735-.426l-1.136-3.732a.609.609,0,0,1,.381-.745l3.978-1.466a17.875,17.875,0,0,1-.1-3.907l-4.054-1.285a.61.61,0,0,1-.417-.726l.938-3.782a.629.629,0,0,1,.714-.461Z" transform="translate(-26.654 -107.582)" fill="#1369b1" fill-rule="evenodd"/><path d="M687.734,549.731a8.39,8.39,0,0,1,10.37,5.474,8.07,8.07,0,0,1-5.639,10.068A8.389,8.389,0,0,1,682.1,559.8a8.069,8.069,0,0,1,5.638-10.068m-.247-10.4a19.286,19.286,0,0,1,4.268-.11l1.344-4.052a.469.469,0,0,1,.554-.3l3.9.911a.452.452,0,0,1,.352.511l-.688,4.216a19.211,19.211,0,0,1,3.731,1.972l3.255-2.861a.478.478,0,0,1,.635.008l2.905,2.681a.442.442,0,0,1,.042.614l-2.763,3.313a18.126,18.126,0,0,1,2.214,3.521l4.29-.9a.465.465,0,0,1,.545.314L713.2,552.9a.447.447,0,0,1-.28.55l-4.1,1.531a17.7,17.7,0,0,1,.109,4.124l4.173,1.305a.451.451,0,0,1,.31.538l-.938,3.782a.465.465,0,0,1-.527.342l-4.342-.667a18.313,18.313,0,0,1-2.031,3.621l2.946,3.161a.443.443,0,0,1-.008.616l-2.76,2.82a.474.474,0,0,1-.632.039l-3.413-2.68a18.907,18.907,0,0,1-3.628,2.148L699,578.3a.453.453,0,0,1-.324.53l-3.844,1.1a.471.471,0,0,1-.568-.272l-1.575-3.982a19.3,19.3,0,0,1-4.23.107l-1.362,4.052a.469.469,0,0,1-.553.3l-3.9-.911a.453.453,0,0,1-.352-.514l.7-4.206a19.322,19.322,0,0,1-3.733-1.969L676,575.387a.478.478,0,0,1-.634-.007l-2.905-2.681a.443.443,0,0,1-.04-.615l2.773-3.3a18.192,18.192,0,0,1-2.217-3.519l-4.3.881a.467.467,0,0,1-.544-.315L667,562.1a.451.451,0,0,1,.283-.553l4.1-1.512a17.7,17.7,0,0,1-.114-4.124l-4.174-1.323a.449.449,0,0,1-.308-.536l.937-3.783a.466.466,0,0,1,.529-.342l4.334.684a18.253,18.253,0,0,1,2.027-3.625l-2.937-3.176a.442.442,0,0,1,.008-.615l2.761-2.82a.478.478,0,0,1,.633-.04l3.4,2.693a18.828,18.828,0,0,1,3.625-2.152l-.907-4.175a.45.45,0,0,1,.325-.527l3.843-1.1a.47.47,0,0,1,.568.274Z" transform="translate(-26.703 -107.636)" fill="#217dc5" fill-rule="evenodd"/><path d="M688.148,553.088a9.539,9.539,0,0,0-4.425,5.906,9.273,9.273,0,0,0,1.171,7.212,9.784,9.784,0,0,0,6.083,4.3,10.053,10.053,0,0,0,7.43-1.137,9.534,9.534,0,0,0,4.425-5.9,9.276,9.276,0,0,0-1.171-7.214,9.774,9.774,0,0,0-6.083-4.295,10.044,10.044,0,0,0-7.429,1.136m-7.53,5.18a12.637,12.637,0,0,1,5.863-7.823,13.314,13.314,0,0,1,9.844-1.507,12.959,12.959,0,0,1,8.058,5.692,12.283,12.283,0,0,1,1.553,9.554,12.63,12.63,0,0,1-5.863,7.823,13.311,13.311,0,0,1-9.844,1.507,12.962,12.962,0,0,1-8.057-5.691A12.286,12.286,0,0,1,680.618,558.268Z" transform="translate(-29.802 -111.1)" fill="#1369b1" fill-rule="evenodd"/><path d="M698.021,552.394a10.258,10.258,0,0,0-7.628-.784,9.941,9.941,0,0,0-5.966,4.683,9.447,9.447,0,0,0-.806,7.407,9.766,9.766,0,0,0,4.824,5.791,10.261,10.261,0,0,0,7.628.783,9.935,9.935,0,0,0,5.966-4.683,9.451,9.451,0,0,0,.807-7.406,9.767,9.767,0,0,0-4.824-5.79M689.6,549a13.128,13.128,0,0,1,9.761,1,12.5,12.5,0,0,1,6.171,7.409,12.085,12.085,0,0,1-1.033,9.475,12.711,12.711,0,0,1-7.632,5.992,13.124,13.124,0,0,1-9.761-1,12.5,12.5,0,0,1-6.171-7.408,12.089,12.089,0,0,1,1.033-9.476A12.709,12.709,0,0,1,689.6,549Z" transform="translate(-29.836 -111.076)" fill="#3ea5ec"/><path d="M686.454,560.513a8.365,8.365,0,0,1,10.069-5.981,8.1,8.1,0,0,1,6.161,9.775,8.361,8.361,0,0,1-10.068,5.982,8.1,8.1,0,0,1-6.161-9.775m15.835-.318a8.089,8.089,0,0,0-10-5.279,7.78,7.78,0,0,0-5.439,9.708,8.09,8.09,0,0,0,10,5.281A7.781,7.781,0,0,0,702.289,560.2Z" transform="translate(-31.173 -112.543)" fill="#1369b1" fill-rule="evenodd"/><path d="M728.141,495.9a4.807,4.807,0,0,0,3.66,5.8,4.966,4.966,0,0,0,5.98-3.551,4.806,4.806,0,0,0-3.658-5.806,4.967,4.967,0,0,0-5.981,3.553m-5.854-3.154a11.01,11.01,0,0,1,1.17-2.093l-1.73-1.854a.365.365,0,0,1,.006-.505l1.673-1.708a.388.388,0,0,1,.517-.032l2.009,1.578a11.662,11.662,0,0,1,2.081-1.234l-.544-2.451a.369.369,0,0,1,.266-.434l2.328-.667a.386.386,0,0,1,.465.223l.925,2.339a11.887,11.887,0,0,1,2.44-.058l.79-2.383a.383.383,0,0,1,.454-.247l2.361.552a.371.371,0,0,1,.288.419l-.4,2.477a11.48,11.48,0,0,1,2.143,1.132l1.912-1.679a.392.392,0,0,1,.519.005l1.76,1.624a.363.363,0,0,1,.034.5l-1.627,1.95a11.164,11.164,0,0,1,1.272,2.021l2.523-.527a.381.381,0,0,1,.447.256l.689,2.261a.369.369,0,0,1-.229.451l-2.41.9a10.833,10.833,0,0,1,.059,2.369l2.455.769a.368.368,0,0,1,.255.44l-.569,2.291a.38.38,0,0,1-.43.279l-2.552-.391a11.025,11.025,0,0,1-1.158,2.072l1.725,1.865a.365.365,0,0,1-.008.5l-1.673,1.708a.389.389,0,0,1-.518.031l-2-1.584a11.662,11.662,0,0,1-2.079,1.237l.535,2.457a.37.37,0,0,1-.266.432l-2.328.667a.384.384,0,0,1-.465-.223l-.914-2.339a11.886,11.886,0,0,1-2.44.06l-.8,2.383a.383.383,0,0,1-.453.247l-2.361-.552a.372.372,0,0,1-.287-.421l.413-2.472a11.484,11.484,0,0,1-2.145-1.129l-1.922,1.675a.392.392,0,0,1-.518-.007l-1.76-1.624a.363.363,0,0,1-.033-.5l1.632-1.941a11.21,11.21,0,0,1-1.274-2.018l-2.529.518a.383.383,0,0,1-.445-.258l-.689-2.261a.368.368,0,0,1,.231-.451l2.41-.888a10.88,10.88,0,0,1-.062-2.369l-2.456-.778a.37.37,0,0,1-.253-.44l.568-2.291a.38.38,0,0,1,.432-.279Z" transform="translate(-38.644 -94.603)" fill="#1369b1" fill-rule="evenodd"/><path d="M731.558,492.347a5.082,5.082,0,0,1,6.282,3.317,4.887,4.887,0,0,1-3.416,6.1,5.082,5.082,0,0,1-6.282-3.316,4.888,4.888,0,0,1,3.416-6.1m-.15-6.3a11.726,11.726,0,0,1,2.586-.067l.813-2.455a.285.285,0,0,1,.337-.182l2.36.552a.274.274,0,0,1,.213.31l-.416,2.554a11.666,11.666,0,0,1,2.26,1.195l1.972-1.732a.288.288,0,0,1,.384,0l1.761,1.624a.268.268,0,0,1,.025.371l-1.674,2.008a11.021,11.021,0,0,1,1.342,2.133l2.6-.543a.282.282,0,0,1,.33.191l.688,2.259a.272.272,0,0,1-.17.334l-2.485.927a10.671,10.671,0,0,1,.065,2.5l2.529.79a.273.273,0,0,1,.188.325l-.568,2.293a.281.281,0,0,1-.32.206l-2.631-.4a11.075,11.075,0,0,1-1.23,2.2l1.785,1.914a.269.269,0,0,1,0,.374l-1.673,1.708a.289.289,0,0,1-.384.024l-2.066-1.625a11.428,11.428,0,0,1-2.2,1.3l.559,2.523a.274.274,0,0,1-.2.321l-2.328.667a.285.285,0,0,1-.345-.164l-.953-2.413a11.693,11.693,0,0,1-2.562.066l-.826,2.455a.284.284,0,0,1-.335.181l-2.36-.552a.274.274,0,0,1-.213-.31l.426-2.55a11.663,11.663,0,0,1-2.261-1.192l-1.982,1.728a.289.289,0,0,1-.384-.006l-1.761-1.624a.268.268,0,0,1-.024-.372l1.68-2a11,11,0,0,1-1.343-2.132l-2.605.533a.282.282,0,0,1-.329-.191l-.689-2.259a.273.273,0,0,1,.171-.336l2.485-.916a10.726,10.726,0,0,1-.068-2.5l-2.529-.8a.272.272,0,0,1-.187-.324l.568-2.293a.282.282,0,0,1,.32-.206l2.625.413a11.137,11.137,0,0,1,1.228-2.194l-1.78-1.924a.268.268,0,0,1,.005-.372l1.673-1.709a.29.29,0,0,1,.384-.023l2.059,1.631a11.387,11.387,0,0,1,2.2-1.3l-.551-2.529a.274.274,0,0,1,.2-.32l2.328-.668a.287.287,0,0,1,.345.166Z" transform="translate(-38.674 -94.636)" fill="#217dc5" fill-rule="evenodd"/><path d="M731.808,494.381a5.776,5.776,0,0,0-2.68,3.578,5.611,5.611,0,0,0,.71,4.369,5.929,5.929,0,0,0,3.684,2.6,6.093,6.093,0,0,0,4.5-.689,5.775,5.775,0,0,0,2.681-3.578,5.623,5.623,0,0,0-.71-4.371,5.928,5.928,0,0,0-3.685-2.6,6.089,6.089,0,0,0-4.5.689m-4.561,3.138a7.655,7.655,0,0,1,3.552-4.74,8.069,8.069,0,0,1,5.964-.913,7.855,7.855,0,0,1,4.881,3.448,7.444,7.444,0,0,1,.941,5.79,7.659,7.659,0,0,1-3.552,4.74,8.066,8.066,0,0,1-5.964.912,7.854,7.854,0,0,1-4.882-3.449A7.443,7.443,0,0,1,727.247,497.519Z" transform="translate(-40.551 -96.734)" fill="#1369b1" fill-rule="evenodd"/><path d="M737.791,493.959a6.221,6.221,0,0,0-4.623-.473,6.012,6.012,0,0,0-3.614,2.837,5.721,5.721,0,0,0-.488,4.486,5.921,5.921,0,0,0,2.922,3.509,6.213,6.213,0,0,0,4.622.475,6.019,6.019,0,0,0,3.615-2.837,5.723,5.723,0,0,0,.488-4.488,5.921,5.921,0,0,0-2.922-3.509m-5.1-2.053a7.945,7.945,0,0,1,5.913.607,7.573,7.573,0,0,1,3.74,4.487,7.327,7.327,0,0,1-.626,5.742,7.71,7.71,0,0,1-4.624,3.63,7.956,7.956,0,0,1-5.913-.607,7.568,7.568,0,0,1-3.74-4.489,7.32,7.32,0,0,1,.626-5.741A7.7,7.7,0,0,1,732.688,491.906Z" transform="translate(-40.572 -96.72)" fill="#3ea5ec"/><path d="M730.783,498.878a5.065,5.065,0,0,1,6.1-3.623,4.9,4.9,0,0,1,3.733,5.922,5.068,5.068,0,0,1-6.1,3.624,4.9,4.9,0,0,1-3.732-5.923m9.593-.192a4.9,4.9,0,0,0-6.059-3.2,4.713,4.713,0,0,0-3.295,5.882,4.9,4.9,0,0,0,6.059,3.2A4.716,4.716,0,0,0,740.376,498.686Z" transform="translate(-41.382 -97.609)" fill="#1369b1" fill-rule="evenodd"/><path d="M902.938,219.285l9.646-2.7h40.3l-9.646,2.7Z" transform="translate(-80.982 -27.33)" fill="#ffb540" fill-rule="evenodd"/><path d="M955.269,219.285l9.646-2.7v45.945l-9.646,2.7Z" transform="translate(-93.009 -27.33)" fill="#ff7200" fill-rule="evenodd"/><rect width="40.304" height="45.946" transform="translate(821.956 191.955)" fill="#ffa000"/><path d="M979.748,181.362l9.641-2.706h40.3l-9.641,2.706Z" transform="translate(-98.635 -17.759)" fill="#9564f2" fill-rule="evenodd"/><path d="M1032.079,181.362l9.641-2.706v74.3l-9.641,2.706Z" transform="translate(-110.663 -17.759)" fill="#4512b1" fill-rule="evenodd"/><rect width="40.304" height="74.298" transform="translate(881.113 163.603)" fill="#7433ee"/><path d="M1056.559,153.019l9.641-2.706h40.3l-9.641,2.706Z" transform="translate(-116.289 -10.607)" fill="#ff6272" fill-rule="evenodd"/><path d="M1108.89,153.019l9.641-2.706V245.8l-9.641,2.706Z" transform="translate(-128.316 -10.607)" fill="#f20010" fill-rule="evenodd"/><rect width="40.304" height="95.489" transform="translate(940.27 142.412)" fill="#fb394b"/><path d="M1133.368,169.75l9.641-2.706h40.3l-9.641,2.706Z" transform="translate(-133.942 -14.829)" fill="#9564f2" fill-rule="evenodd"/><path d="M1185.7,169.75l9.641-2.706v82.98l-9.641,2.706Z" transform="translate(-145.97 -14.829)" fill="#4512b1" fill-rule="evenodd"/><rect width="40.304" height="82.98" transform="translate(999.426 154.921)" fill="#1976d2"/><path d="M1210.179,127.428l9.641-2.706h40.3l-9.641,2.706Z" transform="translate(-151.596 -4.15)" fill="#ffb540" fill-rule="evenodd"/><path d="M1262.511,127.428l9.641-2.706V239.345l-9.641,2.706Z" transform="translate(-163.624 -4.15)" fill="#ff7200" fill-rule="evenodd"/><rect width="40.304" height="114.623" transform="translate(1058.583 123.278)" fill="#ffa000"/><path d="M1286.989,166.027l9.641-2.706h40.3l-9.642,2.706Z" transform="translate(-169.249 -13.889)" fill="#ff6272" fill-rule="evenodd"/><path d="M1339.32,166.027l9.641-2.706v85.763l-9.641,2.706Z" transform="translate(-181.277 -13.889)" fill="#f20010" fill-rule="evenodd"/><rect width="40.304" height="85.763" transform="translate(1117.74 152.138)" fill="#fb394b"/><path d="M811.6,550.3l27.071-284.571c1.019-10.71,9.285-19.861,20.774-19.861h394.9c11.218,0,21.846,9.2,20.771,20.5l-26.565,279.224a5.27,5.27,0,0,1-5.319,4.71Z" transform="translate(-59.989 -34.718)" fill="#1976d2" fill-rule="evenodd"/><path d="M816.729,550.576H1245.99L1272.7,267.232c.863-9.135-7.758-16.68-17.18-16.68h-394.9c-9.425,0-16.325,7.573-17.182,16.68Z" transform="translate(-61.168 -35.9)" fill="#1976d2" fill-rule="evenodd"/><path d="M816.729,550.577h35.877l295.4-300.025H860.624c-9.426,0-16.326,7.572-17.182,16.679Z" transform="translate(-61.168 -35.9)" fill="#1976d2" fill-rule="evenodd"/><path d="M843.682,525.154l20.374-233.537h386.069L1229.75,525.154Z" transform="translate(-67.363 -46.261)" fill="#360e94" fill-rule="evenodd"/><path d="M846.534,523.418h383.351L1249.919,292.5H866.568Z" transform="translate(-68.018 -46.485)" fill="#f2edff" fill-rule="evenodd"/><path d="M846.534,523.418h50.085l227.353-230.913h-257.4Z" transform="translate(-68.018 -46.485)" fill="#f7f5ff" fill-rule="evenodd"/><path d="M755.561,651.825,550.588,661.856h451.756l182.481-10.031Z" transform="translate(0 -137.149)" fill="#1976d2" fill-rule="evenodd"/><path d="M814.631,661.31l-39.518,1.852H875.691l33.7-1.852Z" transform="translate(-51.603 -139.542)" fill="#1976d2" fill-rule="evenodd"/><path d="M787.833,654.173l-101.85,5.143h370.967l93.572-5.143Z" transform="translate(-31.118 -137.742)" fill="#1976d2" fill-rule="evenodd"/><path d="M550.589,665.241h451.565v22.649H560.269c-10.121,0-9.492-19.973-9.568-21.062Z" transform="translate(0 -140.534)" fill="#1976d2" fill-rule="evenodd"/><path d="M1319.581,651.825,1137.1,661.856l-.192,22.651,171.945-10.488c10.565-.645,10.479-15.715,10.577-18.305Z" transform="translate(-134.756 -137.149)" fill="#1976d2" fill-rule="evenodd"/><path d="M1125.3,269.9a8,8,0,1,1-8-7.766,7.886,7.886,0,0,1,8,7.766" transform="translate(-128.411 -38.822)" fill="#844bf0" fill-rule="evenodd"/><path d="M1111.183,270.373a6.552,6.552,0,1,1,6.548,6.359,6.454,6.454,0,0,1-6.548-6.359" transform="translate(-128.843 -39.297)" fill="#1a1840" fill-rule="evenodd"/><path d="M1115.359,271.423a3.335,3.335,0,1,1,3.333,3.237,3.285,3.285,0,0,1-3.333-3.237" transform="translate(-129.803 -40.35)" fill="#844bf0" fill-rule="evenodd"/><path d="M1316.1,357.718V293.159a7.949,7.949,0,0,0-8.045-7.8H1113.54a7.951,7.951,0,0,0-8.045,7.8v64.559a7.948,7.948,0,0,0,8.045,7.8h194.519a7.947,7.947,0,0,0,8.045-7.8" transform="translate(-127.536 -44.682)" fill="#c7aef9" fill-rule="evenodd"/><path d="M1315.434,358.03V293.472a7.009,7.009,0,0,0-7.091-6.876H1113.825a7.014,7.014,0,0,0-7.092,6.876V358.03a7.011,7.011,0,0,0,7.092,6.876h194.519a7.007,7.007,0,0,0,7.091-6.876" transform="translate(-127.821 -44.994)" fill="#fff" fill-rule="evenodd"/><path d="M1224.3,323.616l-6.4-6.584a22.851,22.851,0,0,0-3.431,28.514l7.788-4.972a14,14,0,0,1,2.04-16.957" transform="translate(-151.781 -52.674)" fill="#ffa000" fill-rule="evenodd"/><path d="M1244.471,349.385a15.036,15.036,0,0,1-19.919-3.4l-7.788,4.973a24.52,24.52,0,0,0,32.824,5.98,23.066,23.066,0,0,0,10.381-24.069l-9.073,2.087a14.148,14.148,0,0,1-6.426,14.43" transform="translate(-153.109 -56.67)" fill="#fb394b" fill-rule="evenodd"/><path d="M1242.079,316.768a14.85,14.85,0,0,1,12.3,6.45,14.148,14.148,0,0,1,1.806,3.744l9.073-2.087a23.03,23.03,0,0,0-3.1-6.625,24.254,24.254,0,0,0-20.624-10.519Z" transform="translate(-158.803 -50.326)" fill="#7433ee" fill-rule="evenodd"/><path d="M1235.76,316.9l-.542-9.036a24.413,24.413,0,0,0-10.949,3.742,24.045,24.045,0,0,0-2.646,1.952l6.4,6.583a14.953,14.953,0,0,1,7.739-3.242" transform="translate(-154.226 -50.36)" fill="#332a7c" fill-rule="evenodd"/><path d="M1328.806,322.9l7.947-4.728a24.443,24.443,0,0,0-28.033-9.1l3.414,8.417a14.99,14.99,0,0,1,16.673,5.413" transform="translate(-174.244 -50.328)" fill="#fb394b" fill-rule="evenodd"/><path d="M1298.208,336.989a14.151,14.151,0,0,1,7.509-18.224l-3.416-8.417a23.1,23.1,0,0,0-12.754,29.953,24.053,24.053,0,0,0,22.131,14.794l-.243-9.046a14.731,14.731,0,0,1-13.227-9.06" transform="translate(-169.452 -50.988)" fill="#332a7c" fill-rule="evenodd"/><path d="M1333.9,342.91a14.414,14.414,0,0,1-9.022,10.364,15.1,15.1,0,0,1-4.144.947l.245,9.046a24.632,24.632,0,0,0,7.311-1.585,23.5,23.5,0,0,0,14.828-17.434Z" transform="translate(-177.005 -59.204)" fill="#7433ee" fill-rule="evenodd"/><path d="M1337.663,336.368l9.218,1.338a22.629,22.629,0,0,0-1.528-11.168,23.3,23.3,0,0,0-1.425-2.913l-7.948,4.728a14.172,14.172,0,0,1,.712,1.5,13.878,13.878,0,0,1,.97,6.518" transform="translate(-180.509 -54.338)" fill="#ffa000" fill-rule="evenodd"/><path d="M1165.5,317.918l4.152-8.1a24.532,24.532,0,0,0-28.737,6.726l7.5,5.375a15.041,15.041,0,0,1,17.09-4" transform="translate(-135.677 -50.329)" fill="#332a7c" fill-rule="evenodd"/><path d="M1149.409,346.026a14.038,14.038,0,0,1-3.6-19.314l-7.5-5.375a22.906,22.906,0,0,0,5.562,31.958,24.654,24.654,0,0,0,26.845,1.139l-5.151-7.542a15.108,15.108,0,0,1-16.162-.867" transform="translate(-134.114 -53.76)" fill="#7433ee" fill-rule="evenodd"/><path d="M1181.824,331.151a13.951,13.951,0,0,1-1.982,13.431,14.512,14.512,0,0,1-2.995,2.938l5.152,7.541a23.7,23.7,0,0,0,5.33-5.11,22.766,22.766,0,0,0,3.038-22.416Z" transform="translate(-143.935 -55.324)" fill="#fb394b" fill-rule="evenodd"/><path d="M1180.672,325.558l8.544-3.614a23.407,23.407,0,0,0-7.4-8.679,24.231,24.231,0,0,0-2.8-1.735l-4.151,8.1a14.844,14.844,0,0,1,1.422.9,14.371,14.371,0,0,1,4.385,5.024" transform="translate(-143.48 -51.286)" fill="#ffa000" fill-rule="evenodd"/><path d="M819.956,286.6h200.826a9.327,9.327,0,0,1,9.43,9.165V432.616a9.328,9.328,0,0,1-9.43,9.167H819.956a9.326,9.326,0,0,1-9.429-9.167V295.761a9.325,9.325,0,0,1,9.429-9.165" transform="translate(-59.743 -44.994)" fill="#c7aef9" fill-rule="evenodd"/><path d="M820.29,288.049h200.823a8.227,8.227,0,0,1,8.312,8.079V432.984a8.233,8.233,0,0,1-8.312,8.079H820.29a8.227,8.227,0,0,1-8.311-8.079V296.128a8.221,8.221,0,0,1,8.311-8.079" transform="translate(-60.076 -45.361)" fill="#fff" fill-rule="evenodd"/><path d="M837.77,317.97V306.088H824.933V317.97Zm0,12.262V318.351H824.933v11.881Zm0,12.263V330.614H824.933v11.881Zm0,12.263V342.876H824.933v11.881Zm0,12.263V355.139H824.933V367.02Zm0,12.263V367.4H824.933v11.881Zm0,12.263V379.664H824.933v11.881Zm0,12.262V391.926H824.933v11.881Zm0,12.262V404.19H824.933v11.879Zm13.25-98.1V306.088H838.183V317.97Zm0,12.262V318.351H838.183v11.881Zm0,12.263V330.614H838.183v11.881Zm0,12.263V342.876H838.183v11.881Zm0,12.263V355.139H838.183V367.02Zm0,12.263V367.4H838.183v11.881Zm0,12.263V379.664H838.183v11.881Zm0,12.262V391.926H838.183v11.881Zm0,12.262V404.19H838.183v11.879Zm.413-11.879v11.879H864.27V404.19Zm0-12.264v11.881H864.27V391.926Zm0-12.261v11.881H864.27V379.664Zm0-12.263v11.881H864.27V367.4Zm0-12.263V367.02H864.27V355.139Zm0-12.263v11.881H864.27V342.876Zm0-12.263v11.881H864.27V330.614Zm0-12.263v11.881H864.27V318.351Zm0-12.263V317.97H864.27V306.088ZM877.52,317.97V306.088H864.683V317.97Zm0,12.262V318.351H864.683v11.881Zm0,12.263V330.614H864.683v11.881Zm0,12.263V342.876H864.683v11.881Zm0,12.263V355.139H864.683V367.02Zm0,12.263V367.4H864.683v11.881Zm0,12.263V379.664H864.683v11.881Zm0,12.262V391.926H864.683v11.881Zm0,12.262V404.19H864.683v11.879Zm13.249-98.1V306.088H877.932V317.97Zm0,12.262V318.351H877.932v11.881Zm0,12.263V330.614H877.932v11.881Zm0,12.263V342.876H877.932v11.881Zm0,12.263V355.139H877.932V367.02Zm0,12.263V367.4H877.932v11.881Zm0,12.263V379.664H877.932v11.881Zm0,12.262V391.926H877.932v11.881Zm0,12.262V404.19H877.932v11.879Zm.413-11.879v11.879H904.02V404.19Zm0-12.264v11.881H904.02V391.926Zm0-12.261v11.881H904.02V379.664Zm0-12.263v11.881H904.02V367.4Zm0-12.263V367.02H904.02V355.139Zm0-12.263v11.881H904.02V342.876Zm0-12.263v11.881H904.02V330.614Zm0-12.263v11.881H904.02V318.351Zm0-12.263V317.97H904.02V306.088ZM917.27,317.97V306.088H904.433V317.97Zm0,12.262V318.351H904.433v11.881Zm0,12.263V330.614H904.433v11.881Zm0,12.263V342.876H904.433v11.881Zm0,12.263V355.139H904.433V367.02Zm0,12.263V367.4H904.433v11.881Zm0,12.263V379.664H904.433v11.881Zm0,12.262V391.926H904.433v11.881Zm0,12.262V404.19H904.433v11.879Zm13.251-98.1V306.088H917.682V317.97Zm0,12.262V318.351H917.682v11.881Zm0,12.263V330.614H917.682v11.881Zm0,12.263V342.876H917.682v11.881Zm0,12.263V355.139H917.682V367.02Zm0,12.263V367.4H917.682v11.881Zm0,12.263V379.664H917.682v11.881Zm0,12.262V391.926H917.682v11.881Zm0,12.262V404.19H917.682v11.879Zm13.25-98.1V306.088H930.932V317.97Zm0,12.262V318.351H930.932v11.881Zm0,12.263V330.614H930.932v11.881Zm0,12.263V342.876H930.932v11.881Zm0,12.263V355.139H930.932V367.02Zm0,12.263V367.4H930.932v11.881Zm0,12.263V379.664H930.932v11.881Zm0,12.262V391.926H930.932v11.881Zm0,12.262V404.19H930.932v11.879Zm13.25-98.1V306.088H944.183V317.97Zm0,12.262V318.351H944.183v11.881Zm0,12.263V330.614H944.183v11.881Zm0,12.263V342.876H944.183v11.881Zm0,12.263V355.139H944.183V367.02Zm0,12.263V367.4H944.183v11.881Zm0,12.263V379.664H944.183v11.881Zm0,12.262V391.926H944.183v11.881Zm0,12.262V404.19H944.183v11.879Zm13.251-98.1V306.088H957.434V317.97Zm0,12.262V318.351H957.434v11.881Zm0,12.263V330.614H957.434v11.881Zm0,12.263V342.876H957.434v11.881Zm0,12.263V355.139H957.434V367.02Zm0,12.263V367.4H957.434v11.881Zm0,12.263V379.664H957.434v11.881Zm0,12.262V391.926H957.434v11.881Zm0,12.262V404.19H957.434v11.879Zm13.25-98.1V306.088H970.683V317.97Zm0,12.262V318.351H970.683v11.881Zm0,12.263V330.614H970.683v11.881Zm0,12.263V342.876H970.683v11.881Zm0,12.263V355.139H970.683V367.02Zm0,12.263V367.4H970.683v11.881Zm0,12.263V379.664H970.683v11.881Zm0,12.262V391.926H970.683v11.881Zm0,12.262V404.19H970.683v11.879Zm13.25-98.1V306.088H983.933V317.97Zm0,12.262V318.351H983.933v11.881Zm0,12.263V330.614H983.933v11.881Zm0,12.263V342.876H983.933v11.881Zm0,12.263V355.139H983.933V367.02Zm0,12.263V367.4H983.933v11.881Zm0,12.263V379.664H983.933v11.881Zm0,12.262V391.926H983.933v11.881Zm0,12.262V404.19H983.933v11.879Zm13.25-98.1V306.088H997.183V317.97Zm0,12.262V318.351H997.183v11.881Zm0,12.263V330.614H997.183v11.881Zm0,12.263V342.876H997.183v11.881Zm0,12.263V355.139H997.183V367.02Zm0,12.263V367.4H997.183v11.881Zm0,12.263V379.664H997.183v11.881Zm0,12.262V391.926H997.183v11.881Zm0,12.262V404.19H997.183v11.879Zm.413-11.879v11.879h11.8V404.19Zm0-12.264v11.881h11.8V391.926Zm0-12.261v11.881h11.8V379.664Zm0-12.263v11.881h11.8V367.4Zm0-12.263V367.02h11.8V355.139Zm0-12.263v11.881h11.8V342.876Zm0-12.263v11.881h11.8V330.614Zm0-12.263v11.881h11.8V318.351Zm0-12.263V317.97h11.8V306.088Zm-185.707-.381h197.922V416.452H824.519V305.707Z" transform="translate(-62.958 -49.817)" fill="#a67df5"/><path d="M853.4,396.2s10.087-32.107,22.982-11.713c7.54,11.925,13.594,21.825,25.3,18.672,12.993-3.5,25.412-56.737,46.943-31.812,27.11,43.633,32.072,10.946,56.75-20.28,8.474-10.722,16.636-9.895,23.912-2.926v77.325H853.4Z" transform="translate(-69.596 -59.212)" fill="#ff5668" fill-rule="evenodd"/><path d="M824.513,403.413s9.763-28.052,22.246-10.234c7.3,10.419,13.158,19.069,24.492,16.314,12.575-3.059,24.6-49.571,45.441-27.795,26.242,38.123,31.045,9.564,54.934-17.718,13.13-14.995,25.484-4.138,34.792,13.2l16.236,30.241-.006,21.565H824.518Z" transform="translate(-62.957 -62.73)" fill="#1976d2" fill-rule="evenodd"/><path d="M872.743,461.483H888.92v1.455H872.743ZM915.309,470H885.733v1.456h29.577Zm-24.166-8.521h34.144v1.455H891.144Zm-18.4,4.26h27.6V467.2h-27.6Zm0,4.261h8v1.456h-8Zm48.156-4.261H904.008V467.2H920.9Z" transform="translate(-74.042 -89.122)" fill="#1a1840" fill-rule="evenodd"/><path d="M1006.6,462.356h34.144v1.455H1006.6Zm-18.4,4.262h44.177v1.454H988.2Zm0,4.26h18.6v1.456H988.2Zm0-8.521h16.176v1.455H988.2Z" transform="translate(-100.577 -89.342)" fill="#1a1840" fill-rule="evenodd"/><path d="M1255.13,401.831h87.159a6.6,6.6,0,0,1,6.671,6.484V548.626a6.6,6.6,0,0,1-6.671,6.484H1255.13a6.6,6.6,0,0,1-6.67-6.484V408.315a6.6,6.6,0,0,1,6.67-6.484" transform="translate(-160.394 -74.071)" fill="#c7aef9" fill-rule="evenodd"/><path d="M1255.367,402.86h87.158a5.817,5.817,0,0,1,5.881,5.715V548.885a5.817,5.817,0,0,1-5.881,5.715h-87.158a5.816,5.816,0,0,1-5.88-5.715V408.575a5.815,5.815,0,0,1,5.88-5.715" transform="translate(-160.63 -74.33)" fill="#fff" fill-rule="evenodd"/><path d="M1112.168,401.831h87.158a6.6,6.6,0,0,1,6.671,6.484V548.626a6.6,6.6,0,0,1-6.671,6.484h-87.158a6.6,6.6,0,0,1-6.671-6.484V408.315a6.6,6.6,0,0,1,6.671-6.484" transform="translate(-127.537 -74.071)" fill="#c7aef9" fill-rule="evenodd"/><path d="M1112.4,402.86h87.158a5.816,5.816,0,0,1,5.88,5.715V548.885a5.817,5.817,0,0,1-5.88,5.715H1112.4a5.816,5.816,0,0,1-5.88-5.715V408.575a5.816,5.816,0,0,1,5.88-5.715" transform="translate(-127.773 -74.33)" fill="#fff" fill-rule="evenodd"/><path d="M1268.569,502.965v-9.133a1.015,1.015,0,0,1,1.028-1H1279a1.014,1.014,0,0,1,1.027,1v9.133a1.016,1.016,0,0,1-1.027,1H1269.6a1.017,1.017,0,0,1-1.028-1" transform="translate(-165.016 -97.033)" fill="#5416cf" fill-rule="evenodd"/><rect width="38.623" height="2.747" transform="translate(1121.216 399.993)" fill="#9564f2"/><path d="M1268.569,531.318v-9.133a1.017,1.017,0,0,1,1.028-1H1279a1.016,1.016,0,0,1,1.027,1v9.133a1.015,1.015,0,0,1-1.027,1H1269.6a1.015,1.015,0,0,1-1.028-1" transform="translate(-165.016 -104.186)" fill="#5416cf" fill-rule="evenodd"/><rect width="38.623" height="2.745" transform="translate(1121.216 421.193)" fill="#9564f2"/><path d="M1268.569,559.67v-9.133a1.016,1.016,0,0,1,1.028-1H1279a1.015,1.015,0,0,1,1.027,1v9.133a1.016,1.016,0,0,1-1.027,1H1269.6a1.017,1.017,0,0,1-1.028-1" transform="translate(-165.016 -111.341)" fill="#5416cf" fill-rule="evenodd"/><rect width="38.623" height="2.745" transform="translate(1121.216 442.392)" fill="#9564f2"/><path d="M1339.582,440.152H1319.27a4.887,4.887,0,0,0-4.943,4.8v19.72a4.887,4.887,0,0,0,4.943,4.8h20.313a4.887,4.887,0,0,0,4.943-4.8V444.95a4.887,4.887,0,0,0-4.943-4.8" transform="translate(-175.533 -83.74)" fill="#8699ad" fill-rule="evenodd"/><path d="M1343.262,465.111V445.689a3.258,3.258,0,0,0-3.295-3.2h-20.007a3.258,3.258,0,0,0-3.3,3.2v19.422a3.258,3.258,0,0,0,3.3,3.2h20.007a3.257,3.257,0,0,0,3.295-3.2" transform="translate(-176.07 -84.329)" fill="#fff" fill-rule="evenodd"/><path d="M1326,454.43l-6.366,11.389a1.524,1.524,0,0,0,.032,1.581,1.621,1.621,0,0,0,1.416.781h19.03a1.617,1.617,0,0,0,1.416-.781,1.522,1.522,0,0,0,.032-1.581l-3.471-6.21a1.672,1.672,0,0,0-2.9,0l-1.122,2.007a.668.668,0,0,1-1.158,0l-4.016-7.186a1.672,1.672,0,0,0-2.9,0" transform="translate(-176.705 -87.131)" fill="#92b9df" fill-rule="evenodd"/><path d="M1342.583,446.448a2.764,2.764,0,1,0,2.845,2.763,2.806,2.806,0,0,0-2.845-2.763" transform="translate(-181.373 -85.328)" fill="#c7aef9" fill-rule="evenodd"/><path d="M1304.856,423.024h-29.185a7.022,7.022,0,0,0-7.1,6.894v28.333a7.022,7.022,0,0,0,7.1,6.9h29.185a7.021,7.021,0,0,0,7.1-6.9V429.918a7.021,7.021,0,0,0-7.1-6.894" transform="translate(-165.016 -79.418)" fill="#1976d2" fill-rule="evenodd"/><path d="M1310.144,458.885V430.979a4.681,4.681,0,0,0-4.735-4.6h-28.746a4.681,4.681,0,0,0-4.735,4.6v27.906a4.681,4.681,0,0,0,4.735,4.6h28.746a4.681,4.681,0,0,0,4.735-4.6" transform="translate(-165.788 -80.265)" fill="#f7f5ff" fill-rule="evenodd"/><path d="M1285.343,443.537,1276.2,459.9a2.186,2.186,0,0,0,.047,2.271,2.323,2.323,0,0,0,2.034,1.123h27.343a2.324,2.324,0,0,0,2.035-1.123,2.184,2.184,0,0,0,.046-2.271l-4.987-8.924a2.4,2.4,0,0,0-4.162,0l-1.612,2.884a.96.96,0,0,1-1.664,0l-5.77-10.325a2.4,2.4,0,0,0-4.163,0" transform="translate(-166.701 -84.291)" fill="#1976d2" fill-rule="evenodd"/><path d="M1309.167,432.07a3.971,3.971,0,1,0,4.088,3.97,4.031,4.031,0,0,0-4.088-3.97" transform="translate(-173.407 -81.701)" fill="#1976d2" fill-rule="evenodd"/><rect width="23.935" height="3.058" transform="translate(1023.346 345.313)" fill="#844bf0"/><rect width="16.801" height="3.057" transform="translate(1023.346 351.567)" fill="#ff5668"/><rect width="30.883" height="3.057" transform="translate(1023.346 357.821)" fill="#844bf0"/><rect width="43.204" height="3.058" transform="translate(1023.346 364.074)" fill="#ff5668"/><path d="M1135.48,450.885a1.8,1.8,0,0,1-1.455-.679c-4.971-6.3-11.146-13.214-11.146-21.03,0-6.328,5.641-11.457,12.6-11.457v6.674a5.245,5.245,0,1,0,0,10.485Z" transform="translate(-131.531 -78.079)" fill="#ff5668" fill-rule="evenodd"/><path d="M1139.239,450.885a1.8,1.8,0,0,0,1.456-.679c4.97-6.3,11.146-13.214,11.146-21.03,0-6.328-5.642-11.457-12.6-11.457v6.674a5.245,5.245,0,1,1,0,10.485Z" transform="translate(-135.292 -78.079)" fill="#f61d2d" fill-rule="evenodd"/><rect width="6.497" height="25.491" transform="translate(991.588 438.785)" fill="#fb394b"/><rect width="6.497" height="20.259" transform="translate(1001.124 444.017)" fill="#7433ee"/><rect width="6.496" height="11.012" transform="translate(1010.66 453.264)" fill="#ffa000"/><rect width="6.497" height="29.507" transform="translate(1020.195 434.769)" fill="#332a7c"/><rect width="6.497" height="42.162" transform="translate(1029.73 422.114)" fill="#7433ee"/><rect width="6.497" height="25.491" transform="translate(1039.266 438.785)" fill="#fb394b"/><rect width="6.497" height="32.793" transform="translate(1048.801 431.483)" fill="#332a7c"/><rect width="6.497" height="18.921" transform="translate(1058.337 445.355)" fill="#ffa000"/><rect width="74.105" height="1.346" transform="translate(991.158 466.873)" fill="#2b2468"/><path d="M1189.826,507.9l3.146-16.009,14.224-8.652a16.67,16.67,0,0,0-12.665-7.167,16.448,16.448,0,0,0-17.728,14.943,16.2,16.2,0,0,0,13.023,16.886" transform="translate(-143.916 -92.793)" fill="#ffa000" fill-rule="evenodd"/><path d="M1213,486.628l-13,7.906,15.253,1.551c0-.042.007-.083.009-.124a15.692,15.692,0,0,0-2.265-9.333" transform="translate(-149.257 -95.467)" fill="#ff5668" fill-rule="evenodd"/><path d="M1197.9,497.991l-3.067,15.608c.5.081,1.007.138,1.514.173A16.479,16.479,0,0,0,1214,499.628Z" transform="translate(-148.069 -98.334)" fill="#7433ee" fill-rule="evenodd"/><path d="M1150.237,503.274l-12.453-10.929-.222-16.3a16.707,16.707,0,0,0-12.888,6.781,15.823,15.823,0,0,0,3.937,22.473,16.977,16.977,0,0,0,21.626-2.03" transform="translate(-131.24 -92.798)" fill="#7433ee" fill-rule="evenodd"/><path d="M1143.448,476.034l.2,14.891,9.291-11.848c-.035-.025-.069-.049-.1-.073a16.883,16.883,0,0,0-9.389-2.971" transform="translate(-136.259 -92.794)" fill="#ffa000" fill-rule="evenodd"/><path d="M1143.769,493.155l12.141,10.654q.5-.563.939-1.167a15.805,15.805,0,0,0-3.276-21.989Z" transform="translate(-136.333 -93.959)" fill="#ff5668" fill-rule="evenodd"/><path d="M810.521,573.435V508.157a8.292,8.292,0,0,1,8.393-8.137h202.91a8.3,8.3,0,0,1,8.392,8.137v65.278a8.292,8.292,0,0,1-8.392,8.137H818.914a8.29,8.29,0,0,1-8.393-8.137" transform="translate(-59.741 -98.846)" fill="#c7aef9" fill-rule="evenodd"/><path d="M811.813,573.759V508.484a7.314,7.314,0,0,1,7.4-7.173h202.911a7.317,7.317,0,0,1,7.4,7.173v65.275a7.313,7.313,0,0,1-7.4,7.173H819.211a7.309,7.309,0,0,1-7.4-7.173" transform="translate(-60.038 -99.171)" fill="#fff" fill-rule="evenodd"/><path d="M871.62,523.44H839.381a7.756,7.756,0,0,0-7.846,7.616v31.3a7.756,7.756,0,0,0,7.846,7.617H871.62a7.756,7.756,0,0,0,7.845-7.617v-31.3a7.756,7.756,0,0,0-7.845-7.616" transform="translate(-64.571 -104.755)" fill="#3ea5ec" fill-rule="evenodd"/><path d="M877.46,563.054V532.226a5.171,5.171,0,0,0-5.23-5.077H840.475a5.171,5.171,0,0,0-5.23,5.077v30.828a5.17,5.17,0,0,0,5.23,5.077H872.23a5.17,5.17,0,0,0,5.23-5.077" transform="translate(-65.424 -105.691)" fill="#f3f9ff" fill-rule="evenodd"/><path d="M850.065,546.1l-10.1,18.077a2.415,2.415,0,0,0,.052,2.509,2.567,2.567,0,0,0,2.247,1.241h30.2a2.568,2.568,0,0,0,2.247-1.241,2.416,2.416,0,0,0,.052-2.509l-5.51-9.857a2.653,2.653,0,0,0-4.6,0l-1.781,3.185a1.061,1.061,0,0,1-1.839,0L854.661,546.1a2.653,2.653,0,0,0-4.6,0" transform="translate(-66.433 -110.138)" fill="#3ea5ec" fill-rule="evenodd"/><path d="M876.38,533.433a4.386,4.386,0,1,0,4.517,4.385,4.452,4.452,0,0,0-4.517-4.385" transform="translate(-73.84 -107.276)" fill="#3ea5ec" fill-rule="evenodd"/><path d="M911.6,535.608v-6.743a.75.75,0,0,1,.759-.737H919.3a.751.751,0,0,1,.759.737v6.743a.751.751,0,0,1-.759.737H912.36a.75.75,0,0,1-.759-.737" transform="translate(-82.973 -105.938)" fill="#3ea5ec" fill-rule="evenodd"/><rect width="109.925" height="2.027" transform="translate(844.366 425.286)" fill="#99ccf6"/><path d="M911.6,556.541V549.8a.751.751,0,0,1,.759-.738H919.3a.751.751,0,0,1,.759.738v6.742a.751.751,0,0,1-.759.738H912.36a.75.75,0,0,1-.759-.738" transform="translate(-82.973 -111.22)" fill="#3ea5ec" fill-rule="evenodd"/><rect width="109.925" height="2.028" transform="translate(844.366 440.936)" fill="#99ccf6"/><path d="M911.6,577.475v-6.744a.75.75,0,0,1,.759-.736H919.3a.75.75,0,0,1,.759.736v6.744a.75.75,0,0,1-.759.736H912.36a.75.75,0,0,1-.759-.736" transform="translate(-82.973 -116.502)" fill="#3ea5ec" fill-rule="evenodd"/><rect width="109.925" height="2.027" transform="translate(844.366 456.588)" fill="#99ccf6"/><path d="M850.316,470.844v-9.133a1.017,1.017,0,0,1,1.028-1h9.406a1.017,1.017,0,0,1,1.029,1v9.133a1.016,1.016,0,0,1-1.029,1h-9.406a1.016,1.016,0,0,1-1.028-1" transform="translate(-68.887 -88.927)" fill="#5416cf" fill-rule="evenodd"/><path d="M965.769,471.717v-9.133a1.017,1.017,0,0,1,1.027-1H976.2a1.016,1.016,0,0,1,1.027,1v9.133a1.015,1.015,0,0,1-1.027,1H966.8a1.016,1.016,0,0,1-1.027-1" transform="translate(-95.422 -89.148)" fill="#ff5668" fill-rule="evenodd"/><path d="M1398.353,582.462a20.737,20.737,0,0,1-.186-3.617,8.465,8.465,0,0,1,1.188-3.6,33.67,33.67,0,0,1,4.013-5.3,8.076,8.076,0,0,0,2.334-5.881c-.267-4.1-4.45-8.025-7.354-10.68-.12-.2-.25-.4-.377-.595a4.733,4.733,0,0,1-.638-3.341,27.656,27.656,0,0,1,.738-4.022c.554-2.274,1.238-4.535,1.944-6.769,1.058-3.341.052-6.814-3.2-8.568a7.5,7.5,0,0,0-5.82-.554,8.169,8.169,0,0,0-4.9,4.748,12.476,12.476,0,0,0-.595,2.5,14.377,14.377,0,0,1-1,3.312c-.674,1.489-1.526,3.222-3.011,4.1a11.466,11.466,0,0,1-2.217.9c-1.144.383-2.243.772-3.355,1.266a4.046,4.046,0,0,0-1.606,1.973c-.951,2.342-.213,5.343.646,7.6l.005.016.009.013a6.876,6.876,0,0,1,.749,3.193c-.024,2.814-1.745,5.159-3.912,6.889a8.983,8.983,0,0,0-3.3,3.505c-1.932,3.735-.6,7.894,1.449,11.294a6.177,6.177,0,0,1,1.1,3.616,7.856,7.856,0,0,1-1.348,3.379c-1,1.616-2.154,3.181-3.211,4.779-3.052,5.126,11.881,11.82,9.139,19.677l-.139.4.4-.159a58.434,58.434,0,0,0,5.619-2.655,56.143,56.143,0,0,0,10.818-7.269c6.108-5.382,10.084-12.311,6.02-20.144" transform="translate(-187.428 -106.204)" fill="#d3e8fd" fill-rule="evenodd"/><path d="M1375.881,612.418s31.4-12.468,22.339-29.837c-.432-4.348-.816-6.011,5.058-12.7,5.151-5.865.859-10.939-5.026-16.317-1.044-1.785-2.423-2.076,1.635-14.9,2.8-8.865-9.641-13.306-13.546-4.244-.558,1.295-.467,3.323-1.594,5.812-2.4,5.289-3.605,4.12-8.672,6.363,0,0-3.709,1.863-.867,9.337,0,0,3.116,5.285-3.222,10.336,0,0-7.981,4.269-1.8,14.543,2.582,4.289.484,6-3.462,11.966-2.941,4.939,11.936,11.676,9.155,19.643" transform="translate(-187.487 -106.269)" fill="#3091d8" fill-rule="evenodd"/><path d="M1395.427,544.4a.711.711,0,0,1,1.42-.043c0,.011.2,3.895-4.126,12.9a123.607,123.607,0,0,1-1.255,24.235,42.521,42.521,0,0,0,7.14-14.875.711.711,0,0,1,.846-.524.69.69,0,0,1,.54.822,43.478,43.478,0,0,1-8.988,17.351,101.128,101.128,0,0,1-3.187,12.931v0l-.005.017c-.8,2.484-1.71,4.977-2.759,7.452,8.3-6.3,10.514-11.275,10.521-11.29a.718.718,0,0,1,.939-.349.683.683,0,0,1,.36.911c-.008.018-2.72,6.1-12.954,13.28a75.223,75.223,0,0,1-4.493,8.289.724.724,0,0,1-.977.229.68.68,0,0,1-.237-.95,74.111,74.111,0,0,0,4.477-8.274.561.561,0,0,1,.026-.057,84.682,84.682,0,0,0,3.723-9.588c0-.019.009-.037.013-.055,2.04-7.185-7.062-22.056-7.089-22.1a.681.681,0,0,1,.251-.947.724.724,0,0,1,.975.244c.021.035,6.039,9.866,7.327,17.771.689-2.649,1.251-5.268,1.708-7.825a.667.667,0,0,1,.041-.224,116.252,116.252,0,0,0,1.469-12.032c-1.2-7.831-9.216-16.182-9.239-16.207a.674.674,0,0,1,.039-.973.725.725,0,0,1,1,.038c.019.021,5.757,6,8.427,12.749.137-3.95.069-7.386-.063-10.083a.718.718,0,0,1-.006-.146c-.195-3.892-.517-6.2-.521-6.231a.7.7,0,0,1,.616-.771.708.708,0,0,1,.794.6c0,.019.183,1.313.357,3.593,3.042-6.957,2.889-9.86,2.888-9.869" transform="translate(-190.192 -109.866)" fill="#1369b1"/><path d="M1368.657,586.843a17.026,17.026,0,0,1-1.9-2.191,6.7,6.7,0,0,1-1.026-2.821,25.747,25.747,0,0,1-.082-5.2,6.356,6.356,0,0,0-1.424-4.786c-2.185-2.453-6.752-2.988-9.887-3.311-.175-.072-.352-.133-.53-.2a3.907,3.907,0,0,1-2.046-1.806,22.016,22.016,0,0,1-1.515-2.874c-.77-1.688-1.453-3.429-2.108-5.162a5.771,5.771,0,0,0-10.164-1.56,6.191,6.191,0,0,0-.749,5.261,10.119,10.119,0,0,0,.854,1.849,11.351,11.351,0,0,1,1,2.547,6.678,6.678,0,0,1,.123,3.978,8.683,8.683,0,0,1-.951,1.6c-.531.771-1.031,1.526-1.489,2.352a3.083,3.083,0,0,0-.039,1.987c.554,1.917,2.5,3.463,4.146,4.486l.011.006.012.005a5.7,5.7,0,0,1,2.042,1.662,7.121,7.121,0,0,1,.929,6.151,6.819,6.819,0,0,0-.355,3.739c.622,3.249,3.51,5.246,6.47,6.438a5.124,5.124,0,0,1,2.47,1.767,6.191,6.191,0,0,1,.816,2.753c.166,1.482.209,3,.33,4.5.6,4.644,13.3,1.93,15.437,8.146l.108.316.174-.286a43.791,43.791,0,0,0,2.23-4.277,42.147,42.147,0,0,0,3.232-9.594c1.2-6.219.289-12.427-6.125-15.472" transform="translate(-180.648 -112.599)" fill="#d3e8fd" fill-rule="evenodd"/><path d="M1369.233,616.162s13.625-22.412-.624-29.145c-2.412-2.537-3.472-3.406-3.067-10.339.356-6.082-4.844-7.285-11.2-7.941-1.535-.638-2.548-.182-6.305-10.138-2.6-6.881-12.617-3.9-10.616,3.611.286,1.075,1.342,2.309,1.858,4.4,1.094,4.441-.243,4.266-2.328,8.027,0,0-1.418,2.893,4.05,6.28,0,0,4.563,1.882,3.059,8,0,0-2.923,6.389,6.027,9.988,3.735,1.5,3.258,3.553,3.711,9.139.579,4.473,13.259,1.812,15.43,8.118" transform="translate(-180.695 -112.651)" fill="#3ea5ec" fill-rule="evenodd"/><path d="M1345.705,565.9a.677.677,0,0,1,.1-.971.726.726,0,0,1,1,.1c.006.007,2.064,2.381,3.776,10.061a101.006,101.006,0,0,1,10.837,15.318,33.2,33.2,0,0,0-2.8-12.029.683.683,0,0,1,.348-.917.721.721,0,0,1,.944.337,34.134,34.134,0,0,1,2.9,15.125,80.713,80.713,0,0,1,4.339,9.581h0l.015.04c.659,1.767,1.26,3.585,1.784,5.445,1.927-7.434.929-11.373.926-11.386a.688.688,0,0,1,.527-.83.71.71,0,0,1,.855.511c0,.014,1.3,5.128-1.607,14.409a58.447,58.447,0,0,1,1.245,7.282.7.7,0,0,1-.635.757.708.708,0,0,1-.78-.618,61.77,61.77,0,0,0-3.627-15.046c-.009-.017-.016-.034-.023-.051-2.229-5.412-15.219-10.527-15.256-10.542a.685.685,0,0,1-.393-.9.721.721,0,0,1,.928-.381c.029.012,8.075,3.179,12.892,7.359-.787-1.756-1.623-3.448-2.486-5.07a.674.674,0,0,1-.1-.194,93.675,93.675,0,0,0-4.973-8.213c-4.576-4.325-13.674-5.856-13.7-5.86a.7.7,0,0,1-.579-.8.712.712,0,0,1,.825-.563A39.306,39.306,0,0,1,1354,581.636c-1.694-2.291-3.271-4.223-4.573-5.733a.676.676,0,0,1-.1-.12c-2.026-2.342-3.357-3.641-3.372-3.655a.675.675,0,0,1,.008-.976.727.727,0,0,1,1.006.008c.01.01.6.585,1.586,1.652-1.446-5.294-2.849-6.907-2.853-6.911" transform="translate(-181.927 -115.184)" fill="#1369b1"/><path d="M1390.819,600.1a17.388,17.388,0,0,0,2.65-1.258,6.9,6.9,0,0,0,2.115-2.174,26.168,26.168,0,0,0,2.242-4.719,6.551,6.551,0,0,1,3.3-3.816c3.021-1.384,7.42-.077,10.421.859.189,0,.378.017.567.026a4.035,4.035,0,0,0,2.626-.849,23.041,23.041,0,0,0,2.584-2.031c1.408-1.241,2.759-2.564,4.08-3.892a5.845,5.845,0,0,1,7.327-1.128,5.6,5.6,0,0,1,2.619,3.7,6.228,6.228,0,0,1-1.511,5.105,10.374,10.374,0,0,1-1.552,1.353,11.738,11.738,0,0,0-1.98,1.935,6.8,6.8,0,0,0-1.771,3.59,8.472,8.472,0,0,0,.2,1.834c.164.914.306,1.8.38,2.737a3.127,3.127,0,0,1-.792,1.832c-1.307,1.534-3.726,2.184-5.662,2.47l-.013,0-.013,0a5.863,5.863,0,0,0-2.561.717,7.285,7.285,0,0,0-3.416,5.26,6.864,6.864,0,0,1-1.234,3.557c-1.924,2.725-5.4,3.417-8.6,3.343a5.258,5.258,0,0,0-2.994.644,6.369,6.369,0,0,0-1.894,2.2c-.77,1.289-1.443,2.66-2.178,3.982-2.488,4.008-12.963-3.463-17.514,1.38l-.23.245-.039-.331a42.871,42.871,0,0,1-.254-4.788,41.779,41.779,0,0,1,1.046-10.043c1.5-6.158,4.92-11.475,12.054-11.739" transform="translate(-190.102 -119.098)" fill="#d3e8fd" fill-rule="evenodd"/><path d="M1378.177,626.7s-3.11-25.849,12.726-26.4c3.265-1.371,4.6-1.75,7.119-8.249,2.211-5.7,7.467-4.756,13.547-2.858,1.671.019,2.405.834,9.995-6.792,5.245-5.27,13.165,1.391,8.2,7.477-.709.869-2.19,1.581-3.533,3.29-2.853,3.632-1.558,4-1.22,8.255,0,0,.089,3.2-6.323,4.15,0,0-4.957-.075-6.135,6.113,0,0,.007,6.99-9.677,6.763-4.042-.095-4.46,1.969-7.2,6.9-2.4,3.862-12.879-3.556-17.494,1.357" transform="translate(-190.151 -119.149)" fill="#5cb2ef" fill-rule="evenodd"/><path d="M1422.221,589.071a.721.721,0,0,1,.953.318.685.685,0,0,1-.328.926c-.007,0-1.957.924-5.48,5.188,1.344-.587,2.123-.881,2.136-.886a.721.721,0,0,1,.925.389.686.686,0,0,1-.4.9c-.02.008-1.784.672-4.62,2.021a.6.6,0,0,1-.121.059c-1.822.87-4.072,2.016-6.581,3.449a39.525,39.525,0,0,1,11.65.873.69.69,0,0,1,.524.832.712.712,0,0,1-.858.508c-.027-.006-8.977-2.18-14.969-.029a97.037,97.037,0,0,0-7.979,5.558.718.718,0,0,1-.176.137c-1.466,1.143-2.936,2.363-4.387,3.658,6.145-1.926,14.82-1.66,14.853-1.658a.69.69,0,1,1-.04,1.38c-.039,0-14.054-.429-18.35,3.643-.012.012-.027.025-.041.037a68.445,68.445,0,0,0-5.376,6.127.785.785,0,0,1-.058.074,58.846,58.846,0,0,0-4.16,6.129.722.722,0,0,1-.969.26.678.678,0,0,1-.268-.94,59.833,59.833,0,0,1,4.174-6.167c1.216-9.631,4.531-13.8,4.54-13.808a.726.726,0,0,1,1-.136.678.678,0,0,1,.14.968c-.008.01-2.565,3.22-3.9,10.774,1.256-1.5,2.565-2.924,3.906-4.28v0l.013-.013.013-.012a83.491,83.491,0,0,1,7.964-7.054A35.051,35.051,0,0,1,1404.9,595.6a.728.728,0,0,1,1.006.061.679.679,0,0,1-.064.977,34.208,34.208,0,0,0-7.577,9.895,104.654,104.654,0,0,1,16.3-9.746c4.773-6.354,7.649-7.716,7.658-7.719" transform="translate(-190.169 -121.297)" fill="#1369b1"/><path d="M1346.112,603.664a17.832,17.832,0,0,1-2.806-.879,7,7,0,0,1-2.411-1.862,26.432,26.432,0,0,1-2.911-4.364,6.626,6.626,0,0,0-3.823-3.323c-3.192-.953-7.355.945-10.189,2.286-.187.029-.372.069-.558.1a4.05,4.05,0,0,1-2.723-.478,23.01,23.01,0,0,1-2.854-1.656c-1.576-1.034-3.106-2.157-4.608-3.29a5.855,5.855,0,0,0-7.417-.107,5.54,5.54,0,0,0-2.051,4.02,6.276,6.276,0,0,0,2.241,4.847,10.606,10.606,0,0,0,1.734,1.126,11.924,11.924,0,0,1,2.242,1.643,6.858,6.858,0,0,1,2.277,3.309,8.42,8.42,0,0,1,.068,1.842,27.339,27.339,0,0,0,.024,2.762,3.156,3.156,0,0,0,1.051,1.7c1.518,1.339,4.008,1.65,5.966,1.667h.013l.014,0a5.9,5.9,0,0,1,2.639.357,7.366,7.366,0,0,1,4.15,4.734,6.938,6.938,0,0,0,1.742,3.353c2.3,2.432,5.842,2.639,9,2.123a5.271,5.271,0,0,1,3.059.227,6.448,6.448,0,0,1,2.195,1.913c.951,1.171,1.818,2.436,2.739,3.642,3.048,3.626,12.325-5.214,17.537-1.047l.264.212-.009-.332a43.143,43.143,0,0,0-.448-4.775,42.024,42.024,0,0,0-2.5-9.8c-2.387-5.889-6.547-10.682-13.648-9.961" transform="translate(-173.103 -121.252)" fill="#d3e8fd" fill-rule="evenodd"/><path d="M1362.6,628.248s-.7-26.016-16.457-24.381c-3.431-.907-4.805-1.1-8.251-7.185-3.021-5.337-8.087-3.679-13.829-.964-1.651.25-2.259,1.158-10.885-5.346-5.963-4.495-12.829,3.191-7.025,8.53.83.764,2.4,1.267,3.979,2.772,3.355,3.2,2.126,3.74,2.415,8,0,0,.38,3.182,6.865,3.236,0,0,4.9-.754,6.966,5.206,0,0,1.016,6.92,10.568,5.362,3.987-.651,4.7,1.333,8.138,5.836,2.937,3.493,12.23-5.3,17.517-1.069" transform="translate(-173.149 -121.302)" fill="#7bbff3" fill-rule="evenodd"/><path d="M1315.25,598.239a.683.683,0,0,1-.451-.87.714.714,0,0,1,.9-.438c.008,0,3.054.956,8.7,6.582a105.71,105.71,0,0,1,17.559,7.4,34.612,34.612,0,0,0-8.948-8.75.68.68,0,0,1-.206-.958.726.726,0,0,1,.987-.2,35.487,35.487,0,0,1,10.72,11.327,80.08,80.08,0,0,1,13.439,9.608c-2.429-7.291-5.428-10.116-5.438-10.126a.675.675,0,0,1-.007-.976.727.727,0,0,1,1.005-.009c.012.012,3.9,3.679,6.512,13.041a60.739,60.739,0,0,1,5.037,5.531.678.678,0,0,1-.125.971.727.727,0,0,1-1-.121,64.409,64.409,0,0,0-11.3-10.888c-.016-.009-.03-.019-.045-.029-4.845-3.438-18.656-1.083-18.695-1.076a.711.711,0,0,1-.823-.565.7.7,0,0,1,.582-.8c.032,0,8.58-1.463,14.945-.4-1.628-1.083-3.262-2.09-4.882-3.02a.7.7,0,0,1-.182-.1c-3-1.716-5.953-3.175-8.71-4.4-6.251-1.308-14.8,2.078-14.821,2.088a.72.72,0,0,1-.925-.384.685.685,0,0,1,.4-.9,39.449,39.449,0,0,1,11.4-2.471c-2.7-1.071-5.1-1.9-7.026-2.508a.652.652,0,0,1-.105-.034c-3.011-.948-4.858-1.364-4.878-1.368a.692.692,0,0,1-.53-.834.714.714,0,0,1,.859-.513c.013,0,.827.185,2.247.582-4.116-3.739-6.183-4.384-6.189-4.387" transform="translate(-175.633 -123.289)" fill="#1369b1"/><path d="M1358.561,676.845h29.924l4.812-25.094h-39.548Z" transform="translate(-184.593 -137.131)" fill="#1976d2" fill-rule="evenodd"/><path d="M1358.561,676.845h2.366l-3.669-25.094h-3.509Z" transform="translate(-184.593 -137.131)" fill="#1976d2" fill-rule="evenodd"/><path d="M1392.96,653.506l.337-1.755h-39.548l.336,1.755Z" transform="translate(-184.593 -137.131)" fill="#5416cf" fill-rule="evenodd"/><path d="M1357.258,651.751h-3.509l.336,1.755h3.429Z" transform="translate(-184.593 -137.131)" fill="#7433ee" fill-rule="evenodd"/><path d="M1359.786,676.845h29.924l4.812-25.094H1390.3c-.644,10.152-5.565,26.356-31.219,21.413Z" transform="translate(-185.818 -137.131)" fill="#1976d2" fill-rule="evenodd"/><path d="M1359.786,684.071h2.365l-.475-3.244c-.842-.122-1.706-.266-2.6-.437Z" transform="translate(-185.818 -144.357)" fill="#7433ee" fill-rule="evenodd"/><path d="M1349.786,639.569h45.651l-.687,9.108h-44.276Z" transform="translate(-183.682 -134.057)" fill="#1976d2" fill-rule="evenodd"/><path d="M1349.786,639.569h5.229l1.332,9.108h-5.873Z" transform="translate(-183.682 -134.057)" fill="#1976d2" fill-rule="evenodd"/><path d="M1399.317,639.569h7.5l-.687,9.108h-6.817Z" transform="translate(-195.066 -134.057)" fill="#1976d2" fill-rule="evenodd"/><path d="M922.935,703.549H907.619c.025-2.213-.536-3.4-2.8-5.039-2.828-2.049-7.18-3.518-10.765-4.47-18.116-4.809-47.438-4.8-65.56,0-4.378,1.162-13.551,4.091-13.577,8.7l-.015,7.17c1.241,6.535,19.861,9.649,26.2,10.46,16.541,2.118,43.329,1.773,58.539-4.211,2.782-1.1,7.6-3.5,7.863-6.316h15.436v.419c0,1.768,1.783,3.216,3.962,3.216h51.091c4.6,0,8.357-3.051,8.357-6.782s-3.761-6.783-8.357-6.783H926.9c-2.18,0-3.962,1.447-3.962,3.217Z" transform="translate(-60.747 -146.891)" fill="#b7d9f9" fill-rule="evenodd"/><rect width="19.408" height="7.429" transform="translate(841.485 550.027)" fill="#217dc5"/><path d="M957.4,693.37h50.411a8.15,8.15,0,0,1,8.245,8h0a8.15,8.15,0,0,1-8.245,8H957.4a3.865,3.865,0,0,1-3.911-3.8v-8.417a3.866,3.866,0,0,1,3.911-3.8" transform="translate(-92.601 -147.632)" fill="#4dacee" fill-rule="evenodd"/><path d="M1015.857,706.438a8.228,8.228,0,0,1-8.042,6.237H957.4a3.865,3.865,0,0,1-3.911-3.8v-2.442Z" transform="translate(-92.601 -150.929)" fill="#3091d8" fill-rule="evenodd"/><path d="M906.558,692.944l-.074,7.715c-.23-2.881-2.086-4.695-4.511-6.3-10.768-7.111-33.2-8.562-45.908-8.151-10.158.327-31.642,2.586-39.008,10.129A6.319,6.319,0,0,0,815,700.658c.016-1.764-.133-7.81.31-9.2,2.408-7.568,20.927-10.986,27.7-11.9,15.856-2.13,41.175-1.589,55.734,5.262,2.931,1.38,7.207,3.932,7.753,7.373Z" transform="translate(-60.768 -143.869)" fill="#5a2a9c" fill-rule="evenodd"/><path d="M815.1,697.833l-.015,8.461c1.224,7.712,19.6,11.386,25.851,12.344,16.322,2.5,42.754,2.091,57.761-4.971,3.306-1.557,7.635-4.127,7.813-8.12l.074-7.715c-.229,2.879-2.085,4.693-4.511,6.3-10.768,7.112-33.2,8.562-45.908,8.151-10.159-.327-31.642-2.586-39.009-10.129a6.322,6.322,0,0,1-2.056-4.318" transform="translate(-60.789 -148.758)" fill="#3091d8" fill-rule="evenodd"/><path d="M860.842,678.409c-25.263,0-45.742,6.5-45.742,14.521s20.479,14.523,45.742,14.523,45.742-6.5,45.742-14.523-20.479-14.521-45.742-14.521" transform="translate(-60.794 -143.857)" fill="#4dacee" fill-rule="evenodd"/><path d="M862.193,682.376c-22.762,0-41.214,4.721-41.214,10.544s18.452,10.545,41.214,10.545,41.214-4.722,41.214-10.545-18.452-10.544-41.214-10.544" transform="translate(-62.145 -144.858)" fill="#217dc5" fill-rule="evenodd"/><path d="M862.773,684.9c-21.69,0-39.272,4.3-39.272,9.6s17.583,9.6,39.272,9.6,39.271-4.3,39.271-9.6-17.583-9.6-39.271-9.6" transform="translate(-62.724 -145.494)" fill="#ebf5ff" fill-rule="evenodd"/><path d="M859.778,689.155c-18.036.354-32.071,3.093-32.071,6.418,0,3.01,11.484,5.537,27.026,6.254,11.606-3.8-13.547-3.515-12.933-5.661.9-3.841,8.379-3.527,12.55-3.7,6.265-.527,7.589-2.452,5.429-3.311" transform="translate(-63.691 -146.568)" fill="#fff" fill-rule="evenodd"/><path d="M752.216,331.419h-43.1a1.9,1.9,0,0,0-1.925,1.868v27.4a1.9,1.9,0,0,0,1.925,1.868h23.256l16.073,8.049a.33.33,0,0,0,.37-.048.305.305,0,0,0,.085-.353l-3.125-7.649h6.436a1.9,1.9,0,0,0,1.925-1.868v-27.4a1.9,1.9,0,0,0-1.925-1.868" transform="translate(-35.994 -56.304)" fill="#b7d9f9" fill-rule="evenodd"/><path d="M728.327,359.4l16.549,8.287a.5.5,0,0,0,.561-.071.467.467,0,0,0,.129-.536l-3.138-7.679h6.408a2.119,2.119,0,0,0,2.143-2.082V329.042a2.119,2.119,0,0,0-2.143-2.082H704.372a2.12,2.12,0,0,0-2.144,2.082v28.273a2.119,2.119,0,0,0,2.144,2.082Z" transform="translate(-34.852 -55.179)" fill="#217dc5" fill-rule="evenodd"/><path d="M748.882,327.167H704.42a1.962,1.962,0,0,0-1.985,1.927v28.273a1.961,1.961,0,0,0,1.985,1.927h23.993L745,367.6a.343.343,0,0,0,.383-.049.318.318,0,0,0,.088-.365l-3.226-7.891h6.642a1.962,1.962,0,0,0,1.985-1.927V329.095a1.963,1.963,0,0,0-1.985-1.927" transform="translate(-34.9 -55.231)" fill="#fff" fill-rule="evenodd"/><path d="M727.442,343.32a3.556,3.556,0,0,0,1.362,4.935,3.782,3.782,0,0,0,5.083-1.322A3.556,3.556,0,0,0,732.527,342a3.783,3.783,0,0,0-5.085,1.323m-3.523-3.481a8.533,8.533,0,0,1,1.3-1.264l-.839-1.693a.275.275,0,0,1,.116-.362l1.578-.885a.292.292,0,0,1,.38.083l1.1,1.552a8.886,8.886,0,0,1,1.768-.459l.146-1.876a.283.283,0,0,1,.286-.257h1.823a.285.285,0,0,1,.287.256l.153,1.875a8.865,8.865,0,0,1,1.769.463l1.091-1.553a.293.293,0,0,1,.38-.085l1.579.885a.274.274,0,0,1,.115.36l-.834,1.7a8.5,8.5,0,0,1,1.3,1.257l1.744-.813a.292.292,0,0,1,.373.111l.911,1.532a.273.273,0,0,1-.085.369l-1.6,1.068a8.33,8.33,0,0,1,.472,1.717l1.932.142a.282.282,0,0,1,.266.277v1.769a.284.284,0,0,1-.265.278l-1.931.149a8.2,8.2,0,0,1-.477,1.717l1.6,1.059a.273.273,0,0,1,.086.369l-.911,1.533a.291.291,0,0,1-.372.111l-1.75-.809a8.424,8.424,0,0,1-1.289,1.252l.833,1.7a.276.276,0,0,1-.115.361l-1.579.885a.291.291,0,0,1-.38-.085l-1.093-1.553a8.933,8.933,0,0,1-1.768.461l-.153,1.878a.284.284,0,0,1-.287.256h-1.823a.285.285,0,0,1-.286-.258l-.146-1.873a8.848,8.848,0,0,1-1.769-.461l-1.1,1.551a.291.291,0,0,1-.38.084l-1.578-.885a.276.276,0,0,1-.116-.363l.839-1.694a8.494,8.494,0,0,1-1.3-1.256l-1.75.808a.291.291,0,0,1-.372-.111l-.911-1.533a.273.273,0,0,1,.087-.369l1.6-1.06a8.324,8.324,0,0,1-.474-1.717l-1.934-.149a.282.282,0,0,1-.265-.278v-1.769a.282.282,0,0,1,.266-.277l1.929-.141a8.189,8.189,0,0,1,.474-1.718l-1.6-1.068a.273.273,0,0,1-.086-.369l.911-1.532a.29.29,0,0,1,.373-.111Z" transform="translate(-38.914 -57.127)" fill="#1976d2" fill-rule="evenodd"/><path d="M762.33,637.628s-1.138,7.584.1,9.34c.486.686.645,5.3,1.089,7.373.19.885,1.066.611,1.163.612.65.013.982-5.308.982-5.308s1.32-1.572,4.142,6.082c2.9,3.617,12.02,3.623,13.875,1.626,1.181-5.058-4.323-2.954-7.47-12.853a12.8,12.8,0,0,0-5.279-6.447c-2.331-1.445-8.279-.567-8.6-.425" transform="translate(-48.556 -133.468)" fill="#1a1840" fill-rule="evenodd"/><path d="M809.229,636.639s-1.138,7.585.1,9.341c.485.686.644,5.3,1.089,7.373.189.885,1.066.61,1.163.612.648.013.982-5.308.982-5.308s1.274-3.207,7.733,6.047c2.9,3.617,13.78,3.587,15.635,1.591,1.628-6-8.118-4.909-11.061-12.783a12.8,12.8,0,0,0-5.279-6.447c-2.331-1.445-10.038-.567-10.364-.425" transform="translate(-59.335 -133.218)" fill="#1a1840" fill-rule="evenodd"/><path d="M816.188,600.208s-13.108,2.376-12.33-.4c5.082-18.13-3.275-29.117.322-45.074,1.674-7.426-6.349-20.483-7.029-21.621L787.4,489.962l31.475-1.434c2.79,11.2,2.692,36.385,1.084,63.9-.833,14.261-4.752,29.841-3.773,47.781" transform="translate(-54.428 -95.946)" fill="#332a7c" fill-rule="evenodd"/><path d="M809.162,603.666c-2.669.117-4.926-.121-4.589-1.32,5.082-18.128-3.275-29.117.322-45.074,1.674-7.426-6.349-20.483-7.029-21.621L790.513,503.1l22.1-4.518c-3.976,8.462-8.1,26.925-3.038,50.214a21.445,21.445,0,0,1-.045,8.876c-.635,3.026-.972,7.247-.354,13.727,0,0,1.479,17.307-.012,32.265" transform="translate(-55.143 -98.484)" fill="#221e54" fill-rule="evenodd"/><path d="M771.3,487.021c-10.428,18.761,6.68,30.877,3.326,63.663-.176,1.71.163,3.957-1.182,5.22-5.6,5.249-9.478,26.512-11.672,44.672,4.9,1.494,5.593,1.508,11.16.265,2.707-17.766,12.775-30.576,16.716-43.9,2.86-9.661,4.455-20.6,6.562-30.943,1.61-7.9,1.94-13.889,6.871-20.848a48.474,48.474,0,0,0,7.811-19.671Z" transform="translate(-48.536 -95.177)" fill="#332a7c" fill-rule="evenodd"/><path d="M771.3,487.433c-10.428,18.761,6.68,30.877,3.326,63.663-.176,1.71.163,3.958-1.182,5.22-5.6,5.249-9.478,26.512-11.672,44.672,1.478.449,2.575.766,3.536.953.625-15.87,12.889-44.672,12.889-44.672,4.417-16.621-.164-44.006-.164-44.006-1.666-6.657-.445-16.852,1.432-26.147Z" transform="translate(-48.536 -95.59)" fill="#221e54" fill-rule="evenodd"/><path d="M793.042,372.9s11.093-6.432,6.288-11.039c4.2-12.609-31.487-15.7-26.251,15.863.584,3.522.571,16.064-7.012,13.7,2.316,9.564,25.776,8.716,26.975-18.527" transform="translate(-49.524 -61.718)" fill="#221e54" fill-rule="evenodd"/><path d="M810.007,412.206s10.182-.939,15.82,14.3c3.922,10.606,2.672,22.43,2.672,22.43s7.407,12.335,3.154,13.115l-14.575,2.674Z" transform="translate(-59.623 -76.686)" fill="#ff7200" fill-rule="evenodd"/><path d="M800.743,407.815c4.968,5.483,20.381,19.681,9.836,29.648-4.365,4.126-3.4,10.592-4.786,19.037,0,0,6.221,7.156,2.169,11.419l-14.07,3.7s-18.355,1.985-21.317-2.073c-3.4-4.659,1.076-3.34,1.819-9.985,1.852-16.551-3.721-35.32-3.438-44.568,1.885-3.294,12.355-10.08,14.3-9.358Z" transform="translate(-50.646 -75.016)" fill="#ffa000" fill-rule="evenodd"/><path d="M775.908,454.081s9.361,8.148,13.524,14.7l5.705,5.155L780.9,462.227,768.889,450.9l-3.7-15.2,6.691-11.243,3.622-8.889c13.935,16.709-5.085,26.519.4,38.516" transform="translate(-49.323 -77.536)" fill="#fe4300" fill-rule="evenodd"/><path d="M788.973,487.612l4.566-4.984c.414-.451-1.034-.674-1.534-1.041-7.279-5.329-12.246-14.524-18.746-17.431a46.717,46.717,0,0,0-.251-10.092l-10.514-.895c-.259,3.953,1.422,8.971,1.22,13.376,7.394,8.3,19.555,12.237,25.259,21.067" transform="translate(-48.697 -87.024)" fill="#fdddb6" fill-rule="evenodd"/><path d="M773.174,445.462c.49-7.215,5.722-13.253,5.838-17.026-2.471-32.594-17.1-7.365-16.515,14.557,5.266.27,7.734.733,10.677,2.47" transform="translate(-48.7 -76.848)" fill="#ffa000" fill-rule="evenodd"/><path d="M801.028,359.568a4.881,4.881,0,1,1-5.409,4.852,5.153,5.153,0,0,1,5.409-4.852" transform="translate(-56.316 -63.407)" fill="#ff7200" fill-rule="evenodd"/><path d="M801.307,360.658c3.383,0,6.126,2.173,6.126,4.852s-2.743,4.852-6.126,4.852-6.126-2.173-6.126-4.852,2.743-4.852,6.126-4.852" transform="translate(-56.216 -63.682)" fill="#ffa000" fill-rule="evenodd"/><path d="M789.647,387.573c1.681-.736,3.924.559,5.008,2.894s.6,4.824-1.078,5.56-3.924-.559-5.009-2.894-.6-4.824,1.079-5.56" transform="translate(-54.563 -70.421)" fill="#fdddb6" fill-rule="evenodd"/><path d="M809.087,405s-3.233,2.74-1.664,6.156c0,0-1.962,4.3-8.175,2.989-3.317-.753-11.059-7.431-10.091-11.621,0,0,1.448.152,1.949-.693a22.6,22.6,0,0,0,1.7-9.961Z" transform="translate(-54.812 -71.556)" fill="#fdcb90" fill-rule="evenodd"/><path d="M815.267,387.734a49.6,49.6,0,0,1-2.855,8.876c-.491,2.387-5.895,6.214-8.086,6.156-1.161-.031-4.371-.947-9.435-7.167a20.038,20.038,0,0,1-2.529-5.639s-3.648-12.6-.471-16.084c0,0,6.089-8.557,15-5.783,0,0,10.784,1.571,10.818,6.983,1.831,5.613-.7,9.051-2.442,12.657" transform="translate(-55.161 -65.418)" fill="#fdddb6" fill-rule="evenodd"/><path d="M814.56,390.245c.256-2,.323-2.34.653-4.8-5.123.881-14.275-1.516-16.908-8.622-.272,4.885-3.663,6.52-6.176,7.169l.009,5.321-2.051-8.161c-2.76-8.018-1.708-18.314,8.463-18.99,12.624-2.316,20.7,6.625,18.962,17.814-.586,3.781-2.324,10.272-2.951,10.272" transform="translate(-54.744 -63.968)" fill="#2b2468" fill-rule="evenodd"/><path d="M784.122,492.3l7.294,3.959,47.02-2.377-7.152-3.556Z" transform="translate(-53.674 -96.398)" fill="#a8d3f7" fill-rule="evenodd"/><path d="M784.121,492.962l7.282,3.732.134,2.494-6.834-4.449a1.237,1.237,0,0,1-.584-1.068Z" transform="translate(-53.673 -97.065)" fill="#c5e0fb" fill-rule="evenodd"/><path d="M840.6,494.774l-47.02,2.378.133,2.494,45.7-2.312a1.3,1.3,0,0,0,1.248-1.345Z" transform="translate(-55.847 -97.522)" fill="#ebf5ff" fill-rule="evenodd"/><path d="M802.282,455.227l-10.574,30.925,1.452.789,12.423-33.533-1.03.066a2.55,2.55,0,0,0-2.271,1.754" transform="translate(-55.417 -87.084)" fill="#c5e0fb" fill-rule="evenodd"/><path d="M848.227,451.073l-42.7,1.762a1.525,1.525,0,0,0-1.409,1.035l-10.972,32.5,47.527-2.4,9.106-30.973a1.447,1.447,0,0,0-.273-1.347,1.536,1.536,0,0,0-1.284-.573" transform="translate(-55.749 -86.495)" fill="#8ac6f4" fill-rule="evenodd"/><path d="M848.335,451.376l-42.7,1.76a1.292,1.292,0,0,0-1.2.88L793.577,486.2l47.021-2.378,9.06-30.818a1.217,1.217,0,0,0-.233-1.144,1.3,1.3,0,0,0-1.091-.486" transform="translate(-55.847 -86.571)" fill="#ebf5ff" fill-rule="evenodd"/><path d="M814.073,491.2s.139,3.239-1.422,4.9a29.813,29.813,0,0,0-5.386,3.02c-1.57,1.324-7.01-.491-7-.488s-1.889-.892-.761-2.087a2.577,2.577,0,0,1,2.25-.783c5.515,1.895,4.39-3.356,5.528-4.354,1.36-1.194,5.477-2.233,6.791-.212" transform="translate(-57.127 -96.331)" fill="#fdddb6" fill-rule="evenodd"/><path d="M1077.937,655.583c-32.258,0-58.409,1.163-58.409,2.594s26.15,2.593,58.409,2.593,58.409-1.16,58.409-2.593-26.15-2.594-58.409-2.594" transform="translate(-107.778 -138.098)" fill="#1976d2" fill-rule="evenodd"/><path d="M1067.969,634.853l-.74,9.253-10.552-.031-.343-9.562Z" transform="translate(-116.237 -132.781)" fill="#332a7c" fill-rule="evenodd"/><path d="M1048.041,494.263c-3.528,8.724,2.852,23.422,5.691,25.665.246,9.469,4.676,23.771,3.964,34.621-6.38,14.968-2.983,27.37-4.591,48.056,4.048.832,10.284.7,14.3.422,1.542-17.2,3.2-30.214,7.663-46.659.682-9.556.283-20.925.51-31.243a26.3,26.3,0,0,0-3.52-5.679c-7.555-8.544-12.755-26.111-12.755-26.111s-7.572-.3-11.26.929" transform="translate(-114.093 -97.151)" fill="#2b2468" fill-rule="evenodd"/><path d="M1065.9,607.461c2.119-.006,4.17-.1,5.838-.213,1.542-17.2,3.2-30.215,7.663-46.659.682-9.556.283-20.925.51-31.243a26.311,26.311,0,0,0-3.521-5.679,85.093,85.093,0,0,1-9.337-13.627l-1.186-.009c2.087,3.925,10.753,40.4,7.362,48.5,0,0-7.36,12.387-7.329,48.933" transform="translate(-118.428 -101.371)" fill="#221e54" fill-rule="evenodd"/><path d="M1099.066,636.747l-.741,9.251-10.551-.029-.344-9.563Z" transform="translate(-123.384 -133.259)" fill="#332a7c" fill-rule="evenodd"/><path d="M1060.9,653.889c4.727.052,7.733-.527,12.807-.054,13.909,1.3,16.2-.08,15.682-3.927,0-1.13-15.578-6.132-21.163-11.606-.7-.689-3.3.177-3.82,1.1a3.586,3.586,0,0,0-.206,2.491c-2.27.818-5.716-.134-7.792-.6-1.036-.231-1.217,1.609-1.27,3.789-.147,6.2-.689,8.739,5.763,8.808" transform="translate(-115.943 -133.674)" fill="#1a1840" fill-rule="evenodd"/><path d="M1062.92,492.942s-2.329,17.727,10.322,27.606c2.9,10.252,7.3,23.652,11.98,32.87-6.72,14.51-3.119,31.127-5.545,49.293,4.281,2.147,10.608,2.328,15.191,1.471.9-17.655,8.969-42.685,8.592-52.944-3.642-16.661-6.1-40.112-11.4-59.49Z" transform="translate(-117.712 -96.758)" fill="#2b2468" fill-rule="evenodd"/><path d="M1062.865,501.329c.406,6.059,2.426,15.406,10.4,21.636,2.9,10.252,7.3,23.652,11.981,32.869-6.721,14.51-3.119,31.127-5.545,49.293a18.366,18.366,0,0,0,5.272,1.6c.5-8.949.385-23,.385-23,.209-13.6,5.019-27.609,5.019-27.609-2.521-3.264-8.466-27.626-14.679-34.651-5.442-6.155-10.456-15.433-12.836-20.142" transform="translate(-117.738 -99.176)" fill="#221e54" fill-rule="evenodd"/><path d="M1092.005,655.667c4.727.052,7.733-.527,12.808-.055,13.909,1.3,16.2-.08,15.682-3.927,0-1.128-15.578-6.132-21.164-11.606-.7-.688-3.3.178-3.821,1.1a3.59,3.59,0,0,0-.206,2.491c-2.27.816-5.716-.136-7.792-.6-1.036-.231-1.217,1.609-1.269,3.789-.148,6.2-.689,8.737,5.762,8.808" transform="translate(-123.094 -134.123)" fill="#1a1840" fill-rule="evenodd"/><path d="M1094.286,440.8l27.322,9.89a1.09,1.09,0,0,1,.65,1.552l-17.152,32.923a1.508,1.508,0,0,1-1.806.665l-27.32-9.89a1.091,1.091,0,0,1-.651-1.552l17.152-32.923a1.5,1.5,0,0,1,1.805-.665" transform="translate(-120.573 -83.882)" fill="#1a1840" fill-rule="evenodd"/><path d="M1096.67,443.685l23.822,8.623-15.306,29.38-23.823-8.622Z" transform="translate(-121.99 -84.631)" fill="#f2f2fc" fill-rule="evenodd"/><path d="M1110.507,443.44l4,1.447a1.943,1.943,0,0,1,2.283-.683,1.4,1.4,0,0,1,.96,1.856l4,1.446-1.9,3.657L1108.6,447.1Z" transform="translate(-128.25 -84.569)" fill="#a9a7d3" fill-rule="evenodd"/><path d="M1052.83,466.483c1.486,2.862,3.145,4.989,5.484,5.169a4.013,4.013,0,0,0,5.27,2.1c2.329-.973,5.22-4.98,4.258-6.621a2.2,2.2,0,0,0-1.376-1.244,7.028,7.028,0,0,0-2.17-2.926c-2.608-1.571-4.1-.674-6.633-1.787-7.774-4.881-12.323-12.5-19.438-17.815,0,0,1.379-3.573,3.664-11.338,0,0,11.817-22.384,2.313-26.669,0,0-9.9,1.6-13.359,23.316,0,0-5.427,14.672-4.8,18.806,4.034,3.279,26.434,18.621,26.79,19.006" transform="translate(-109.263 -74.96)" fill="#fdcb90" fill-rule="evenodd"/><path d="M1043.721,402.581s-10.229.187-12.19,20.97c-2.361,4.8-5.919,19.152-6.237,23.1,1.141,1.846,26.848,19.173,27.375,19.13,2.091-.166,5.142-3.166,4.832-5.306-.23-1.6-18.044-17.855-19.128-17.965,1.51-2.221,5.255-11.226,6.017-15.094,0,0,8.834-20.551-.67-24.836" transform="translate(-109.104 -74.26)" fill="#332a7c" fill-rule="evenodd"/><path d="M1059.52,461.564a2.222,2.222,0,0,0-.012-.527c-.23-1.6-18.044-17.855-19.128-17.965,1.51-2.221,5.255-11.226,6.017-15.095,0,0,7.211-16.779,1.59-23.175-5.766,15.043-13.676,35.957-13.969,38.236,0,0,10.507,10.05,19.315,15.151Z" transform="translate(-111.108 -74.82)" fill="#221e54" fill-rule="evenodd"/><path d="M1120.6,380.69c1.3-4.84.2-7.792,1.018-11.853s4.481-7.042,7.687-12.332c1.976.467.755,2.888-2.57,10,.641-.311,7.374,1.237,6.947,6.318,0,0,.052,3.611-2.618,4.079,0,0,.376,3.317-3.737,5.235-4.006,8.036-6.747,28.686-14.852,35.2-3.339-.234-19.412-7.252-24.326-12.257-5.207-2.556-9.24-13.992-3.159-14.4a11.768,11.768,0,0,1,7.5,1.514c2.11,1.141,13.79,8.533,15.991,12.418,1.221-8.3,8.018-13.831,12.123-23.927" transform="translate(-122.121 -62.634)" fill="#fdddb6" fill-rule="evenodd"/><path d="M1073.731,352.378s6.389,4.867,5.7,22.7c-.548.591-4.311,2.2-6.555,3.189-.533,1.063.437,5.322,1.078,7.4,0,0-13.8,1.955-19.243-.533,0,0,1.724-4.811.655-6.055-1.164-3.287-10.139-16.019-7.628-25.249,0,0,.949-9.126,7.892-8.5,0,0,17.146-3.836,18.107,7.052" transform="translate(-114.159 -59.648)" fill="#fdddb6" fill-rule="evenodd"/><path d="M1053.649,394.381s10.732,1.664,19.361.627a26.191,26.191,0,0,1,1.284,2.7c2.276.334,6.292.749,7.7,1.559-4.443,3.913-1.859,9.208.556,13.9.558,24.336,5.792,38.454,6.545,58.025-10.725,2.842-30.9,6.418-47.355,3.2.6-8.847,3.795-18,5.478-26.834-5.376-10.821-13-38.331-1.483-47.314,1.57-1.224,3.561-1.893,6.295-3.538.619-.372.937-1.944,1.616-2.324" transform="translate(-112.42 -72.191)" fill="#332a7c" fill-rule="evenodd"/><path d="M1089.553,404.024c-1.683,3.546.393,7.762,2.356,11.576.558,24.336,5.792,38.454,6.545,58.025-1.8.478-3.871.976-6.145,1.459-.245-13.287-2.66-31.792-2.66-31.792.156-7.8-9.217-36.046-9.217-36.046Z" transform="translate(-121.776 -74.624)" fill="#221e54" fill-rule="evenodd"/><path d="M1076.012,353.345a7.4,7.4,0,0,1,2.266.176,8.84,8.84,0,0,0-5.6,4.173c1.331,2.1,1.084,5.79,1.243,7.828-6.142-7.236-1.831,11.392-7.173,12.665,0,0-9.291,2.2-13.564-.322-2.411-5.749-3.4-7.021-5.756-9.247a12.29,12.29,0,0,1-2.711-2.948c-3.982-6.053-2.327-9.76-2.327-9.76l-2.478-3.682,3.487.538c-.473-1.751.107-4.164,1.1-6.547a5.145,5.145,0,0,0,1.218,3.226c12.012-18.055,23.917-.952,30.744-7.241-1.005,3.844-3.223,4.963-3.223,4.963,3.226.679,7.118-2.44,7.118-2.44-.035,4.246-1.643,6.953-4.339,8.619" transform="translate(-112.462 -58.69)" fill="#221e54" fill-rule="evenodd"/><path d="M1080.268,365.8c.806-.157,1.89,1.8,2.421,4.378s.307,4.787-.5,4.944-1.89-1.8-2.421-4.378-.306-4.787.5-4.944" transform="translate(-121.557 -64.978)" fill="#fdcb90" fill-rule="evenodd"/><path d="M1083.443,396.523c5.443-.816,11.716,2.676,14.311,7.252,2.278,1.6,7.859,5.569,9.846,7.849-.107-1.438,11.662-22.281,12.355-22.037a38.352,38.352,0,0,1,7.41,3.7c-3.127,11.543-7.317,26.371-15.306,32.4-6.424-1.342-19.7-6.429-24.81-10.218-5.208-3.178-10.881-17.89-3.8-18.951" transform="translate(-121.705 -70.981)" fill="#332a7c" fill-rule="evenodd"/><path d="M1124.578,392.033c1.174.611,2.274,1.257,3.258,1.876-3.127,11.543-7.317,26.371-15.306,32.4-6.424-1.342-19.7-6.428-24.81-10.218-2.039-1.244-4.149-4.257-5.537-7.525a112.058,112.058,0,0,0,29.811,13.4c3.94-4.931,9.41-20.332,12.584-29.931" transform="translate(-122.178 -71.598)" fill="#221e54" fill-rule="evenodd"/><path d="M1075.058,395.167a87.977,87.977,0,0,1-17.6-.759l-.183-.027c-.68.381-1,1.952-1.617,2.324l-.156.094q.645.115,1.3.226a132.537,132.537,0,0,0,15.335,1.593q1.029.049,2.071.085.736.025,1.464.043a3.6,3.6,0,0,1,2.106-1.012l.154-.022-.018,0a26.4,26.4,0,0,0-1.284-2.7c-.519.063-1.046.116-1.577.159" transform="translate(-116.046 -72.191)" fill="#221e54" fill-rule="evenodd"/><path d="M1133.764,405.17a.928.928,0,0,1,1.187-.513.884.884,0,0,1,.528,1.152.928.928,0,0,1-1.187.513.884.884,0,0,1-.528-1.152" transform="translate(-134.019 -74.769)" fill="#e5e5f7" fill-rule="evenodd"/><path d="M1136.727,397.455a.928.928,0,0,1,1.188-.513.885.885,0,0,1,.528,1.152.928.928,0,0,1-1.187.513.884.884,0,0,1-.529-1.152" transform="translate(-134.7 -72.822)" fill="#e5e5f7" fill-rule="evenodd"/><path d="M1135.246,401.312a.928.928,0,0,1,1.187-.512.883.883,0,0,1,.528,1.152.926.926,0,0,1-1.187.512.884.884,0,0,1-.528-1.152" transform="translate(-134.36 -73.795)" fill="#e5e5f7" fill-rule="evenodd"/></g></g></svg>