<svg viewBox="0 -61 512 512" xmlns="http://www.w3.org/2000/svg"><path d="m421 330v60h-330v-60l36.597656-30h263.402344zm0 0" fill="#ffd400"/><path d="m421 330v60h-165v-90h135zm0 0" fill="#ff9f00"/><path d="m476.800781 108.601562-55.800781 221.398438h-330l-55.800781-221.398438 40.800781-18.601562 51.898438 69.300781 17.402343-87.902343 48.898438-8.398438 61.800781 102.902344 61.800781-102.902344 48.898438 8.398438 17.402343 87.902343 51.898438-69.300781zm0 0" fill="#ffe470"/><path d="m476.800781 108.601562-55.800781 221.398438h-165v-164.097656l61.800781-102.902344 48.898438 8.398438 17.402343 87.902343 51.898438-69.300781zm0 0" fill="#fdbf00"/><path d="m466 120c-24.8125 0-45-20.1875-45-45s20.1875-45 45-45 46 20.1875 46 45-21.1875 45-46 45zm0 0" fill="#ff9f00"/><path d="m346 90c-24.8125 0-45-20.1875-45-45s20.1875-45 45-45 45 20.1875 45 45-20.1875 45-45 45zm0 0" fill="#ff9f00"/><path d="m166 90c-24.8125 0-45-20.1875-45-45s20.1875-45 45-45 45 20.1875 45 45-20.1875 45-45 45zm0 0" fill="#ffd400"/><path d="m46 120c-24.8125 0-46-20.1875-46-45s21.1875-45 46-45 45 20.1875 45 45-20.1875 45-45 45zm0 0" fill="#ffd400"/><path d="m331 240h30v30h-30zm0 0" fill="#ff4949"/><path d="m151 240h30v30h-30zm0 0" fill="#ff6c6c"/><path d="m210.996094 255 45-45 45 45-45 45zm0 0" fill="#ff6c6c"/><path d="m301 255-45 45v-90zm0 0" fill="#ff4949"/></svg>