<svg xmlns="http://www.w3.org/2000/svg" xmlns:xlink="http://www.w3.org/1999/xlink" width="3563.936" height="2376.079" viewBox="0 0 3563.936 2376.079">
  <defs>
    <clipPath id="clip-DIGITAL_MARKETING">
      <rect width="3563.936" height="2376.079"/>
    </clipPath>
  </defs>
  <g id="DIGITAL_MARKETING" data-name="DIGITAL MARKETING" clip-path="url(#clip-DIGITAL_MARKETING)">
    <rect width="3563.936" height="2376.079" fill="#fff"/>
    <g id="Backgrond">
      <path id="bacground" d="M0,0H3563.936V2376.079H0Z" transform="translate(0)" fill="none"/>
    </g>
    <g id="Ipad">
      <g id="Groupe_1" data-name="Groupe 1">
        <path id="Tracé_1" data-name="Tracé 1" d="M1670.576,975.55l-5.933-888.567,18.363-10.765a36.43,36.43,0,0,1,36.63-.125L2859.72,733.956a75.942,75.942,0,0,1,38.119,65.4v855.833a39.168,39.168,0,0,1-19.525,33.886l-24.066,13.949L1710.061,1043.839A78.8,78.8,0,0,1,1670.576,975.55Z" fill="#7070cc"/>
        <path id="Tracé_2" data-name="Tracé 2" d="M1647.2,987.553V115.49a32.188,32.188,0,0,1,48.276-27.879L2836.345,745.959a76.239,76.239,0,0,1,38.135,66.035v855.658c0,32-34.619,52.016-62.352,36.052L1686.686,1055.842A78.8,78.8,0,0,1,1647.2,987.553Z" fill="#171755"/>
        <path id="Tracé_3" data-name="Tracé 3" d="M1671.842,973.822V154.135a30.465,30.465,0,0,1,45.692-26.386L2818.168,766.011a72.159,72.159,0,0,1,36.093,62.5v804.16c0,30.286-32.766,49.231-59.013,34.121L1709.213,1038.455A74.579,74.579,0,0,1,1671.842,973.822Z" fill="#dcd4fe" opacity="0.78"/>
      </g>
      <path id="Tracé_4" data-name="Tracé 4" d="M2305.9,575.7V868.093L2052.8,721.7V429.515Z" fill="#7070cc"/>
      <path id="Tracé_5" data-name="Tracé 5" d="M2287.695,586.214v250.34L2071,711.213V461.054Z" fill="#fff"/>
      <g id="Groupe_2" data-name="Groupe 2">
        <path id="Tracé_6" data-name="Tracé 6" d="M2198.527,994.445V1258.29L1708.659,974.356V710.7Z" fill="#fff"/>
        <path id="Tracé_7" data-name="Tracé 7" d="M2202.442,1265.084l-497.7-288.472V703.91l497.7,288.278ZM1712.574,972.1l482.038,279.4V996.7L1712.574,717.494Z" fill="#7070cc"/>
      </g>
      <path id="Tracé_8" data-name="Tracé 8" d="M2155.657,599.876v69.158a4.3,4.3,0,0,0,4.756,4.278l47.879-5.078a4.3,4.3,0,0,0,2.992-6.853l-47.879-64.08A4.3,4.3,0,0,0,2155.657,599.876Z" fill="#7070cc"/>
      <ellipse id="Ellipse_1" data-name="Ellipse 1" cx="10.136" cy="14.556" rx="10.136" ry="14.556" transform="translate(1710.247 630.133) rotate(-27.387)" fill="#fff"/>
      <ellipse id="Ellipse_2" data-name="Ellipse 2" cx="10.136" cy="14.556" rx="10.136" ry="14.556" transform="translate(1710.247 672.232) rotate(-27.387)" fill="#fff"/>
      <path id="Tracé_9" data-name="Tracé 9" d="M1747.808,652.3v.869a3.492,3.492,0,0,0,1.741,3.021L1949.686,772.3a3.492,3.492,0,0,0,5.243-3.021v-.869a3.492,3.492,0,0,0-1.741-3.021L1753.05,649.28A3.491,3.491,0,0,0,1747.808,652.3Z" fill="#fff"/>
      <path id="Tracé_10" data-name="Tracé 10" d="M1747.808,694.151v.869a3.49,3.49,0,0,0,1.741,3.021l200.137,116.113a3.492,3.492,0,0,0,5.243-3.021v-.869a3.494,3.494,0,0,0-1.741-3.021L1753.05,691.13A3.491,3.491,0,0,0,1747.808,694.151Z" fill="#fff"/>
      <ellipse id="Ellipse_3" data-name="Ellipse 3" cx="10.136" cy="14.556" rx="10.136" ry="14.556" transform="translate(1710.247 1016.308) rotate(-27.387)" fill="#fff"/>
      <path id="Tracé_11" data-name="Tracé 11" d="M1747.808,1038.227v.869a3.492,3.492,0,0,0,1.741,3.021l200.137,116.113a3.492,3.492,0,0,0,5.243-3.021v-.869a3.492,3.492,0,0,0-1.741-3.021L1753.05,1035.206A3.491,3.491,0,0,0,1747.808,1038.227Z" fill="#fff"/>
      <path id="Tracé_12" data-name="Tracé 12" d="M1708.659,974.356s8.234-37.055,39.157-20.4,69.06-50.068,111.2-38.639c35.086,9.515,33.9,156.4,70.766,140.937s73.739-70.186,97.526-22.612,11.894,92.768,47.574,96.336,35.086-23.011,66.6,0c26.13,19.079,55.8,96.07,57.038,128.316Z" fill="#7070cc" opacity="0.7"/>
      <path id="Tracé_13" data-name="Tracé 13" d="M1708.659,974.356v-98.9s59.376,7.568,74.838,109.041,102.68-6.148,145.893,13.674c44.335,20.338,18.236,118.722,63.431,112.775s199.708-83.254,205.706-48.763V1258.29Z" fill="#7070cc" opacity="0.57"/>
      <path id="Tracé_14" data-name="Tracé 14" d="M2790.244,840.441v769.09l-335.131-193.77V646.882Z" fill="#7070cc"/>
      <path id="Tracé_15" data-name="Tracé 15" d="M2772.043,850.955v727.037l-298.729-172.715V678.421Z" fill="#fff"/>
      <path id="Tracé_16" data-name="Tracé 16" d="M1967.822,395.092V687.485l-253.1-146.4V248.907Z" fill="#e5e1ff"/>
      <path id="Tracé_17" data-name="Tracé 17" d="M2510.278,746.01v25.11l224.8,130v-25.09Z" fill="#fc5d9d"/>
      <path id="Tracé_18" data-name="Tracé 18" d="M2574.24,880.145v25.11l91.1,52.446v-25.09Z" fill="#7070cc"/>
      <path id="Tracé_19" data-name="Tracé 19" d="M2500.623,840.735v66.454l55.457,33.693v-66.4Z" fill="#7070cc"/>
      <path id="Tracé_20" data-name="Tracé 20" d="M2500.623,954.8v66.454l55.457,33.693v-66.4Z" fill="#7070cc"/>
      <path id="Tracé_21" data-name="Tracé 21" d="M2574.24,926.608V939.8l160.84,94.073V1020.7Z" fill="#7070cc"/>
      <path id="Tracé_22" data-name="Tracé 22" d="M2574.24,999.253v25.11l91.1,52.446v-25.09Z" fill="#7070cc"/>
      <path id="Tracé_23" data-name="Tracé 23" d="M2574.24,1045.716v13.193l160.84,94.073v-13.173Z" fill="#7070cc"/>
      <g id="Groupe_3" data-name="Groupe 3" opacity="0.51">
        <path id="Tracé_24" data-name="Tracé 24" d="M2684.656,688.83l-26.716-15.493L1856.2,1123.5l26.808,15.51Z" fill="#fff" opacity="0.54"/>
        <path id="Tracé_25" data-name="Tracé 25" d="M1710.382,1039.13l92.686,53.624,801.738-450.23-108.7-63.036-799.85,449.1A74.485,74.485,0,0,0,1710.382,1039.13Z" fill="#fff" opacity="0.54"/>
        <path id="Tracé_26" data-name="Tracé 26" d="M2737.787,719.641l-801.642,450.107,30.344,17.556,801.546-450.122Z" fill="#fff" opacity="0.54"/>
      </g>
      <g id="Groupe_4" data-name="Groupe 4">
        <path id="Tracé_27" data-name="Tracé 27" d="M2505.278,1284.851v.869a3.49,3.49,0,0,0,1.741,3.021l155.521,90.119a3.491,3.491,0,0,0,5.242-3.021v-.869a3.491,3.491,0,0,0-1.741-3.021L2510.52,1281.83A3.491,3.491,0,0,0,2505.278,1284.851Z" fill="#7070cc"/>
        <path id="Tracé_28" data-name="Tracé 28" d="M2578.239,1389.319v.868a3.49,3.49,0,0,0,1.741,3.021l155.522,90.119a3.492,3.492,0,0,0,5.242-3.021v-.869a3.494,3.494,0,0,0-1.741-3.021L2583.481,1386.3A3.492,3.492,0,0,0,2578.239,1389.319Z" fill="#7070cc"/>
        <path id="Tracé_29" data-name="Tracé 29" d="M2504.614,1326.638v.869a3.493,3.493,0,0,0,1.741,3.021l155.522,90.119a3.491,3.491,0,0,0,5.242-3.021v-.869a3.489,3.489,0,0,0-1.741-3.021l-155.521-90.119A3.492,3.492,0,0,0,2504.614,1326.638Z" fill="#7070cc"/>
        <path id="Tracé_30" data-name="Tracé 30" d="M2673.42,1382.022v.869a3.492,3.492,0,0,0,1.741,3.021l60.341,34.735a3.492,3.492,0,0,0,5.242-3.021v-.869a3.491,3.491,0,0,0-1.741-3.021L2678.662,1379A3.492,3.492,0,0,0,2673.42,1382.022Z" fill="#7070cc"/>
        <path id="Tracé_31" data-name="Tracé 31" d="M2581.887,1350.516v.869a3.49,3.49,0,0,0,1.741,3.021l60.34,34.735a3.491,3.491,0,0,0,5.242-3.021v-.869a3.489,3.489,0,0,0-1.741-3.021l-60.34-34.735A3.492,3.492,0,0,0,2581.887,1350.516Z" fill="#7070cc"/>
        <path id="Tracé_32" data-name="Tracé 32" d="M2673.42,1422.483v.869a3.494,3.494,0,0,0,1.741,3.021l60.341,34.734a3.492,3.492,0,0,0,5.242-3.021v-.869A3.494,3.494,0,0,0,2739,1454.2l-60.341-34.734A3.491,3.491,0,0,0,2673.42,1422.483Z" fill="#7070cc"/>
        <path id="Tracé_33" data-name="Tracé 33" d="M2504.614,1346.868v.869a3.492,3.492,0,0,0,1.741,3.021l60.341,34.735a3.492,3.492,0,0,0,5.242-3.021v-.869a3.492,3.492,0,0,0-1.741-3.021l-60.34-34.735A3.492,3.492,0,0,0,2504.614,1346.868Z" fill="#7070cc"/>
        <path id="Tracé_34" data-name="Tracé 34" d="M2655.843,1392.967v.868a3.492,3.492,0,0,0,1.741,3.021l77.918,45.016a3.492,3.492,0,0,0,5.242-3.021v-.869a3.492,3.492,0,0,0-1.741-3.021l-77.918-45.016A3.492,3.492,0,0,0,2655.843,1392.967Z" fill="#7070cc"/>
        <path id="Tracé_35" data-name="Tracé 35" d="M2504.614,1305.413v.869c0,1.245.664,2.4,2.405,3.684l60.34,34.735c1.664.685,4.579-.994,4.579-3.685v-.868a3.5,3.5,0,0,0-1.741-3.022l-60.34-34.734A3.492,3.492,0,0,0,2504.614,1305.413Z" fill="#7070cc"/>
        <path id="Tracé_36" data-name="Tracé 36" d="M2505.278,1367.43v.869a3.492,3.492,0,0,0,1.741,3.021l155.521,90.119a3.491,3.491,0,0,0,5.242-3.021v-.869a3.49,3.49,0,0,0-1.741-3.021l-155.521-90.119A3.491,3.491,0,0,0,2505.278,1367.43Z" fill="#7070cc"/>
        <path id="Tracé_37" data-name="Tracé 37" d="M2673.42,1464.6v.869a3.492,3.492,0,0,0,1.741,3.021l60.341,34.735a3.492,3.492,0,0,0,5.242-3.021v-.869a3.491,3.491,0,0,0-1.741-3.021l-60.341-34.735A3.492,3.492,0,0,0,2673.42,1464.6Z" fill="#7070cc"/>
        <path id="Tracé_38" data-name="Tracé 38" d="M2581.887,1433.095v.869a3.49,3.49,0,0,0,1.741,3.021l60.34,34.735a3.491,3.491,0,0,0,5.242-3.021v-.869a3.489,3.489,0,0,0-1.741-3.021l-60.34-34.735A3.492,3.492,0,0,0,2581.887,1433.095Z" fill="#7070cc"/>
        <path id="Tracé_39" data-name="Tracé 39" d="M2655.843,1475.546v.868a3.492,3.492,0,0,0,1.741,3.021l77.918,45.016a3.492,3.492,0,0,0,5.242-3.021v-.869a3.492,3.492,0,0,0-1.741-3.021l-77.918-45.016A3.492,3.492,0,0,0,2655.843,1475.546Z" fill="#7070cc"/>
        <path id="Tracé_40" data-name="Tracé 40" d="M2504.614,1387.992v.869c0,1.245.664,2.4,2.405,3.684l60.34,34.735c1.664.685,4.579-.994,4.579-3.685v-.869a3.494,3.494,0,0,0-1.741-3.021l-60.34-34.734A3.492,3.492,0,0,0,2504.614,1387.992Z" fill="#7070cc"/>
      </g>
      <g id="Groupe_5" data-name="Groupe 5">
        <path id="Tracé_41" data-name="Tracé 41" d="M2505.278,1079.28v.869a3.492,3.492,0,0,0,1.741,3.021l155.521,90.118a3.491,3.491,0,0,0,5.242-3.021v-.868a3.489,3.489,0,0,0-1.741-3.021l-155.521-90.119A3.491,3.491,0,0,0,2505.278,1079.28Z" fill="#7070cc"/>
        <path id="Tracé_42" data-name="Tracé 42" d="M2578.239,1183.747v.869a3.491,3.491,0,0,0,1.741,3.021l155.522,90.119a3.492,3.492,0,0,0,5.242-3.021v-.869a3.491,3.491,0,0,0-1.741-3.021l-155.522-90.119A3.491,3.491,0,0,0,2578.239,1183.747Z" fill="#7070cc"/>
        <path id="Tracé_43" data-name="Tracé 43" d="M2504.614,1121.067v.868a3.5,3.5,0,0,0,1.741,3.022l155.522,90.118a3.491,3.491,0,0,0,5.242-3.021v-.869a3.492,3.492,0,0,0-1.741-3.021l-155.521-90.118A3.492,3.492,0,0,0,2504.614,1121.067Z" fill="#7070cc"/>
        <path id="Tracé_44" data-name="Tracé 44" d="M2673.42,1176.451v.869a3.494,3.494,0,0,0,1.741,3.021l60.341,34.734a3.491,3.491,0,0,0,5.242-3.021v-.869a3.494,3.494,0,0,0-1.741-3.021l-60.341-34.734A3.492,3.492,0,0,0,2673.42,1176.451Z" fill="#7070cc"/>
        <path id="Tracé_45" data-name="Tracé 45" d="M2581.887,1144.945v.869a3.492,3.492,0,0,0,1.741,3.021l60.34,34.734a3.491,3.491,0,0,0,5.242-3.021v-.868a3.492,3.492,0,0,0-1.741-3.022l-60.34-34.734A3.492,3.492,0,0,0,2581.887,1144.945Z" fill="#7070cc"/>
        <path id="Tracé_46" data-name="Tracé 46" d="M2673.42,1216.911v.869a3.493,3.493,0,0,0,1.741,3.021l60.341,34.735a3.492,3.492,0,0,0,5.242-3.021v-.869a3.491,3.491,0,0,0-1.741-3.021l-60.341-34.735A3.492,3.492,0,0,0,2673.42,1216.911Z" fill="#7070cc"/>
        <path id="Tracé_47" data-name="Tracé 47" d="M2504.614,1141.3v.869a3.494,3.494,0,0,0,1.741,3.021l60.341,34.734a3.491,3.491,0,0,0,5.242-3.021v-.869a3.494,3.494,0,0,0-1.741-3.021l-60.34-34.734A3.492,3.492,0,0,0,2504.614,1141.3Z" fill="#7070cc"/>
        <path id="Tracé_48" data-name="Tracé 48" d="M2655.843,1187.4v.869a3.494,3.494,0,0,0,1.741,3.021L2735.5,1236.3a3.492,3.492,0,0,0,5.242-3.022v-.869a3.491,3.491,0,0,0-1.741-3.02l-77.918-45.016A3.492,3.492,0,0,0,2655.843,1187.4Z" fill="#7070cc"/>
        <path id="Tracé_49" data-name="Tracé 49" d="M2504.614,1099.842v.868c0,1.246.664,2.4,2.405,3.685l60.34,34.734c1.664.686,4.579-.994,4.579-3.684v-.869a3.494,3.494,0,0,0-1.741-3.021l-60.34-34.735A3.493,3.493,0,0,0,2504.614,1099.842Z" fill="#7070cc"/>
        <path id="Tracé_50" data-name="Tracé 50" d="M2581.887,1290.2v.869a3.49,3.49,0,0,0,1.741,3.021l60.34,34.735a3.492,3.492,0,0,0,5.242-3.021v-.869a3.489,3.489,0,0,0-1.741-3.021l-60.34-34.735A3.492,3.492,0,0,0,2581.887,1290.2Z" fill="#7070cc"/>
        <path id="Tracé_51" data-name="Tracé 51" d="M2655.843,1332.654v.869a3.492,3.492,0,0,0,1.741,3.021l77.918,45.016a3.492,3.492,0,0,0,5.242-3.021v-.869a3.492,3.492,0,0,0-1.741-3.021l-77.918-45.016A3.492,3.492,0,0,0,2655.843,1332.654Z" fill="#7070cc"/>
        <path id="Tracé_52" data-name="Tracé 52" d="M2504.614,1245.1v.869c0,1.245.664,2.4,2.405,3.684l60.34,34.735c1.664.685,4.579-.994,4.579-3.685v-.868a3.5,3.5,0,0,0-1.741-3.022l-60.34-34.734A3.492,3.492,0,0,0,2504.614,1245.1Z" fill="#7070cc"/>
        <path id="Tracé_53" data-name="Tracé 53" d="M2505.278,1161.859v.869a3.492,3.492,0,0,0,1.741,3.021l155.521,90.118a3.491,3.491,0,0,0,5.242-3.021v-.868a3.493,3.493,0,0,0-1.741-3.022l-155.521-90.119A3.492,3.492,0,0,0,2505.278,1161.859Z" fill="#7070cc"/>
        <path id="Tracé_54" data-name="Tracé 54" d="M2578.239,1266.326v.869a3.492,3.492,0,0,0,1.741,3.021l155.522,90.119a3.492,3.492,0,0,0,5.242-3.021v-.869a3.491,3.491,0,0,0-1.741-3.021l-155.522-90.119A3.491,3.491,0,0,0,2578.239,1266.326Z" fill="#7070cc"/>
        <path id="Tracé_55" data-name="Tracé 55" d="M2504.614,1203.646v.868a3.492,3.492,0,0,0,1.741,3.021l155.522,90.119a3.491,3.491,0,0,0,5.242-3.021v-.868a3.492,3.492,0,0,0-1.741-3.022l-155.521-90.119A3.493,3.493,0,0,0,2504.614,1203.646Z" fill="#7070cc"/>
        <path id="Tracé_56" data-name="Tracé 56" d="M2673.42,1259.03v.869a3.494,3.494,0,0,0,1.741,3.021l60.341,34.734a3.491,3.491,0,0,0,5.242-3.021v-.868a3.494,3.494,0,0,0-1.741-3.022l-60.341-34.734A3.492,3.492,0,0,0,2673.42,1259.03Z" fill="#7070cc"/>
        <path id="Tracé_57" data-name="Tracé 57" d="M2581.887,1227.524v.869a3.492,3.492,0,0,0,1.741,3.021l60.34,34.734a3.491,3.491,0,0,0,5.242-3.021v-.869a3.491,3.491,0,0,0-1.741-3.021l-60.34-34.734A3.492,3.492,0,0,0,2581.887,1227.524Z" fill="#7070cc"/>
        <path id="Tracé_58" data-name="Tracé 58" d="M2673.42,1299.49v.869a3.492,3.492,0,0,0,1.741,3.021l60.341,34.735a3.492,3.492,0,0,0,5.242-3.021v-.869A3.491,3.491,0,0,0,2739,1331.2l-60.341-34.735A3.492,3.492,0,0,0,2673.42,1299.49Z" fill="#7070cc"/>
        <path id="Tracé_59" data-name="Tracé 59" d="M2504.614,1223.876v.869a3.494,3.494,0,0,0,1.741,3.021L2566.7,1262.5a3.492,3.492,0,0,0,5.242-3.021v-.869a3.494,3.494,0,0,0-1.741-3.021l-60.34-34.734A3.492,3.492,0,0,0,2504.614,1223.876Z" fill="#7070cc"/>
        <path id="Tracé_60" data-name="Tracé 60" d="M2655.843,1269.974v.869a3.494,3.494,0,0,0,1.741,3.021l77.918,45.015a3.491,3.491,0,0,0,5.242-3.021v-.869a3.491,3.491,0,0,0-1.741-3.02l-77.918-45.016A3.492,3.492,0,0,0,2655.843,1269.974Z" fill="#7070cc"/>
        <path id="Tracé_61" data-name="Tracé 61" d="M2504.614,1182.42v.869c0,1.246.664,2.4,2.405,3.685l60.34,34.734c1.664.686,4.579-.994,4.579-3.684v-.869a3.493,3.493,0,0,0-1.741-3.021l-60.34-34.735A3.492,3.492,0,0,0,2504.614,1182.42Z" fill="#7070cc"/>
      </g>
    </g>
    <g id="Woman">
      <path id="Tracé_62" data-name="Tracé 62" d="M2406.131,1671.95c.2.017.392.03.588.047a202.924,202.924,0,0,1-72.477-20.208c-17.3,73.852,3.529,170.565,3.529,170.565s9.627,61.456,4.808,93.168c-4.584,30.171,3.189,61.865,7.558,89.507,3.748,23.718,9.666,75.134,9.666,75.134,21.267,15.818,39.019,1.406,39.019,1.406s12.339-180.45,20.322-281.036C2412.208,1759.393,2404.494,1704.541,2406.131,1671.95Z" fill="#dbd6ff"/>
      <ellipse id="Ellipse_4" data-name="Ellipse 4" cx="181.586" cy="93.692" rx="181.586" ry="93.692" transform="translate(2270.723 2092.829)" fill="#7070cc"/>
      <path id="Tracé_63" data-name="Tracé 63" d="M2407.415,1713.086l11.729,87.447s-1.5,19.149-1.426,18.216S2402.154,1760.675,2407.415,1713.086Z" fill="#aeabdd"/>
      <path id="Tracé_64" data-name="Tracé 64" d="M2406.131,1672.428c-2.872,57.17,23.032,182.834,23.032,182.834s11.209,72.594,6.391,104.305c-4.585,30.172,3.188,61.866,7.557,89.508,3.748,23.718,9.666,75.134,9.666,75.134,21.267,15.818,39.019,1.406,39.019,1.406s16.914-247.348,23.948-324.287c9.4-102.834-1.472-149.177-1.472-149.177S2468.763,1677.9,2406.131,1672.428Z" fill="#dbd6ff"/>
      <path id="Tracé_65" data-name="Tracé 65" d="M2359.221,2108.7c-.933-.585-24.613,9.7-12.928,45.117,1.2,3.649,2.518,7.261,2.649,11.1l.927,27.276a3.345,3.345,0,0,0,2.724,3.173l2.216.418a1.517,1.517,0,0,0,1.8-1.471c.073-5.444.287-21.715.354-28.127a6.871,6.871,0,0,1,3.067-5.668c3.3-2.18,8.972-4.3,15.408.329,7.227,5.194,24.88,16.8,34.5,23.1a13.4,13.4,0,0,0,13.72.57c11.721-6.359,34.1-20.182,38.928-35.274a3.207,3.207,0,0,0-1.641-3.854c-4.418-2.168-16.9-5.729-46.179-1.579,0,0,8.619,15.044-.381,17.186a9.106,9.106,0,0,1-9.35-3.651C2397.85,2147.5,2376.625,2119.612,2359.221,2108.7Z" fill="#191919"/>
      <path id="Tracé_66" data-name="Tracé 66" d="M2398.822,2082.048c.145,18.845.965,29.492,8.829,46.58l9.3,19.789c1.633,4.139,3.045,10.013-.87,12.187a7.494,7.494,0,0,1-1.578.523,9.211,9.211,0,0,1-9.349-3.651c-7.175-9.828-28.342-37.639-45.73-48.586-.028.007-.048.014-.087.023,0-.031,0-.064,0-.095v0c-.076-7.716,1.538-14.487.465-28.173C2359.8,2080.641,2378.41,2096.138,2398.822,2082.048Z" fill="#f2b5a7"/>
      <path id="Tracé_67" data-name="Tracé 67" d="M2387.11,1756.677q-.474,55.659-.947,111.318t-.946,111.318q-.267,31.31-.533,62.617a1.309,1.309,0,0,0,2.616,0q.472-55.659.946-111.318t.947-111.319q.266-31.308.532-62.616a1.308,1.308,0,0,0-2.615,0Z" fill="#aeabdd"/>
      <path id="Tracé_68" data-name="Tracé 68" d="M2452.2,2152.269c-.933-.585-24.614,9.7-12.928,45.117,1.2,3.648,2.518,7.26,2.649,11.1l.928,27.277a3.344,3.344,0,0,0,2.723,3.173l2.216.417a1.517,1.517,0,0,0,1.8-1.471c.073-5.444.287-21.715.354-28.127a6.873,6.873,0,0,1,3.067-5.668,12.777,12.777,0,0,1,15.409.329c7.226,5.2,24.879,16.8,34.5,23.1a13.4,13.4,0,0,0,13.72.571c11.721-6.359,34.1-20.183,38.928-35.275a3.207,3.207,0,0,0-1.641-3.854c-4.418-2.168-16.9-5.729-46.179-1.578,0,0,8.619,15.044-.381,17.185a9.1,9.1,0,0,1-9.35-3.651C2490.824,2191.067,2469.6,2163.179,2452.2,2152.269Z" fill="#191919"/>
      <path id="Tracé_69" data-name="Tracé 69" d="M2491.8,2125.615c.145,18.845.966,29.492,8.829,46.581l9.3,19.788c1.632,4.14,3.044,10.014-.871,12.188a7.455,7.455,0,0,1-1.578.522,9.21,9.21,0,0,1-9.349-3.651c-7.175-9.827-28.342-37.638-45.73-48.586-.028.008-.048.015-.087.023,0-.031,0-.063,0-.094v0c-.076-7.717,1.538-14.487.465-28.173C2452.777,2124.209,2471.384,2139.706,2491.8,2125.615Z" fill="#f2b5a7"/>
      <path id="Tracé_70" data-name="Tracé 70" d="M2480.064,1741.832q-.568,67.007-1.139,134.013t-1.14,134.013q-.319,37.69-.641,75.382a1.575,1.575,0,0,0,3.149,0q.57-67.007,1.14-134.013t1.139-134.013q.321-37.69.641-75.382a1.575,1.575,0,0,0-3.149,0Z" fill="#aeabdd"/>
      <path id="Tracé_71" data-name="Tracé 71" d="M2334.242,1652.267s2.771-16.7,5.455-26.738c17.8-66.552-18.33-172.856-18.33-172.856-26.576-187.095,75.294-142.077,75.294-142.077.3-.739,5.994,2.586,12.549,6.726a94.693,94.693,0,0,0,38.847,13.877c18.038,2.252,44.312,11.251,66.347,36.261,96.44,109.459,13.433,92.952,16.947,108.336,2.937,12.857-3.69,46.928-10.893,76.149-1.922,7.8-6.9,60.389-6.186,100.205C2514.272,1652.15,2430.728,1699.417,2334.242,1652.267Z" fill="#fc5d9d"/>
      <path id="Tracé_72" data-name="Tracé 72" d="M2473.977,1338.194s-4.667-22.6,0-30.422c3.209-.321,54.493-3.969,10.144-116.793,0,0-73.134-41.874-77.9,76.828,0,0,11.546,28.751,2.988,49.515C2410.987,1349.481,2473.977,1338.194,2473.977,1338.194Z" fill="#f2b5a7"/>
      <path id="Tracé_73" data-name="Tracé 73" d="M2531.929,1479.907l-77.771-68.684s25.24,55.9,76.172,92.409C2530.33,1503.632,2532.725,1487.454,2531.929,1479.907Z" fill="#d8368d"/>
      <path id="Tracé_74" data-name="Tracé 74" d="M2488.989,1341.881c22.52,7.985,68.767,34.171,149.913,118.491,0,0,9.959,26.7-4.2,61.98,0,0-70.444-7.255-165.055-88.914a85.584,85.584,0,0,1-26.322-40.472c-4.381-14.874-4.993-32.219,8.648-44.222A37.212,37.212,0,0,1,2488.989,1341.881Z" fill="#fc5d9d"/>
      <path id="Tracé_75" data-name="Tracé 75" d="M2484.9,1231.431a64.521,64.521,0,0,0,2.234-6.788,60.107,60.107,0,0,0,.519-28.074c-1.123-5.083-2.705-10.248-6.022-14.352-.115-.143-.254-.262-.467-.547-14.207-17.587-71.456-29.905-103.279-4.316-34.794,27.979-35.029,79.331-35.2,80.746s-2.036,43.774-39.019,84.642-36.266,169.283,54.487,195.469,104.2-68.513,104.2-68.513-1.264-33.718-19.374-75.328,4.847-67.436,4.847-67.436,16.618-24.082,13.633-46.789a34.311,34.311,0,0,1,.96,4.006,60.162,60.162,0,0,1,.779,9.562,100.866,100.866,0,0,1-.331,10.9c-1.6,17.214-8.606,33.381-10.666,50.529a67.323,67.323,0,0,0,1.53,24.876,126.476,126.476,0,0,0,8.55,22.3c6.993,14.856,14.494,29.456,18.226,45.566,3.469,14.974,3.591,31.384-2.754,45.645a55.6,55.6,0,0,1-2.611,5.12,1.576,1.576,0,0,0,2.719,1.59c7.909-13.754,9.485-30.161,7.135-45.637-2.536-16.7-9.513-32.184-16.82-47.257-3.584-7.391-7.186-14.807-9.775-22.618a65.833,65.833,0,0,1-3.506-24.446c.968-17.7,8.279-34.255,10.661-51.728a88.872,88.872,0,0,0,.36-22.032c-.759-6.523-2.736-12.894-7.169-17.886a22.681,22.681,0,0,0-1.715-1.723c-.323-.557-.657-1.11-1.018-1.657,0,0-20.6-15.814-10.092-26.491a6.037,6.037,0,0,1,3.654-1.808c3.308-.349,9.6.789,14.009,12.612a2.086,2.086,0,0,0,2.437,1.336l.048-.012c1.247-.339,4.567-.4,5.3-4.425a8.213,8.213,0,0,0-.921-5.319c-1.517-2.835-3.821-9.266,2.81-14.33a32.586,32.586,0,0,0,12.495-21.613q.179,2.358.166,4.73a56.239,56.239,0,0,1-1.707,13.419,60.271,60.271,0,0,1-2.13,6.666,52.735,52.735,0,0,0-2.315,6.848,27.359,27.359,0,0,0,1.036,15.749,1.619,1.619,0,0,0,1.936,1.1,1.587,1.587,0,0,0,1.1-1.937,24.358,24.358,0,0,1-1.162-13.5A44.226,44.226,0,0,1,2484.9,1231.431Z" fill="#171755"/>
      <path id="Tracé_76" data-name="Tracé 76" d="M2802.187,1407.355a4.046,4.046,0,0,0-6.853-.845c-7.994,9.909-21.759,8.393-21.759,8.393,8.967-33.411-17.723,10.028-17.723,10.028L2639,1460.666c.926,3.016,8.273,29.137-4.288,61.686l128.145-72.574C2814.019,1443.557,2807.727,1419.858,2802.187,1407.355Z" fill="#f2b5a7"/>
      <path id="Tracé_77" data-name="Tracé 77" d="M2334.242,1652.267c45.673,60.819,169.067,26.623,180.03-.116C2514.272,1652.151,2430.728,1699.417,2334.242,1652.267Z" fill="#aeabdd"/>
      <path id="Tracé_78" data-name="Tracé 78" d="M2459.321,1548.13a5.342,5.342,0,1,1-5.341-5.341A5.341,5.341,0,0,1,2459.321,1548.13Z" fill="#e0e0e0"/>
      <path id="Tracé_79" data-name="Tracé 79" d="M2448.562,1352.768a5.342,5.342,0,1,1-5.341-5.341A5.341,5.341,0,0,1,2448.562,1352.768Z" fill="#e0e0e0"/>
      <path id="Tracé_80" data-name="Tracé 80" d="M2630.743,1462.312a5.341,5.341,0,1,1-5.342-5.341A5.341,5.341,0,0,1,2630.743,1462.312Z" fill="#e0e0e0"/>
      <path id="Tracé_81" data-name="Tracé 81" d="M2625.4,1503.632a5.341,5.341,0,1,1-5.341-5.341A5.341,5.341,0,0,1,2625.4,1503.632Z" fill="#e0e0e0"/>
      <path id="Tracé_82" data-name="Tracé 82" d="M2571.908,1478.836a5.341,5.341,0,1,1-5.341-5.341A5.341,5.341,0,0,1,2571.908,1478.836Z" fill="#e0e0e0"/>
      <path id="Tracé_83" data-name="Tracé 83" d="M2473.423,1476.761a5.341,5.341,0,1,1-5.341-5.341A5.341,5.341,0,0,1,2473.423,1476.761Z" fill="#e0e0e0"/>
      <path id="Tracé_84" data-name="Tracé 84" d="M2501.343,1365.857a5.341,5.341,0,1,1-5.341-5.341A5.342,5.342,0,0,1,2501.343,1365.857Z" fill="#e0e0e0"/>
      <path id="Tracé_85" data-name="Tracé 85" d="M2399.02,1558.812a5.341,5.341,0,1,1-5.341-5.341A5.341,5.341,0,0,1,2399.02,1558.812Z" fill="#e0e0e0"/>
      <path id="Tracé_86" data-name="Tracé 86" d="M2359.868,1575.28a5.341,5.341,0,1,1-5.341-5.341A5.341,5.341,0,0,1,2359.868,1575.28Z" fill="#e0e0e0"/>
      <path id="Tracé_87" data-name="Tracé 87" d="M2418.08,1609.953a5.341,5.341,0,1,1-5.341-5.341A5.341,5.341,0,0,1,2418.08,1609.953Z" fill="#e0e0e0"/>
      <path id="Tracé_88" data-name="Tracé 88" d="M2462.741,1593.93a5.341,5.341,0,1,1-5.341-5.342A5.342,5.342,0,0,1,2462.741,1593.93Z" fill="#e0e0e0"/>
      <path id="Tracé_89" data-name="Tracé 89" d="M2511.556,1580.622a5.341,5.341,0,1,1-5.341-5.342A5.34,5.34,0,0,1,2511.556,1580.622Z" fill="#e0e0e0"/>
      <path id="Tracé_90" data-name="Tracé 90" d="M2531.762,1393.819a5.341,5.341,0,1,1-5.341-5.341A5.341,5.341,0,0,1,2531.762,1393.819Z" fill="#e0e0e0"/>
      <path id="Tracé_91" data-name="Tracé 91" d="M2443.221,1649.432a5.341,5.341,0,1,1-5.342-5.341A5.341,5.341,0,0,1,2443.221,1649.432Z" fill="#e0e0e0"/>
      <path id="Tracé_92" data-name="Tracé 92" d="M2390.225,1662.082a5.341,5.341,0,1,1-5.341-5.342A5.341,5.341,0,0,1,2390.225,1662.082Z" fill="#e0e0e0"/>
      <path id="Tracé_93" data-name="Tracé 93" d="M2509.148,1531.225a5.341,5.341,0,1,1-5.341-5.341A5.341,5.341,0,0,1,2509.148,1531.225Z" fill="#e0e0e0"/>
      <path id="Tracé_94" data-name="Tracé 94" d="M2462.741,1407.613a5.341,5.341,0,1,1-5.341-5.341A5.341,5.341,0,0,1,2462.741,1407.613Z" fill="#e0e0e0"/>
      <path id="Tracé_95" data-name="Tracé 95" d="M2519.613,1489.518a5.341,5.341,0,1,1-5.341-5.341A5.341,5.341,0,0,1,2519.613,1489.518Z" fill="#e0e0e0"/>
      <path id="Tracé_96" data-name="Tracé 96" d="M2537.432,1452.96a5.341,5.341,0,1,1-5.341-5.341A5.341,5.341,0,0,1,2537.432,1452.96Z" fill="#e0e0e0"/>
      <path id="Tracé_97" data-name="Tracé 97" d="M2571.908,1422.129a5.341,5.341,0,1,1-5.341-5.341A5.341,5.341,0,0,1,2571.908,1422.129Z" fill="#e0e0e0"/>
      <path id="Tracé_98" data-name="Tracé 98" d="M2498.466,1623.7a5.341,5.341,0,1,1-5.341-5.341A5.341,5.341,0,0,1,2498.466,1623.7Z" fill="#e0e0e0"/>
      <path id="Tracé_99" data-name="Tracé 99" d="M2370.668,1623.7a5.341,5.341,0,1,1-5.341-5.341A5.341,5.341,0,0,1,2370.668,1623.7Z" fill="#e0e0e0"/>
    </g>
    <g id="Man">
      <path id="Tracé_100" data-name="Tracé 100" d="M1806.395,393.623v279.63L1564.346,533.247V253.819Z" fill="#7070cc"/>
      <path id="Tracé_101" data-name="Tracé 101" d="M1788.988,403.678V643.09L1581.752,523.22V283.982Z" fill="#fff"/>
      <path id="Tracé_102" data-name="Tracé 102" d="M1599.438,515.38,1771.3,615.021,1737.531,504.2l-37.34,23.785-53.634-134.6Z" fill="#7070cc"/>
      <ellipse id="Ellipse_5" data-name="Ellipse 5" cx="13.561" cy="19.475" rx="13.561" ry="19.475" transform="translate(1718.964 425.173) rotate(-27.387)" fill="#7070cc"/>
      <path id="Tracé_103" data-name="Tracé 103" d="M1572.633,248.907l-8.287,4.912,242.049,139.8v279.63l8.287-4.912V388.71Z" fill="#171755"/>
      <ellipse id="Ellipse_6" data-name="Ellipse 6" cx="268.11" cy="110.248" rx="268.11" ry="110.248" transform="translate(1286.017 1235.916)" fill="#7070cc"/>
      <path id="Tracé_104" data-name="Tracé 104" d="M1611.8,726.445c-117.444-139.465-57.691-161.282-57.691-161.282,50.235-47.82,116.574,89.991,116.574,89.991l25.706,43.328,71.5-61.96,25.621,23.712s-81.625,134.885-118.4,114.1C1638.014,753.359,1606.157,720.456,1611.8,726.445Z" fill="#c4bef3"/>
      <path id="Tracé_105" data-name="Tracé 105" d="M1617.214,854.76l60.418,251.935,20.6,216.727s-42.825,23.619-93.117,2.483c-.865-5.191-26.41-193.062-26.41-193.062l-53.071-136.014-26.216,147.66-33.171,223.2s-61.714,32.121-102.1,5.935c-.575-2.872,28.039-230.326,28.039-230.326L1419.3,811.741S1455.994,880,1617.214,854.76Z" fill="#161856"/>
      <path id="Tracé_106" data-name="Tracé 106" d="M1764.595,1297.962c-.072-.346-.718-10.318-.8-10.659-3.72-15.3-19.887-23.995-34.928-19.336-12.92,4-33.694,8.256-33.694,8.256l-1.477.394,4.535,46.805s-52.175,24.264-92.124,1.436l-.993-.262v26.448c26.163,39.656,82.768,7.149,82.768,7.149v-8.034C1739,1331.056,1769.743,1322.978,1764.595,1297.962Z" fill="#232323"/>
      <path id="Tracé_107" data-name="Tracé 107" d="M1603.518,875.07c-22.445,7.574-46.486,10.591-62.429,11.339a246.56,246.56,0,0,1-31.459-.475c-73.869-7.091-95.642-25.723-92.278-72.105,3.55-48.929-7.09-158.128-7.09-158.128-27.693-194.961,78.461-148.051,78.461-148.051.313-.769,6.246,2.7,13.075,7.009a98.658,98.658,0,0,0,40.481,14.461c18.8,2.347,46.175,11.724,69.137,37.785,100.494,114.061,7.772,140.3,8.6,156.724.85,16.761-.44,26.388-.886,47.866-.084,4.087-.928,14.685,1.969,42.959,0,0,3.6,30.418.068,44.971C1619.4,866.731,1610.642,872.666,1603.518,875.07Z" fill="#c4bef3"/>
      <path id="Tracé_108" data-name="Tracé 108" d="M1586.788,405.288c2.2.812,15.311,116.423-38.951,103.432,0,0,.126,13.62,4.729,22.258,0,0-38.5,13.847-61.724-5.26a12.812,12.812,0,0,1-3.977-13.973c1.626-4.846,4-11.791,6.892-19.871C1501.405,470.493,1482.481,366.769,1586.788,405.288Z" fill="#fbaa78"/>
      <path id="Tracé_109" data-name="Tracé 109" d="M1555.136,531.619l-5.309-7.985s-43.913,12-61.1-15.984c0,0-13.813,18.976,20.71,26.769C1542.836,541.19,1555.136,531.619,1555.136,531.619Z" fill="#120621"/>
      <path id="Tracé_110" data-name="Tracé 110" d="M1611.311,725.863c-.312-.28-.171-.117.487.582l-.487-.582c.724.65,3.911,3.705,8.931,8.17-.307,18.464-1.428,41.087-1.231,50.317-45.814-32.435-75.527-90.394-70.794-152.67C1558.107,654.651,1577.175,685.251,1611.311,725.863Z" fill="#9a9ae8"/>
      <g id="Groupe_6" data-name="Groupe 6">
        <path id="Tracé_111" data-name="Tracé 111" d="M1438.945,508.657l-.02.012.023-.015Z" fill="#333"/>
      </g>
      <path id="Tracé_112" data-name="Tracé 112" d="M1490.955,884.292c5.717.815,12.167,1.018,18.675,1.642a246.56,246.56,0,0,0,31.459.475c15.943-.748,39.984-3.765,62.429-11.339,5.131-1.732,11.109-5.3,14.715-9.884v25.037s-175.015,42.1-198.435-47.078h.005c6.485,20.727,24.929,32.495,61.574,39.048Z" fill="#101047"/>
      <g id="Groupe_7" data-name="Groupe 7">
        <path id="Tracé_113" data-name="Tracé 113" d="M1687.882,1350.159c45.111-16.857,74.347-25.132,77.059-44.035,3.043,23.4-27.386,31.554-77.059,50.117Z" fill="#ebedf6"/>
        <path id="Tracé_114" data-name="Tracé 114" d="M1687.882,1358.193v6.081s-56.6,32.507-82.768-7.149v-6.081C1631.277,1390.7,1687.882,1358.193,1687.882,1358.193Z" fill="#ebedf6"/>
      </g>
      <path id="Tracé_115" data-name="Tracé 115" d="M1522.628,1346.733c-.071-.346-.717-10.318-.8-10.659-3.719-15.3-19.582-22.866-34.928-19.336-10.8,2.484-10.528,2.363-10.528,2.363l-1.823.486-12.578,49.248s-57.882,27.622-97.83,4.794l-.993-.262v26.448c26.163,39.656,82.768,7.149,82.768,7.149v-8.033C1497.035,1379.827,1527.777,1371.749,1522.628,1346.733Z" fill="#232323"/>
      <g id="Groupe_8" data-name="Groupe 8">
        <path id="Tracé_116" data-name="Tracé 116" d="M1445.916,1398.93c45.111-16.857,74.347-25.132,77.059-44.035,3.043,23.4-27.386,31.554-77.059,50.117Z" fill="#ebedf6"/>
        <path id="Tracé_117" data-name="Tracé 117" d="M1445.916,1406.964v6.081s-56.6,32.507-82.768-7.149v-6.081C1389.311,1439.471,1445.916,1406.964,1445.916,1406.964Z" fill="#ebedf6"/>
      </g>
      <path id="Tracé_118" data-name="Tracé 118" d="M1559.986,464.024c-3.846.682-3.47-44.564-23.549,11.487s-51,22.938-47.81,15.938-15.325-30.567-15.3-33.326-41.64-39.8.584-91.7c18.419-22.641,93.034-20.308,104.1-33.48s55.33,59.15-8.968,83.52C1569.045,416.458,1572.507,461.8,1559.986,464.024Z" fill="#171755"/>
      <g id="Groupe_9" data-name="Groupe 9">
        <path id="Tracé_119" data-name="Tracé 119" d="M1650.419,1306.426l-22.634-177.419c-2.985-9.3-53.142-165.542-54.015-169.034l4.638-1.162v0h0c.8,3.088,35.666,111.846,54,168.941l.1.428,22.662,177.638Z" fill="#fff"/>
      </g>
      <g id="Groupe_10" data-name="Groupe 10">
        <path id="Tracé_120" data-name="Tracé 120" d="M1422.165,1356.579l-4.734-.676,29.03-203.3,17.406-175.142,4.758.473-17.423,175.3Z" fill="#fff"/>
      </g>
      <path id="Tracé_121" data-name="Tracé 121" d="M1784.674,597.785c-1.214,4.728-4.155,16.545-3.049,28.236l-10.093,14.422,20.012,18.52,8.48-10.893s49.169-10.137,9.689-58.911l-11.776,25.066a2.115,2.115,0,0,1-4.029-.882l-.122-14.373C1793.74,593.582,1786.014,592.566,1784.674,597.785Z" fill="#fbaa78"/>
    </g>
    <g id="plant">
      <ellipse id="Ellipse_7" data-name="Ellipse 7" cx="72.858" cy="37.592" rx="72.858" ry="37.592" transform="translate(1778.431 2229.678)" fill="#7070cc"/>
      <g id="plant-2" data-name="plant">
        <path id="Tracé_122" data-name="Tracé 122" d="M1849.952,2076.852c-37.414,0-68.264-13.055-72.629-29.9a7.613,7.613,0,0,1-.534-.723l36.194,231.571s12.676,11.052,36.745,11.052c23.819,0,36.17-11.052,36.17-11.052l36.606-230.551C1917.856,2063.951,1887.146,2076.852,1849.952,2076.852Z" fill="#171755"/>
        <g id="Groupe_11" data-name="Groupe 11">
          <path id="Tracé_123" data-name="Tracé 123" d="M1850.027,2178.63c21.2,0,40.291-4.195,53.652-10.893l3.824-24.084c-13.405,7.819-34.065,12.831-57.246,12.831-23.625,0-44.63-5.206-58.007-13.283l3.811,24.38C1809.436,2174.371,1828.66,2178.63,1850.027,2178.63Z" fill="#fff"/>
          <path id="Tracé_124" data-name="Tracé 124" d="M1850.027,2194.881c-19.947,0-38.023-3.712-51.22-9.729l1.832,11.718c13.039,5.6,30.468,9.019,49.618,9.019,18.723,0,35.8-3.271,48.738-8.648l1.894-11.929C1887.724,2191.234,1869.8,2194.881,1850.027,2194.881Z" fill="#fff"/>
        </g>
        <ellipse id="Ellipse_8" data-name="Ellipse 8" cx="73.163" cy="34.006" rx="73.163" ry="34.006" transform="translate(1776.789 2010.545)" fill="#7070cc"/>
        <ellipse id="Ellipse_9" data-name="Ellipse 9" cx="60.899" cy="26.734" rx="60.899" ry="26.734" transform="translate(1790.102 2016.639)" fill="#fff"/>
        <path id="Tracé_125" data-name="Tracé 125" d="M1903.243,1995.983" fill="none" stroke="#727b8e" stroke-miterlimit="10" stroke-width="1"/>
        <path id="Tracé_126" data-name="Tracé 126" d="M1902.314,1995.983s37.505,29,102.305-11.694a72.374,72.374,0,0,1,24.74-10.08c18.04-3.51,21.384-28.086,4.757-35.916-26.082-12.282-57.743-15.881-93.411,2.145C1940.7,1940.438,1904.016,1958.262,1902.314,1995.983Z" fill="#9b94fd"/>
        <path id="Tracé_127" data-name="Tracé 127" d="M1819.983,2016.633a11.7,11.7,0,0,1-8.875,11.63c-14.976,3.654-48.669,5.512-90.324-32.163-13.88-12.553-28.282-17.61-41.923-18.294-12.094-.606-15.637-16.769-4.808-22.188,32.885-16.457,74.918-23.314,117.287,8.394C1791.34,1964.012,1819.29,1984.251,1819.983,2016.633Z" fill="#9b94fd"/>
        <path id="Tracé_128" data-name="Tracé 128" d="M1865.427,1980.252s43.062-1.212,74.534-70.96c6.87-15.224,20.689-26.364,35.322-34.35,15.405-8.407,8.865-31.849-8.678-31.352-29.461.833-64.224,13.477-90.877,58.032C1875.728,1901.622,1851,1947.481,1865.427,1980.252Z" fill="#9b94fd"/>
        <path id="Tracé_129" data-name="Tracé 129" d="M1826.962,1953.6a12.488,12.488,0,0,1-15.686,11.305c-15.749-4.092-42.963-17.461-68.476-60.581-11.08-18.727-33.121-29.265-52.862-35.152-12.265-3.657-11.819-21.141.615-24.177,31.593-7.713,76.655-5.936,115,44.3.184.241.357.485.526.737C1808.661,1893.9,1828.417,1924.516,1826.962,1953.6Z" fill="#9b94fd"/>
        <path id="Tracé_130" data-name="Tracé 130" d="M1834.31,1939.45a15.241,15.241,0,0,0,23.882-1.933c11.8-17.876,26.2-52.619,5.726-99.508a257.533,257.533,0,0,1-17.14-54.286c-3.107-16.12-25.983-16.571-29.764-.595-2.781,11.752-5.466,25.783-7.885,42.531-4.2,29.054-4.213,57.681,6.158,85.144C1819.032,1920.722,1826.548,1931.142,1834.31,1939.45Z" fill="#9b94fd"/>
        <path id="Tracé_131" data-name="Tracé 131" d="M1866.805,2069.405c5.838-36.151,28.823-68.76,59.975-87.732a118.769,118.769,0,0,1,27.951-12.461c2.011-.6,1.155-3.752-.868-3.151-35.881,10.66-66,38.3-81.159,72.358a121.834,121.834,0,0,0-9.05,30.117c-.332,2.057,2.816,2.942,3.151.869Z" fill="#7070cc"/>
        <path id="Tracé_132" data-name="Tracé 132" d="M1837.423,2069.619c-5.57-34.462-27.393-65.514-57.165-83.512a115.383,115.383,0,0,0-26.8-11.858c-2.019-.6-2.882,2.552-.868,3.151,32.707,9.722,59.92,34.683,73.639,65.788a111.945,111.945,0,0,1,8.042,27.3c.335,2.07,3.484,1.192,3.151-.869Z" fill="#7070cc"/>
        <path id="Tracé_133" data-name="Tracé 133" d="M1861.8,2070.054c-2.637-30.63-1.247-61.535,5.946-91.492,6.463-26.912,17.29-52.734,33.18-75.468a183.264,183.264,0,0,1,30.527-33.867c1.6-1.375-.724-3.678-2.31-2.311-20.671,17.813-37,40.306-48.607,64.942-12.561,26.656-19.744,55.763-22.261,85.075a310.083,310.083,0,0,0,.258,53.121c.179,2.079,3.448,2.1,3.267,0Z" fill="#7070cc"/>
        <path id="Tracé_134" data-name="Tracé 134" d="M1842.161,2070.107c1.138-13.229,1.583-26.552.051-39.77-1.385-11.952-4.305-23.615-7.675-35.145-3.942-13.492-8.138-26.885-13.823-39.759a208.751,208.751,0,0,0-20.011-35.6,186.568,186.568,0,0,0-30.82-34.217c-1.586-1.366-3.907.935-2.31,2.311,20.486,17.653,36.59,39.866,48.095,64.28,5.929,12.581,10.265,25.68,14.27,38.975,3.505,11.635,6.779,23.39,8.524,35.437,2.086,14.415,1.677,29.018.431,43.488-.18,2.095,3.088,2.083,3.268,0Z" fill="#7070cc"/>
        <path id="Tracé_135" data-name="Tracé 135" d="M1840.371,1862.023a1007.41,1007.41,0,0,1,6.926,162.207q-.876,22.941-2.8,45.824c-.175,2.095,3.093,2.083,3.267,0a1007.526,1007.526,0,0,0,.494-162.355q-1.785-22.887-4.616-45.676c-.255-2.06-3.526-2.085-3.268,0Z" fill="#7070cc"/>
      </g>
    </g>
    <g id="plant-3" data-name="plant">
      <ellipse id="Ellipse_10" data-name="Ellipse 10" cx="72.858" cy="37.592" rx="72.858" ry="37.592" transform="translate(776.948 1653.469)" fill="#7070cc"/>
      <g id="plant-4" data-name="plant">
        <path id="Tracé_136" data-name="Tracé 136" d="M848.469,1500.642c-37.414,0-68.264-13.055-72.63-29.9a7.746,7.746,0,0,1-.533-.724L811.5,1701.593s12.676,11.051,36.744,11.051c23.82,0,36.171-11.051,36.171-11.051l36.606-230.552C916.373,1487.741,885.663,1500.642,848.469,1500.642Z" fill="#171755"/>
        <g id="Groupe_12" data-name="Groupe 12">
          <path id="Tracé_137" data-name="Tracé 137" d="M848.544,1602.42c21.2,0,40.29-4.2,53.652-10.893l3.824-24.084c-13.405,7.819-34.065,12.832-57.246,12.832-23.625,0-44.63-5.207-58.007-13.284l3.811,24.38C807.953,1598.161,827.177,1602.42,848.544,1602.42Z" fill="#fff"/>
          <path id="Tracé_138" data-name="Tracé 138" d="M848.544,1618.671c-19.947,0-38.024-3.712-51.22-9.729l1.831,11.718c13.04,5.6,30.469,9.019,49.619,9.019,18.723,0,35.8-3.271,48.737-8.648l1.9-11.929C886.241,1615.024,868.312,1618.671,848.544,1618.671Z" fill="#fff"/>
        </g>
        <ellipse id="Ellipse_11" data-name="Ellipse 11" cx="73.163" cy="34.006" rx="73.163" ry="34.006" transform="translate(775.306 1434.335)" fill="#7070cc"/>
        <ellipse id="Ellipse_12" data-name="Ellipse 12" cx="60.899" cy="26.734" rx="60.899" ry="26.734" transform="translate(788.619 1440.43)" fill="#fff"/>
        <path id="Tracé_139" data-name="Tracé 139" d="M901.76,1419.773" fill="none" stroke="#727b8e" stroke-miterlimit="10" stroke-width="1"/>
        <path id="Tracé_140" data-name="Tracé 140" d="M900.831,1419.773s37.505,29,102.3-11.694a72.376,72.376,0,0,1,24.739-10.08c18.041-3.51,21.385-28.086,4.757-35.916-26.081-12.281-57.742-15.881-93.41,2.145C939.222,1364.228,902.533,1382.052,900.831,1419.773Z" fill="#9b94fd"/>
        <path id="Tracé_141" data-name="Tracé 141" d="M818.5,1440.423a11.7,11.7,0,0,1-8.874,11.63c-14.977,3.654-48.669,5.512-90.324-32.163-13.88-12.553-28.283-17.61-41.923-18.294-12.095-.606-15.637-16.769-4.808-22.188,32.884-16.457,74.918-23.313,117.287,8.394C789.857,1387.8,817.806,1408.041,818.5,1440.423Z" fill="#9b94fd"/>
        <path id="Tracé_142" data-name="Tracé 142" d="M863.944,1404.042s43.062-1.212,74.534-70.959c6.869-15.225,20.689-26.365,35.321-34.35,15.406-8.408,8.865-31.85-8.677-31.353-29.461.833-64.224,13.477-90.878,58.032C874.244,1325.412,849.519,1371.271,863.944,1404.042Z" fill="#9b94fd"/>
        <path id="Tracé_143" data-name="Tracé 143" d="M825.479,1377.386a12.488,12.488,0,0,1-15.686,11.305c-15.75-4.092-42.963-17.461-68.476-60.58-11.08-18.728-33.121-29.266-52.862-35.153-12.265-3.657-11.819-21.141.614-24.177,31.594-7.713,76.656-5.936,115,44.3.185.241.358.485.527.737C807.177,1317.694,826.934,1348.307,825.479,1377.386Z" fill="#9b94fd"/>
        <path id="Tracé_144" data-name="Tracé 144" d="M832.827,1363.24a15.241,15.241,0,0,0,23.882-1.933c11.794-17.876,26.2-52.619,5.726-99.508a257.508,257.508,0,0,1-17.14-54.286c-3.107-16.12-25.983-16.571-29.764-.595-2.781,11.752-5.466,25.783-7.886,42.531-4.2,29.055-4.212,57.681,6.159,85.144C817.549,1344.512,825.065,1354.933,832.827,1363.24Z" fill="#9b94fd"/>
        <path id="Tracé_145" data-name="Tracé 145" d="M865.322,1493.195c5.838-36.151,28.823-68.76,59.975-87.732A118.75,118.75,0,0,1,953.248,1393c2.011-.6,1.155-3.752-.868-3.151-35.881,10.66-66,38.3-81.159,72.358a121.832,121.832,0,0,0-9.05,30.117c-.332,2.057,2.816,2.942,3.151.869Z" fill="#7070cc"/>
        <path id="Tracé_146" data-name="Tracé 146" d="M835.94,1493.409c-5.571-34.462-27.394-65.513-57.165-83.512a115.362,115.362,0,0,0-26.8-11.857c-2.019-.6-2.882,2.551-.868,3.15,32.707,9.722,59.92,34.683,73.639,65.788a111.991,111.991,0,0,1,8.042,27.3c.335,2.07,3.484,1.192,3.151-.869Z" fill="#7070cc"/>
        <path id="Tracé_147" data-name="Tracé 147" d="M860.321,1493.844c-2.637-30.63-1.247-61.534,5.946-91.492,6.462-26.912,17.29-52.734,33.179-75.468a183.313,183.313,0,0,1,30.528-33.867c1.595-1.375-.724-3.677-2.31-2.311-20.671,17.813-37,40.307-48.607,64.942-12.562,26.656-19.745,55.763-22.261,85.075a310.089,310.089,0,0,0,.258,53.121c.179,2.079,3.448,2.1,3.267,0Z" fill="#7070cc"/>
        <path id="Tracé_148" data-name="Tracé 148" d="M840.677,1493.9c1.139-13.229,1.583-26.552.052-39.77-1.386-11.952-4.3-23.615-7.675-35.145-3.943-13.492-8.138-26.885-13.823-39.759a208.756,208.756,0,0,0-20.012-35.6,186.485,186.485,0,0,0-30.819-34.216c-1.586-1.367-3.907.934-2.311,2.31,20.486,17.653,36.59,39.866,48.1,64.28,5.929,12.581,10.265,25.68,14.269,38.975,3.505,11.635,6.78,23.39,8.524,35.437,2.087,14.415,1.678,29.018.432,43.488-.18,2.095,3.088,2.083,3.267,0Z" fill="#7070cc"/>
        <path id="Tracé_149" data-name="Tracé 149" d="M838.888,1285.813a1007.527,1007.527,0,0,1,6.926,162.207q-.878,22.941-2.8,45.824c-.175,2.095,3.093,2.083,3.267,0a1007.526,1007.526,0,0,0,.494-162.355q-1.785-22.887-4.617-45.676c-.255-2.06-3.525-2.085-3.267,0Z" fill="#7070cc"/>
      </g>
    </g>
    <g id="Chat_Icon" data-name="Chat Icon">
      <path id="Tracé_150" data-name="Tracé 150" d="M949.116,695.287,723.422,826.066a24.494,24.494,0,0,0-12.214,21.2l.019,155.564a24.494,24.494,0,0,0,36.788,21.182l161.48-93.787c47.138,4.393,63.572,6.81,63.572,6.81l-14.5-35.286,15.124-8.692a24.5,24.5,0,0,0,12.2-21.186V716.48A24.494,24.494,0,0,0,949.116,695.287Z" fill="#fff"/>
      <g id="Groupe_13" data-name="Groupe 13">
        <path id="Tracé_151" data-name="Tracé 151" d="M711.227,1002.826l-.019-155.564a24.494,24.494,0,0,1,12.214-21.2L949.116,695.287a24.149,24.149,0,0,1,17.2-2.821,24.425,24.425,0,0,0-29.469-3.724L711.15,819.521a24.49,24.49,0,0,0-12.213,21.2l.018,155.564c0,15.523,19.212,31.19,35.12,31.006A24.505,24.505,0,0,1,711.227,1002.826Z" fill="#7070cc"/>
      </g>
      <ellipse id="Ellipse_13" data-name="Ellipse 13" cx="31.618" cy="22.016" rx="31.618" ry="22.016" transform="translate(809.699 824.394) rotate(-62.613)" fill="#7070cc"/>
      <path id="Tracé_152" data-name="Tracé 152" d="M795.246,942.709c-4.875-17.382-2.26-39.782,8.674-60.888,18.384-35.485,53.317-53.874,78.026-41.073,13.311,6.9,20.928,21.442,22.259,38.937Z" fill="#7070cc"/>
      <g id="Chat_Icon-2" data-name="Chat Icon">
        <path id="Tracé_153" data-name="Tracé 153" d="M1300.458,524.377l-225.694,130.78a24.493,24.493,0,0,0-12.214,21.2l.019,155.563a24.494,24.494,0,0,0,36.788,21.183l161.48-93.788c47.138,4.393,63.572,6.81,63.572,6.81l-14.5-35.285,15.124-8.693a24.494,24.494,0,0,0,12.2-21.186V545.57A24.494,24.494,0,0,0,1300.458,524.377Z" fill="#fff"/>
        <g id="Groupe_14" data-name="Groupe 14">
          <path id="Tracé_154" data-name="Tracé 154" d="M1062.569,831.916l-.019-155.563a24.493,24.493,0,0,1,12.214-21.2l225.694-130.78a24.142,24.142,0,0,1,17.2-2.82,24.424,24.424,0,0,0-29.469-3.725l-225.694,130.78a24.489,24.489,0,0,0-12.213,21.2l.018,155.563c0,15.523,19.212,31.19,35.12,31.006A24.5,24.5,0,0,1,1062.569,831.916Z" fill="#7070cc"/>
        </g>
        <path id="Tracé_155" data-name="Tracé 155" d="M1205.905,645.077c8.5-16.593,30.758-47.755,54.23-34.8s0,58.277,0,58.277l-54.23,94.7-63.133-38.042s-16.592-28.733,12.546-62.728C1170.63,644.615,1188.5,639.411,1205.905,645.077Z" fill="#fc5d9d"/>
      </g>
      <g id="Chat_Icon-3" data-name="Chat Icon">
        <path id="Tracé_156" data-name="Tracé 156" d="M1062.569,1161.909l-.019-155.564a24.493,24.493,0,0,1,12.214-21.2l225.694-130.78a24.153,24.153,0,0,1,17.2-2.82,24.427,24.427,0,0,0-29.469-3.725L1062.492,978.6a24.49,24.49,0,0,0-12.213,21.2l.018,155.564c0,15.523,19.212,31.19,35.12,31.006A24.5,24.5,0,0,1,1062.569,1161.909Z" fill="#7070cc"/>
        <path id="Tracé_157" data-name="Tracé 157" d="M1300.458,854.369l-225.694,130.78a24.493,24.493,0,0,0-12.214,21.2l.019,155.564a24.494,24.494,0,0,0,36.788,21.182l161.48-93.787c47.138,4.393,63.572,6.81,63.572,6.81l-14.5-35.286,15.124-8.692a24.5,24.5,0,0,0,12.2-21.186V875.563A24.494,24.494,0,0,0,1300.458,854.369Z" fill="#fff"/>
        <path id="Tracé_158" data-name="Tracé 158" d="M1163.8,1013.7v102.45l-18.652,10.542V1024.58Z" fill="#7070cc"/>
        <path id="Tracé_159" data-name="Tracé 159" d="M1174.617,1007.212v102.451l58.7-33.834a60.271,60.271,0,0,0,30.17-52.215V974.43a10.823,10.823,0,0,0-16.421-9.264l-35.48,21.435-.3-38.624c0-14.282-18.971-19.653-26.191-7.33C1178.532,951.843,1188.876,984.979,1174.617,1007.212Z" fill="#7070cc"/>
      </g>
      <g id="Chat_Icon-4" data-name="Chat Icon">
        <path id="Tracé_160" data-name="Tracé 160" d="M1300.458,524.377l-225.694,130.78a24.493,24.493,0,0,0-12.214,21.2l.019,155.563a24.494,24.494,0,0,0,36.788,21.183l161.48-93.788c47.138,4.393,63.572,6.81,63.572,6.81l-14.5-35.285,15.124-8.693a24.494,24.494,0,0,0,12.2-21.186V545.57A24.494,24.494,0,0,0,1300.458,524.377Z" fill="#fff"/>
        <g id="Groupe_15" data-name="Groupe 15">
          <path id="Tracé_161" data-name="Tracé 161" d="M1062.569,831.916l-.019-155.563a24.493,24.493,0,0,1,12.214-21.2l225.694-130.78a24.142,24.142,0,0,1,17.2-2.82,24.424,24.424,0,0,0-29.469-3.725l-225.694,130.78a24.489,24.489,0,0,0-12.213,21.2l.018,155.563c0,15.523,19.212,31.19,35.12,31.006A24.5,24.5,0,0,1,1062.569,831.916Z" fill="#7070cc"/>
        </g>
        <path id="Tracé_162" data-name="Tracé 162" d="M1205.905,645.077c8.5-16.593,30.758-47.755,54.23-34.8s0,58.277,0,58.277l-54.23,94.7-63.133-38.042s-16.592-28.733,12.546-62.728C1170.63,644.615,1188.5,639.411,1205.905,645.077Z" fill="#fc5d9d"/>
      </g>
      <g id="Chat_Icon-5" data-name="Chat Icon">
        <path id="Tracé_163" data-name="Tracé 163" d="M1300.458,198.416,1074.764,329.2a24.493,24.493,0,0,0-12.214,21.2l.019,155.564a24.494,24.494,0,0,0,36.788,21.183l161.48-93.788c47.138,4.393,63.572,6.81,63.572,6.81l-14.5-35.285,15.124-8.693a24.5,24.5,0,0,0,12.2-21.186V219.609A24.494,24.494,0,0,0,1300.458,198.416Z" fill="#fff"/>
        <g id="Groupe_16" data-name="Groupe 16">
          <path id="Tracé_164" data-name="Tracé 164" d="M1062.569,505.955l-.019-155.564a24.493,24.493,0,0,1,12.214-21.2l225.694-130.779a24.148,24.148,0,0,1,17.2-2.821,24.425,24.425,0,0,0-29.469-3.724l-225.694,130.78a24.488,24.488,0,0,0-12.213,21.2l.018,155.564c0,15.523,19.212,31.19,35.12,31.006A24.5,24.5,0,0,1,1062.569,505.955Z" fill="#7070cc"/>
        </g>
        <path id="Tracé_165" data-name="Tracé 165" d="M1145.979,455.855a37.079,37.079,0,0,0,18.558,4.733c11.237,0,23.829-4.362,36.892-12.955,19.576-12.879,38.224-33.818,52.508-58.96,14.19-24.979,23.2-52.679,24.709-76,1.66-25.6-5.574-44.331-20.37-52.737-14.84-8.431-34.992-5.081-56.74,9.434-20.044,13.377-39.635,35.3-53.747,60.137-14.248,25.079-22.576,51.689-23.451,74.929C1123.409,429.138,1131.094,447.4,1145.979,455.855Zm41.26-162.977c-7.779,14.779-17.726,36.532-23.22,59.785-.188.793-.359,1.578-.534,2.365l-24.038,16.448a191.124,191.124,0,0,1,47.792-78.6Zm-53.763,111.9a120.642,120.642,0,0,1,2.517-19.86l25.194-17.239c-1.808,12.982-1.708,24.931.33,35.655a78.951,78.951,0,0,0,2.934,11.028l-26.773,18.319C1134.526,425.224,1133.062,415.8,1133.476,404.78Zm42.2,12.987,43.543-29.8c-6.174,16.049-14.779,33.38-25.781,51.8A60.623,60.623,0,0,1,1175.672,417.767Zm-3.37-8.775q-6.213-20.424-.627-48.487l58.023-39.7c2.548,14.872.692,32.578-5.441,52.639Zm32.524-126.28c6.222,3.592,17.005,11.942,22.525,28.617l-52.476,35.906c8.058-28.661,22.231-53.984,28.311-64.086A1.218,1.218,0,0,1,1204.826,282.712Zm61.772,1.762-31.437,21.51a59.617,59.617,0,0,0-25.4-30.978c10.856-6.7,21.426-10.431,30.609-10.431a26.739,26.739,0,0,1,13.39,3.312C1259.613,271.213,1263.935,276.868,1266.6,284.474Zm2.923,27.607a146.263,146.263,0,0,1-7.222,35.331l-26.237,17.952c4.541-18.818,5.162-35.576,1.833-50.17l31.012-21.219A84.35,84.35,0,0,1,1269.521,312.081Zm-59.786,117.625q14.864-27.154,22.445-50.6l24.549-16.8a205.747,205.747,0,0,1-10.743,21.852C1235.9,401.906,1223.157,417.83,1209.735,429.706Zm-67.484,10.929,25.8-17.656a69.424,69.424,0,0,0,18.262,22.784c-13.874,6.718-26.343,7.525-35.821,2.141A27.7,27.7,0,0,1,1142.251,440.635Z" fill="#7070cc"/>
      </g>
    </g>
    <g id="Chart">
      <path id="Tracé_166" data-name="Tracé 166" d="M2111.064,1600.332l-120.436-69.391L1979.506,1537a2.864,2.864,0,0,0-.06,5l126.653,72.974a9.916,9.916,0,0,0,9.923-.013l123.793-71.777a3.728,3.728,0,0,0,.047-6.423l-9.414-5.644Z" fill="#7070cc"/>
      <path id="Tracé_167" data-name="Tracé 167" d="M2261.031,1731.441c0,53.962-84.782,97.706-189.365,97.706S1882.3,1785.4,1882.3,1731.441c0-35.576,36.851-66.711,91.932-83.8,28.465-8.83,62.138,11.98,97.771,11.98,44.364,0,84.826-18.017,117.1-4.833C2232.921,1672.686,2261.031,1700.37,2261.031,1731.441Z" fill="#7070cc"/>
      <g id="Groupe_17" data-name="Groupe 17">
        <path id="Tracé_168" data-name="Tracé 168" d="M1874.116,1738.163l-.011.005v.495C1874.106,1738.495,1874.114,1738.33,1874.116,1738.163Z" fill="#f3aa66"/>
        <path id="Tracé_169" data-name="Tracé 169" d="M2211.182,1738.134v-.615l-.013-.005C2211.174,1737.72,2211.179,1737.927,2211.182,1738.134Z" fill="#f3aa66"/>
        <path id="Tracé_170" data-name="Tracé 170" d="M2240.538,1660.331c-.662,53.263-75.857,96.325-168.533,96.325-92.964,0-168.345-43.328-168.545-96.819,0,5.057-.005,30.117-.005,46.176,0,53.59,75.462,97.032,168.55,97.032s168.549-43.442,168.549-97.032C2240.554,1689.2,2240.542,1667.1,2240.538,1660.331Z" fill="#d8368d"/>
      </g>
      <path id="Tracé_171" data-name="Tracé 171" d="M2111.064,1556.067l119.384-68.495c-30.517-17.628-72.737-28.537-119.384-28.537-47.185,0-89.84,11.163-120.436,29.15Z" fill="#ff9e26"/>
      <path id="Tracé_172" data-name="Tracé 172" d="M2191.388,1591.129,2072,1659.624l-120.435-67.882c-29.764,17.5-48.114,41.457-48.114,67.882,0,53.589,75.462,97.032,168.549,97.032s168.55-43.443,168.55-97.032C2240.554,1632.889,2221.77,1608.679,2191.388,1591.129Z" fill="#fc5d9d"/>
      <path id="Tracé_173" data-name="Tracé 173" d="M2111.064,1556.067l-120.436-67.882v42.755l120.436,69.392Z" fill="#d88500"/>
      <path id="Tracé_174" data-name="Tracé 174" d="M2111.064,1556.067l119.383-68.495v43.54l-119.383,69.22Z" fill="#c17200"/>
    </g>
    <g id="Email_icon" data-name="Email icon">
      <path id="Tracé_175" data-name="Tracé 175" d="M1446.845,1580.379l131.711-76.074a34.206,34.206,0,0,1,34.26.011l220.189,127.477a14.309,14.309,0,0,1-.03,24.784l-131.555,75.6a34.207,34.207,0,0,1-34.146-.007l-220.412-127.006A14.308,14.308,0,0,1,1446.845,1580.379Z" fill="#7070cc"/>
      <g id="Groupe_18" data-name="Groupe 18">
        <path id="Tracé_176" data-name="Tracé 176" d="M1834.4,1655.647l-193.939-14.156a45.03,45.03,0,0,1-40.778-36.035l-20.206-101.663s1.654-.879,2.463-1.2c1.071-.506,2.587-1.012,2.587-1.012l20.441,102.825a39.625,39.625,0,0,0,35.885,31.712l197.829,14.412a16.063,16.063,0,0,1-1.922,2.922A12.323,12.323,0,0,1,1834.4,1655.647Z" fill="#fff"/>
      </g>
      <g id="Groupe_19" data-name="Groupe 19">
        <path id="Tracé_177" data-name="Tracé 177" d="M1696.907,1645.611l18.383,78.6,4.877-2.8-17.63-75.381Z" fill="#fff"/>
        <path id="Tracé_178" data-name="Tracé 178" d="M1594.409,1578.944l-130.873-8.205-8.431,4.87,140.391,8.8Z" fill="#fff"/>
      </g>
      <g id="Groupe_20" data-name="Groupe 20">
        <path id="Tracé_179" data-name="Tracé 179" d="M1838.26,1637.044l-.015-.008c.016.027.036.053.052.08C1838.284,1637.093,1838.273,1637.067,1838.26,1637.044Z" fill="#171755"/>
        <path id="Tracé_180" data-name="Tracé 180" d="M1838.543,1637.6a14.306,14.306,0,0,1-5.568,18.977l-131.555,75.6a34.207,34.207,0,0,1-34.146-.007l-220.412-127.006a14.209,14.209,0,0,1-7.065-14.012c-1.9,8.749-.284,20.576,7.065,24.811l220.412,127.006a34.212,34.212,0,0,0,34.146.007l131.555-75.6C1842.324,1661.993,1843.152,1646.294,1838.543,1637.6Z" fill="#171755"/>
        <path id="Tracé_181" data-name="Tracé 181" d="M1442.383,1584.4l-.012.006c-.018.028-.032.062-.05.09C1442.343,1584.469,1442.36,1584.435,1442.383,1584.4Z" fill="#171755"/>
      </g>
    </g>
    <g id="Woman-2" data-name="Woman">
      <path id="Tracé_182" data-name="Tracé 182" d="M1313.958,1565.05l11.971,89.249s-1.53,19.543-1.456,18.592S1308.589,1613.619,1313.958,1565.05Z" fill="#3a3c49"/>
      <ellipse id="Ellipse_14" data-name="Ellipse 14" cx="185.329" cy="95.624" rx="185.329" ry="95.624" transform="translate(1174.448 1952.62)" fill="#7070cc"/>
      <path id="Tracé_183" data-name="Tracé 183" d="M1264.77,1968.819c-.952-.6-25.121,9.9-13.194,46.047,1.229,3.724,2.57,7.41,2.7,11.33l.947,27.838a3.414,3.414,0,0,0,2.78,3.239l2.261.426a1.549,1.549,0,0,0,1.837-1.5c.074-5.557.293-22.163.361-28.708a7.009,7.009,0,0,1,3.13-5.784c3.368-2.225,9.157-4.385,15.726.336,7.376,5.3,25.392,17.151,35.214,23.573a13.674,13.674,0,0,0,14,.582c11.962-6.49,34.8-20.6,39.73-36a3.272,3.272,0,0,0-1.675-3.934c-4.509-2.213-17.244-5.847-47.131-1.611,0,0,8.8,15.354-.389,17.54a9.291,9.291,0,0,1-9.542-3.727C1304.2,2008.418,1282.534,1979.955,1264.77,1968.819Z" fill="#191919"/>
      <path id="Tracé_184" data-name="Tracé 184" d="M1359.661,2013.285c-.953-.6-25.121,9.9-13.2,46.047,1.229,3.724,2.57,7.41,2.7,11.329l.947,27.839a3.413,3.413,0,0,0,2.779,3.238l2.262.427a1.549,1.549,0,0,0,1.836-1.5c.074-5.556.293-22.163.362-28.707a7.009,7.009,0,0,1,3.129-5.784c3.368-2.226,9.158-4.386,15.727.335,7.375,5.3,25.392,17.151,35.213,23.573a13.674,13.674,0,0,0,14,.582c11.963-6.489,34.805-20.6,39.73-36a3.272,3.272,0,0,0-1.674-3.933c-4.509-2.213-17.244-5.848-47.131-1.612,0,0,8.8,15.355-.389,17.54a9.294,9.294,0,0,1-9.543-3.726C1399.086,2052.883,1377.424,2024.42,1359.661,2013.285Z" fill="#191919"/>
      <path id="Tracé_185" data-name="Tracé 185" d="M1265.365,1940.181c1.094,13.968-.553,20.878-.475,28.754v0c0,.031,0,.065,0,.1.039-.009.059-.016.088-.023,17.747,11.173,39.35,39.557,46.673,49.587a9.4,9.4,0,0,0,9.542,3.726,7.648,7.648,0,0,0,1.611-.533c3.995-2.219,2.554-8.214.888-12.438l-9.495-20.2c-8.026-17.441-8.864-28.307-9.012-47.541,0,0,12.567-184.261,20.715-286.985,5.349,31.742,10.251,55.526,10.251,55.526s11.441,74.089,6.523,106.454c-4.678,30.794,3.255,63.141,7.713,91.353,3.826,24.207,9.866,76.683,9.866,76.683h0c1.095,13.967-.552,20.878-.475,28.753v0c0,.032,0,.065,0,.1.039-.009.059-.016.088-.024,17.747,11.174,39.349,39.557,46.672,49.588a9.4,9.4,0,0,0,9.543,3.726,7.665,7.665,0,0,0,1.61-.533c3.995-2.219,2.555-8.214.888-12.439l-9.495-20.2c-8.026-17.44-8.863-28.246-9.011-47.479v-.017s17.262-252.491,24.442-331.016c9.6-104.953-1.5-152.252-1.5-152.252s-46.447,26.275-110.37,20.7c-.153,3.042-.225,6.277-.225,9.671-.007-3.573.065-6.972.225-10.159l.6.048a207.114,207.114,0,0,1-73.971-20.625c-17.654,75.374,3.6,174.081,3.6,174.081s9.825,62.723,4.908,95.088c-4.679,30.793,3.254,63.141,7.713,91.352,3.825,24.207,9.873,77.269,9.873,77.269Z" fill="#f2b5a7"/>
      <path id="Tracé_186" data-name="Tracé 186" d="M1239.276,1502.977s1.657-22.431,2.283-33.014c4-67.67-15.423-170.694-15.423-170.694-27.124-190.952,76.846-145.006,76.846-145.006.307-.754,6.118,2.639,12.807,6.865a96.654,96.654,0,0,0,39.649,14.164c18.409,2.3,50.5,10.806,72.989,36.331,18.051,66.371,8.435,95.544,12.021,111.246,3,13.122-3.766,47.9-11.117,77.718-1.962,7.958-7.046,61.634-6.314,102.271C1423.017,1502.858,1337.751,1551.1,1239.276,1502.977Z" fill="#6d209a"/>
      <path id="Tracé_187" data-name="Tracé 187" d="M1381.891,1182.43s-4.762-23.063,0-31.049c3.276-.328,55.617-4.05,10.354-119.2,0,0-74.641-42.737-79.505,78.412,0,0,11.785,29.343,3.049,50.535C1317.6,1193.95,1381.891,1182.43,1381.891,1182.43Z" fill="#f2b5a7"/>
      <path id="Tracé_188" data-name="Tracé 188" d="M1426.023,1428.634l-41.271-97.612s8.257,71.854,39.2,127.823C1423.954,1458.845,1425.071,1437.873,1426.023,1428.634Z" fill="#171755"/>
      <path id="Tracé_189" data-name="Tracé 189" d="M1239.276,1502.489s88.633,40.417,183.741.369c0,0,31.8,89.024,24.08,242.353,0,0-127.706,90.443-232.751-20.959C1214.346,1724.252,1214.346,1555.65,1239.276,1502.489Z" fill="#262668"/>
      <path id="Tracé_190" data-name="Tracé 190" d="M1239.276,1502.977c46.615,62.073,172.552,27.172,183.741-.119C1423.017,1502.858,1337.751,1551.1,1239.276,1502.977Z" fill="#171755"/>
      <path id="Tracé_191" data-name="Tracé 191" d="M1488.432,1390.593a174.03,174.03,0,0,1-16.561-43.136c-12.113-49.553-25.822-113.065-35.9-127.637a37.974,37.974,0,0,0-34.495-16.432c-18.634,1.691-28.546,16.515-33.817,31.527a87.694,87.694,0,0,0-2.3,49.4c22.719,95.2,59.809,145.6,75.77,163.833l.136.155a18.774,18.774,0,0,0,26.9.981C1480.985,1437.165,1500.976,1413.217,1488.432,1390.593Z" fill="#6d209a"/>
      <path id="Tracé_192" data-name="Tracé 192" d="M1393.039,1073.466a65.814,65.814,0,0,0,2.28-6.927,61.351,61.351,0,0,0,.53-28.653c-1.146-5.187-2.761-10.459-6.147-14.648-.117-.145-.259-.267-.476-.558-14.5-17.95-72.929-30.521-105.407-4.4-35.512,28.556-35.752,80.966-35.923,82.41s-2.077,44.677-39.823,86.387-35.132,185.14,55.61,199.5c48.6,7.69,74-4.86,88.832-26.246a90.185,90.185,0,0,0,13.932-69.406,258.105,258.105,0,0,0-16.186-51.153c-18.484-42.468,4.947-68.827,4.947-68.827s16.96-24.578,13.914-47.753a35.013,35.013,0,0,1,.979,4.089,61.424,61.424,0,0,1,.8,9.758,102.687,102.687,0,0,1-.339,11.122c-1.637,17.569-8.782,34.07-10.885,51.57a68.731,68.731,0,0,0,1.561,25.389,129.074,129.074,0,0,0,8.727,22.76c7.137,15.162,14.792,30.063,18.6,46.505,3.54,15.283,3.666,32.031-2.811,46.586a56.74,56.74,0,0,1-2.664,5.226,1.608,1.608,0,0,0,2.774,1.622c8.073-14.037,9.681-30.782,7.283-46.577-2.588-17.04-9.709-32.848-17.167-48.231-3.657-7.543-7.334-15.113-9.976-23.085a67.174,67.174,0,0,1-3.578-24.95c.988-18.065,8.449-34.96,10.88-52.793a90.684,90.684,0,0,0,.368-22.486c-.775-6.659-2.793-13.16-7.317-18.255a23.218,23.218,0,0,0-1.75-1.759c-.33-.568-.671-1.133-1.039-1.691,0,0-21.029-16.14-10.3-27.037a6.157,6.157,0,0,1,3.729-1.845c3.379-.356,9.808.807,14.312,12.908a2.105,2.105,0,0,0,2.512,1.317l.01,0c1.272-.345,4.661-.4,5.4-4.515a8.38,8.38,0,0,0-.94-5.429c-1.548-2.893-3.9-9.457,2.868-14.625a33.26,33.26,0,0,0,12.752-22.059q.183,2.407.17,4.827a57.4,57.4,0,0,1-1.742,13.7,61.706,61.706,0,0,1-2.174,6.8,54,54,0,0,0-2.363,6.989,27.932,27.932,0,0,0,1.057,16.074,1.653,1.653,0,0,0,1.977,1.122,1.619,1.619,0,0,0,1.122-1.976,24.861,24.861,0,0,1-1.186-13.779A45.165,45.165,0,0,1,1393.039,1073.466Z" fill="#171755"/>
      <path id="Tracé_193" data-name="Tracé 193" d="M1471.12,1347.628s8.371.578,10.832,13.678,4.766,16.739,4.766,16.739,4.053,8.929-4.766,11.56-34.534-3.8-45.086-14.957-6.187-24.259,2.547-24.744S1455.159,1356.268,1471.12,1347.628Z" fill="#f2b5a7"/>
    </g>
  </g>
</svg>
