<svg xmlns="http://www.w3.org/2000/svg" width="402.207" height="247.825" viewBox="0 0 402.207 247.825">
  <g id="Email_icon" data-name="Email icon" transform="translate(-1439.066 -1499.712)">
    <path id="Tracé_175" data-name="Tracé 175" d="M1446.845,1580.379l131.711-76.074a34.206,34.206,0,0,1,34.26.011l220.189,127.477a14.309,14.309,0,0,1-.03,24.784l-131.555,75.6a34.207,34.207,0,0,1-34.146-.007l-220.412-127.006A14.308,14.308,0,0,1,1446.845,1580.379Z" fill="#7070cc"/>
    <g id="Groupe_18" data-name="Groupe 18">
      <path id="Tracé_176" data-name="Tracé 176" d="M1834.4,1655.647l-193.939-14.156a45.03,45.03,0,0,1-40.778-36.035l-20.206-101.663s1.654-.879,2.463-1.2c1.071-.506,2.587-1.012,2.587-1.012l20.441,102.825a39.625,39.625,0,0,0,35.885,31.712l197.829,14.412a16.063,16.063,0,0,1-1.922,2.922A12.323,12.323,0,0,1,1834.4,1655.647Z" fill="#fff"/>
    </g>
    <g id="Groupe_19" data-name="Groupe 19">
      <path id="Tracé_177" data-name="Tracé 177" d="M1696.907,1645.611l18.383,78.6,4.877-2.8-17.63-75.381Z" fill="#fff"/>
      <path id="Tracé_178" data-name="Tracé 178" d="M1594.409,1578.944l-130.873-8.205-8.431,4.87,140.391,8.8Z" fill="#fff"/>
    </g>
    <g id="Groupe_20" data-name="Groupe 20">
      <path id="Tracé_179" data-name="Tracé 179" d="M1838.26,1637.044l-.015-.008c.016.027.036.053.052.08C1838.284,1637.093,1838.273,1637.067,1838.26,1637.044Z" fill="#171755"/>
      <path id="Tracé_180" data-name="Tracé 180" d="M1838.543,1637.6a14.306,14.306,0,0,1-5.568,18.977l-131.555,75.6a34.207,34.207,0,0,1-34.146-.007l-220.412-127.006a14.209,14.209,0,0,1-7.065-14.012c-1.9,8.749-.284,20.576,7.065,24.811l220.412,127.006a34.212,34.212,0,0,0,34.146.007l131.555-75.6C1842.324,1661.993,1843.152,1646.294,1838.543,1637.6Z" fill="#171755"/>
      <path id="Tracé_181" data-name="Tracé 181" d="M1442.383,1584.4l-.012.006c-.018.028-.032.062-.05.09C1442.343,1584.469,1442.36,1584.435,1442.383,1584.4Z" fill="#171755"/>
    </g>
  </g>
</svg>
