<svg xmlns="http://www.w3.org/2000/svg" xmlns:xlink="http://www.w3.org/1999/xlink" viewBox="0 0 4680 3120"><defs><style>.cls-1{fill:#fcc0a9;}.cls-2{fill:#fff;}.cls-3{opacity:0.13;}.cls-4{fill:#333;}.cls-5{fill:#7a7a7a;}.cls-6{fill:#f2f2f2;}.cls-7{fill:#777;}.cls-8{fill:#222;}.cls-9{fill:#4d4d4d;}.cls-10{fill:#666;}.cls-11{fill:#676767;}.cls-12{fill:#ef4444;}.cls-13{fill:#e6e6e6;}.cls-14{opacity:0.3;}.cls-15{fill:#353535;}.cls-16{fill:#fc9a74;}.cls-17{opacity:0.15;}.cls-18{fill:#0e1d73;}.cls-19{opacity:0.07;}.cls-20{fill:#fdaf91;}.cls-21{fill:#2291f2;}.cls-22{clip-path:url(#clip-path);}.cls-23{clip-path:url(#clip-path-2);}.cls-24{fill:#ccc;}</style><clipPath id="clip-path"><path class="cls-1" d="M1687.21,909.63c-97.2,46.73-65.3,131.46-16.83,169.47s79.76,25.54,97.82,3.11,8.61-129.71-23.67-160.75S1687.21,909.63,1687.21,909.63Z"/></clipPath><clipPath id="clip-path-2"><path class="cls-1" d="M1901.85,1412.75c-14-39.26,12.15-59.82,26.17-72.9s55.14-21.5,53.27,26.17,1.87,55.14-19.62,79.44"/></clipPath></defs><g id="_4" data-name="4"><rect class="cls-2" width="4680" height="3120"/><g class="cls-3"><rect class="cls-4" x="794.01" y="2422.16" width="3091.98" height="36.35"/><path class="cls-5" d="M2465.93,1034.54c17.92,76.89-55.18,477.21-80.84,577.73-67.15-5.34-133.72-2.41-200.72-10.86C2193.68,1397.41,2281.46,1141.44,2465.93,1034.54Z"/><path class="cls-6" d="M2291.14,1610.34l-7.79-1.1a284.4,284.4,0,0,1,6.37-30.77,270.25,270.25,0,0,0,6.83-34.27c1.53-12.21,1.67-25.79,1.82-40.16.17-16.27.35-33.1,2.58-49.17.42-2.95.81-5.85,1.21-8.72,3.66-26.57,6.82-49.52,14.5-79.22l1.65-6.42c7.7-29.91,13.78-53.53,29.73-90.4,2.52-5.82,5.28-12.27,8.24-19.18,17-39.73,40.35-94.16,59.9-129.62l6.89,3.8c-19.36,35.12-42.6,89.34-59.56,128.92-3,6.91-5.73,13.37-8.25,19.2-15.7,36.31-21.71,59.67-29.33,89.24l-1.65,6.43c-7.57,29.26-10.7,52-14.32,78.33-.4,2.87-.8,5.77-1.21,8.73-2.17,15.57-2.34,32.14-2.51,48.16-.16,14.6-.3,28.4-1.88,41.05a278.33,278.33,0,0,1-7,35.2A272,272,0,0,0,2291.14,1610.34Z"/><path class="cls-6" d="M2346.79,1275.72c-13-33.13-24.68-65.38-34.6-95.84l7.48-2.44c9.87,30.32,21.46,62.42,34.44,95.4Z"/><path class="cls-6" d="M2316.69,1371c-19.85-33-35.93-69.06-50.62-113.62l7.48-2.46c14.49,44,30.34,79.58,49.88,112Z"/><path class="cls-6" d="M2301.53,1458.24A581.89,581.89,0,0,1,2231.45,1349l7-3.52a573.92,573.92,0,0,0,69.14,107.77Z"/><path class="cls-6" d="M2298.13,1549c-35.38-25.1-63.41-58.53-90.87-108.41l6.89-3.79c26.86,48.78,54.17,81.4,88.54,105.78Z"/><path class="cls-6" d="M2352.22,1277.8l-3.54-7c20.22-10.17,41.15-19.68,61.39-28.87,12.82-5.82,26.07-11.83,39-18l3.37,7.11c-13,6.15-26.26,12.18-39.1,18C2393.16,1258.23,2372.3,1267.7,2352.22,1277.8Z"/><path class="cls-6" d="M2322.07,1372.3l-4-6.75c8.8-5.25,17.62-10.66,26.16-15.89,27.17-16.65,55.27-33.87,85.4-47.65l3.27,7.15c-29.7,13.58-56.35,29.92-84.56,47.21C2339.76,1361.61,2330.91,1367,2322.07,1372.3Z"/><path class="cls-6" d="M2306.88,1458.94l-4.61-6.38,6.5-4.69c30.83-22.26,62.71-45.27,95.9-65.32l4.07,6.73c-32.92,19.88-64.66,42.81-95.36,65Z"/><path class="cls-6" d="M2302.62,1549l-4.42-6.51c19.12-13,36.57-28.81,53.44-44.14,13.34-12.13,27.14-24.66,41.8-35.83l4.77,6.26c-14.39,11-28.06,23.38-41.28,35.39C2339.86,1519.73,2322.2,1535.77,2302.62,1549Z"/><path class="cls-7" d="M2084.3,878.94c-17.92,108.62,55.18,674.12,80.84,816.11,67.15-7.54,133.72-3.41,200.72-15.34C2356.55,1391.53,2268.77,1030,2084.3,878.94Z"/><path class="cls-6" d="M2258.34,1692c-1.64-16.38-3.88-29.09-6.25-42.55-2.57-14.56-5.22-29.62-7-49.47-1.57-17.75-1.71-37.18-1.87-57.74-.16-22.7-.34-46.18-2.52-68.32q-.61-6.26-1.21-12.32c-3.63-37.26-6.77-69.45-14.36-110.9l-1.65-9.08c-7.63-41.86-13.65-74.92-29.4-126.35-2.52-8.23-5.29-17.35-8.25-27.11-17-56-40.21-132.58-59.61-182.27l8.72-3.4c19.52,50,42.83,126.86,59.84,183,3,9.75,5.73,18.86,8.24,27.09,15.91,51.94,22,85.25,29.66,127.41l1.65,9.06c7.66,41.85,10.82,74.21,14.47,111.68q.6,6.08,1.21,12.31c2.22,22.56,2.4,46.26,2.57,69.17.15,20.37.29,39.61,1.82,57,1.72,19.46,4.34,34.31,6.87,48.68,2.3,13,4.68,26.51,6.34,43.24Z"/><path class="cls-6" d="M2204.29,1218.86l-9-2.51c13-46.63,24.59-92,34.47-134.87l9.11,2.1C2229,1126.58,2217.32,1172.1,2204.29,1218.86Z"/><path class="cls-6" d="M2234.48,1353.13l-8.61-3.67c19.59-45.94,35.47-96.34,50-158.6L2285,1193C2270.32,1255.79,2254.28,1306.68,2234.48,1353.13Z"/><path class="cls-6" d="M2249.71,1476.29l-8.1-4.68c26.67-46.21,49.32-96.09,69.25-152.48l8.82,3.12C2299.55,1379.18,2276.67,1429.57,2249.71,1476.29Z"/><path class="cls-6" d="M2253.13,1604.43l-6.62-6.6c34.4-34.47,61.75-80.64,88.66-149.69l8.72,3.4C2316.48,1521.85,2288.49,1569,2253.13,1604.43Z"/><path class="cls-6" d="M2197.07,1221.42c-20.05-14.26-40.9-27.62-61.06-40.55-12.85-8.25-26.14-16.77-39.12-25.46l5.2-7.77c12.91,8.64,26.16,17.14,39,25.35,20.25,13,41.19,26.42,61.43,40.81Z"/><path class="cls-6" d="M2227.16,1354.87c-8.84-7.45-17.69-15.11-26.24-22.51-28.19-24.41-54.82-47.46-84.46-66.61l5.08-7.85c30.18,19.5,58.3,43.84,85.5,67.38,8.53,7.39,17.36,15,26.15,22.44Z"/><path class="cls-6" d="M2242.32,1477.23l-6.51-6.65c-30.69-31.3-62.43-63.66-95.32-91.73l6.07-7.11c33.21,28.33,65.09,60.85,95.92,92.3l6.52,6.64Z"/><path class="cls-6" d="M2246.59,1604.51c-19.6-18.76-37.26-41.43-54.33-63.35-13.22-17-26.89-34.5-41.28-50l6.85-6.36c14.67,15.78,28.46,33.48,41.8,50.61,16.88,21.65,34.32,44,53.43,62.33Z"/><path class="cls-5" d="M1987.89,1287c-20.09,86.18,61.84,534.87,90.61,647.54,75.26-6,149.87-2.71,225-12.18C2293,1693.71,2194.65,1406.82,1987.89,1287Z"/><path class="cls-6" d="M2183.8,1932.37a307.56,307.56,0,0,0-7-33.59c-2.89-11.6-5.88-23.6-7.85-39.46-1.77-14.18-1.93-29.64-2.1-46-.19-18-.38-36.53-2.81-54-.47-3.31-.91-6.56-1.36-9.78-4.06-29.51-7.57-55-16.05-87.8l-1.86-7.2c-8.53-33.15-15.27-59.33-32.87-100-2.82-6.53-5.93-13.77-9.24-21.52-19-44.37-45.05-105.13-66.76-144.5l7.72-4.25c21.92,39.74,48.06,100.74,67.14,145.28,3.32,7.74,6.42,15,9.24,21.49,17.87,41.33,24.68,67.8,33.31,101.32l1.86,7.19c8.6,33.3,12.15,59,16.25,88.81.44,3.21.89,6.46,1.35,9.77,2.51,18,2.71,36.86,2.9,55.1.17,16.11.33,31.33,2,45,1.91,15.34,4.83,27.07,7.66,38.42a317.88,317.88,0,0,1,7.14,34.49Z"/><path class="cls-6" d="M2121.43,1557.32l-8.21-3.23c14.56-37,27.54-72.95,38.6-106.92l8.39,2.73C2149.09,1484,2136.05,1520.19,2121.43,1557.32Z"/><path class="cls-6" d="M2155.17,1664.06l-7.56-4.55c21.9-36.37,39.66-76.27,55.91-125.56l8.38,2.76C2195.44,1586.65,2177.41,1627.11,2155.17,1664.06Z"/><path class="cls-6" d="M2172.16,1761.89l-6.84-5.57c29.85-36.62,55.2-76.13,77.5-120.79l7.89,3.94C2228.12,1684.72,2202.42,1724.76,2172.16,1761.89Z"/><path class="cls-6" d="M2176,1863.61l-5.1-7.19c38.52-27.33,69.13-63.9,99.23-118.58l7.73,4.26C2247,1798,2215.62,1835.47,2176,1863.61Z"/><path class="cls-6" d="M2115.34,1559.65c-22.51-11.32-45.88-21.94-68.49-32.2-14.4-6.54-29.28-13.3-43.83-20.19l3.78-8c14.48,6.86,29.33,13.6,43.7,20.13,22.68,10.3,46.14,20.95,68.81,32.35Z"/><path class="cls-6" d="M2149.13,1665.57c-9.91-5.91-19.82-12-29.41-17.86-31.62-19.38-61.49-37.69-94.77-52.91l3.67-8c33.76,15.45,65.25,34.75,95.71,53.41,9.57,5.86,19.46,11.92,29.32,17.81Z"/><path class="cls-6" d="M2166.16,1762.68l-7.28-5.26c-34.41-24.84-70-50.53-106.89-72.82l4.56-7.55c37.21,22.48,72.94,48.27,107.49,73.22l7.28,5.26Z"/><path class="cls-6" d="M2170.93,1863.66c-21.94-14.87-41.73-32.85-60.87-50.24-14.82-13.46-30.14-27.38-46.27-39.67l5.35-7c16.43,12.52,31.9,26.57,46.85,40.16,18.91,17.18,38.47,34.95,59.89,49.47Z"/><path class="cls-5" d="M2505.24,1356.8c17.92,76.89-55.18,477.21-80.84,577.74-67.15-5.34-133.72-2.42-200.72-10.86C2233,1719.67,2320.77,1463.7,2505.24,1356.8Z"/><path class="cls-8" d="M2330.45,1932.6l-7.79-1.1a281.3,281.3,0,0,1,6.37-30.76,270.79,270.79,0,0,0,6.83-34.28c1.52-12.21,1.67-25.79,1.82-40.16.17-16.27.34-33.1,2.58-49.17q.61-4.43,1.21-8.71c3.66-26.58,6.82-49.53,14.5-79.23l1.65-6.42c7.7-29.9,13.78-53.53,29.73-90.4,2.51-5.82,5.28-12.27,8.24-19.17,17-39.74,40.34-94.16,59.9-129.63l6.89,3.8c-19.37,35.12-42.6,89.34-59.56,128.92-3,6.92-5.73,13.38-8.25,19.2-15.7,36.31-21.72,59.67-29.33,89.25l-1.65,6.42c-7.57,29.26-10.7,52-14.33,78.33q-.59,4.3-1.2,8.73c-2.17,15.57-2.35,32.14-2.52,48.16-.15,14.6-.29,28.4-1.87,41a276.61,276.61,0,0,1-7,35.21A274.21,274.21,0,0,0,2330.45,1932.6Z"/><path class="cls-8" d="M2386.1,1598c-13-33.14-24.69-65.38-34.6-95.85l7.48-2.43c9.87,30.31,21.45,62.41,34.44,95.4Z"/><path class="cls-8" d="M2356,1693.22c-19.84-33-35.93-69.07-50.61-113.63l7.47-2.46c14.5,44,30.35,79.58,49.89,112Z"/><path class="cls-8" d="M2340.83,1780.5a582.07,582.07,0,0,1-70.08-109.22l7-3.52a574.42,574.42,0,0,0,69.14,107.77Z"/><path class="cls-8" d="M2337.44,1871.26c-35.39-25.11-63.41-58.54-90.87-108.42l6.89-3.79c26.86,48.78,54.16,81.41,88.53,105.79Z"/><path class="cls-8" d="M2391.53,1600.06l-3.54-7c20.22-10.17,41.15-19.67,61.39-28.86,12.82-5.82,26.07-11.84,39-18l3.37,7.11c-13,6.15-26.26,12.18-39.1,18C2432.46,1580.49,2411.61,1590,2391.53,1600.06Z"/><path class="cls-8" d="M2361.38,1694.57l-4-6.76c8.8-5.25,17.62-10.66,26.15-15.89,27.18-16.65,55.28-33.87,85.4-47.65l3.28,7.16c-29.7,13.58-56.35,29.91-84.56,47.2C2379.06,1683.87,2370.22,1689.29,2361.38,1694.57Z"/><path class="cls-8" d="M2346.18,1781.21l-4.6-6.39,6.5-4.69c30.83-22.26,62.71-45.27,95.9-65.32l4.07,6.73c-32.92,19.89-64.66,42.81-95.36,65Z"/><path class="cls-8" d="M2341.93,1871.3l-4.42-6.51c19.12-13,36.57-28.81,53.44-44.14,13.34-12.12,27.14-24.66,41.8-35.83l4.77,6.26c-14.39,11-28.06,23.38-41.28,35.39C2379.16,1842,2361.51,1858,2341.93,1871.3Z"/><path class="cls-4" d="M2508,2506.22H2008.89l-80-504.6c-7.22-45.5,15.13-83.87,50.2-83.87h558.83c35.07,0,57.42,38.37,50.2,83.87Z"/><path class="cls-7" d="M2573.25,2095.16,2508,2506.22H2008.91L1997.13,2432C2279,2366.24,2465.16,2214,2573.25,2095.16Z"/><path class="cls-8" d="M3129.26,1611.73c-204.73-221-67.6-255.94-108.42-396.09S2899,956.85,2970.51,870.27s28.49-167,35-299.74,223.13-93.44,215.69.39-26.44,168.6,41.68,225.57,128.61,128,65.91,288.75,103.78,122.37,84.45,288.26-88.62,114.63-70.94,294.71C3173.89,1690.09,3129.26,1611.73,3129.26,1611.73Z"/><path class="cls-5" d="M3249.78,1671.36c-.25-1.14-25.14-116.55-53-290.27-25.67-160.33-59.17-404.55-72.92-657.57l7.68-.41c13.74,252.65,47.19,496.57,72.83,656.71,27.78,173.52,52.64,288.77,52.89,289.91Z"/><path class="cls-5" d="M3151.55,1020.34l-3.27-3.42c-43.85-45.83-111.19-115.36-117-119a3.69,3.69,0,0,0,4.6-1l-6-4.76,2.89-1.48c2.13-.1,2.85-.14,22.77,19.77,9.95,10,23.58,23.82,40.49,41.24,23.12,23.81,46.22,47.87,54.57,56.59,7.21-10.46,27.91-40.39,48.85-69.9,15.18-21.4,27.52-38.4,36.68-50.55,5.46-7.25,9.86-12.84,13.05-16.62,5-5.93,7.17-7.81,10-7.25l-1.54,7.54a3.09,3.09,0,0,0,2.13-.28c-7.39,4.81-68.62,91.68-105.48,145.3Z"/><path class="cls-5" d="M3178.25,1242.33l-3.55-3.53c-58.33-58-146.72-145.57-151.1-149l4.76-6c5.78,4.55,125.4,123.4,148.22,146.08l100.87-175.26,6.66,3.84Z"/><path class="cls-5" d="M3211.73,1450l-3.37-3.32c-52-51.22-130.94-128.65-135.44-132a3.76,3.76,0,0,0,4,.12l-1.91-3.31-3.83.45,2.13-3.92c2.43-1.19,4.15.36,6,2,1.05.94,2.57,2.35,4.52,4.2,3.61,3.41,8.86,8.45,15.59,15,11.34,11,27.07,26.31,46.74,45.59,27.35,26.78,54.89,53.9,64.28,63.14l101.49-157.07,6.46,4.17Z"/><path class="cls-7" d="M3226.45,1922.94c-116.08-252.87,14.3-244,18.79-378.76s-32.49-262.14,55.16-317.54,73-138.33,116.95-253,222.67-17.82,189.15,62.38-71.69,140.34-28.3,209.92,76,149.33-25.21,272.34,55.86,137.23-8.81,277.24-110.74,75.1-147,238.21C3243.08,2004.53,3226.45,1922.94,3226.45,1922.94Z"/><path class="cls-9" d="M3318.59,2014.14l-.4,0a3.85,3.85,0,0,1-3.43-4.22c.11-1.08,11.47-109.52,37-270,23.59-148.08,64.44-372,125.14-598a3.85,3.85,0,1,1,7.43,2c-60.61,225.64-101.41,449.29-125,597.17-25.53,160.26-36.87,268.53-37,269.61A3.84,3.84,0,0,1,3318.59,2014.14Z"/><path class="cls-9" d="M3417.42,1408.77a3.47,3.47,0,0,1-.9-.11,3.84,3.84,0,0,1-2.57-2.07c-24.83-51.86-63-130.36-68.15-137.75a3.75,3.75,0,0,1-.83-.9,3.85,3.85,0,0,1,1.07-5.34,4,4,0,0,1,3.21-.51c2,.56,2.66.74,14.47,24.06,5.87,11.59,13.84,27.68,23.67,47.83,13.3,27.25,26.51,54.71,31.45,65,9.6-7.3,36.1-27.4,62.69-47.07,19.48-14.41,35.2-25.79,46.73-33.81,6.89-4.79,12.36-8.44,16.25-10.84,6.23-3.83,8.71-4.88,11.12-3.51a3.85,3.85,0,0,1,1.44,5.25,3.92,3.92,0,0,1-3.39,1.94c-9.62,3.56-86.87,61.09-133.93,97A3.83,3.83,0,0,1,3417.42,1408.77ZM3350.28,1269a3.61,3.61,0,0,1-.58.31A4.09,4.09,0,0,0,3350.28,1269Zm0,0h0Z"/><path class="cls-9" d="M3376.75,1611a3.33,3.33,0,0,1-.7-.07,3.84,3.84,0,0,1-2.73-2c-34.47-67.62-86.81-169.81-89.71-174.2a3.84,3.84,0,0,1,6.4-4.26c3.78,5.68,72.41,140.14,87.89,170.51l138.64-124.52a3.85,3.85,0,0,1,5.14,5.72L3379.32,1610A3.85,3.85,0,0,1,3376.75,1611Z"/><path class="cls-9" d="M3345.35,1799.81c-21.66-42-78.45-151.8-81.06-155.12a1.22,1.22,0,0,0,1.21.37l-.3-1.23-1.27-.26,1.09-1c1.25-.17,1.27-.18,14.48,24.89,6.79,12.89,16.18,30.87,27.9,53.44,19.95,38.42,40,77.37,40.23,77.76Z"/><path class="cls-8" d="M3315.12,1976.73c45.47-274.49-78-231.68-117.76-360.48s-37.62-261.45-136.76-291.84-106.84-114.25-179.36-213.28-219.52,41.38-166.08,109.94,106.08,116.54,82.52,195.08-34.07,164.07,96,256.12-17.8,147.09,81.42,265.16,126.59,43.32,204.5,191.14C3320.54,2059.82,3315.12,1976.73,3315.12,1976.73Z"/><path class="cls-5" d="M3249.2,2091.17a5.92,5.92,0,0,1-5.52-3.79c-.39-1-39.8-102.45-106.56-250.31-61.6-136.42-159.76-341.38-277.54-543a5.92,5.92,0,0,1,10.22-6c118.06,202.14,216.42,407.53,278.15,544.24,66.88,148.12,106.38,249.81,106.77,250.82a5.92,5.92,0,0,1-5.52,8.06Z"/><path class="cls-5" d="M2994.61,1533.11a5.94,5.94,0,0,1-2.23-.43c-53.81-21.85-142.08-56.52-153.85-58.18a5.92,5.92,0,0,1-5.34-10c3-3,7.17-2,13.7-.07,4.43,1.3,10.7,3.4,18.64,6.22,13.26,4.71,31.44,11.56,54,20.35,28.89,11.23,57.79,22.84,70.52,28,2.35-12.76,7.5-40.72,12.79-68.52,4.19-22,7.64-39.68,10.26-52.41,5.44-26.51,5.93-26.79,8.61-28.38a6,6,0,0,1,4.94-.54,5.92,5.92,0,0,1,3.75,7.48,5.6,5.6,0,0,1-.66,1.37c-3.21,9.79-19.58,96.66-29.35,150.27a5.91,5.91,0,0,1-5.82,4.85Zm-153.07-60.21ZM3023,1380.38a5.78,5.78,0,0,0,2.4.27A5.84,5.84,0,0,1,3023,1380.38Z"/><path class="cls-5" d="M3087,1717.51a5.94,5.94,0,0,1-2.66-.63l-171-85.91a5.92,5.92,0,0,1,5.31-10.58l164.1,82.46c7.9-37.87,37.33-178.8,39.46-185.21a5.92,5.92,0,1,1,11.23,3.73c-1.78,5.72-25.3,117.62-40.67,191.43a5.89,5.89,0,0,1-3.22,4.12A5.79,5.79,0,0,1,3087,1717.51Z"/><path class="cls-5" d="M3166.75,1894.86a5.81,5.81,0,0,1-2.38-.5l-162.08-71.25a5.92,5.92,0,0,1,4.77-10.84l155.42,68.33c3-14,9.91-46.39,16.85-78.51,5.37-24.87,9.7-44.69,12.86-58.92,1.89-8.46,3.37-15,4.42-19.49.58-2.47,1-4.3,1.36-5.59.6-2.31,1.51-5.81,5.58-6.33a5.93,5.93,0,0,1,6.11,8.43c-2.52,8.66-23.44,105.74-37.12,170a5.89,5.89,0,0,1-3.09,4A5.81,5.81,0,0,1,3166.75,1894.86Z"/><polygon class="cls-10" points="3598.1 1800.67 3579.78 1800.67 2913.37 1800.67 2895.05 1800.67 2895.05 1878.2 2913.37 1878.2 2913.37 2502.15 3579.78 2502.15 3579.78 1878.2 3598.1 1878.2 3598.1 1800.67"/><path class="cls-5" d="M3579.76,2044.77v457.38H2913.35V2330.93C3122.82,2365,3266.66,2335,3579.76,2044.77Z"/><path class="cls-11" d="M1259.81,2202.22s19.44-823,111.79-1084.74c102.08,399.38,82.64,1084.74,82.64,1084.74Z"/><path class="cls-7" d="M1357.76,2243.54s77-512.81,286-726.68c-143,481.21-111.79,726.68-111.79,726.68Z"/><path class="cls-7" d="M1303.55,2343.69C1143.15,1414.79,973,1225.22,973,1225.22s501.39,555.13,527.75,1118.47C1332.72,2367.49,1303.55,2343.69,1303.55,2343.69Z"/><path class="cls-4" d="M1492.85,2511.51h-184.7A153.13,153.13,0,0,0,1155,2358.39V2020.57H1646v337.82C1646,2461.21,1560,2511.51,1492.85,2511.51Z"/><path class="cls-10" d="M1548.23,2501.17a152.54,152.54,0,0,1-55.37,10.33H1308.14A153.11,153.11,0,0,1,1155,2358.4V2246.49C1225.88,2329.75,1350.49,2439.25,1548.23,2501.17Z"/></g><path class="cls-12" d="M2219.33,934.53a173.51,173.51,0,0,1-56.2-9.35c-90.79-31-139.45-130.06-108.46-220.85a173.89,173.89,0,0,1,220.85-108.46c90.79,31,139.45,130.06,108.46,220.85A174,174,0,0,1,2219.33,934.53Z"/><path class="cls-12" d="M2219.32,670.54a90,90,0,1,1-85.13,60.93,89.71,89.71,0,0,1,85.13-60.93m0-168h0a258.32,258.32,0,1,0,83.33,13.85,258,258,0,0,0-83.33-13.85Z"/><path class="cls-6" d="M2219.32,670.54a90,90,0,1,1-85.13,60.93,89.75,89.75,0,0,1,85.13-60.93m0-126h0a216.38,216.38,0,1,0,69.78,11.6,216,216,0,0,0-69.78-11.6Z"/><path class="cls-12" d="M2219.32,670.54a90,90,0,1,1-85.13,60.93,89.75,89.75,0,0,1,85.13-60.93m0-84a174.33,174.33,0,1,0,56.2,9.35,174,174,0,0,0-56.2-9.35Z"/><path class="cls-6" d="M2219.32,670.54a90,90,0,1,1-85.13,60.93,89.75,89.75,0,0,1,85.13-60.93m0-42a132.11,132.11,0,1,0,42.63,7.1,131.95,131.95,0,0,0-42.63-7.1Z"/><polygon class="cls-4" points="2228.8 763.76 2153.92 669.43 2157.59 719.77 1698.47 563.07 1684.5 492.23 1665.91 485.88 1679.88 556.72 1661.29 550.38 1647.32 479.54 1628.72 473.19 1642.7 544.03 1624.11 537.69 1610.13 466.85 1591.54 460.5 1605.52 531.34 1586.59 524.88 1574.55 560.14 1593.49 566.6 1539.11 614.12 1557.7 620.46 1612.08 572.95 1630.67 579.29 1576.29 626.81 1594.89 633.16 1649.26 585.64 1667.85 591.98 1613.48 639.5 1632.07 645.85 1686.44 598.33 2145.56 755.02 2111.88 792.61 2228.8 763.76"/><path class="cls-13" d="M2570.08,2636.13c56.85-2.11,157.69-6,187.65-7.15l-9.25-81.64H2643.92c-25.73,18.55-49,34.16-68.53,47.21-7.76,5.18-14.91,10-21.37,14.36C2561.48,2615.36,2568.48,2624.36,2570.08,2636.13Z"/><path class="cls-9" d="M2570.08,2636.13c-1.6-11.77-8.6-20.77-16.06-27.22-53.51,36.4-60.05,46.66,29.15,44,127.1-3.74,176.64-5.61,176.64-5.61l-2.08-18.36C2727.77,2630.14,2626.93,2634,2570.08,2636.13Z"/><path class="cls-9" d="M2595.61,2612.49c-2.78-10.59-17.11-18.39-17.25-18.47l2.45-4.57c.67.35,16.46,8.93,19.82,21.72Z"/><path class="cls-9" d="M2620.6,2598.68c-4.3-12-18.4-20.7-18.54-20.78l2.69-4.45c.64.39,15.81,9.69,20.74,23.49Z"/><path class="cls-9" d="M2639.79,2582.62c-1.64-10.92-17.62-18-17.79-18.1l2.08-4.76c.77.34,18.79,8.37,20.85,22.09Z"/><path class="cls-13" d="M3032.7,2636.13c-56.84-2.11-157.69-6-187.64-7.15l9.25-81.64h104.56c25.73,18.55,49,34.16,68.53,47.21,7.75,5.18,14.9,10,21.37,14.36C3041.3,2615.36,3034.31,2624.36,3032.7,2636.13Z"/><path class="cls-9" d="M3032.7,2636.13c1.61-11.77,8.6-20.77,16.07-27.22,53.5,36.4,60.05,46.66-29.15,44-127.11-3.74-176.64-5.61-176.64-5.61l2.08-18.36C2875,2630.14,2975.86,2634,3032.7,2636.13Z"/><path class="cls-9" d="M3007.18,2612.49l-5-1.32c3.37-12.79,19.15-21.37,19.82-21.72l2.45,4.57-1.22-2.29,1.23,2.29C3024.28,2594.1,3010,2601.9,3007.18,2612.49Z"/><path class="cls-9" d="M2982.19,2598.68l-4.89-1.74c4.92-13.8,20.09-23.1,20.74-23.49l2.68,4.45C3000.58,2578,2986.49,2586.65,2982.19,2598.68Z"/><path class="cls-9" d="M2963,2582.62l-5.13-.77c2.06-13.72,20.08-21.75,20.84-22.09l2.08,4.76-1-2.38,1,2.38C2980.62,2564.59,2964.63,2571.74,2963,2582.62Z"/><path class="cls-9" d="M2656.46,1554.81c-38.23,661.69-13,984.12-18.61,998.14,92.53,5.61,115.16,0,115.16,0s63-698.14,86.09-829.92,23.06-168.22,23.06-168.22Z"/><g class="cls-14"><path d="M2862.16,1554.81s0,36.44-23.06,168.22S2753,2553,2753,2553a80,80,0,0,1-10.72,1.37c4.75-148.66,23.32-709.91,36.61-829.33,12.13-109,13.35-155.48,13.34-170.18Z"/></g><path class="cls-9" d="M2948.94,1554.81c38.24,661.69,13,984.12,18.61,998.14-92.52,5.61-115.15,0-115.15,0s-63-698.14-86.1-829.92-23.05-168.22-23.05-168.22Z"/><path class="cls-15" d="M2735.24,1554.81c1.93,14.35,3.22,28.73,4.28,43.12s1.88,28.79,2.48,43.19,1,28.83,1.05,43.26,0,28.86-.77,43.32c-1.93-14.35-3.23-28.73-4.29-43.12s-1.88-28.78-2.47-43.19-1-28.83-1-43.26S2734.49,1569.27,2735.24,1554.81Z"/><path class="cls-15" d="M2872,1578.17c2.63,4.21,5.05,8.51,7.48,12.79,1.17,2.17,2.41,4.3,3.63,6.43s2.42,4.29,3.61,6.44,2.38,4.3,3.59,6.43l3.6,6.42c1.17,2.16,2.4,4.28,3.63,6.39l3.63,6.39c5,8.44,9.91,16.88,15.26,25l4.09,6.07c1.42,2,2.78,4,4.29,5.93s3,3.85,4.58,5.71c.81.91,1.61,1.85,2.49,2.7a16,16,0,0,0,1.32,1.28,14.81,14.81,0,0,0,1.42,1.18,29.27,29.27,0,0,1-6.23-4.12c-1.92-1.6-3.75-3.31-5.5-5.08s-3.38-3.66-5.06-5.51-3.16-3.85-4.73-5.79a239.4,239.4,0,0,1-16.42-24.82c-2.39-4.33-4.87-8.63-7.09-13l-3.32-6.63-1.64-3.33-1.54-3.38c-2-4.51-4.05-9-5.89-13.6S2873.55,1582.86,2872,1578.17Z"/><path class="cls-15" d="M2771.75,1759c7.94,29.56,15.45,59.22,23,88.86,3.83,14.8,7.55,29.63,11.46,44.41s7.74,29.57,11.87,44.28,8.27,29.4,12.81,44,9.4,29,14.91,43.2c2.77,7.09,5.78,14.07,9.09,20.91,1.64,3.42,3.38,6.79,5.25,10.08s3.84,6.52,6,9.62c4.29,6.19,9.29,12,15.53,16.21a32.08,32.08,0,0,0,10.25,4.58,31,31,0,0,0,11.33.53,31.46,31.46,0,0,1-11.49.24,33.07,33.07,0,0,1-10.85-4.13c-6.72-4-12.13-9.81-16.83-15.93-2.35-3.09-4.48-6.32-6.51-9.61s-3.92-6.65-5.72-10.06c-3.62-6.81-6.79-13.83-9.8-20.91-11.9-28.38-20.7-57.83-29-87.32q-6-22.17-11.61-44.45c-3.64-14.87-7.26-29.74-10.63-44.67Q2780.59,1804.05,2771.75,1759Z"/><path class="cls-15" d="M2775.57,1863.66c-1.26,14.43-2.76,28.84-4.24,43.26l-1.17,10.8-1.34,10.78-2.83,21.55c-1,7.18-1.82,14.39-3,21.54l-3.42,21.47-1.74,10.73c-.59,3.58-1.17,7.16-1.87,10.71l-4,21.38-2.08,10.68-2.33,10.63-4.73,21.24c-3.66,14.05-7,28.18-11.42,42l-1.57,5.22c-.53,1.73-1,3.48-1.64,5.19l-3.57,10.3c-2.26,6.91-5.16,13.6-7.83,20.35a212.72,212.72,0,0,1-9.64,19.58c-.44.79-.87,1.59-1.32,2.38l-1.5,2.29-1.49,2.28a24.82,24.82,0,0,1-1.54,2.25l-1.69,2.15a23.33,23.33,0,0,1-1.75,2.09l-1.9,2c-.34.31-.7.58-1.05.87l-.53.43c-.18.13-.38.25-.57.37.18-.14.37-.26.54-.41l.5-.46c.32-.32.66-.61,1-.94l1.74-2.07a23.13,23.13,0,0,0,1.58-2.2l1.51-2.23c1-1.5,1.82-3.12,2.73-4.67l1.33-2.34c.41-.8.78-1.63,1.18-2.44,3.25-6.43,5.91-13.14,8.54-19.84,2.37-6.82,5-13.53,7-20.48l3.21-10.33c.56-1.71,1-3.47,1.48-5.21l1.42-5.22c3.93-13.89,7.17-28,10.52-42l4.56-21.19,2.26-10.6,2-10.65,4.14-21.28c.72-3.55,1.32-7.11,1.92-10.68l1.85-10.68,3.77-21.37c.66-3.55,1.18-7.13,1.75-10.7l1.72-10.71,3.47-21.43,1.76-10.71,1.59-10.74C2771,1892.27,2773.17,1878,2775.57,1863.66Z"/><path class="cls-15" d="M2726,2209.75a201.19,201.19,0,0,1-11.53,25.59,220.94,220.94,0,0,1-14.72,24,122.34,122.34,0,0,1-18.71,21.3,48.59,48.59,0,0,1-12,7.89,23.43,23.43,0,0,1-7,1.86,14,14,0,0,1-7-1.17,15.46,15.46,0,0,0,6.78-.25,23.36,23.36,0,0,0,6.11-2.71,54.57,54.57,0,0,0,10.39-8.6,184.09,184.09,0,0,0,17.27-21.33c5.34-7.5,10.42-15.22,15.43-23Z"/><path class="cls-1" d="M2447.65,1190.31c-37.47-107.28-55.68-35.51-151.2-63.55s-22.63,51.41,32.51,63.55,46.73-8.41,65.42,62.62,35.35,285,265.34,73.84c-18.61-69.16-49.45-89.73-49.45-89.73S2515.88,1385.64,2447.65,1190.31Z"/><path class="cls-16" d="M2659.71,1326.77c-11.85,10.89-23.13,20.63-33.87,29.33-16-36.44-40.17-69.82-49.45-82,20.42-15.85,33.88-37,33.88-37S2641.11,1257.61,2659.71,1326.77Z"/><path class="cls-12" d="M2582.23,1260.41c36.45,50.47,77.49,98.13,77.49,98.13s68.65-87.76,79.53-176.64,53.89-187.23-10.91-124S2603.73,1256.67,2582.23,1260.41Z"/><g class="cls-17"><path d="M2739.25,1181.9c-10.88,88.88-79.54,176.64-79.54,176.64s-10.17-11.82-24.88-29.92c17.59-24.75,64-95.74,72.76-167.43,4.46-36.53,14.37-74.67,20-102.52.26-.26.5-.51.76-.76C2793.14,994.67,2750.12,1093,2739.25,1181.9Z"/></g><path class="cls-12" d="M2785.35,1015.55c-112.57,59.81-84.42,147.66-91,201.87s-53.28,129-53.28,191.59,15,104.67,4.68,163.55c250.47-.93,319.63,0,319.63,0s49.68-463.15-54.5-528.56C2802.51,975.94,2785.35,1015.55,2785.35,1015.55Z"/><g class="cls-17"><path d="M2961.86,1132.69c32.54,160.83,3.56,439.87,3.56,439.87s-35.43-.48-147.41-.4c7.53-48.53,26.55-86,38.42-141.05,14.06-65.12-14.83-152.74-9.07-210.5,2.1-20.94,9.64-45.51,13.8-72.43Z"/></g><path class="cls-18" d="M2659.73,1434.43l-148.82,25.86c-13.36,2.33-29.07-6.06-35.09-18.73L2391,1262.85c-6-12.67-.06-24.82,13.3-27.15l148.82-25.86c13.37-2.33,29.08,6.06,35.09,18.73L2673,1407.28C2679.05,1420,2673.1,1432.1,2659.73,1434.43Z"/><ellipse class="cls-6" cx="2526.94" cy="1345.27" rx="32.29" ry="23.36"/><g class="cls-14"><path d="M2659.73,1434.42l-148.82,25.87c-13.36,2.33-29.07-6.06-35.09-18.73l-12.11-25.49c35.5-35.06,95.93-58.51,145.53-143.15L2673,1407.28C2679.06,1420,2673.1,1432.1,2659.73,1434.42Z"/></g><path class="cls-1" d="M2545,1388.14c-47.27,12.81-.8,114.18,126.25,99.71s244.65,28.05,298.52,1.56,18.5-201.65,18.5-201.65-73.18,18.36-98.11,18.36c0,128.65,56.09,103.73-190,127.05C2565.54,1445.93,2631.07,1364.82,2545,1388.14Z"/><path class="cls-16" d="M2998.23,1362c-19.55,1.15-80.47,4.78-103.94,6.68-1-9.27-2.28-20.33-3.14-33.58h104.43C2996.58,1343.44,2997.51,1352.52,2998.23,1362Z"/><path class="cls-16" d="M2563.46,1384.39c1.72,3,3.22,6,4.72,9s3.23,5.88,4.8,8.81a164.31,164.31,0,0,0,10.78,16.59,93.8,93.8,0,0,0,13.14,14.51c1.27,1,2.49,2.12,3.79,3.11s2.62,2,4,2.85a43.88,43.88,0,0,0,8.86,4.64,29.36,29.36,0,0,1-10-2.38,44.14,44.14,0,0,1-4.71-2.25,25.48,25.48,0,0,1-2.24-1.34l-2.21-1.41a65.06,65.06,0,0,1-14.77-14.62,89.07,89.07,0,0,1-10.28-17.9c-1.26-3.19-2.44-6.41-3.5-9.65C2565,1391,2564.1,1387.73,2563.46,1384.39Z"/><path class="cls-16" d="M2545,1388.14a196.45,196.45,0,0,0,7.94,19.64,135.14,135.14,0,0,0,10.18,18.15,96.44,96.44,0,0,0,6.17,8.3c1.06,1.36,2.26,2.6,3.38,3.91s2.36,2.52,3.63,3.7a97.64,97.64,0,0,0,16.61,12.88,53.92,53.92,0,0,1-19.29-9.8,61.75,61.75,0,0,1-8-7.46c-1.26-1.33-2.4-2.77-3.56-4.19s-2.2-2.92-3.21-4.44a84.12,84.12,0,0,1-9.64-19.53A73.93,73.93,0,0,1,2545,1388.14Z"/><path class="cls-16" d="M2532,1396.28c1,3.47,2,6.86,3.18,10.19s2.45,6.59,3.83,9.8a119.64,119.64,0,0,0,9.82,18.32c.46.73,1,1.43,1.45,2.14s1,1.42,1.52,2.1c1,1.41,2.09,2.74,3.16,4.09a99.25,99.25,0,0,0,7,7.64,115.69,115.69,0,0,0,16.49,13.16,58.8,58.8,0,0,1-19.18-10.09l-2.13-1.73c-.7-.6-1.36-1.23-2-1.85l-1-.93-1-1c-.64-.66-1.29-1.3-1.91-2a74.59,74.59,0,0,1-6.74-8.7,78.18,78.18,0,0,1-9.31-19.77A67,67,0,0,1,2532,1396.28Z"/><path class="cls-12" d="M2927.33,1056.48c110.05,173.09,114.72,302.06,114.72,302.06L2871.76,1367s-35.32-245.8-5.41-283.18S2927.33,1056.48,2927.33,1056.48Z"/><path class="cls-1" d="M2795,896.54c18.69,103.43,31.08,106,51.64,114.69-107.16,133.33-112.7,76.59-118.31,46.68,16.82-21.8,11.22-57.94,3.74-97.19C2774.45,896.54,2795,896.54,2795,896.54Z"/><path class="cls-16" d="M2779.73,904.33c-8.93,30.53-25.36,58.27-43.86,77.58-1.12-6.91-2.41-14-3.79-21.19C2753.47,928.32,2769.31,912.27,2779.73,904.33Z"/><path class="cls-1" d="M2800,803.08c17.68,91.31-63.55,196.27-110.9,176.95s-23.68-182.56-21.81-195S2781.3,706.51,2800,803.08Z"/><path class="cls-16" d="M2752.72,840.47c46.73,1.87,21.11,50.46,21.11,50.46s22.07,18.92,29.62,48.45c37.67-38.48,81.28-45.33,62.59-69s-8.1-18.69-2.49-22.43,14.95-3.74.62-19.94-13.09-14.33-5.61-32.39-3.74-21.81-19.94-27.42-22.43,8.72-21.8-21.18-15-12.46-38-10-20.56,7.47-41.75-10.59-21.18-7.48-40.49,11.21-33,13.74-51.45,28.66c-24.2,19.6-7.12,55.45,24.65,43.62s19.32,12.46,49.85,4.36,31.78-6.23,32.4.62S2752.72,840.47,2752.72,840.47Z"/><path class="cls-4" d="M2660.88,851.21c-.06.18-.44,0-.33-.29a1.07,1.07,0,0,1,.35-.43l.61-.51a8,8,0,0,1,1.29-.88,12.1,12.1,0,0,1,2.86-1.19,15.07,15.07,0,0,1,12,1.78,10.86,10.86,0,0,1,4.14,4.6c-2.15-.22-3.93-.54-5.67-.81l-5-.8-5-.72-2.69-.38-1.43-.22-.75-.13a.55.55,0,0,1-.25-.1C2660.85,851,2660.74,851.21,2660.88,851.21Z"/><path class="cls-4" d="M2705.06,855.43a23.59,23.59,0,0,1,7.12-7.66,30,30,0,0,1,9.62-4.46,23.69,23.69,0,0,1,10.81-.53,14.81,14.81,0,0,1,5.14,2.08,10.43,10.43,0,0,1,3.65,3.94,19,19,0,0,0-9.21-2,40.13,40.13,0,0,0-9.07,1.49,71,71,0,0,0-9,3C2711.16,852.52,2708.23,853.93,2705.06,855.43Z"/><path class="cls-4" d="M2686.7,862.15a14.13,14.13,0,0,1,5.3,4.93,19.25,19.25,0,0,1,2.74,7,27.2,27.2,0,0,1-1.73,14.7c-.44,1.14-.93,2.26-1.46,3.35s-1.12,2.13-1.67,3.11a25.72,25.72,0,0,0-2.57,5.66,8,8,0,0,0,.52,5.61,35.73,35.73,0,0,0,3.64,5.73,19.34,19.34,0,0,1-5.78-4.35,10.29,10.29,0,0,1-2-3.47,10.56,10.56,0,0,1-.45-4.13,22.18,22.18,0,0,1,2.21-7.27c1-2.14,1.92-4.05,2.69-6.1a33.07,33.07,0,0,0,2.53-12.4A21.27,21.27,0,0,0,2686.7,862.15Z"/><path class="cls-4" d="M2683.9,925.3c2.47,1.57,4.61,3.32,6.69,3.86A11.59,11.59,0,0,0,2697,929a19.32,19.32,0,0,0,3.18-1.23,31.94,31.94,0,0,0,3.18-1.86c2.15-1.37,4.32-3.07,6.9-4.48A21.76,21.76,0,0,1,2706,929a17.13,17.13,0,0,1-3.36,3,15.16,15.16,0,0,1-4.31,2,13.34,13.34,0,0,1-4.85.44,10.16,10.16,0,0,1-8-5.08A15.11,15.11,0,0,1,2683.9,925.3Z"/><path class="cls-16" d="M2750.92,877.7a8.62,8.62,0,0,0-5.1-1.89,24.21,24.21,0,0,0-14.24,3,13.2,13.2,0,0,0-4.37,3.72,7,7,0,0,0-1.27,5.47,7.13,7.13,0,0,0,3.75,4.51,14.6,14.6,0,0,0,5.83,1.43,32,32,0,0,0,14-2.17,13,13,0,0,0,4.79-2.94,6.13,6.13,0,0,0,1.79-5.16,4,4,0,0,0-3.93-3.38"/><path class="cls-16" d="M2660.46,882.18a16.32,16.32,0,0,1,6.86.37,9.39,9.39,0,0,1,5.36,5.2,13.11,13.11,0,0,1,.69,7.54,11,11,0,0,1-4.47,7.33c-2.48,1.58-6.06,1.59-8.16-.48"/><path class="cls-4" d="M2709.12,868.5a14.36,14.36,0,0,1,1.25-4,10.43,10.43,0,0,1,2.82-3.52,12.76,12.76,0,0,1,8.75-2.53,14.5,14.5,0,0,1,4.43,1.06,15.69,15.69,0,0,1,3.77,2.25,15.52,15.52,0,0,1,4.88,6.77c-2.55-1.2-4.77-2.4-7-3.28a21.72,21.72,0,0,0-6.47-1.62,14.74,14.74,0,0,0-6.25.82,13,13,0,0,0-3,1.66C2711.31,866.82,2710.29,867.7,2709.12,868.5Z"/><path class="cls-4" d="M2665.29,869.91a8.87,8.87,0,0,1-1.12-3.79,6.07,6.07,0,0,1,.27-2.2,6.63,6.63,0,0,1,1.13-2.13,8.57,8.57,0,0,1,8.64-2.77,11.44,11.44,0,0,1,6.83,5,15.14,15.14,0,0,1,2.3,7.33c-2.07-1.59-3.7-3.34-5.38-4.64a13.11,13.11,0,0,0-4.94-2.63,6.18,6.18,0,0,0-2.34-.14,5.88,5.88,0,0,0-2.24.75,4.49,4.49,0,0,0-1.78,1.91A31,31,0,0,0,2665.29,869.91Z"/><path class="cls-4" d="M2673.21,861.57a2,2,0,0,0-2.29.22,4.44,4.44,0,0,0-1.37,2.24,10.8,10.8,0,0,0,.1,6,20.25,20.25,0,0,0,2.6,5.35,3.37,3.37,0,0,0,1.23,1.28,2.14,2.14,0,0,0,2.5-.92,6,6,0,0,0,1-3.7,16.69,16.69,0,0,0-.72-3.84c-.74-2.67-1.62-5.44-3.49-7.25"/><path class="cls-4" d="M2718.09,862a.65.65,0,0,0-.5-.9,1.25,1.25,0,0,0-1,.61c-1.11,1.47-1.22,3.6-1.08,5.53a29.14,29.14,0,0,0,1.18,6.44,9.76,9.76,0,0,0,1.6,3.36,3.38,3.38,0,0,0,3,1.39,3.09,3.09,0,0,0,1.23-.52c1.81-1.22,2.62-3.87,2.38-6.26a14.83,14.83,0,0,0-2.57-6.5c-1.08-1.7-2.4-3.35-4.17-3.93a1.28,1.28,0,0,0-1.19.06"/><g class="cls-19"><path d="M2866,870.37c18.69,23.68-24.92,30.53-62.59,69-5.36-21-18.07-36.63-25-43.91,1.32-22.42,12.83-32.8,1.64-37.41a19.85,19.85,0,0,0-9.94-13.4c-4.19-2.36-9.86-3.89-17.47-4.2,0,0,0-11.53-.36-19.8,20.43-17.33,29.49-3.34,44.52,7.58,16.82,12.22,39.87-21.9,45.48-15.74,4.36,4.79,14.38,19.41,21,14.55l.84.94c14.33,16.2,5,16.2-.62,19.94S2847.35,846.7,2866,870.37Z"/></g><g class="cls-17"><path d="M2780.13,858.07l-9.94-13.4A19.85,19.85,0,0,1,2780.13,858.07Z"/></g><path class="cls-20" d="M2770.09,887.38c15.26-37.57,33-39.58,41.74-20.5s-20.84,64-38.63,48.35C2762.61,905.89,2770.09,887.38,2770.09,887.38Z"/><path class="cls-16" d="M1634.56,2195.94h-87.85c.29,28.27.78,54,1.4,77.57h78C1630.08,2227.43,1634.56,2195.94,1634.56,2195.94Z"/><path class="cls-1" d="M1630,2528.21c-14.76-78.27-9.94-183.76-3.86-254.7h-78c7.26,276.55,32.31,241.93-35,308.41L1511,2584c5.86,5.9,11.58,13.67,14.26,23.14C1573.69,2546.42,1609.21,2530.87,1630,2528.21Z"/><path class="cls-9" d="M1630,2528.21c-20.78,2.66-56.3,18.21-104.78,78.95-2.68-9.47-8.4-17.24-14.26-23.14-70.07,69.62-80.82,103.87,20.89,46.5,59.73-37.38,52.25-29.91,52.25-29.91s-4.67,32.35-4.67,56.36h31.77s-8.41-53.55,27.11-94.67A308.25,308.25,0,0,1,1630,2528.21Z"/><path class="cls-16" d="M1677.24,2195.94h87.85c-.29,28.27-.78,54-1.4,77.57h-78C1681.72,2227.43,1677.24,2195.94,1677.24,2195.94Z"/><path class="cls-1" d="M1681.8,2528.21c14.76-78.27,10-183.76,3.87-254.7h78c-7.27,276.55-32.31,241.93,35,308.41l2.12,2.1c-5.86,5.9-11.58,13.67-14.27,23.14C1738.1,2546.42,1702.59,2530.87,1681.8,2528.21Z"/><path class="cls-9" d="M1681.8,2528.21c20.79,2.66,56.3,18.21,104.78,78.95,2.69-9.47,8.41-17.24,14.27-23.14,70.06,69.62,80.81,103.87-20.89,46.5-59.73-37.38-52.26-29.91-52.26-29.91s4.68,32.35,4.68,56.36H1700.6s8.41-53.55-27.1-94.67A308.28,308.28,0,0,0,1681.8,2528.21Z"/><path class="cls-1" d="M1539.23,1238.91c-106.54,128-57.94,152.34-153.27,34.58-36.45-46.73-58.65-9.65-110.28-34.58-84.12-40.6-89.73,13.09-6.55,55.39,55.58,28.27,33.65-31.09,97.2,90.41s81.31,87.85,203.74-38.32Z"/><path class="cls-16" d="M1570.07,1346.39c-122.43,126.17-140.19,159.82-203.74,38.32-4.67-8.94-8.85-17-12.6-24.27q6.87,7.26,15,15.77c94.25,98.6,102.4,62.25,183.83-90.87Z"/><path class="cls-9" d="M1552.38,1287l-4.08-14.19,6.3,10-.18.33-.86,1.6Zm-.36-5.85.72,2.47c.12-.24.25-.48.38-.72Z"/><path class="cls-1" d="M1817.74,1282.84c29.91,148.6,29.91,157,84.11,129.91-14-39.26,12.15-59.82,26.17-72.9s55.14-21.5,53.27,26.17,1.87,55.14-19.62,79.44-179.45,148.6-193.47-66.36Z"/><path class="cls-16" d="M1922.43,1476.79c-54.37,34.58-143.83,61.63-154.23-97.69l49.54-96.26q2.25,11.25,4.31,21.44l-33.1,39.85C1777.86,1482.7,1857.12,1492.63,1922.43,1476.79Z"/><path class="cls-18" d="M1502.38,1425.83s-37-82.24-44.46-87.85c67.29-118.69,124.83-191.59,217.56-182.25s137.59,51.41,173.1,216.83c-30.84,28-80.38,41.12-80.38,41.12s-1,56.83,57,193.28-28,609.54-27.08,646.92c-288.79-4.67-287.85-9.35-287.85-9.35s-63.55-500.94-33.65-594.4,61.69-132.81,76.64-189.77,16.82-103.69,16.82-103.69Z"/><path class="cls-21" d="M1562.68,1621.84a330.28,330.28,0,0,0,35.31,46.49c1.56,1.85,3.33,3.51,5,5.25l5,5.2,5.27,5c1.74,1.66,3.46,3.34,5.32,4.89l5.44,4.75,1.36,1.19,1.41,1.13,2.83,2.25c1.89,1.5,3.73,3,5.63,4.52l5.84,4.26,2.9,2.15c1,.72,2,1.35,3,2l6,4,1.49,1,1.54.94,3.08,1.88c2.06,1.25,4.1,2.54,6.18,3.76a288.76,288.76,0,0,0,25.75,13.17c2.22,1,4.39,2,6.63,3l6.75,2.68,3.37,1.36c1.11.43,2.2.8,3.32,1.15a53.18,53.18,0,0,0,6.83,1.68,35.56,35.56,0,0,0,13.94.07,16.4,16.4,0,0,0,6.33-2.8,13.85,13.85,0,0,0,2.56-2.46,17,17,0,0,0,1.86-3.12,14.79,14.79,0,0,1-1.27,3.51,14.53,14.53,0,0,1-2.23,3.09,18.2,18.2,0,0,1-6.49,4.18,28.8,28.8,0,0,1-7.52,1.77,47.06,47.06,0,0,1-7.69.19,56,56,0,0,1-7.62-1c-1.25-.24-2.52-.56-3.74-.9l-3.57-1.06-7.14-2.17c-2.37-.76-4.69-1.66-7-2.51l-3.51-1.3-1.75-.65c-.58-.23-1.15-.49-1.72-.73l-6.85-3c-1.14-.51-2.3-1-3.42-1.53l-3.33-1.68-6.68-3.39c-2.2-1.17-4.33-2.48-6.49-3.72l-3.24-1.88-1.62-.94-1.57-1-6.25-4.12c-1-.7-2.1-1.35-3.11-2.09l-3-2.21-6-4.46c-2-1.55-3.88-3.15-5.8-4.74-3.9-3.12-7.54-6.54-11.19-9.93-1.85-1.67-3.58-3.47-5.32-5.26l-5.19-5.38c-1.66-1.85-3.28-3.74-4.91-5.62s-3.3-3.73-4.79-5.74A200.85,200.85,0,0,1,1562.68,1621.84Z"/><path class="cls-21" d="M1642.85,1785.06c10.07,1.52,19.84,3.12,29.65,4.21s19.55,1.86,29.33,2.17,19.57.2,29.41-.3,19.72-1.42,29.86-2.28a112,112,0,0,1-29,9.38,143.65,143.65,0,0,1-60.89-2A112.49,112.49,0,0,1,1642.85,1785.06Z"/><path class="cls-21" d="M1600.37,1507c11.93.52,23.61.85,35.22.41a298.93,298.93,0,0,0,34.54-3.18,303.33,303.33,0,0,0,33.93-7.19c11.23-3,22.28-6.79,33.54-10.8a128.51,128.51,0,0,1-31.27,17.57,159.35,159.35,0,0,1-70.9,10.72A128.75,128.75,0,0,1,1600.37,1507Z"/><path class="cls-21" d="M1642.75,1528.2c4.78-1.18,9.24-1.79,13.64-2.46l13-1.77c4.3-.58,8.61-1.14,13-1.68s8.88-1.07,13.82-1.16a36.71,36.71,0,0,1-11.9,8,51.54,51.54,0,0,1-28,3.69A36.89,36.89,0,0,1,1642.75,1528.2Z"/><g class="cls-14"><path d="M1549.74,2247.65c-39.24-1.84-39.48-3.09-39.48-3.12s-63.55-500.94-33.65-594.4q1.83-5.7,3.66-11.15C1480.13,1793.76,1534.23,2149,1549.74,2247.65Z"/></g><g class="cls-14"><path d="M1596.66,1303.52s-14,62.47-29,119.43a127.59,127.59,0,0,1-13.06,32.06c13.7-54.5,15.45-98.34,15.45-98.34l-67.69,69.16Z"/></g><path class="cls-12" d="M1999.52,1405.83H1859.69c-6.18,0-8.76-5-5.77-11.23l92.66-192.06c3-6.21,10.43-11.24,16.61-11.24H2103c6.18,0,8.76,5,5.76,11.24l-92.65,192.06C2013.13,1400.8,2005.7,1405.83,1999.52,1405.83Z"/><g class="cls-14"><path d="M2060.82,1302l-44.69,92.63c-3,6.21-10.44,11.23-16.61,11.23H1859.69c-6.18,0-8.76-5-5.76-11.23l15-31.11C1956,1353.1,2026.27,1320.66,2060.82,1302Z"/></g><path class="cls-9" d="M1705.62,893.88C1629.1,886,1526.13,971.15,1573.46,976s-3.07,27.38-29.5,44.42-56.55,35.89-19.67,40.15,33.19,14.6-4.92,29.2-22.74,28,157.36,55.36c191.77-57.79,189.32-56.58,151.82-68.74s-31.35-13.39-19-29.21,19-12.77-11.07-21.9S1788.6,902.4,1705.62,893.88Z"/><path class="cls-1" d="M1671,1044.83c-10.59,57.94-19.32,94.08-46.11,114.64,69.78,78.51,117.14,13.71,117.14,13.71-39.26-44.86-16.83-89.1-16.83-89.1Z"/><path class="cls-16" d="M1718.89,1118.23a141.57,141.57,0,0,1-26-16.57,130.47,130.47,0,0,1-27.19-29.21q2.65-12.89,5.32-27.62l54.2,39.25S1718.14,1098.05,1718.89,1118.23Z"/><path class="cls-1" d="M1687.21,909.63c-97.2,46.73-65.3,131.46-16.83,169.47s79.76,25.54,97.82,3.11,8.61-129.71-23.67-160.75S1687.21,909.63,1687.21,909.63Z"/><g class="cls-22"><path class="cls-4" d="M1695,987.19c-.1-.29-.16-.58-.24-.87l0-.08.22-.19c2.17-1.94,5.25-2.66,8-2.8a31.37,31.37,0,0,1,4.13.09,21.21,21.21,0,0,1,4.25.78,15.09,15.09,0,0,1,7.39,4.91,18.7,18.7,0,0,1,3.76,7.48c-2.4-1.51-4.42-3.2-6.47-4.51a21,21,0,0,0-6.16-2.91c-1.09-.32-2.24-.57-3.47-.81l-3.72-.8a29.39,29.39,0,0,0-7.48-.83l.19-.26C1695.25,986.66,1695.12,986.93,1695,987.19Z"/><path class="cls-4" d="M1713.73,989.55a4.9,4.9,0,0,0-5.27,1,7.64,7.64,0,0,0-2.2,5.11,11,11,0,0,0,6.85,10.75c1.55.59,3.48.76,4.7-.36,1.39-1.27,1.19-3.48.88-5.33-.7-4.17-1.7-8.82-5.25-11.11"/><path class="cls-4" d="M1764.16,974.74c-1.34,1.71-2.53,3.06-3.59,4.42s-2,2.65-2.85,4-1.67,2.75-2.47,4.27l-2.61,5.06a10.09,10.09,0,0,1-1.34-6.11A13.16,13.16,0,0,1,1758,976,10.25,10.25,0,0,1,1764.16,974.74Z"/><path class="cls-4" d="M1760.16,983.11c-.62-.69-1.77-.07-2.35.66-1.9,2.33-2.43,5.47-2.68,8.47a11.41,11.41,0,0,0,.22,4.32,4.46,4.46,0,0,0,2.81,3.1,4.3,4.3,0,0,0,4.26-1.44,8.78,8.78,0,0,0,1.88-4.29,19,19,0,0,0-.42-8.8c-.4-1.37-1.46-3-2.84-2.59"/><path class="cls-16" d="M1740.35,981.55a62.27,62.27,0,0,0,1.47,13.84,56.14,56.14,0,0,0,4.51,12.62c1,2,2.17,4.12,3.15,6.43a21.89,21.89,0,0,1,1.87,7.55,23.56,23.56,0,0,1-4.35,14.12c.71-4.79,1.21-9.45.29-13.62s-3.39-7.74-5.61-12.17a37.71,37.71,0,0,1-3.89-14.38A29.62,29.62,0,0,1,1740.35,981.55Z"/><path class="cls-4" d="M1699.36,963.55a10.38,10.38,0,0,1,5.66-2.39,18.36,18.36,0,0,1,5.92.21,17.17,17.17,0,0,1,5.56,2.13,10,10,0,0,1,4.2,4.49c-2.12-.26-3.85-.42-5.62-.67s-3.46-.51-5.17-.86-3.4-.75-5.12-1.23S1701.4,964.18,1699.36,963.55Z"/><path class="cls-4" d="M1746,965.67a8.33,8.33,0,0,1,1.2-4.52,9.79,9.79,0,0,1,3.21-3.32,8.7,8.7,0,0,1,4.65-1.35,5.83,5.83,0,0,1,4.49,1.91,40.9,40.9,0,0,0-3.57,2.07l-2.82,1.78c-.94.59-2,1.18-3.09,1.78A19.5,19.5,0,0,1,1746,965.67Z"/><path class="cls-12" d="M1724.83,1046a47.56,47.56,0,0,0,29.72.33,54.18,54.18,0,0,1-3.09,13c-1.12,3-2.84,6.2-5.9,7.13s-6.25-.75-8.89-2.56c-6.92-4.77-13-11-16.31-18.77"/><path class="cls-16" d="M1704.14,1017.69a20.38,20.38,0,0,0-21.62-2.51,7.91,7.91,0,0,0-3.86,3.46,6.38,6.38,0,0,0,.91,6.22,14.08,14.08,0,0,0,5.16,4c6.84,3.53,15.22,4.81,22.28,1.76,1.78-.77,3.59-2,4-3.9.45-2.23-1.27-4.26-2.86-5.89"/><path class="cls-16" d="M1774.64,1000.48c-6.44,3.1-9.86,12.56-9.17,18.2.18,1.57.86,3.39,2.4,3.7a3.83,3.83,0,0,0,2.5-.62c2.13-1.2,4.63-4.17,6-6.22"/></g><path class="cls-16" d="M1700.8,949.79c-49.21,19.7,24,16.42-9.47,33.5s-46.72,23.38-33.47,29.43c10.14,4.62-9.94,1.48-27.43,13-15-39.24-6.44-85.71,56.78-116.09,0,0,17.73-13.75,42.74.67a30.35,30.35,0,0,1,1.36,2.87C1675.29,928.76,1750,930.07,1700.8,949.79Z"/><path class="cls-9" d="M1727.91,909.17c-50.05,14.79,16.71,16-27.26,34.72s21.45,15.58-8.46,31.78-41.74,22.18-29.91,27.91-22.43-1.12-37.38,26.92c-32.4-32.4-42.25-62.31-.88-96.57S1715,876.32,1727.91,909.17Z"/><path class="cls-1" d="M1901.85,1412.75c-14-39.26,12.15-59.82,26.17-72.9s55.14-21.5,53.27,26.17,1.87,55.14-19.62,79.44"/><g class="cls-23"><path class="cls-16" d="M1904.66,1345.92a31.57,31.57,0,0,1,6.39,5.38c.47.52,1,1,1.41,1.56l1.32,1.63c.9,1.08,1.66,2.26,2.46,3.41a67.31,67.31,0,0,1,7.34,15.06l1.25,4c.4,1.34.67,2.71,1,4.07a71.57,71.57,0,0,1,1.38,8.22c.21,1.37.24,2.77.32,4.15s.11,2.77.14,4.15c-.08,2.77-.23,5.54-.57,8.28-.81-2.68-1.34-5.35-2-8-.35-1.32-.68-2.63-1-3.94s-.57-2.63-1-3.92c-.73-2.59-1.3-5.2-2.13-7.73-.39-1.27-.69-2.57-1.13-3.82l-1.25-3.78a142.19,142.19,0,0,0-6-14.73c-.6-1.19-1.13-2.42-1.78-3.58l-.93-1.78-1-1.75A73.4,73.4,0,0,0,1904.66,1345.92Z"/><path class="cls-16" d="M1922.43,1337.05a39.69,39.69,0,0,1,11.55,9.24,56,56,0,0,1,13.08,26.49,48.41,48.41,0,0,1,.88,7.38,30.63,30.63,0,0,1,0,3.71c-.06,1.23-.13,2.46-.27,3.68-.44-1.17-.8-2.34-1.16-3.5s-.6-2.33-1.06-3.45c-.8-2.27-1.41-4.54-2.31-6.74a123.35,123.35,0,0,0-12.37-25.1A141.82,141.82,0,0,0,1922.43,1337.05Z"/><path class="cls-16" d="M1947.18,1323.49a58.46,58.46,0,0,1,10,12,76.13,76.13,0,0,1,7.07,14,63.11,63.11,0,0,1,3.69,15.35,43.59,43.59,0,0,1-1.17,15.66,150,150,0,0,0-2.85-15c-1.31-4.82-2.75-9.56-4.53-14.23s-3.71-9.28-5.79-13.88S1949.39,1328.23,1947.18,1323.49Z"/></g><path class="cls-2" d="M3189.27,995a227.11,227.11,0,0,1-123.21-167c-20.27-124,63.78-240.88,187.74-261.16S3494.68,630.64,3515,754.6s-63.78,240.89-187.74,261.16a227.16,227.16,0,0,1-68.66.78c-24.42,46.25-54.33,71.2-154,61.1C3152.13,1057.89,3190,1028.72,3189.27,995Z"/><path class="cls-24" d="M3144.66,1089.26a409.93,409.93,0,0,1-41.08-2.28l-37-3.75,34.38-14.27c47.25-19.6,75.46-44.25,78.66-68.41a236.47,236.47,0,0,1-122.8-171,236.55,236.55,0,1,1,206.94,197.14C3241.36,1066.47,3212.7,1089.26,3144.66,1089.26Zm-3.95-18.8c27.75.36,48.87-3.16,65.08-10.74,18.25-8.54,31.13-22.32,44.45-47.56l3.08-5.84,6.54.92a218,218,0,0,0,65.84-.75c118.65-19.4,199.39-131.72,180-250.37a218,218,0,1,0-312.23,230.45l5.08,2.53.12,5.66C3199.27,1022.27,3179,1048.51,3140.71,1070.46Z"/><path class="cls-2" d="M3150.22,863.31s165.3,5.06,261.12-141.41"/><path class="cls-12" d="M3150.22,863.31a245.64,245.64,0,0,0,30.78-5.94c10.08-2.53,20-5.6,29.67-9s19.18-7.31,28.39-11.62,18.16-9,26.81-14,17-10.59,25-16.34l5.91-4.44,1.47-1.1,1.43-1.16,2.86-2.31c3.85-3,7.47-6.3,11.13-9.48a278,278,0,0,0,38.26-42.59l46.26,44.59a334.76,334.76,0,0,1-57.5,37.9c-5.09,2.53-10.1,5.12-15.28,7.37l-3.85,1.74-1.92.86-1.95.8-7.78,3.18c-10.45,4-21,7.64-31.59,10.61s-21.33,5.44-32,7.4-21.47,3.37-32.19,4.32-21.44,1.42-32.1,1.32A251.59,251.59,0,0,1,3150.22,863.31Z"/><polygon class="cls-12" points="3316.57 731.75 3421.2 816.66 3411.34 721.9 3316.57 731.75"/><path class="cls-2" d="M1299.49,1054.53A231.58,231.58,0,0,0,1396,866.24c0-128.08-103.82-231.91-231.9-231.91S932.19,738.16,932.19,866.24,1036,1098.15,1164.1,1098.15a231.85,231.85,0,0,0,69.23-10.51c32.18,42.53,66.39,62.7,165,36.13C1347.22,1111.74,1304.28,1088.61,1299.49,1054.53Z"/><path class="cls-24" d="M1323.48,1142.51c-44.43,0-69.57-17.66-92.67-47a239.35,239.35,0,1,1,76.14-38c6.39,25.61,39.91,47.23,93,59.71l26.16,6.16-25.95,7C1369.21,1138.65,1344.24,1142.51,1323.48,1142.51Zm-87.62-62.76,2.87,3.8c18,23.74,33.62,35.77,54,41.54,20.07,5.68,45.48,5.14,78.76-1.82-17-5.64-31.85-12.47-43.68-20.17-20.73-13.5-32.53-29.52-35.08-47.62l-.57-4,3.32-2.4a225.85,225.85,0,0,0,93.71-182.79c0-124.13-101-225.13-225.13-225.13S939,742.11,939,866.24s101,225.13,225.13,225.13a225.2,225.2,0,0,0,67.21-10.2Z"/><path class="cls-21" d="M1163.78,1017.83a151.73,151.73,0,1,1,140.84-208.12h0a151.87,151.87,0,0,1-140.84,208.12Zm0-288.69a136.91,136.91,0,1,0,127,86.08h0a137.16,137.16,0,0,0-127-86.08Z"/><path class="cls-21" d="M1207.75,1009.24c-15.16,0-32.55-9.51-50.24-27.75-21.16-21.82-40.89-54-55.56-90.67s-22.6-73.58-22.33-104c.28-32.66,10.16-54.53,27.82-61.6s39.9,2,62.64,25.4c21.16,21.82,40.89,54,55.56,90.68s22.6,73.57,22.34,104c-.29,32.66-10.17,54.53-27.83,61.6A33.1,33.1,0,0,1,1207.75,1009.24Zm-87.84-271.51a18.53,18.53,0,0,0-7,1.28c-11.54,4.61-18.28,22.1-18.51,48-.25,28.51,7.31,63.43,21.28,98.34s32.59,65.39,52.44,85.86c18,18.57,34.95,26.57,46.49,22s18.28-22.09,18.5-48c.25-28.51-7.3-63.43-21.27-98.34h0c-14-34.9-32.59-65.39-52.44-85.86C1144.77,745.84,1130.81,737.73,1119.91,737.73Z"/><path class="cls-21" d="M1032.45,816.31h-1.16l-11.19-.08,4.44-10.27a151.66,151.66,0,0,1,198.6-79.48l10.29,4.38-8,7.77c-21.81,21.07-53.94,40.73-90.45,55.34C1098.9,808.39,1062.56,816.31,1032.45,816.31Zm131.36-87.17a137.2,137.2,0,0,0-120.5,72c26-1.62,56.08-8.9,86.13-20.93s56.85-27.51,76.78-44.26A136,136,0,0,0,1163.81,729.14Z"/><path class="cls-21" d="M1163.78,1017.83a151.28,151.28,0,0,1-59.33-12.18l-10.29-4.38,8-7.77c21.82-21.08,53.94-40.73,90.45-55.34s73.32-22.52,103.65-22.34l11.19.08-4.43,10.27a152,152,0,0,1-139.28,91.66Zm-42.41-21.64A136.89,136.89,0,0,0,1284.28,931c-26,1.62-56.07,8.9-86.12,20.93S1141.31,979.44,1121.37,996.19Z"/><rect class="cls-21" x="1019.53" y="858.65" width="288.54" height="14.83" transform="translate(-238.47 494.4) rotate(-21.81)"/></g></svg>