<svg id="Layer_1" data-name="Layer 1" xmlns="http://www.w3.org/2000/svg" viewBox="0 0 1000 1000"><defs><style>.cls-1{fill:#e8a54f;}.cls-14,.cls-2{fill:#3a3144;}.cls-11,.cls-12,.cls-15,.cls-17,.cls-24,.cls-3,.cls-5{fill:none;}.cls-3{stroke:#ed5d5d;stroke-width:40px;}.cls-11,.cls-12,.cls-14,.cls-15,.cls-17,.cls-24,.cls-3,.cls-5{stroke-miterlimit:10;}.cls-4{fill:#71d2c1;}.cls-5{stroke:#97ccca;}.cls-11,.cls-24,.cls-5{stroke-width:25px;}.cls-6{fill:#ffece5;}.cls-7{fill:#2e60b8;}.cls-8{fill:#ffa97f;}.cls-9{fill:#fc8389;}.cls-10{fill:#ffd8c5;}.cls-11{stroke:#f99192;}.cls-12,.cls-14{stroke:#3a3144;stroke-width:9px;}.cls-13{fill:#4f8ae0;}.cls-15{stroke:#385a7d;stroke-width:40.89px;}.cls-16{fill:#ed5d5d;}.cls-17{stroke:#71d2c1;stroke-width:15.81px;}.cls-18{fill:#b2d8d8;}.cls-19{fill:#385a7d;}.cls-20{fill:#f99192;}.cls-21{fill:#ffe2d9;}.cls-22{fill:#fff4f0;}.cls-23{fill:#fffdfd;}.cls-24{stroke:#b2d8d8;}</style></defs><title>Flat Illustration</title><path class="cls-1" d="M165.41,838.75l-14.3,34.52a4.1,4.1,0,0,0,1.66,5.08l32.48,19.73a3.48,3.48,0,0,0,5.26-2.28c.45-2.66-.21-6.36-4.67-10.57-8.91-8.43,8.95-33.15,8.95-33.15"/><path class="cls-2" d="M183.72,869.55a12.57,12.57,0,0,0,3.71.89c.64,0,.63-.93,0-1a11.65,11.65,0,0,1-3.44-.85c-.59-.25-.85.71-.27.95Z"/><path class="cls-2" d="M182.12,874a9,9,0,0,0,3.95,1.2c.63,0,.63-.94,0-1a8.14,8.14,0,0,1-3.46-1.07.49.49,0,0,0-.49.85Z"/><path class="cls-2" d="M181.55,879.19a10.25,10.25,0,0,0,3.76.93c.64,0,.64-1,0-1a9.24,9.24,0,0,1-3.26-.8c-.57-.26-1.07.59-.5.85Z"/><path class="cls-3" d="M215.8,651.61l4.68,83.22a123.45,123.45,0,0,1-12.61,61.71l-35.08,64.64"/><path class="cls-1" d="M270,858.19l5.7,36.93a4.11,4.11,0,0,0,4.06,3.48h38a3.49,3.49,0,0,0,3.32-4.69c-1-2.5-3.49-5.32-9.49-6.61-12-2.56-9.56-33-9.56-33"/><path class="cls-2" d="M301.64,875a12.52,12.52,0,0,0,3.63-1.16c.57-.29.07-1.14-.5-.86a11.33,11.33,0,0,1-3.39,1.06c-.63.1-.36,1.05.26,1Z"/><path class="cls-2" d="M302.57,879.64a9.3,9.3,0,0,0,4-1c.57-.29.07-1.15-.5-.86a7.93,7.93,0,0,1-3.5.89.5.5,0,0,0,0,1Z"/><path class="cls-2" d="M304.79,884.37a10.3,10.3,0,0,0,3.7-1.15c.56-.3.06-1.15-.5-.85a9.07,9.07,0,0,1-3.2,1c-.63.08-.63,1.07,0,1Z"/><path class="cls-4" d="M303.31,680.24l7.95-17.19s21,9.14,15.46,19.72S303.31,680.24,303.31,680.24Z"/><path class="cls-4" d="M329.17,667.42l-15.77-1.8c-2.52-.29-2.5,3.67,0,4l15.77,1.8c2.53.29,2.51-3.67,0-4Z"/><path class="cls-4" d="M321.69,690.84q-4.44-4.22-9.13-8.14c-1.46-1.21-3.56.87-2.1,2.1q4.69,3.93,9.13,8.13c1.39,1.32,3.49-.78,2.1-2.09Z"/><path class="cls-4" d="M328.61,689.4a36.12,36.12,0,0,1-8-6.42c-1.31-1.39-3.41.71-2.1,2.1a39.07,39.07,0,0,0,8.59,6.88,1.48,1.48,0,0,0,1.5-2.56Z"/><path class="cls-4" d="M323.28,682.27a78.6,78.6,0,0,0,9,6.34,1.48,1.48,0,0,0,1.5-2.56,74.24,74.24,0,0,1-8.43-5.87c-1.47-1.19-3.58.89-2.09,2.09Z"/><path class="cls-4" d="M336.64,680.08c-5.34-1.87-9.78-5.68-14-9.36-1.43-1.26-3.54.83-2.1,2.09,4.6,4,9.43,8.08,15.28,10.13,1.81.63,2.59-2.24.79-2.86Z"/><path class="cls-5" d="M237.24,630.92c.34.14,26.4,18.27,34.22,23.54s37.47,17.83,37.47,17.83"/><rect class="cls-6" x="340.07" y="101.4" width="509.13" height="358.42" rx="19.62"/><path class="cls-7" d="M603.44,283.06V485.43a15.8,15.8,0,0,0,15.8,15.8h0a15.8,15.8,0,0,0,15.8-15.8V472.34a12.22,12.22,0,0,1,12.17-12.22h0a12.22,12.22,0,0,1,12.27,12.22v54.12a15.8,15.8,0,0,0,15.8,15.8h0a15.8,15.8,0,0,0,15.8-15.8V512a10.81,10.81,0,0,1,10.8-10.81h0a10.81,10.81,0,0,0,10.81-10.8V356.23Z"/><path class="cls-2" d="M829.59,101.4H359.69A19.62,19.62,0,0,0,340.07,121v12.24H849.2V121A19.61,19.61,0,0,0,829.59,101.4Z"/><circle class="cls-8" cx="366.65" cy="117.33" r="3.13"/><circle class="cls-9" cx="385.98" cy="117.33" r="3.13"/><circle class="cls-4" cx="405.32" cy="117.33" r="3.13"/><rect class="cls-10" x="340.07" y="133.26" width="509.13" height="7.92"/><path class="cls-2" d="M482.46,605.63l-4.34-26.69a72.09,72.09,0,0,1-24.75,13.32c-6.4,1.88-7.71,5.81-7.18,9.61A17.58,17.58,0,0,1,441.4,616c-2.19,2.42-3.75,6-3.13,11.36,1.32,11.62,17.54,13.91,25.27,6.68a13.71,13.71,0,0,1,9.66-3.47c2,0,4.16-1,6.12-4.21C484.53,617.67,482.46,605.63,482.46,605.63Z"/><path class="cls-4" d="M525.17,489.06l-14.51,12.17s-15.15-17.22-5.6-24.42S525.17,489.06,525.17,489.06Z"/><path class="cls-4" d="M496.15,489.57l13.5,8.35c2.17,1.34,4.16-2.08,2-3.42l-13.5-8.34c-2.17-1.34-4.16,2.08-2,3.41Z"/><path class="cls-4" d="M513,471.54q2.29,5.88,4.94,11.61c.81,1.72,3.36.22,2.56-1.5-1.66-3.59-3.21-7.21-4.65-10.89-.68-1.76-3.55-1-2.85.78Z"/><path class="cls-4" d="M506.12,469.91a36.44,36.44,0,0,1,4.52,9.2c.59,1.8,3.45,1,2.86-.79a39.65,39.65,0,0,0-4.82-9.9c-1.07-1.57-3.64-.09-2.56,1.49Z"/><path class="cls-4" d="M507.85,478.48a76.83,76.83,0,0,0-5.29-9.24c-1.06-1.58-3.63-.1-2.56,1.49a76.19,76.19,0,0,1,5.29,9.25c.83,1.71,3.39.21,2.56-1.5Z"/><path class="cls-4" d="M494.86,474.94c4.14,4.05,6.58,9.51,8.85,14.75.76,1.74,3.32.24,2.56-1.5-2.38-5.48-5-11.11-9.32-15.34-1.36-1.34-3.46.76-2.09,2.09Z"/><path class="cls-11" d="M524.85,616.71s19.41-49.18,20.93-64.17-29.51-59.62-29.51-59.62"/><path class="cls-12" d="M340.07,646.88,608,379a27.8,27.8,0,0,1,28.22-6.79l65.27,21.13A17.91,17.91,0,0,0,719.64,389l18.29-18.29a17.91,17.91,0,0,0,0-25.32L627.79,235.2a17.91,17.91,0,0,0-25.32,0l-.94.94a17.91,17.91,0,0,0,0,25.32l87.78,87.78"/><rect class="cls-13" x="591.27" y="302.69" width="133.57" height="32.14" rx="9.45" transform="translate(418.14 -371.95) rotate(45)"/><rect class="cls-14" x="288.39" y="622.38" width="22.44" height="131.55" rx="7.44" transform="translate(574.35 -10.3) rotate(45)"/><path class="cls-13" d="M547.76,858.19l5.71,36.93a4.11,4.11,0,0,0,4,3.48h38a3.49,3.49,0,0,0,3.31-4.69c-1-2.5-3.49-5.32-9.48-6.61-12-2.56-9.57-33-9.57-33"/><path class="cls-1" d="M583.66,879.22a16.76,16.76,0,0,0-4.21,2.61c-.51.43.22,1.15.72.73a15.81,15.81,0,0,1,4-2.45c.61-.26.09-1.14-.51-.89Z"/><path class="cls-1" d="M581.52,875a10.19,10.19,0,0,0-4.15,2.6c-.45.48.27,1.2.72.73a9,9,0,0,1,3.7-2.34c.62-.2.35-1.19-.27-1Z"/><path class="cls-1" d="M580.21,870.59a16.59,16.59,0,0,0-3.36,1.57c-.55.35,0,1.24.52.89a14.57,14.57,0,0,1,3.12-1.47c.62-.21.35-1.2-.28-1Z"/><path class="cls-1" d="M578.93,884.37l-.22-.22a.51.51,0,0,0-.72.72l.22.22a.51.51,0,0,0,.72-.72Z"/><path class="cls-1" d="M575,880.58a.51.51,0,0,0,0-1,.51.51,0,0,0,0,1Z"/><path class="cls-1" d="M573.69,875.92a.52.52,0,0,0,0-1,.52.52,0,0,0,0,1Z"/><path class="cls-13" d="M408.75,830.2l-25.08,27.71a4.1,4.1,0,0,0-.15,5.33l24,29.52a3.5,3.5,0,0,0,5.73-.38c1.31-2.35,1.93-6.07-.85-11.53-5.56-10.93,19.58-28.21,19.58-28.21"/><path class="cls-1" d="M415.11,871.37a16.77,16.77,0,0,0-4.67-1.65c-.64-.13-.92.86-.27,1a16,16,0,0,1,4.43,1.55c.58.3,1.1-.58.51-.88Z"/><path class="cls-1" d="M416.89,867a10,10,0,0,0-4.64-1.56c-.66-.06-.65,1,0,1a9,9,0,0,1,4.13,1.42c.55.35,1.06-.53.51-.88Z"/><path class="cls-1" d="M419.53,863.19a16.06,16.06,0,0,0-3.34-1.61c-.63-.21-.89.77-.28,1a14.55,14.55,0,0,1,3.1,1.5c.56.35,1.08-.53.52-.88Z"/><path class="cls-1" d="M408.07,870.85l0-.31c.07-.66-1-.65-1,0l0,.31c-.06.65,1,.65,1,0Z"/><path class="cls-1" d="M408.94,865.66a.51.51,0,0,0,0-1,.51.51,0,0,0,0,1Z"/><path class="cls-1" d="M411.72,861.69a.51.51,0,0,0,0-1,.51.51,0,0,0,0,1Z"/><path class="cls-15" d="M492.75,652.26s-.69,97.58-24.32,131.56-56.94,67.27-56.94,67.27"/><circle class="cls-16" cx="223.8" cy="649.3" r="28.17"/><path class="cls-3" d="M229.34,654s34,83,40.66,112.3,15.78,99.6,15.78,99.6"/><line class="cls-17" x1="230.58" y1="574.82" x2="228.1" y2="591.5"/><path class="cls-2" d="M230.92,577.12c3.19,7.36,5.9,9.29,5.9,9.29l1.56-9.25S228.65,571.88,230.92,577.12Z"/><path class="cls-18" d="M236.32,590.08l-8.53-.51a31.4,31.4,0,0,0-33,27.41l-4.07,32.22a3.62,3.62,0,0,0,3.52,4.07l58.73,1.19a5.14,5.14,0,0,0,5.25-5l1-34.4A24.32,24.32,0,0,0,236.32,590.08Z"/><path class="cls-4" d="M336.23,645.4l1.26-18.9s22.91,1,21.5,12.87S336.23,645.4,336.23,645.4Z"/><path class="cls-4" d="M356,624.1l-15.37,4c-2.46.64-1.42,4.45,1,3.81l15.37-4c2.46-.63,1.42-4.45-1-3.81Z"/><path class="cls-4" d="M357,648.63c-3.76-1.56-7.58-3-11.43-4.32-1.81-.62-2.59,2.24-.79,2.86q5.79,2,11.44,4.32c1.76.73,2.53-2.14.78-2.86Z"/><path class="cls-4" d="M363.29,644.92a36.89,36.89,0,0,1-9.78-3.09c-1.71-.82-3.21,1.73-1.49,2.56a39.42,39.42,0,0,0,10.48,3.39c1.86.32,2.67-2.54.79-2.86Z"/><path class="cls-4" d="M355.81,640.22a78.1,78.1,0,0,0,10.34,2.57c1.86.34,2.66-2.52.78-2.85a80,80,0,0,1-10.33-2.58c-1.82-.59-2.6,2.27-.79,2.86Z"/><path class="cls-4" d="M367.44,633.3c-5.8.18-11.4-1.82-16.76-3.81-1.79-.66-2.56,2.21-.79,2.86,5.61,2.08,11.48,4.1,17.55,3.91,1.9-.06,1.91-3,0-3Z"/><path class="cls-4" d="M244.71,565.83a2.07,2.07,0,0,1-1.32,2.71l-.84-2.5c-.06-.16.76-.68.91-.73A.93.93,0,0,1,244.71,565.83Z"/><path class="cls-4" d="M230.69,550.79h.69a11.8,11.8,0,0,1,11.8,11.8v11.1a8.66,8.66,0,0,1-8.66,8.66h0a15.64,15.64,0,0,1-15.64-15.64V562.6a11.8,11.8,0,0,1,11.8-11.8Z" transform="translate(-186.67 119.47) rotate(-20.87)"/><path class="cls-2" d="M239.64,570a3,3,0,0,0,1.67.68c.63.07.63-.92,0-1a1.84,1.84,0,0,1-1-.39c-.49-.39-1.19.3-.7.7Z"/><circle class="cls-2" cx="239.3" cy="564.38" r="0.88"/><path class="cls-2" d="M237.59,561.84a5.27,5.27,0,0,1,1.16-.7c.58-.26.08-1.11-.49-.85a6,6,0,0,0-1.37.85c-.5.4.21,1.1.7.7Z"/><path class="cls-2" d="M237,670.21c2.21-1.78,4.37-3.61,6.47-5.51.48-.43-.22-1.13-.7-.7-2.1,1.9-4.25,3.74-6.47,5.51-.49.39.21,1.09.7.7Z"/><circle class="cls-19" cx="501.56" cy="649.3" r="28.17"/><path class="cls-15" d="M495.71,654.46s43.74,71.95,50.42,101.26,17.41,110.16,17.41,110.16"/><line class="cls-17" x1="508.47" y1="575.17" x2="505.99" y2="591.84"/><path class="cls-2" d="M505.62,577a18.88,18.88,0,0,0,9.09,9.77l1.56-9.25S503.35,571.73,505.62,577Z"/><path class="cls-20" d="M514.09,590.08l-19.5-1.17a19.66,19.66,0,0,0-20.69,17.17l-5.44,43.12a3.62,3.62,0,0,0,3.51,4.07l58.74,1.19a5.14,5.14,0,0,0,5.24-5l1-34.4A24.32,24.32,0,0,0,514.09,590.08Z"/><path class="cls-4" d="M521.41,561.75a2.08,2.08,0,0,1,.62,3l-2.2-1.45c-.15-.1.18-1,.27-1.14A.94.94,0,0,1,521.41,561.75Z"/><path class="cls-4" d="M508.6,551.42h.69a11.8,11.8,0,0,1,11.8,11.8v11.1a8.66,8.66,0,0,1-8.66,8.66h0a15.64,15.64,0,0,1-15.64-15.64v-4.11a11.8,11.8,0,0,1,11.8-11.8Z" transform="translate(-236.5 408.92) rotate(-36.11)"/><path class="cls-2" d="M508.47,558.9s6.59-1.08,9.75-3.84a.66.66,0,0,0,0-1c-2.32-1.73-11-7.37-17.69-.65a5.34,5.34,0,0,1-2.49,1.45c-1.78.45-5.06,2-8.38,7.1-3.87,6-11.08,1.92-11.08,1.92S488.05,591.56,493,591c6.55-.76,13.46-7.5,13.79-18.79,0,0-3.58-.93-3.26-3.24s2.93-3.07,4.94-1.76C508.47,567.2,511.12,560.26,508.47,558.9Z"/><path class="cls-2" d="M516.27,569.44a4.52,4.52,0,0,0,2.65.1.49.49,0,0,0-.26-.95,3.52,3.52,0,0,1-2.13-.1c-.6-.21-.86.74-.26,1Z"/><circle class="cls-2" cx="515.5" cy="563.85" r="0.88"/><path class="cls-2" d="M513.05,562a5.46,5.46,0,0,1,.94-1c.49-.4-.21-1.1-.7-.7a6.42,6.42,0,0,0-1.09,1.18c-.38.52.48,1,.85.5Z"/><path class="cls-2" d="M531.16,598.69c5.42,7.38,5.16,16.63,4.76,25.36,0,.63,1,.63,1,0,.41-8.89.62-18.35-4.89-25.86-.38-.51-1.23,0-.86.5Z"/><path class="cls-4" d="M488.76,512.12,470.46,517s-6.42-22,5.28-24.5S488.76,512.12,488.76,512.12Z"/><path class="cls-4" d="M462.18,500.16l8.7,13.28c1.39,2.12,4.81.14,3.41-2l-8.7-13.27c-1.38-2.12-4.81-.14-3.41,2Z"/><path class="cls-4" d="M485.16,491.35q-.41,6.11-.42,12.22a1.48,1.48,0,0,0,3,0q0-6.12.42-12.22c.12-1.9-2.84-1.89-3,0Z"/><path class="cls-4" d="M479.67,487a37.36,37.36,0,0,1,.13,10.24c-.23,1.89,2.74,1.87,3,0a39.5,39.5,0,0,0-.24-11c-.29-1.88-3.15-1.09-2.85.78Z"/><path class="cls-4" d="M477.57,495.33a81.38,81.38,0,0,0-.94-11c-.28-1.88-3.14-1.08-2.85.79a76.11,76.11,0,0,1,.82,10.22,1.49,1.49,0,0,0,3,0Z"/><path class="cls-4" d="M467.25,486.38c2,5.43,2,11.36,1.81,17.08-.06,1.91,2.91,1.91,3,0,.16-6,.22-12.21-1.91-17.87-.66-1.77-3.53-1-2.86.79Z"/><path class="cls-11" d="M478.14,512.9s10,43.75,10.62,57.68c.7,14.83-4.13,50.55-4.13,50.55"/><rect class="cls-21" x="379.69" y="152.95" width="159.72" height="157.59" rx="5.77"/><rect class="cls-22" x="379.69" y="146.57" width="159.72" height="157.59" rx="5.77"/><path class="cls-23" d="M379.2,176.05l.49,122.34a5.76,5.76,0,0,0,5.76,5.77H533.64a5.77,5.77,0,0,0,5.77-5.77l-.49-122.34Z"/><path class="cls-21" d="M539.41,158.72V310.14a5.77,5.77,0,0,1-5.77,5.76H385.45a5.76,5.76,0,0,1-5.76-5.76V158.72"/><path class="cls-22" d="M539.41,152.34V303.76a5.78,5.78,0,0,1-5.77,5.77H385.45a5.77,5.77,0,0,1-5.76-5.77V152.34"/><path class="cls-23" d="M379.2,176.05l.49,127.71a5.77,5.77,0,0,0,5.76,5.77H533.64a5.78,5.78,0,0,0,5.77-5.77l-.49-127.71"/><polygon class="cls-21" points="538.92 176.05 379.2 176.05 379.57 271.89 539.28 271.89 538.92 176.05"/><path class="cls-10" d="M379.57,271.89H539.28l0-8.34-29-29a17.55,17.55,0,0,0-24.83,0h0a17.56,17.56,0,0,1-24.82,0l-19.48-19.48a17.56,17.56,0,0,0-24.82,0l-36.8,36.8Z"/><circle class="cls-10" cx="397.59" cy="162.01" r="7.63"/><circle class="cls-23" cx="476.12" cy="207.72" r="12.76"/><rect class="cls-21" x="379.69" y="331.22" width="159.72" height="106.27" rx="5.77"/><rect class="cls-22" x="379.69" y="324.84" width="159.72" height="106.27" rx="5.77"/><path class="cls-23" d="M379.2,354.33l.49,71a5.76,5.76,0,0,0,5.76,5.77H533.64a5.77,5.77,0,0,0,5.77-5.77l-.49-71Z"/><path class="cls-21" d="M539.41,337v100.1a5.77,5.77,0,0,1-5.77,5.76H385.45a5.76,5.76,0,0,1-5.76-5.76V337"/><path class="cls-22" d="M539.41,330.61v100.1a5.78,5.78,0,0,1-5.77,5.77H385.45a5.77,5.77,0,0,1-5.76-5.77V330.61"/><path class="cls-23" d="M379.2,354.33l.49,76.38a5.77,5.77,0,0,0,5.76,5.77H533.64a5.78,5.78,0,0,0,5.77-5.77l-.49-76.38"/><polygon class="cls-21" points="459.09 364.37 390.72 364.37 390.88 425.34 459.24 425.34 459.09 364.37"/><path class="cls-10" d="M390.9,425.34h68.15l0-14.48-12.38-12.38a7.48,7.48,0,0,0-10.59,0h0a7.5,7.5,0,0,1-10.59,0l-8.31-8.31a7.49,7.49,0,0,0-10.6,0l-15.7,15.7Z"/><circle class="cls-10" cx="397.59" cy="340.28" r="7.63"/><circle class="cls-23" cx="436.39" cy="379.71" r="9.74"/><path class="cls-6" d="M401.67,285.05h0a3.43,3.43,0,0,1,3.43,3.43v7.85a0,0,0,0,1,0,0h-6.85a0,0,0,0,1,0,0v-7.85a3.43,3.43,0,0,1,3.43-3.43Z" transform="translate(-87.9 369.17) rotate(-45)"/><path class="cls-6" d="M404.8,285.05h0a3.43,3.43,0,0,1,3.43,3.43v7.85a0,0,0,0,1,0,0h-6.85a0,0,0,0,1,0,0v-7.85a3.43,3.43,0,0,1,3.43-3.43Z" transform="translate(324.11 -201.09) rotate(45)"/><circle class="cls-6" cx="424.73" cy="291.4" r="5.76"/><polyline class="cls-6" points="428.22 294.72 431.11 295.13 428.52 291.51"/><path class="cls-6" d="M516.19,292.94l6.33,4.33a.24.24,0,0,0,.38-.2V285.66a.24.24,0,0,0-.24-.24H509.74a.23.23,0,0,0-.23.24V297a.23.23,0,0,0,.37.19l6-4.21A.23.23,0,0,1,516.19,292.94Z"/><path class="cls-6" d="M476.63,367.45h0a3.43,3.43,0,0,1,3.43,3.43v7.85a0,0,0,0,1,0,0H473.2a0,0,0,0,1,0,0v-7.85a3.43,3.43,0,0,1,3.43-3.43Z" transform="translate(-124.22 446.31) rotate(-45)"/><path class="cls-6" d="M479.76,367.45h0a3.43,3.43,0,0,1,3.43,3.43v7.85a0,0,0,0,1,0,0h-6.85a0,0,0,0,1,0,0v-7.85A3.43,3.43,0,0,1,479.76,367.45Z" transform="translate(404.34 -229.96) rotate(45)"/><circle class="cls-6" cx="499.69" cy="373.8" r="5.76"/><polyline class="cls-6" points="503.18 377.12 506.07 377.53 503.48 373.92"/><path class="cls-6" d="M518.65,418.34l6.33,4.32a.23.23,0,0,0,.37-.19V411.06a.23.23,0,0,0-.23-.24H512.2a.24.24,0,0,0-.24.24v11.29a.24.24,0,0,0,.38.2l6-4.21A.23.23,0,0,1,518.65,418.34Z"/><rect class="cls-21" x="446.12" y="286.71" width="53.71" height="0.9"/><rect class="cls-21" x="446.12" y="290.92" width="53.71" height="0.9"/><rect class="cls-21" x="446.12" y="295.13" width="32.56" height="0.9"/><rect class="cls-21" x="471.64" y="388.44" width="53.71" height="0.9"/><rect class="cls-21" x="471.64" y="392.65" width="53.71" height="0.9"/><rect class="cls-21" x="471.64" y="396.86" width="32.56" height="0.9"/><path class="cls-4" d="M496.15,489.57c4,2.52,7.72,5.48,11.73,8,1.41.89,2.79-.32,3-1.7.43-3.3.24-8.67-3.62-9.86-1.81-.56-5.75,0-7,1.62s.49,3.34,2.25,3.3c2.54-.06,2.55-4,0-4-.57,0-.51-.28.31.19l.9,1.18v0l-.51,1.92c-.27.31-.73.22-.18.19a4.74,4.74,0,0,0,1-.27c.51-.13,1.49-.58,2-.37s.81,1.42.9,2a14.44,14.44,0,0,1,0,4.1l3-1.71c-4-2.52-7.72-5.47-11.73-8-2.17-1.36-4.15,2.06-2,3.41Z"/><path class="cls-24" d="M240.18,603.59s27.68,24.62,45.6,27.33,57.68,3.89,57.68,3.89"/><path class="cls-2" d="M245.56,624,257,632.79c.51.38,1-.48.5-.86q-5.75-4.36-11.48-8.74c-.51-.38-1,.47-.5.85Z"/><path class="cls-2" d="M221.58,580.43a.44.44,0,0,0,.36.18,39.34,39.34,0,0,0,5.43,0c2.64-.59,5.33-9.31,3.21-11.26s-3.21-3.54-1.91-5a2.46,2.46,0,0,1,2.58-.46.93.93,0,0,0,1.18-.88,2.18,2.18,0,0,1,0-.25,5.37,5.37,0,0,1,3.5-4.83c2.65-1,5.73-2.93,5.22-6.28-.81-5.37-14.65-4.55-20.17,2.5a12.3,12.3,0,0,1-2.82,2.51c-1.5,1-3.52,3.11-4,7.26C213.32,570.26,220.47,579.11,221.58,580.43Z"/><path class="cls-2" d="M216.64,697a388,388,0,0,1,21.49,42.49c.26.58,1.11.08.86-.5a388,388,0,0,0-21.5-42.49.49.49,0,0,0-.85.5Z"/><path class="cls-2" d="M486.09,688.76l20.15,25.49c.4.5,1.09-.2.7-.7l-20.15-25.49c-.39-.5-1.09.2-.7.7Z"/><path class="cls-2" d="M498.51,668.5a84.06,84.06,0,0,0,5.57-6.37c.39-.5-.31-1.2-.7-.7a84.21,84.21,0,0,1-5.56,6.37c-.45.46.25,1.16.69.7Z"/><rect class="cls-13" x="659.48" y="577.78" width="31.6" height="38.93" rx="15.8"/><rect class="cls-13" x="603.44" y="536.59" width="31.6" height="38.93" rx="15.8"/></svg>