<svg id="Layer_1" data-name="Layer 1" xmlns="http://www.w3.org/2000/svg" viewBox="0 0 1000 1000"><defs><style>.cls-1{fill:#d18c3d;}.cls-2{fill:#b7793b;}.cls-3,.cls-4{fill:#3a3144;}.cls-12,.cls-20,.cls-21,.cls-4,.cls-7{stroke:#3a3144;}.cls-12,.cls-13,.cls-15,.cls-16,.cls-19,.cls-20,.cls-21,.cls-22,.cls-4,.cls-7,.cls-9{stroke-miterlimit:10;}.cls-19,.cls-4,.cls-7{stroke-width:20px;}.cls-5{fill:#ffece5;}.cls-6{fill:#ffd8c5;}.cls-12,.cls-13,.cls-15,.cls-16,.cls-19,.cls-20,.cls-21,.cls-22,.cls-7,.cls-9{fill:none;}.cls-8{fill:#ffa97f;}.cls-15,.cls-16,.cls-9{stroke:#3eb7b2;}.cls-9{stroke-width:30px;}.cls-10{fill:#3eb7b2;}.cls-11{fill:#385a7d;}.cls-12,.cls-13{stroke-width:80px;}.cls-13{stroke:#385a7d;}.cls-14{fill:#e8a54f;}.cls-15,.cls-16,.cls-20{stroke-linecap:round;}.cls-15{stroke-width:8px;}.cls-16{stroke-width:6px;}.cls-17{fill:#f99192;}.cls-18{fill:#124a9b;}.cls-19{stroke:#f97171;}.cls-20{stroke-width:10px;}.cls-21{stroke-width:15px;}.cls-22{stroke:#e8a54f;stroke-width:50px;}</style></defs><title>Flat Illustration</title><path class="cls-1" d="M664.7,854.74c0,3.29-5.5,35.07-8,49.11a8,8,0,0,1-7.87,6.61H587.15a7.16,7.16,0,0,1-6.86-9.18c1.71-5.88,6.18-12.73,17.52-14.5,15.66-2.44,15.42-46,15.42-46"/><path class="cls-2" d="M609,873.16a237.66,237.66,0,0,0,50.65,14.15c2.44-14.28,5.09-30.29,5.09-32.57l-51.47-14S613.33,859.55,609,873.16Z"/><path class="cls-1" d="M861.34,834.87l15.95,69.41a5.06,5.06,0,0,1-4.92,6.18h-63.9a3.87,3.87,0,0,1-3.84-3.43C804,902,804.5,892.66,815,889c10.23-3.6-1.3-29.32-6.52-40.39"/><path class="cls-2" d="M861.34,834.87l-52.86,13.69c3.2,6.78,8.74,19,10.23,28.36,15.5-4.11,31.75-9.21,48.73-15.47Z"/><path class="cls-3" d="M776.35,243.21s-11.09,3.07-12.06,9.26,6.62,9,6.62,9-3.15,4.19,0,6.33,13.25,1.6,13.68-1.23.44-19.22.44-19.22"/><path class="cls-4" d="M462.33,567.32a23,23,0,0,1-23-23V455.36H327.72v99.79a23,23,0,0,0,23,23h109.8a5.41,5.41,0,0,0,5.42-5.41v-1.81a3.6,3.6,0,0,0-3.61-3.61Z"/><rect class="cls-4" x="87.05" y="84.71" width="579.63" height="418.4" rx="30.3"/><rect class="cls-5" x="98.13" y="84.71" width="579.63" height="418.4" rx="30.3"/><path class="cls-6" d="M98.87,108.36H677a30.3,30.3,0,0,0-29.55-23.65H128.42A30.3,30.3,0,0,0,98.87,108.36Z"/><rect class="cls-7" x="98.13" y="84.71" width="579.63" height="418.4" rx="30.3"/><path class="cls-3" d="M98.13,455.36v17.46a30.29,30.29,0,0,0,30.29,30.29H647.47a30.29,30.29,0,0,0,30.29-30.29V455.36Z"/><rect class="cls-8" x="379.06" y="474.14" width="17.77" height="17.77" rx="5"/><path class="cls-9" d="M797.16,290.89c2.48,9.08,3.19,25.08,6.13,34"/><path class="cls-3" d="M783.87,301l1.63,10.46s16.7,0,18.41-14.09A33.32,33.32,0,0,1,783.87,301Z"/><path class="cls-1" d="M770,323.38s0-11.08,9.89-11.88c8.48-.68,44-1.19,47.24,0s3.9,13.87,2.93,16.8"/><path class="cls-10" d="M794.71,249.12h0A22.24,22.24,0,0,1,817,271.36v6.9a28.64,28.64,0,0,1-28.64,28.64h0A15.85,15.85,0,0,1,772.47,291V271.36a22.24,22.24,0,0,1,22.24-22.24Z" transform="translate(39.56 -94.28) rotate(6.96)"/><circle class="cls-3" cx="779.35" cy="276.96" r="1.61"/><path class="cls-3" d="M778.27,269.87a8.71,8.71,0,0,1,2.43.35,1,1,0,0,0,.53-1.93,10.59,10.59,0,0,0-3-.42,1,1,0,0,0,0,2Z"/><path class="cls-10" d="M769.82,283.07c0,2.33,2.4,5.52,5.16,5l-.5-6.43c0-.43-2.19-.87-2.54-.84A2.11,2.11,0,0,0,769.82,283.07Z"/><circle class="cls-11" cx="802.38" cy="426.9" r="44.29"/><path class="cls-12" d="M800.23,426.9s-96.42,145.39-114,211.2-48.56,226.75-48.56,226.75"/><path class="cls-13" d="M812.41,418.81c.17,150.87-11,206.12-5.64,258.46,11.15,108,29.79,177.47,29.79,177.47"/><path class="cls-3" d="M761.52,409.83l89.17,93.28s7.7-92.91-1.92-106.43"/><path class="cls-14" d="M834,319.88l-63.75.64A25.63,25.63,0,0,0,745,347.88l3.91,57.49a9.19,9.19,0,0,0,8.36,8.54l93.26,8.29a9.21,9.21,0,0,0,9.93-7.87L868.29,359A34.26,34.26,0,0,0,834,319.88Z"/><path class="cls-15" d="M878.34,125.63c0,2.15,4.18,12.19,1.46,27"/><path class="cls-10" d="M861.43,188.57l28.13-28.34S870.64,115.75,848.87,129C829,141.06,861.43,188.57,861.43,188.57Z"/><path class="cls-16" d="M841,118.35s19.38-.66,34.28,23"/><path class="cls-16" d="M854.48,132.69c-.19-.21-11.88-5.94-20.59-4.71"/><path class="cls-16" d="M847,141.66c-.21-.18-7.7-5.8-16.08-3.14"/><path class="cls-16" d="M846.7,154.68c-.18-.21-6.63-7-15.34-5.77"/><path class="cls-17" d="M209.58,802.14a185,185,0,0,1,13.35-54.09c2.51-6,5.5-12.15,10.59-16.23,4.42-3.54,10.32-5.48,13.36-10.26,2.89-4.56,2.58-10.9,6.37-14.75,4.05-4.1,10.78-3.46,16.09-5.71,9.05-3.84,12.69-15.39,21.5-19.75,7.24-3.58,15.9-1.35,23.91-2.44,7.21-1,13.73-4.65,20.6-7,10.57-3.69,21.9-4.36,33.07-5a12.86,12.86,0,0,1,5.73.54c4.76,2,5.32,8.47,4.71,13.6-1.16,9.85-4.73,20.69-13.67,25-6.5,3.12-14.38,2-21,5-15.31,6.86-16.88,31.91-33.09,36.29-10.13,2.75-22.8-4-30.55,3-4.39,4-5.25,11.3-10.43,14.25-4.35,2.48-9.75.78-14.64-.33s-11.09-1-13.6,3.31c-2.33,4-.59,10.53-4.73,12.67a10.7,10.7,0,0,1-4.3.72c-11.83.66-22.21,11.38-22.49,23.21"/><path class="cls-18" d="M173.35,793.84c-.53-8-9-12.75-16.39-15.85s-16-7.37-17.1-15.31c-.43-3,.31-6.2-.79-9-1.57-4-6.11-5.74-9.93-7.73s-7.72-5.82-6.44-9.92c1.37-4.39,8.2-7.5,6-11.53a5.4,5.4,0,0,0-1.88-1.83c-2.54-1.67-5.53-2.61-8-4.43s-4.29-5.05-3.16-7.87c.52-1.32,1.66-2.52,1.44-3.92-.19-1.18-1.27-2-2.25-2.66-4.54-3.19-9-7.71-8.93-13.27.06-4.33,2.9-8.15,3.61-12.42.83-5-1.34-10-3.46-14.67a134.65,134.65,0,0,0-7.43-14.62c-4.63-7.53-10.77-14.18-14.21-22.32S81,607.73,87.66,601.88c5.89-5.21,15.17-4.84,22.16-1.23S122,610.48,127,616.56s10.13,12.35,17,16.1c5.54,3,11.86,4.19,17.64,6.69s11.38,6.94,12.47,13.14c.77,4.46-.91,8.91-1.83,13.34s-.78,9.69,2.65,12.63c2.1,1.81,5,2.32,7.54,3.44,7.51,3.29,11.67,12.74,9,20.5-1.63,4.77-5.45,9.68-3.33,14.25,2.45,5.29,11,5.34,13.34,10.69,1.76,4.07-1.19,8.48-3.59,12.2s-4.16,9.21-.82,12.12c1.27,1.11,3,1.53,4.29,2.63a5.23,5.23,0,0,1,1.53,5.37c-1,3.31-5.33,5.44-4.93,8.89a12.16,12.16,0,0,0,1.33,3.3c2.25,5.13-.65,10.91-3.11,15.94s-4.37,11.57-.71,15.81a2.26,2.26,0,0,0,2.07,1c.78-.19,1-1.54.27-1.74"/><path class="cls-8" d="M182.61,802.28a37.35,37.35,0,0,0,2.68-26.67c-1.35-4.89-3.7-9.47-4.94-14.39s-1.2-10.54,1.87-14.58c2.1-2.78,5.42-4.55,7.06-7.62,5.09-9.47-9.5-19.89-6.84-30.31,2.33-9.15,16.41-11.79,17.78-21.13.88-6-4.23-12-2.44-17.78,1.59-5.12,7.66-7.28,10.84-11.59,8-10.83-5.87-26.38-1.52-39.11,1.56-4.54,5.23-8,7.85-12,10-15.34,4.22-38.36,17.16-51.27,3.65-3.64,8.44-6,12-9.75,5.22-5.51,7.11-13.32,8.46-20.79S255,510,259.17,503.66s12.38-10.82,19.44-8c8.05,3.21,10.34,13.72,9.14,22.31s-4.7,17.06-3.61,25.67c1.16,9.24,7.42,17,10,26a34,34,0,0,1-4.9,28.57c-6.77,9.51-18.89,16.46-19.74,28.11-1,14.09,15.78,26.07,11.9,39.66-2.38,8.36-12,13.55-13.09,22.18-.57,4.64,1.56,9.18,1.83,13.84a18,18,0,0,1-12.26,17.63c-2.08.64-4.31.91-6.18,2-6.77,4-4.35,15.6-10.51,20.52-3,2.39-7.41,2.58-10.17,5.25-5.22,5-1,14.37-4.37,20.78-2.37,4.48-7.91,6.45-10.67,10.7a21.51,21.51,0,0,0-2.39,6.23L206.63,811"/><path class="cls-6" d="M126,819.19c0,36,10.45,68.12,26.87,89.46a17.22,17.22,0,0,0,13.67,6.64H234.4a17.22,17.22,0,0,0,13.68-6.64c16.42-21.34,26.86-53.49,26.86-89.46,0-2.71-.05-5.4-.17-8.06a17.41,17.41,0,0,0-17.4-16.65H143.56a17.4,17.4,0,0,0-17.39,16.65Q126,815.12,126,819.19Z"/><path class="cls-5" d="M247.54,576.52v-1a.5.5,0,0,0-1,0v1a.5.5,0,0,0,1,0Z"/><path class="cls-5" d="M264.63,570.18a.5.5,0,0,0,0-1,.5.5,0,0,0,0,1Z"/><path class="cls-5" d="M264.18,563.81v-1a1.5,1.5,0,0,0-3,0v1a1.5,1.5,0,0,0,3,0Z"/><path class="cls-5" d="M271.47,581.93a1.5,1.5,0,0,0,0-3,1.5,1.5,0,0,0,0,3Z"/><path class="cls-5" d="M236.29,600.5a1.5,1.5,0,0,0,0-3,1.5,1.5,0,0,0,0,3Z"/><path class="cls-5" d="M259.43,584.25c.35,3.64-1.68,6.6-3.64,9.48a49.91,49.91,0,0,0-4.84,8.69,44.23,44.23,0,0,0-3.38,20.23c.28,3.91,1.42,7.84.91,11.77-.44,3.35-2.43,6-4.41,8.65a27.65,27.65,0,0,0-4.28,7c-1.09,3-.73,6-.1,9,.91,4.4,1,8.19-.94,12.34a47.88,47.88,0,0,1-6.94,10c-1.23,1.47.88,3.6,2.12,2.12,4.21-5,8.66-10.55,9.43-17.28.43-3.81-1-7.28-1.28-11-.28-3.45,1.37-6.26,3.33-9,1.76-2.41,3.72-4.7,4.93-7.45,1.51-3.45,1.37-7,.89-10.71-1-7.74-1-15.06,1.69-22.51a53,53,0,0,1,6.13-11.33c2-3,3.74-6.26,3.38-10-.18-1.9-3.19-1.92-3,0Z"/><path class="cls-5" d="M225.54,696.28a1.5,1.5,0,0,0,0-3,1.5,1.5,0,0,0,0,3Z"/><path class="cls-5" d="M217.2,710.5a14.52,14.52,0,0,0-6.33,10.29c-.56,4.82,2.32,9.05.85,13.88-2.19,7.21-9.49,13.8-6.67,21.88.63,1.81,3.53,1,2.89-.79-2.41-6.91,4.38-13.52,6.48-19.7,1.26-3.68.77-6.79-.18-10.48a11.43,11.43,0,0,1,4.47-12.49c1.58-1.08.09-3.68-1.51-2.59Z"/><path class="cls-5" d="M201.1,772.52a1.5,1.5,0,0,0,0-3,1.5,1.5,0,0,0,0,3Z"/><path class="cls-5" d="M200.12,782.29a1.5,1.5,0,0,0,0-3,1.5,1.5,0,0,0,0,3Z"/><path class="cls-8" d="M341.19,688.68a22,22,0,0,0-16.35,2.82c-5.41,3.35-8.07,8.28-9.95,14.18-1.09,3.42-2.39,6.53-5.45,8.61a31.27,31.27,0,0,1-7.69,3.39c-4.91,1.67-9.83,3.37-13,7.74-1.13,1.57,1.47,3.07,2.59,1.52,3.08-4.27,8.65-5.42,13.31-7.11s8.91-3.91,11.23-8.42c1.38-2.68,2-5.66,3.05-8.45a17.88,17.88,0,0,1,4.95-7.06,19.06,19.06,0,0,1,16.5-4.33c1.88.42,2.68-2.47.79-2.89Z"/><path class="cls-8" d="M273.43,732.45a1.5,1.5,0,0,0,0-3,1.5,1.5,0,0,0,0,3Z"/><path class="cls-8" d="M258.77,736.26a5.55,5.55,0,0,0-5.16,2.75,1.5,1.5,0,0,0,2.59,1.51,2.58,2.58,0,0,1,2.57-1.26,1.5,1.5,0,0,0,0-3Z"/><path class="cls-8" d="M348.68,685.53a1.5,1.5,0,0,0,0-3,1.5,1.5,0,0,0,0,3Z"/><path class="cls-8" d="M352.59,703.12a1.5,1.5,0,0,0,0-3,1.5,1.5,0,0,0,0,3Z"/><path class="cls-8" d="M362.37,690.42a1.5,1.5,0,0,0,0-3,1.5,1.5,0,0,0,0,3Z"/><path class="cls-8" d="M123,642a27,27,0,0,1,10,21.1c.05,7.06-.45,13.94,5.57,18.8,4.92,4,12.56,6,14.19,12.83,1.58,6.6-1.31,14.56,5,19.36,1,.78,2-1,1-1.73-6.55-5-1.49-15.47-5.62-21.9-3.21-5-9.28-6.67-13.62-10.37-6.45-5.49-3.78-13.93-4.78-21.29a28.5,28.5,0,0,0-10.31-18.21c-1-.81-2.41.6-1.41,1.41Z"/><path class="cls-8" d="M164.94,726.56a.5.5,0,0,0,0-1,.5.5,0,0,0,0,1Z"/><path class="cls-8" d="M161,718.74a.5.5,0,0,0,0-1,.5.5,0,0,0,0,1Z"/><path class="cls-8" d="M170.32,735l2,4.89c.23.59,1.2.33,1-.27l-2-4.89c-.23-.59-1.2-.33-1,.27Z"/><path class="cls-8" d="M102.39,623.93h2a.5.5,0,0,0,0-1h-2a.5.5,0,0,0,0,1Z"/><path class="cls-8" d="M116.07,625.89a.5.5,0,0,0,0-1,.5.5,0,0,0,0,1Z"/><path class="cls-8" d="M116.07,638.6a.5.5,0,0,0,0-1,.5.5,0,0,0,0,1Z"/><circle class="cls-19" cx="299.28" cy="278.57" r="122.04"/><circle class="cls-19" cx="299.28" cy="278.57" r="74.78"/><circle class="cls-19" cx="299.28" cy="278.57" r="27.9"/><line class="cls-20" x1="299.28" y1="278.57" x2="488.73" y2="278.57"/><polyline class="cls-21" points="443.69 300.63 420.75 277.7 443.69 254.76"/><polyline class="cls-21" points="474.02 300.63 451.09 277.7 474.02 254.76"/><polyline class="cls-21" points="504.35 300.63 481.42 277.7 504.35 254.76"/><path class="cls-15" d="M575.48,231.55c.66,2,7.5,10.48,9.13,25.41"/><path class="cls-10" d="M577.31,296.69l18.83-35.21s-30.86-37.2-47.93-18.3C532.58,260.47,577.31,296.69,577.31,296.69Z"/><path class="cls-16" d="M537.66,235.25s18.38-6.18,39.44,12.24"/><path class="cls-16" d="M554.64,245.14c-.23-.14-13.08-2.28-21.07,1.39"/><path class="cls-16" d="M550,255.88c-.26-.1-9-3.35-16.31,1.6"/><path class="cls-16" d="M553.49,268.44c-.24-.15-8.36-4.81-16.35-1.14"/><path class="cls-3" d="M776.62,289.47a10.63,10.63,0,0,0,5.62-2.76c1-.87-.46-2.28-1.41-1.41a8.91,8.91,0,0,1-4.74,2.24c-1.27.2-.73,2.13.53,1.93Z"/><path class="cls-3" d="M772.4,258.55a20.16,20.16,0,0,0,17.89,2.93s-4.88.82-3.58,3.75,6.52,1,6.52,1l.45,6.3a1.12,1.12,0,0,0,1.87.74,4.22,4.22,0,0,1,3.87-1.17c3.42.81,4.23,9.28-1.31,9.94l2.36,4.42a16.42,16.42,0,0,0,13,8.61h0s9.45-18,8.48-26.17c0,0,5.52,3.07,5.92-4.75.23-4.59-6.26-6.06-6.26-6.06s6.48.75,3.75-4.07c-3.62-6.39-10.06-8.13-14-7.42a8.65,8.65,0,0,1-6.48-1.5c-4.72-3.31-14.44-7.36-29.82-1.34-12.49,4.88,4,6.7,4,6.7S762,251.22,772.4,258.55Z"/><path class="cls-22" d="M841.28,342s71.35-41.05,76.24-78.19-51-107.23-51-107.23"/><path class="cls-22" d="M780.9,345.73s-81.68-6-114.26-22.07-92-56.45-92-56.45"/><path class="cls-3" d="M748,343.07a43.86,43.86,0,0,0-2.32,22.06c.18,1.27,2.11.73,1.92-.53a41.93,41.93,0,0,1,2.33-21c.45-1.21-1.48-1.73-1.93-.54Z"/><path class="cls-3" d="M857.41,360.38l7.47-3.95c1.14-.6.13-2.32-1-1.72l-7.47,3.94c-1.14.6-.13,2.33,1,1.73Z"/><path class="cls-3" d="M572.5,243.63A27.43,27.43,0,0,0,569.29,264c.29,1.25,2.21.72,1.93-.53a25.27,25.27,0,0,1,3-18.85,1,1,0,0,0-1.73-1Z"/><path class="cls-3" d="M817.81,887.56a7.27,7.27,0,0,1,5,1.31c1.06.74,2.06-1,1-1.73a9,9,0,0,0-6-1.58c-1.27.13-1.28,2.13,0,2Z"/><path class="cls-3" d="M818.8,879.87a11.38,11.38,0,0,1,7.63,2.15c1,.75,2-1,1-1.73a13.15,13.15,0,0,0-8.63-2.42c-1.27.09-1.28,2.09,0,2Z"/><path class="cls-3" d="M816.71,872.79a9.92,9.92,0,0,1,7.69.27c1.16.53,2.18-1.19,1-1.73a11.93,11.93,0,0,0-9.23-.47c-1.2.43-.68,2.36.53,1.93Z"/><path class="cls-3" d="M602.53,884.09a3.67,3.67,0,0,1,3.22,3.23c.11,1.28,2.11,1.29,2,0a5.66,5.66,0,0,0-4.69-5.16c-1.26-.18-1.8,1.75-.53,1.93Z"/><path class="cls-3" d="M606.14,877.39a7.14,7.14,0,0,1,5.17,4c.56,1.16,2.29.14,1.72-1a9,9,0,0,0-6.35-4.88c-1.26-.24-1.8,1.69-.54,1.93Z"/><path class="cls-3" d="M609.32,869.7a8,8,0,0,1,6,3.8c.68,1.09,2.41.09,1.73-1a10.14,10.14,0,0,0-7.7-4.79c-1.28-.13-1.27,1.87,0,2Z"/><path class="cls-3" d="M787.66,316.55l-2,1.79a2.12,2.12,0,0,0,0,3.13l.87.83a2.1,2.1,0,0,1,.59,2.08l-17.73,67.09a2.14,2.14,0,0,0,.34,1.8l4.12,5.63a2.13,2.13,0,0,0,2.95.48l12.55-8.9a2.14,2.14,0,0,0,.89-1.74V324a2.12,2.12,0,0,1,.76-1.62l1.19-1a2.13,2.13,0,0,0,.1-3.17l-1.71-1.64A2.13,2.13,0,0,0,787.66,316.55Z"/></svg>