<svg id="_01" data-name="01" xmlns="http://www.w3.org/2000/svg" xmlns:xlink="http://www.w3.org/1999/xlink" viewBox="0 0 4680 3120"><defs><style>.cls-1{fill:#dce6ef;}.cls-2{fill:#d9e7f9;}.cls-3{fill:#f7bd7d;}.cls-4{fill:#e64156;}.cls-5{fill:#6a81bb;}.cls-6{fill:#55a56b;}.cls-7{fill:#96cda8;}.cls-8{fill:#da6b51;}.cls-9{fill:#f2c153;}.cls-10{fill:#f49657;}.cls-11{fill:#7d4162;}.cls-12{fill:#e64155;}.cls-13{fill:#f5ac5d;}.cls-14{fill:#592a21;}.cls-15{fill:#e24444;}.cls-16{fill:#b2422b;}.cls-17{fill:#2b3272;}.cls-18{fill:#4b4f98;}.cls-19,.cls-57{fill:#fff;}.cls-20{fill:#737bc6;}.cls-21{fill:#5e6cbc;}.cls-22{fill:#ffd071;}.cls-23{fill:#8c3b68;}.cls-24{fill:#ffe799;}.cls-25{clip-path:url(#clip-path);}.cls-26{fill:#b8cddd;}.cls-27{fill:#acc2e2;}.cls-28{clip-path:url(#clip-path-2);}.cls-114,.cls-29,.cls-31,.cls-32,.cls-33,.cls-34,.cls-36,.cls-37,.cls-67{fill:none;}.cls-29,.cls-36{stroke:#aac8e8;}.cls-29,.cls-36,.cls-37,.cls-67{stroke-miterlimit:10;}.cls-29{stroke-width:5px;}.cls-30{fill:#66aad3;}.cls-31,.cls-32,.cls-33,.cls-34{stroke:#66aad3;}.cls-114,.cls-31,.cls-32,.cls-33,.cls-34{stroke-linecap:round;stroke-linejoin:round;}.cls-31,.cls-32,.cls-33,.cls-34,.cls-37{stroke-width:7px;}.cls-32{stroke-dasharray:23.89 23.89;}.cls-33{stroke-dasharray:22.95 22.95;}.cls-34{stroke-dasharray:24.38 24.38;}.cls-35{fill:#9bccea;}.cls-36{stroke-width:6px;}.cls-37{stroke:#9bccea;}.cls-38{clip-path:url(#clip-path-3);}.cls-39{fill:#e2a833;}.cls-40{clip-path:url(#clip-path-4);}.cls-41{clip-path:url(#clip-path-5);}.cls-42{fill:#f4bb56;opacity:0.65;}.cls-43{clip-path:url(#clip-path-6);}.cls-44{fill:#ffd876;}.cls-45{clip-path:url(#clip-path-7);}.cls-46{fill:#f9bd55;}.cls-47{clip-path:url(#clip-path-8);}.cls-48{fill:#dba231;opacity:0.62;}.cls-49{fill:#fff7d4;}.cls-50{clip-path:url(#clip-path-9);}.cls-51{clip-path:url(#clip-path-10);}.cls-52{clip-path:url(#clip-path-11);}.cls-53{fill:#e09851;}.cls-54{clip-path:url(#clip-path-12);}.cls-55{fill:#a51638;opacity:0.66;}.cls-56{fill:#930f35;}.cls-57{opacity:0.18;}.cls-58{clip-path:url(#clip-path-13);}.cls-59{clip-path:url(#clip-path-14);}.cls-60{clip-path:url(#clip-path-15);}.cls-61{fill:#3a5b8c;}.cls-62{clip-path:url(#clip-path-16);}.cls-63{clip-path:url(#clip-path-17);}.cls-64{clip-path:url(#clip-path-18);}.cls-65{fill:#358748;}.cls-66{clip-path:url(#clip-path-19);}.cls-67{stroke:#579167;}.cls-114,.cls-67{stroke-width:3px;}.cls-68{fill:#5e8e6b;opacity:0.56;}.cls-69{clip-path:url(#clip-path-20);}.cls-70{fill:#c4543d;}.cls-71{fill:#d85645;}.cls-72{clip-path:url(#clip-path-21);}.cls-73{fill:#ed7829;}.cls-74{clip-path:url(#clip-path-22);}.cls-75{clip-path:url(#clip-path-23);}.cls-76{clip-path:url(#clip-path-24);}.cls-77{fill:#562243;}.cls-78{clip-path:url(#clip-path-25);}.cls-79{clip-path:url(#clip-path-26);}.cls-80{fill:#b21d36;}.cls-81{clip-path:url(#clip-path-27);}.cls-82{fill:#e58f39;}.cls-83{clip-path:url(#clip-path-28);}.cls-84{fill:#ffc7d3;}.cls-106,.cls-84{opacity:0.28;}.cls-85{clip-path:url(#clip-path-29);}.cls-86{fill:url(#radial-gradient);}.cls-87{clip-path:url(#clip-path-30);}.cls-88{fill:#fefeff;}.cls-89{fill:#d87736;}.cls-90{fill:#373f89;}.cls-91{clip-path:url(#clip-path-31);}.cls-92{fill:#930707;}.cls-93{clip-path:url(#clip-path-32);}.cls-94{fill:#9e352a;opacity:0.43;}.cls-95{clip-path:url(#clip-path-33);}.cls-96{fill:#912716;}.cls-97{clip-path:url(#clip-path-34);}.cls-98{fill:#1a224f;opacity:0.61;}.cls-99{clip-path:url(#clip-path-35);}.cls-100{clip-path:url(#clip-path-36);}.cls-101{fill:#353c7c;}.cls-102{clip-path:url(#clip-path-37);}.cls-103{clip-path:url(#clip-path-38);}.cls-104{clip-path:url(#clip-path-39);}.cls-105{fill:#3a428c;}.cls-106{fill:#3b417f;}.cls-107{fill:#e3e7ff;}.cls-108{clip-path:url(#clip-path-40);}.cls-109{clip-path:url(#clip-path-41);}.cls-110{fill:#681349;}.cls-111{fill:#e2aac9;opacity:0.54;}.cls-112{clip-path:url(#clip-path-42);}.cls-113{fill:url(#radial-gradient-2);}.cls-114{stroke:#592a21;}.cls-115{clip-path:url(#clip-path-43);}.cls-116{fill:#232966;}.cls-117{fill:#363e87;}</style><clipPath id="clip-path"><ellipse class="cls-1" cx="2391.22" cy="2592.08" rx="1272.53" ry="167.92"/></clipPath><clipPath id="clip-path-2"><path class="cls-2" d="M2234.08,1999c588.41,53.49,1266.37-206.44,1361.88-684S3485,597,3210.82,550.79,2696.26,658.63,2194,455.27s-1148.6-115.82-1177,603.92C989.28,1761.7,1725.68,1952.73,2234.08,1999Z"/></clipPath><clipPath id="clip-path-3"><path class="cls-9" d="M2690.42,888.7l.34-.65.24-.45.44-.81.84-1.48,1.61-2.78c1.07-1.8,2.11-3.55,3.17-5.27,2.12-3.43,4.27-6.76,6.46-10,4.38-6.54,8.86-12.91,13.52-19.12s9.5-12.26,14.46-18.2,10.07-11.75,15.36-17.41a409.67,409.67,0,0,1,33.69-32.15,347.9,347.9,0,0,1,37.71-27.91,306.31,306.31,0,0,1,86.33-38.54,289.69,289.69,0,0,1,46.72-8.46c3.93-.44,7.87-.66,11.8-.94s8.13-.38,12.19-.37c8.14,0,16.27.32,24.36,1.1A235.36,235.36,0,0,1,3206.05,885.3c7.51,31.64,8.42,64.36,4.22,95.72a319.19,319.19,0,0,1-9.89,46,343.68,343.68,0,0,1-16.21,43.78,333.84,333.84,0,0,1-50.54,78.3,407.33,407.33,0,0,1-31.57,33c-11,10.33-22.44,20-34.13,29.15a722.29,722.29,0,0,1-72.55,49.36c-24.75,14.9-49.77,28.66-74.61,42.09s-49.45,26.63-73,40.71c-11.78,7-23.25,14.33-34.11,22.1a236.27,236.27,0,0,0-30.06,25c-8.94,9-16.45,18.7-21.39,29a64.69,64.69,0,0,0-6.26,32.75l.06.92a7.48,7.48,0,0,1,0,.82,24.26,24.26,0,0,0,4.46,14.57,37.68,37.68,0,0,0,13.52,11.78,42.28,42.28,0,0,0,18,4.91,38.3,38.3,0,0,0,17.84-3.5,39.39,39.39,0,0,0,7.88-4.86,44.39,44.39,0,0,0,6.9-6.69c1.06-1.21,2.16-2.71,2.84-3.65a18.44,18.44,0,0,0,1.45-2.93,22.82,22.82,0,0,0,1.59-7.3,23.93,23.93,0,0,0-.84-7.5,19.59,19.59,0,0,0-3-6.33,11.47,11.47,0,0,0-4-3.55,5.38,5.38,0,0,0-3.34-.48,19,19,0,0,1-6.71-37.4,19.26,19.26,0,0,1,5.5-.18l4.14.49a44.29,44.29,0,0,1,10.87,2.71,42.79,42.79,0,0,1,9.6,5.26,47.53,47.53,0,0,1,13.4,14.93,56.33,56.33,0,0,1,6.44,17.28,57.92,57.92,0,0,1,.71,17.91,55.78,55.78,0,0,1-4.86,17.32,50.53,50.53,0,0,1-4.76,8.21c-.88,1.15-1.83,2.41-2.63,3.33s-1.68,2-2.57,3a77.37,77.37,0,0,1-25.81,18.89,71.64,71.64,0,0,1-31.92,6,75.4,75.4,0,0,1-31-8.2,70,70,0,0,1-25-21.09,59.22,59.22,0,0,1-8.12-15.42,54.94,54.94,0,0,1-3-17.79l.07,1.74a97.77,97.77,0,0,1,3-37.77,111.41,111.41,0,0,1,4.13-11.9,124.86,124.86,0,0,1,11.6-21.62,175.3,175.3,0,0,1,14.48-18.67,288.3,288.3,0,0,1,32.89-31.13c5.72-4.71,11.52-9.21,17.36-13.59s11.71-8.66,17.61-12.82c11.8-8.33,23.7-16.31,35.58-24.12l35.49-23.21c23.53-15.37,46.74-30.66,69-46.67a776.09,776.09,0,0,0,63.71-50.23q14.93-13.26,28.56-27.37c9-9.44,17.57-19.17,25.47-29.24a315.25,315.25,0,0,0,21.63-31.22,283.26,283.26,0,0,0,17.17-33.17c2.52-5.68,4.74-11.36,6.94-17.41,1.11-3,2.1-6,3.16-9s1.94-6,2.88-9a303.47,303.47,0,0,0,8.62-36.31,237.76,237.76,0,0,0,3.26-36.41,189.73,189.73,0,0,0-3-35.79,160.85,160.85,0,0,0-27.23-65.1,158.07,158.07,0,0,0-53.3-46.78A169.56,169.56,0,0,0,2994.28,767a162.86,162.86,0,0,0-17.81-.3c-3,.08-5.91.31-8.89.54s-6.17.58-9.22,1c-6.13.75-12.2,1.84-18.2,3.15s-11.95,2.9-17.82,4.68a229.11,229.11,0,0,0-65.85,33,280.15,280.15,0,0,0-28.79,24c-4.55,4.34-9,8.81-13.27,13.46S2806,856,2802,860.93s-7.86,10-11.57,15.09-7.24,10.42-10.61,15.77-6.61,10.75-9.55,16.21c-1.48,2.73-2.91,5.46-4.25,8.16-.67,1.35-1.32,2.68-1.91,4l-.85,1.89-.37.87-.15.37a.58.58,0,0,0,0,.13s0,.1,0,0a40.11,40.11,0,0,1-72.36-34.65Z"/></clipPath><clipPath id="clip-path-4"><path class="cls-9" d="M1783.12,888.7l-.34-.65-.24-.45-.44-.81-.84-1.48-1.61-2.78c-1.07-1.8-2.11-3.55-3.18-5.27-2.11-3.43-4.26-6.76-6.45-10-4.38-6.54-8.86-12.91-13.52-19.12s-9.5-12.26-14.46-18.2-10.08-11.75-15.36-17.41A411.28,411.28,0,0,0,1693,780.34a348,348,0,0,0-37.72-27.91A306.12,306.12,0,0,0,1569,713.89a289.69,289.69,0,0,0-46.72-8.46c-3.93-.44-7.87-.66-11.8-.94s-8.13-.38-12.2-.37c-8.13,0-16.27.32-24.35,1.1A235.36,235.36,0,0,0,1267.49,885.3c-7.52,31.64-8.43,64.36-4.22,95.72a319.19,319.19,0,0,0,9.89,46,342.17,342.17,0,0,0,16.21,43.78,333.8,333.8,0,0,0,50.53,78.3,409.17,409.17,0,0,0,31.58,33c11,10.33,22.44,20,34.13,29.15a722.29,722.29,0,0,0,72.55,49.36c24.75,14.9,49.77,28.66,74.6,42.09s49.46,26.63,73,40.71c11.78,7,23.24,14.33,34.11,22.1a236.27,236.27,0,0,1,30.06,25c8.94,9,16.45,18.7,21.39,29a64.79,64.79,0,0,1,6.26,32.75l-.06.92a7.48,7.48,0,0,0,0,.82,24.26,24.26,0,0,1-4.46,14.57,37.77,37.77,0,0,1-13.52,11.78,42.36,42.36,0,0,1-18,4.91,38.37,38.37,0,0,1-17.85-3.5,39.61,39.61,0,0,1-7.87-4.86,44.39,44.39,0,0,1-6.9-6.69c-1.06-1.21-2.16-2.71-2.84-3.65a17.62,17.62,0,0,1-1.45-2.93,22.56,22.56,0,0,1-1.59-7.3,23.93,23.93,0,0,1,.84-7.5,19.59,19.59,0,0,1,3-6.33,11.47,11.47,0,0,1,4-3.55,5.38,5.38,0,0,1,3.34-.48,19,19,0,0,0,6.71-37.4,19.32,19.32,0,0,0-5.51-.18l-4.13.49a44.48,44.48,0,0,0-10.88,2.71,42.93,42.93,0,0,0-9.59,5.26,47.53,47.53,0,0,0-13.4,14.93,56.36,56.36,0,0,0-6.45,17.28,58.23,58.23,0,0,0-.7,17.91,55.78,55.78,0,0,0,4.86,17.32,49.81,49.81,0,0,0,4.76,8.21c.88,1.15,1.83,2.41,2.63,3.33s1.68,2,2.57,3a77.37,77.37,0,0,0,25.81,18.89,71.61,71.61,0,0,0,31.92,6,75.44,75.44,0,0,0,31-8.2,70,70,0,0,0,25-21.09,59.22,59.22,0,0,0,8.12-15.42,54.94,54.94,0,0,0,3-17.79l-.07,1.74a97.77,97.77,0,0,0-3-37.77,111.41,111.41,0,0,0-4.13-11.9,124.86,124.86,0,0,0-11.6-21.62,176.61,176.61,0,0,0-14.48-18.67,288.3,288.3,0,0,0-32.89-31.13c-5.72-4.71-11.52-9.21-17.36-13.59s-11.71-8.66-17.61-12.82c-11.81-8.33-23.7-16.31-35.58-24.12l-35.49-23.21c-23.53-15.37-46.74-30.66-69-46.67a776.09,776.09,0,0,1-63.71-50.23q-14.92-13.26-28.56-27.37c-9-9.44-17.57-19.17-25.47-29.24a315.25,315.25,0,0,1-21.63-31.22,283.26,283.26,0,0,1-17.17-33.17c-2.52-5.68-4.74-11.36-6.94-17.41-1.11-3-2.1-6-3.16-9s-1.94-6-2.88-9a303.47,303.47,0,0,1-8.62-36.31,236.51,236.51,0,0,1-3.26-36.41,189.73,189.73,0,0,1,3-35.79,161,161,0,0,1,27.24-65.1,158.13,158.13,0,0,1,53.29-46.78A169.68,169.68,0,0,1,1479.25,767a163.08,163.08,0,0,1,17.82-.3c3,.08,5.91.31,8.89.54s6.16.58,9.22,1c6.13.75,12.19,1.84,18.2,3.15s11.94,2.9,17.82,4.68a229.06,229.06,0,0,1,65.84,33,279.2,279.2,0,0,1,28.8,24c4.55,4.34,9,8.81,13.26,13.46s8.4,9.46,12.4,14.37,7.85,10,11.57,15.09,7.24,10.42,10.61,15.77,6.61,10.75,9.55,16.21c1.48,2.73,2.91,5.46,4.25,8.16.67,1.35,1.32,2.68,1.91,4l.85,1.89.37.87.14.37a.36.36,0,0,1,0,.13s0,.1,0,0a40.11,40.11,0,0,0,72.36-34.65Z"/></clipPath><clipPath id="clip-path-5"><path class="cls-22" d="M2453.61,1702.13H2019.17s187.95,233.1,7.7,534.07h419C2265.66,1935.23,2453.61,1702.13,2453.61,1702.13Z"/></clipPath><clipPath id="clip-path-6"><path class="cls-24" d="M1715.41,723.34H2757.88a0,0,0,0,1,0,0v513a521.23,521.23,0,0,1-521.23,521.23h0a521.23,521.23,0,0,1-521.23-521.23v-513a0,0,0,0,1,0,0Z"/></clipPath><clipPath id="clip-path-7"><rect class="cls-22" x="1705.14" y="655.55" width="1063.01" height="119.14"/></clipPath><clipPath id="clip-path-8"><rect class="cls-9" x="1669.2" y="625.77" width="1134.9" height="59.57" rx="29.78"/></clipPath><clipPath id="clip-path-9"><rect class="cls-9" x="1947.47" y="2211.55" width="579.26" height="44.16" rx="22.08"/></clipPath><clipPath id="clip-path-10"><polygon class="cls-24" points="2600.42 2249.55 2237.87 2249.55 1875.31 2249.55 1722.28 2510.42 2237.87 2510.42 2753.45 2510.42 2600.42 2249.55"/></clipPath><clipPath id="clip-path-11"><path class="cls-3" d="M2700.11,1984.31s.77,54.69,4.62,90.13,12.33,120.16,13.87,234.94-.77,186.41-.77,186.41-31.16,47.16-66.42,68-54.78,20.88-56.49,40.06-.34,33.89,3.77,39,25,11.64,52,9.93,59.92-9.24,66.08-12.66,26.7-46.56,31.84-48.28c.68,30.47,2.48,45.45,2.48,45.45s4.06,5.91,22.68,5.05,20.28-9.24,20.28-9.24l3-57.52s5-19.34,2.91-35.09-15.06-54.09-15.06-54.09,13-102.36,17.63-150.64,25.67-171.52,19-230.57-8.73-65.22-5.14-106.3C2768.15,1992.27,2700.11,1984.31,2700.11,1984.31Z"/></clipPath><clipPath id="clip-path-12"><path class="cls-4" d="M2691.38,2486.8c1.28.26,26.45,9,26.45,9s6.93,9.5,27.47,8.47,39.63-17.8,39.63-17.8,28.16-1.46,29.7-.43,4.1,170,4.1,170-224.15,33.12-232.63,27-47.75-41.6-47.75-41.6l20.79-77Z"/></clipPath><clipPath id="clip-path-13"><path class="cls-3" d="M2831.49,1993.56s-2.36,58.46,10.73,91.61,43.68,112.63,75.53,222.9,48.58,180,48.58,180-17.56,53.73-46,83.2-47.3,34.63-43.88,53.57,8.64,32.78,14,36.64,27.18,4.61,52.81-4.19,55.33-24.77,60.37-29.7,13.43-52,17.93-55c8.72,29.21,14.42,43.17,14.42,43.17s5.47,4.62,23.2-1.13,17.12-14.28,17.12-14.28l-12.33-56.26s-.33-20-6.48-34.61-28.83-48.18-28.83-48.18-14.54-102.15-22.86-149.93S2985.1,2139.16,2963,2084s-14.13-72.71-15.15-116.87C2899.57,1973.44,2831.49,1993.56,2831.49,1993.56Z"/></clipPath><clipPath id="clip-path-14"><path class="cls-4" d="M2938.45,2486.38c1.31-.1,27.88,1.66,27.88,1.66s9.2,7.33,28.74.91,33.51-27.66,33.51-27.66,26.77-8.85,28.52-8.27S3106,2615.86,3106,2615.86s-207.41,91.25-217.21,87.55-57.06-27.48-57.06-27.48l-.32-79.79Z"/></clipPath><clipPath id="clip-path-15"><path class="cls-5" d="M2700.91,1502.62c-.75.26-7,5.65-7,5.65s-24.72,81.65-27.72,154.83,5.24,208,29.22,338.93c115.37,21.57,187.29,6.16,265.2-37,19.48-180.25,31.46-269.6-1.5-359.72s-79.91-115.81-79.91-115.81Z"/></clipPath><clipPath id="clip-path-16"><path class="cls-3" d="M2349.33,1511.92s2.64-24.83-15.69-45c-29.37-13.48-42.6-15.73-63.24-21.58s-30-10.16-33.27-3.91,11,16.15,20.65,18.77,20.93,10.73,20.93,10.73l-28.8,11.71s-56.88,16.56-68.58,19.73-2.93,14.4,6.81,12.33,57.09-12,57.09-12l.54,4s-40.25,16.43-55,22.3-14.59,11.09-12.43,15.36,11.61,2.31,20-1.1,54.89-21.24,54.89-21.24l3,4.78s-29.51,14.31-43.28,20.48-16.62,8.48-15.24,14.24,8.4,4.57,20.25-.86,46.18-19.57,46.18-19.57l1.62,5.5s-32.9,14.77-36.48,18.7,2,10.29,10.46,6.67,41.56-20.39,50.9-23.78a260.21,260.21,0,0,0,38.53-18C2343.88,1521.86,2349.33,1511.92,2349.33,1511.92Z"/></clipPath><clipPath id="clip-path-17"><path class="cls-3" d="M2584.82,1301.83s-25.42,27.47-34.15,34.15S2326,1466.42,2326,1466.42s-16.43,41.08,22.6,46.73c91.41-40.06,211.06-99.11,232.11-112s45.19-36.46,45.19-36.46Z"/></clipPath><clipPath id="clip-path-18"><path class="cls-6" d="M2689.58,1172.68l-7.36-8.73s-34.75,47.24-58.63,78.57-41.34,53.66-41.34,53.66-15.66,59.31,47.25,87.3c43.13-36,59.82-64.19,59.82-64.19S2695.74,1209.91,2689.58,1172.68Z"/></clipPath><clipPath id="clip-path-19"><path class="cls-7" d="M2802.81,1131.34c.78,0,8.14,1.79,8.14,1.79s86.61,9.63,103,37.11c7.45,11.55-14.89,121.58-26.19,178.58s-8.21,119.65-8.21,119.65-111.44,61.62-181.28,19c0-25.68-1.71-75.32-12.32-107.5-20.54-25.33-40.4-35.6-33.55-85.24s26.7-55.12,29.78-130.78c19.17-9.93,69.16-24.14,69.16-24.14Z"/></clipPath><clipPath id="clip-path-20"><path class="cls-8" d="M2731.2,1783.75l-5.57,5.48s-4.4,75.39-5.4,124.16c-.66,32.11-.39,55.79-.13,68.23a9.16,9.16,0,0,0,10.06,8.92l24.38-2.38,22.84,20.52s139.12,20.25,279.41-46.8c1-48.78-.83-105.61-.83-105.61Z"/></clipPath><clipPath id="clip-path-21"><path class="cls-10" d="M2725.63,1789.23s1.67-12.28,26.39-14.08,136-3,263.69-28.79c18.67-5.59,31.17,38.47,36.49,65.87s7.61,52.64,7.61,52.64-53.86,30.18-116.29,38.51-142,6.89-157.72-.28-15.77-21.55-17.81-38.57S2757.72,1798.19,2725.63,1789.23Z"/></clipPath><clipPath id="clip-path-22"><path class="cls-3" d="M2942.75,1336.24s7.36,115.8,5,142.16-41.94,170.83-39.37,180.08,9.75,58,9.24,65.73-17.46,17.46-37.75,18.74-32.6-.77-32.35-10,6.93-15.15-2-24.14c-4.62-4.62-4.62-10.27.77-28.76s15.66-23.87,15.66-23.87,26.45-173.32,27.47-193.35-8.73-107.33-8.73-107.33Z"/></clipPath><clipPath id="clip-path-23"><path class="cls-6" d="M2898.26,1163.26c34.42-8,44.6,51,48.4,86.62s7.9,105.1,7.9,105.1-28.78,48.61-89.82,19.51c-4.75-65.73-5.06-105.1-5.7-136.94S2867.27,1170.45,2898.26,1163.26Z"/></clipPath><clipPath id="clip-path-24"><path class="cls-11" d="M2758.22,1494c36-.1,116.75-27.39,121.54-28.42s6.5,9.24,5.48,24-94.84,36.64-156.46,28.42c-42.11-6.5-34.32-9.41-35.6-16.86s-2.31-20,6.67-18S2725.44,1494.06,2758.22,1494Z"/></clipPath><clipPath id="clip-path-25"><path class="cls-3" d="M2809.88,1076.65c.33.32,1.07,12.32,1.07,12.32v44.16l-55.64,52.73-7-37,.08-54,22.34-22.34S2792.8,1060.21,2809.88,1076.65Z"/></clipPath><clipPath id="clip-path-26"><path class="cls-12" d="M2867.55,856.91l-1.91-4.68s5.1-41.2,60.08-24.64c49.92,15,45.67,86.92,16.23,100.67-27.66,12.92-41-4.83-41-4.83L2889.81,911Z"/></clipPath><clipPath id="clip-path-27"><path class="cls-13" d="M2852.29,860.56l13.35-8.33a91.17,91.17,0,0,1,27.29,31.91c10.67,20.87,8.06,39.29,8.06,39.29l-17.74,9Z"/></clipPath><clipPath id="clip-path-28"><path class="cls-12" d="M2675.72,985.75s-21.57,1-30.82-42.62,25.56-64.2,49-60.6c0,0,23.94-52.89,117.91-40.57s79.39,129.48,69.84,164.33C2869.66,1050,2811,1089,2811,1089s-11.47.86-22.94-13.69c-17,12.49-30,12-30,12Z"/></clipPath><clipPath id="clip-path-29"><path class="cls-3" d="M2782.27,1044s19.77-1.8,20.8-22.34c1.14-22.83-10.74-30.23-29.27-21.83-18.23-9.5-43.91-70.22-43.91-70.22s-11.81,19.38-29.52,27.6c-13.38,6.2-22.09,7.45-29.1,7.1-4.63,34.41,1,32.64,1.16,51.92s-14.34,27-13.5,34.72c1,9.89,14,11.28,14,11.28s5.08,29.29,8.3,37.31,8.63,23.31,43.78,13.81c11.64-3.14,29.88-11.49,37.28-19.54C2782.79,1071.51,2782.27,1044,2782.27,1044Z"/></clipPath><radialGradient id="radial-gradient" cx="2733.71" cy="1046.09" r="21.5" gradientUnits="userSpaceOnUse"><stop offset="0" stop-color="#f46d38"/><stop offset="1" stop-color="#f7bd7d"/></radialGradient><clipPath id="clip-path-30"><path class="cls-14" d="M2682.06,1081.13c.11-4.69,31.41-9.91,34.48-6.47s-7.52,15.38-18.44,16.9S2682,1084.42,2682.06,1081.13Z"/></clipPath><clipPath id="clip-path-31"><path class="cls-15" d="M1906.1,2414.91s1,64.19,3.09,67.27,127.69,37,139.5,49.3,7.71,69.84,7.71,69.84l-265-2.57s-3.09-15.92-3.09-50.84,20.55-64.7,20.55-64.7l-1-68.3Z"/></clipPath><clipPath id="clip-path-32"><rect class="cls-8" x="1738.78" y="1837.96" width="395.16" height="254.2" rx="17.72"/></clipPath><clipPath id="clip-path-33"><rect class="cls-16" x="1854.32" y="1766.71" width="165.87" height="31.19" rx="15.6"/></clipPath><clipPath id="clip-path-34"><path class="cls-17" d="M1926,1686.72l7.7,24.39s14.9,190.78,13.36,294-24.65,422.12-24.65,422.12-73.95,41.6-144.82-10.78c6.16-124.79,17-295.8,12.33-371.29s-18.49-117.08-18.49-117.08l29.27-232.63Z"/></clipPath><clipPath id="clip-path-35"><path class="cls-15" d="M1550.06,2409.26s-17.46,39-14.9,44.68,19,44.67,45.19,54.43,47.51,54.18,17.72,91.92c-54.43,7.45-91.83,6.68-125.73-22.08s-82.85-79.08-82.85-94.83,31.84-71.55,63.34-72.58c16.09-37,20.88-53.07,20.88-53.07Z"/></clipPath><clipPath id="clip-path-36"><path class="cls-18" d="M1838.66,1684.67s-8.47,83.19-36.2,201.81-37.75,126.33-57,171S1574.71,2418,1574.71,2418s-71.9,14.38-125.31-73.95c58.55-103.73,157.14-332.77,159.2-355.36s5.13-306.07,5.13-306.07Z"/></clipPath><clipPath id="clip-path-37"><path class="cls-19" d="M1773.7,1053.54s52.64,18.31,76.6,22.76,28.07,37,32.52,54.1,23.63,169.12,28.76,277,24.65,298.87,24.65,298.87-26.7,36-87.3,25.68c-75,18.49-143.79,17.46-238.28-40.05,4.11-95.52,14.38-211.58,11.3-276.28s-26.7-235.89-21.91-278.34,38.69-61.62,102.36-84.22C1745.2,1060.21,1773.7,1053.54,1773.7,1053.54Z"/></clipPath><clipPath id="clip-path-38"><path class="cls-20" d="M1660,1051s56.49,29.78,100.14,86.27,64.19,94,65.73,122.22,25.17,319.42,23.11,472.45c-33.89,58.54-151,37-151,37l-113-74-6.17-223.9-8.21-391.31Z"/></clipPath><clipPath id="clip-path-39"><path class="cls-21" d="M1825.27,1048.89l-1.54,184.36,26.49,508.93s19.21,9.22,72.62-11.32,29.78-80.11,28.75-83.19S1897.16,1092,1897.16,1092,1863.27,1046.33,1825.27,1048.89Z"/></clipPath><clipPath id="clip-path-40"><path class="cls-3" d="M1703.43,983.53s3.77,4.1,3.77,9.41-1.37,37.49-1.37,37.49l-1.2,24.65s31.58,31.32,71.89,35.69c7.19-19.52,4.37-27,4.37-27l2-45.19-29-41.6Z"/></clipPath><clipPath id="clip-path-41"><path class="cls-23" d="M1836.26,873.29c1-.34,29.45,1.37,41.77-31.16s-7.19-51.35-28.76-53.75c-17.11-18.48-72.58-62-147.89-32.86s-74.81,102.36-65.56,141.39,71.38,96,71.38,96,29.52,6.68,41.85-3.08c22.59-31.33,48.79-71.64,48.79-71.64Z"/></clipPath><clipPath id="clip-path-42"><path class="cls-3" d="M1839.94,864.3s4.11,19.51,2.57,50.84c-.77,9.5,20.54,31.84,19,40.31s-14.63,12.07-15.4,14.89,1,51.1-21.31,61.89-67-16.69-75.24-29.79S1739.29,967,1739.29,967s-20,0-22.08-28.76,24.65-32.87,31.33-21.31,5.9,25.16,5.9,25.16l8.47-.51s-2.56-15.92,1.8-47.76,19-46,19-46S1818.63,869.44,1839.94,864.3Z"/></clipPath><radialGradient id="radial-gradient-2" cx="1789.36" cy="953.91" r="21.05" xlink:href="#radial-gradient"/><clipPath id="clip-path-43"><path class="cls-18" d="M1605.52,1099.24c29.37-17.82,65.47,21.57,110.92,91.67s82.42,130.18,107.84,143.27,283.47,121.71,283.47,121.71,6.93,69.32-13.86,84.73c-144.13-33.81-262.62-73.39-318.91-90.89-46.38-14.43-110.92-125.56-137.88-169.47S1558.53,1127.74,1605.52,1099.24Z"/></clipPath></defs><title>01</title><rect id="_01-2" data-name="01" class="cls-19" width="4680" height="3120"/><ellipse class="cls-1" cx="2391.22" cy="2592.08" rx="1272.53" ry="167.92"/><g class="cls-25"><path class="cls-26" d="M1093.71,2545.92s19.92,76.6,286.47,121,710.81,68.93,908.43,72,701.61-12.26,899.23-30.64,409-76.6,433.53-108.77,3.07-81.19,3.07-81.19l73.53,35.23-16.85,55.15s-145.54,101.11-162.39,110.3-988.08,95-988.08,95L1345,2800.22l-344.68-137.87Z"/></g><ellipse class="cls-27" cx="2858.02" cy="2626.48" rx="358.96" ry="56.49"/><ellipse class="cls-27" cx="1732.36" cy="2597.72" rx="358.96" ry="56.49"/><ellipse class="cls-27" cx="2240.93" cy="2504.52" rx="545.54" ry="32.87"/><path class="cls-2" d="M2234.08,1999c588.41,53.49,1266.37-206.44,1361.88-684S3485,597,3210.82,550.79,2696.26,658.63,2194,455.27s-1148.6-115.82-1177,603.92C989.28,1761.7,1725.68,1952.73,2234.08,1999Z"/><g class="cls-28"><path class="cls-29" d="M946.14,1287.19s166.39,363.58,1050.69,459.1,1078.41-191,1522.1-46.22"/><path class="cls-29" d="M915.33,1009.89s107.84,348.17,856.57,366.66,1515.94-409.8,1919.58-74"/><path class="cls-29" d="M1371.35,258.08s67.78,798,705.59,745.64,921.27-600.83,1337.23-566.93"/><path class="cls-29" d="M1864.34,181.05s6.16,357.42,372.82,379,551.53-147.89,650.13-166.38"/></g><circle class="cls-30" cx="1136.78" cy="1092.14" r="25.53"/><line class="cls-31" x1="1163.67" y1="1125.33" x2="1171.09" y2="1134.11"/><line class="cls-32" x1="1186.51" y1="1152.37" x2="1548.88" y2="1581.29"/><polyline class="cls-31" points="1556.59 1590.42 1564.01 1599.2 1575.42 1597.76"/><line class="cls-33" x1="1598.19" y1="1594.89" x2="3180.37" y2="1395.27"/><polyline class="cls-31" points="3191.75 1393.83 3203.16 1392.39 3209.29 1382.66"/><line class="cls-34" x1="3222.3" y1="1362.04" x2="3397.84" y2="1083.58"/><line class="cls-31" x1="3404.35" y1="1073.27" x2="3410.48" y2="1063.54"/><circle class="cls-30" cx="1565.71" cy="1596.14" r="43.4"/><path class="cls-19" d="M1563.26,1621.07a57.12,57.12,0,0,1-6.19-1.83,13.53,13.53,0,0,1-8.47-9.65,7.94,7.94,0,0,1-.14-2.75,4,4,0,0,1,3.59-3.15,3.7,3.7,0,0,1,4.16,2.42c.54,1.38,1,2.8,1.65,4.13a7.43,7.43,0,0,0,5.17,4c0-.43.07-.75.06-1.07,0-4.2-.12-8.4-.12-12.59,0-.79-.29-1.06-1-1.28a47,47,0,0,1-5.45-1.94c-5.11-2.3-7.45-6.31-7.18-12a11.84,11.84,0,0,1,8.22-11.06c1.6-.56,3.29-.86,5.11-1.32a27.71,27.71,0,0,1,0-3.53,3.2,3.2,0,0,1,.92-2,1.82,1.82,0,0,1,2.88,1.39c.14,1.36.06,2.74.08,4.08a45.94,45.94,0,0,1,5.17,1.29,11.93,11.93,0,0,1,7.91,8.91,3.8,3.8,0,0,1-2.72,4.59,3.86,3.86,0,0,1-4.9-2.52,18.9,18.9,0,0,0-1.21-2.85,6.6,6.6,0,0,0-4-2.89c0,.42-.07.76-.07,1.11,0,3.64.1,7.27.1,10.91a1.17,1.17,0,0,0,1.06,1.37c1.47.35,2.93.81,4.37,1.29,5.08,1.69,8.41,5.06,9.09,10.46a13.28,13.28,0,0,1-6.4,13.7,15.44,15.44,0,0,1-6.68,2.29c-.82.09-1.13.36-1.09,1.23a47.82,47.82,0,0,1,0,4.79c-.07,1.45-.66,2-1.85,2s-1.87-.56-2-2C1563.23,1624.72,1563.28,1622.82,1563.26,1621.07Zm3.92-6.65a7.15,7.15,0,0,0,6.5-6.77c.07-3.53-2.34-6-6.65-6.82Zm-4.54-35.05c-3.7.88-5.52,2.85-5.51,5.9s1.95,5.09,5.65,6Z"/><path class="cls-30" d="M3275.67,1335.71H3195.5a16.09,16.09,0,0,0-16.09,16.09v44.47a20.2,20.2,0,0,1-11.74,6.34,13.39,13.39,0,0,0,13.38,2.68,16.06,16.06,0,0,0,14.45,9.06h80.17a16.09,16.09,0,0,0,16.09-16.08V1351.8A16.09,16.09,0,0,0,3275.67,1335.71Z"/><path class="cls-35" d="M3216.18,1351.54h80.17a16.09,16.09,0,0,1,16.09,16.09v44.47a20.23,20.23,0,0,0,11.74,6.34,13.39,13.39,0,0,1-13.38,2.68,16.06,16.06,0,0,1-14.45,9.06h-80.17a16.08,16.08,0,0,1-16.08-16.08v-46.47A16.08,16.08,0,0,1,3216.18,1351.54Z"/><circle class="cls-36" cx="1136.78" cy="1092.14" r="40.85"/><circle class="cls-35" cx="3396.71" cy="988.7" r="13.38"/><circle class="cls-35" cx="3423.23" cy="1031.29" r="13.38"/><circle class="cls-35" cx="3490.2" cy="990" r="13.38"/><polyline class="cls-37" points="3396.71 988.7 3423.22 1032.57 3492.25 990.28"/><path class="cls-9" d="M2690.42,888.7l.34-.65.24-.45.44-.81.84-1.48,1.61-2.78c1.07-1.8,2.11-3.55,3.17-5.27,2.12-3.43,4.27-6.76,6.46-10,4.38-6.54,8.86-12.91,13.52-19.12s9.5-12.26,14.46-18.2,10.07-11.75,15.36-17.41a409.67,409.67,0,0,1,33.69-32.15,347.9,347.9,0,0,1,37.71-27.91,306.31,306.31,0,0,1,86.33-38.54,289.69,289.69,0,0,1,46.72-8.46c3.93-.44,7.87-.66,11.8-.94s8.13-.38,12.19-.37c8.14,0,16.27.32,24.36,1.1A235.36,235.36,0,0,1,3206.05,885.3c7.51,31.64,8.42,64.36,4.22,95.72a319.19,319.19,0,0,1-9.89,46,343.68,343.68,0,0,1-16.21,43.78,333.84,333.84,0,0,1-50.54,78.3,407.33,407.33,0,0,1-31.57,33c-11,10.33-22.44,20-34.13,29.15a722.29,722.29,0,0,1-72.55,49.36c-24.75,14.9-49.77,28.66-74.61,42.09s-49.45,26.63-73,40.71c-11.78,7-23.25,14.33-34.11,22.1a236.27,236.27,0,0,0-30.06,25c-8.94,9-16.45,18.7-21.39,29a64.69,64.69,0,0,0-6.26,32.75l.06.92a7.48,7.48,0,0,1,0,.82,24.26,24.26,0,0,0,4.46,14.57,37.68,37.68,0,0,0,13.52,11.78,42.28,42.28,0,0,0,18,4.91,38.3,38.3,0,0,0,17.84-3.5,39.39,39.39,0,0,0,7.88-4.86,44.39,44.39,0,0,0,6.9-6.69c1.06-1.21,2.16-2.71,2.84-3.65a18.44,18.44,0,0,0,1.45-2.93,22.82,22.82,0,0,0,1.59-7.3,23.93,23.93,0,0,0-.84-7.5,19.59,19.59,0,0,0-3-6.33,11.47,11.47,0,0,0-4-3.55,5.38,5.38,0,0,0-3.34-.48,19,19,0,0,1-6.71-37.4,19.26,19.26,0,0,1,5.5-.18l4.14.49a44.29,44.29,0,0,1,10.87,2.71,42.79,42.79,0,0,1,9.6,5.26,47.53,47.53,0,0,1,13.4,14.93,56.33,56.33,0,0,1,6.44,17.28,57.92,57.92,0,0,1,.71,17.91,55.78,55.78,0,0,1-4.86,17.32,50.53,50.53,0,0,1-4.76,8.21c-.88,1.15-1.83,2.41-2.63,3.33s-1.68,2-2.57,3a77.37,77.37,0,0,1-25.81,18.89,71.64,71.64,0,0,1-31.92,6,75.4,75.4,0,0,1-31-8.2,70,70,0,0,1-25-21.09,59.22,59.22,0,0,1-8.12-15.42,54.94,54.94,0,0,1-3-17.79l.07,1.74a97.77,97.77,0,0,1,3-37.77,111.41,111.41,0,0,1,4.13-11.9,124.86,124.86,0,0,1,11.6-21.62,175.3,175.3,0,0,1,14.48-18.67,288.3,288.3,0,0,1,32.89-31.13c5.72-4.71,11.52-9.21,17.36-13.59s11.71-8.66,17.61-12.82c11.8-8.33,23.7-16.31,35.58-24.12l35.49-23.21c23.53-15.37,46.74-30.66,69-46.67a776.09,776.09,0,0,0,63.71-50.23q14.93-13.26,28.56-27.37c9-9.44,17.57-19.17,25.47-29.24a315.25,315.25,0,0,0,21.63-31.22,283.26,283.26,0,0,0,17.17-33.17c2.52-5.68,4.74-11.36,6.94-17.41,1.11-3,2.1-6,3.16-9s1.94-6,2.88-9a303.47,303.47,0,0,0,8.62-36.31,237.76,237.76,0,0,0,3.26-36.41,189.73,189.73,0,0,0-3-35.79,160.85,160.85,0,0,0-27.23-65.1,158.07,158.07,0,0,0-53.3-46.78A169.56,169.56,0,0,0,2994.28,767a162.86,162.86,0,0,0-17.81-.3c-3,.08-5.91.31-8.89.54s-6.17.58-9.22,1c-6.13.75-12.2,1.84-18.2,3.15s-11.95,2.9-17.82,4.68a229.11,229.11,0,0,0-65.85,33,280.15,280.15,0,0,0-28.79,24c-4.55,4.34-9,8.81-13.27,13.46S2806,856,2802,860.93s-7.86,10-11.57,15.09-7.24,10.42-10.61,15.77-6.61,10.75-9.55,16.21c-1.48,2.73-2.91,5.46-4.25,8.16-.67,1.35-1.32,2.68-1.91,4l-.85,1.89-.37.87-.15.37a.58.58,0,0,0,0,.13s0,.1,0,0a40.11,40.11,0,0,1-72.36-34.65Z"/><g class="cls-38"><path class="cls-39" d="M2924.27,627.82s-135.58,324.55-76,521.75,84.22,230.06,84.22,230.06l-78.06,232.11-236.22,20.55s-8.22-260.88,0-289.64,86.27-540.23,86.27-540.23,71.9-98.6,78.06-96.54S2924.27,627.82,2924.27,627.82Z"/></g><path class="cls-9" d="M1783.12,888.7l-.34-.65-.24-.45-.44-.81-.84-1.48-1.61-2.78c-1.07-1.8-2.11-3.55-3.18-5.27-2.11-3.43-4.26-6.76-6.45-10-4.38-6.54-8.86-12.91-13.52-19.12s-9.5-12.26-14.46-18.2-10.08-11.75-15.36-17.41A411.28,411.28,0,0,0,1693,780.34a348,348,0,0,0-37.72-27.91A306.12,306.12,0,0,0,1569,713.89a289.69,289.69,0,0,0-46.72-8.46c-3.93-.44-7.87-.66-11.8-.94s-8.13-.38-12.2-.37c-8.13,0-16.27.32-24.35,1.1A235.36,235.36,0,0,0,1267.49,885.3c-7.52,31.64-8.43,64.36-4.22,95.72a319.19,319.19,0,0,0,9.89,46,342.17,342.17,0,0,0,16.21,43.78,333.8,333.8,0,0,0,50.53,78.3,409.17,409.17,0,0,0,31.58,33c11,10.33,22.44,20,34.13,29.15a722.29,722.29,0,0,0,72.55,49.36c24.75,14.9,49.77,28.66,74.6,42.09s49.46,26.63,73,40.71c11.78,7,23.24,14.33,34.11,22.1a236.27,236.27,0,0,1,30.06,25c8.94,9,16.45,18.7,21.39,29a64.79,64.79,0,0,1,6.26,32.75l-.06.92a7.48,7.48,0,0,0,0,.82,24.26,24.26,0,0,1-4.46,14.57,37.77,37.77,0,0,1-13.52,11.78,42.36,42.36,0,0,1-18,4.91,38.37,38.37,0,0,1-17.85-3.5,39.61,39.61,0,0,1-7.87-4.86,44.39,44.39,0,0,1-6.9-6.69c-1.06-1.21-2.16-2.71-2.84-3.65a17.62,17.62,0,0,1-1.45-2.93,22.56,22.56,0,0,1-1.59-7.3,23.93,23.93,0,0,1,.84-7.5,19.59,19.59,0,0,1,3-6.33,11.47,11.47,0,0,1,4-3.55,5.38,5.38,0,0,1,3.34-.48,19,19,0,0,0,6.71-37.4,19.32,19.32,0,0,0-5.51-.18l-4.13.49a44.48,44.48,0,0,0-10.88,2.71,42.93,42.93,0,0,0-9.59,5.26,47.53,47.53,0,0,0-13.4,14.93,56.36,56.36,0,0,0-6.45,17.28,58.23,58.23,0,0,0-.7,17.91,55.78,55.78,0,0,0,4.86,17.32,49.81,49.81,0,0,0,4.76,8.21c.88,1.15,1.83,2.41,2.63,3.33s1.68,2,2.57,3a77.37,77.37,0,0,0,25.81,18.89,71.61,71.61,0,0,0,31.92,6,75.44,75.44,0,0,0,31-8.2,70,70,0,0,0,25-21.09,59.22,59.22,0,0,0,8.12-15.42,54.94,54.94,0,0,0,3-17.79l-.07,1.74a97.77,97.77,0,0,0-3-37.77,111.41,111.41,0,0,0-4.13-11.9,124.86,124.86,0,0,0-11.6-21.62,176.61,176.61,0,0,0-14.48-18.67,288.3,288.3,0,0,0-32.89-31.13c-5.72-4.71-11.52-9.21-17.36-13.59s-11.71-8.66-17.61-12.82c-11.81-8.33-23.7-16.31-35.58-24.12l-35.49-23.21c-23.53-15.37-46.74-30.66-69-46.67a776.09,776.09,0,0,1-63.71-50.23q-14.92-13.26-28.56-27.37c-9-9.44-17.57-19.17-25.47-29.24a315.25,315.25,0,0,1-21.63-31.22,283.26,283.26,0,0,1-17.17-33.17c-2.52-5.68-4.74-11.36-6.94-17.41-1.11-3-2.1-6-3.16-9s-1.94-6-2.88-9a303.47,303.47,0,0,1-8.62-36.31,236.51,236.51,0,0,1-3.26-36.41,189.73,189.73,0,0,1,3-35.79,161,161,0,0,1,27.24-65.1,158.13,158.13,0,0,1,53.29-46.78A169.68,169.68,0,0,1,1479.25,767a163.08,163.08,0,0,1,17.82-.3c3,.08,5.91.31,8.89.54s6.16.58,9.22,1c6.13.75,12.19,1.84,18.2,3.15s11.94,2.9,17.82,4.68a229.06,229.06,0,0,1,65.84,33,279.2,279.2,0,0,1,28.8,24c4.55,4.34,9,8.81,13.26,13.46s8.4,9.46,12.4,14.37,7.85,10,11.57,15.09,7.24,10.42,10.61,15.77,6.61,10.75,9.55,16.21c1.48,2.73,2.91,5.46,4.25,8.16.67,1.35,1.32,2.68,1.91,4l.85,1.89.37.87.14.37a.36.36,0,0,1,0,.13s0,.1,0,0a40.11,40.11,0,0,0,72.36-34.65Z"/><g class="cls-40"><path class="cls-39" d="M1550.06,643.23s52.38,191,52.38,403.63-70.87,391.31-70.87,391.31,55.46,129.41,64.7,135.57,231.09,27.73,231.09,27.73,160.22-58.54,160.22-67.78S1821.2,738.74,1821.2,738.74Z"/></g><path class="cls-22" d="M2453.61,1702.13H2019.17s187.95,233.1,7.7,534.07h419C2265.66,1935.23,2453.61,1702.13,2453.61,1702.13Z"/><g class="cls-41"><path class="cls-42" d="M2154,1721.64s140.19,50.84,146.35,184.87S2315.73,2190,2181.7,2267c169.46,1.54,292.71-9.24,292.71-9.24l4.62-588.51Z"/></g><path class="cls-24" d="M1715.41,723.34H2757.88a0,0,0,0,1,0,0v513a521.23,521.23,0,0,1-521.23,521.23h0a521.23,521.23,0,0,1-521.23-521.23v-513a0,0,0,0,1,0,0Z"/><g class="cls-43"><path class="cls-44" d="M1656.87,1381.68s168.44,297.85,587.48,299.91,445.74-394,445.74-552.56V679.17h96.55v700.46l-88.33,193.09-186.92,168.43-195.15,61.63L1859.91,1811s-147.58-137.62-153.74-160.22S1656.87,1381.68,1656.87,1381.68Z"/></g><rect class="cls-22" x="1705.14" y="655.55" width="1063.01" height="119.14"/><g class="cls-45"><path class="cls-46" d="M1690.25,698.69h887.38c66.25,0,126.84,33.89,76.52,85.24h126.4V652.47H1685.63Z"/></g><rect class="cls-9" x="1669.2" y="625.77" width="1134.9" height="59.57" rx="29.78"/><g class="cls-47"><path class="cls-48" d="M2626.93,581.6s61.62,64.71,3.08,115.55h200.28V597Z"/></g><circle class="cls-49" cx="2236.39" cy="1205.54" r="253.43"/><path class="cls-19" d="M2273.53,1002.39a231.65,231.65,0,0,1,128.5,38.67,232,232,0,0,0-163.51-67.12c-128.57,0-232.79,104.22-232.79,232.79A232.57,232.57,0,0,0,2110,1400.85a232.07,232.07,0,0,1-69.27-165.67C2040.74,1106.61,2145,1002.39,2273.53,1002.39Z"/><rect class="cls-9" x="1947.47" y="2211.55" width="579.26" height="44.16" rx="22.08"/><g class="cls-50"><path class="cls-48" d="M2277.73,2191.52l-29.79,20s25.68,25.68-.51,50.33h299.39v-68.05Z"/></g><polygon class="cls-24" points="2600.42 2249.55 2237.87 2249.55 1875.31 2249.55 1722.28 2510.42 2237.87 2510.42 2753.45 2510.42 2600.42 2249.55"/><g class="cls-51"><path class="cls-44" d="M1742.63,2413.37s140.19,92.43,474.5,67.78S2496,2220.79,2496,2220.79l121.71-4.62,187.95,320.44L1681,2521.21Z"/></g><rect class="cls-49" x="2031.23" y="2273.17" width="411.34" height="209.52" rx="18.49"/><path class="cls-3" d="M2700.11,1984.31s.77,54.69,4.62,90.13,12.33,120.16,13.87,234.94-.77,186.41-.77,186.41-31.16,47.16-66.42,68-54.78,20.88-56.49,40.06-.34,33.89,3.77,39,25,11.64,52,9.93,59.92-9.24,66.08-12.66,26.7-46.56,31.84-48.28c.68,30.47,2.48,45.45,2.48,45.45s4.06,5.91,22.68,5.05,20.28-9.24,20.28-9.24l3-57.52s5-19.34,2.91-35.09-15.06-54.09-15.06-54.09,13-102.36,17.63-150.64,25.67-171.52,19-230.57-8.73-65.22-5.14-106.3C2768.15,1992.27,2700.11,1984.31,2700.11,1984.31Z"/><g class="cls-52"><path class="cls-53" d="M2765.58,1975.84c2.31.77,13.87,34.66,17,56.23,21.57,47,33.12,57,30,120.94s-30.81,345.86-30.81,345.86l19.26-11.55,40.05-281.93s-7.7-109.39-7.7-130.95-3.08-96.29-3.08-96.29Z"/><path class="cls-4" d="M2691.38,2486.8c1.28.26,26.45,9,26.45,9s6.93,9.5,27.47,8.47,39.63-17.8,39.63-17.8,28.16-1.46,29.7-.43,4.1,170,4.1,170-224.15,33.12-232.63,27-47.75-41.6-47.75-41.6l20.79-77Z"/><g class="cls-54"><path class="cls-55" d="M2536,2622.89c2.31.77,52.72,23.45,110.92,19.68s61.62-13.69,77.71-40.05,46.56-33.55,57.86-43.82-3.77-78.75-3.77-78.75l19.86,13.36L2811,2538.5l1,59.22-83.87,60.94-69.16,5.14s-38.69,0-64-5.14-31.84-6.84-41.08-13S2536,2622.89,2536,2622.89Z"/></g><path class="cls-3" d="M2684.7,2527.63l32.87,18.23s-18.23,30.81-47.25,29.53-39-24.14-39-24.14Z"/><path class="cls-56" d="M2742.13,2608l6.51-16.09s7-6.33,21.91-11a304.51,304.51,0,0,1,30.81-7.53l13.52,79.25s-57-1-60.59-2.05-12.33-6.68-12.33-9.25S2742.13,2608,2742.13,2608Z"/><path class="cls-57" d="M2598.77,2589.76s11.19,15.59,54.2,11.51a3,3,0,0,1,1.17,5.9c-16.66,5-37.88,4.59-59.22-5.08C2594.92,2593.87,2598.77,2589.76,2598.77,2589.76Z"/></g><path class="cls-3" d="M2831.49,1993.56s-2.36,58.46,10.73,91.61,43.68,112.63,75.53,222.9,48.58,180,48.58,180-17.56,53.73-46,83.2-47.3,34.63-43.88,53.57,8.64,32.78,14,36.64,27.18,4.61,52.81-4.19,55.33-24.77,60.37-29.7,13.43-52,17.93-55c8.72,29.21,14.42,43.17,14.42,43.17s5.47,4.62,23.2-1.13,17.12-14.28,17.12-14.28l-12.33-56.26s-.33-20-6.48-34.61-28.83-48.18-28.83-48.18-14.54-102.15-22.86-149.93S2985.1,2139.16,2963,2084s-14.13-72.71-15.15-116.87C2899.57,1973.44,2831.49,1993.56,2831.49,1993.56Z"/><g class="cls-58"><path class="cls-53" d="M2904.24,1983.54s14.63,23.11,23.11,50.07c20,37,33.12,79.34,41.59,112.46s33.9,185.65,41.6,238.8,16.94,95.51,16.94,95.51,13.1-8.47,13.87-12.32S2999,2123.74,2999,2121.42s-31.58-120.16-31.58-120.16l-11.55-37S2900.39,1985.08,2904.24,1983.54Z"/><path class="cls-4" d="M2938.45,2486.38c1.31-.1,27.88,1.66,27.88,1.66s9.2,7.33,28.74.91,33.51-27.66,33.51-27.66,26.77-8.85,28.52-8.27S3106,2615.86,3106,2615.86s-207.41,91.25-217.21,87.55-57.06-27.48-57.06-27.48l-.32-79.79Z"/><g class="cls-59"><path class="cls-55" d="M2821.37,2656.9c2.43.17,56.92,9.46,112.31-8.8s56.21-28.73,65.17-58.28,36.64-44.17,45-57-23.42-75.27-23.42-75.27l22.57,7.94,23.28,40.64,15.87,57.08-65.89,80-65.65,22.34s-37.44,9.72-63.26,11.11-32.53,1.36-43-2.28S2821.37,2656.9,2821.37,2656.9Z"/><path class="cls-57" d="M2873.78,2609.09s14.75,12.28,55.35-2.48a3,3,0,0,1,2.62,5.42c-14.86,9.08-35.52,13.95-58.6,10C2871.08,2614,2873.78,2609.09,2873.78,2609.09Z"/></g><path class="cls-3" d="M2942.82,2527.51l36.51,8.89s-9.43,34.54-37.75,41-44-12.95-44-12.95Z"/><path class="cls-56" d="M3019.46,2589.82l2-17.24s5.09-8,18.23-16.36a303,303,0,0,1,27.72-15.41l34,72.85s-55.24,14.09-59,14.05-13.65-3.18-14.33-5.65S3019.46,2589.82,3019.46,2589.82Z"/></g><path class="cls-5" d="M2700.91,1502.62c-.75.26-7,5.65-7,5.65s-24.72,81.65-27.72,154.83,5.24,208,29.22,338.93c115.37,21.57,187.29,6.16,265.2-37,19.48-180.25,31.46-269.6-1.5-359.72s-79.91-115.81-79.91-115.81Z"/><g class="cls-60"><path class="cls-61" d="M2756.34,1510.07s92.95,1,115,62.13-13.35,158.68-28.76,208-148.92,251.63-148.92,251.63,173.57,74,271.14-30.81c51.36-178.71,49.3-302,15.41-370.77S2883.7,1469,2883.7,1469Z"/></g><path class="cls-3" d="M2349.33,1511.92s2.64-24.83-15.69-45c-29.37-13.48-42.6-15.73-63.24-21.58s-30-10.16-33.27-3.91,11,16.15,20.65,18.77,20.93,10.73,20.93,10.73l-28.8,11.71s-56.88,16.56-68.58,19.73-2.93,14.4,6.81,12.33,57.09-12,57.09-12l.54,4s-40.25,16.43-55,22.3-14.59,11.09-12.43,15.36,11.61,2.31,20-1.1,54.89-21.24,54.89-21.24l3,4.78s-29.51,14.31-43.28,20.48-16.62,8.48-15.24,14.24,8.4,4.57,20.25-.86,46.18-19.57,46.18-19.57l1.62,5.5s-32.9,14.77-36.48,18.7,2,10.29,10.46,6.67,41.56-20.39,50.9-23.78a260.21,260.21,0,0,0,38.53-18C2343.88,1521.86,2349.33,1511.92,2349.33,1511.92Z"/><g class="cls-62"><path class="cls-53" d="M2263.31,1466.18s-12.84,52.38,31.84,50.84,64.19-7.19,64.19-7.19l11.3,8.22-35.95,26.7s-79.6,42.62-86.27,42.11-64.71-9.76-64.71-9.76l-4.11-45.7,8.22-39.54Z"/></g><path class="cls-3" d="M2584.82,1301.83s-25.42,27.47-34.15,34.15S2326,1466.42,2326,1466.42s-16.43,41.08,22.6,46.73c91.41-40.06,211.06-99.11,232.11-112s45.19-36.46,45.19-36.46Z"/><g class="cls-63"><path class="cls-53" d="M2602.28,1356.52s-3.59,18.49-19.51,28.24S2345,1513.66,2345,1513.66l7.71,9.76,234.17-114.52,39-38Z"/></g><path class="cls-6" d="M2689.58,1172.68l-7.36-8.73s-34.75,47.24-58.63,78.57-41.34,53.66-41.34,53.66-15.66,59.31,47.25,87.3c43.13-36,59.82-64.19,59.82-64.19S2695.74,1209.91,2689.58,1172.68Z"/><g class="cls-64"><path class="cls-65" d="M2569.16,1357.29s46.64,1.11,61.37-30.38,22.93-67.45,34.92-85.59,16.43-55.46,16.43-55.46l-1.71,176-50.33,29.78S2587.22,1407.87,2569.16,1357.29Z"/></g><path class="cls-7" d="M2802.81,1131.34c.78,0,8.14,1.79,8.14,1.79s86.61,9.63,103,37.11c7.45,11.55-14.89,121.58-26.19,178.58s-8.21,119.65-8.21,119.65-111.44,61.62-181.28,19c0-25.68-1.71-75.32-12.32-107.5-20.54-25.33-40.4-35.6-33.55-85.24s26.7-55.12,29.78-130.78c19.17-9.93,69.16-24.14,69.16-24.14Z"/><g class="cls-66"><path class="cls-67" d="M2756.85,1148.54l-1.54,37.32s-22.08,49-38.51,80.79,4.11,76,13.35,101.68,17.46,153,17.46,153"/><path class="cls-68" d="M2655.7,1309.07s80.47,27.13,177.67,8.42c-19.11,26.84-118.09,39.26-172.59,24.21C2654.68,1320.15,2655.7,1309.07,2655.7,1309.07Z"/><path class="cls-68" d="M2863.15,1235.33l-4.11,2.22s.52,126.67-.51,135.92-5.13,83.7-30.81,131.46c65.73-32.87,76.52-42.62,76.52-42.62l-38.52-129.93Z"/><path class="cls-68" d="M2742.48,1110l-3.09,29.78-17.8,42.28s15.24-23.11,33.72,3.77c13.87-6,18-9.08,25.17-6.25,14.38-13.61,27.21-43.39,27.21-43.39s2.57-9.76-11.29-9.76S2742.48,1110,2742.48,1110Z"/></g><path class="cls-8" d="M2731.2,1783.75l-5.57,5.48s-4.4,75.39-5.4,124.16c-.66,32.11-.39,55.79-.13,68.23a9.16,9.16,0,0,0,10.06,8.92l24.38-2.38,22.84,20.52s139.12,20.25,279.41-46.8c1-48.78-.83-105.61-.83-105.61Z"/><g class="cls-69"><path class="cls-70" d="M3027.66,1983.88s18.48-50.32,13-73.26-44.51-.34-115.72,4.11-153.72,7.87-169.47-17.8l8.91-32.19,296.13-37.31,12.67,109.89-9.59,42.11Z"/><path class="cls-71" d="M2783.86,2020.7c1.06-.92-8.42-4.72-8.42-4.72l1.94-7.3-12.07-182-3-51.72-47.38-13-15.47,175.23.55,81.71S2763.18,2038.55,2783.86,2020.7Z"/><path class="cls-16" d="M2717.3,2057.16c.07-2.31,35.7-57.46,35.7-57.46l1.8-9.74L2742,1782l-36.71-9-8.55,252.68Z"/></g><path class="cls-16" d="M2900,1899l2.21,17.11c.41,3.21,3.3,5.77,7,6.24,10.76,1.37,33.5,2.79,54.47-5.34a6.86,6.86,0,0,0,4.69-6.82c-1.63-20.09-1.56-22.47-1.56-22.47Z"/><path class="cls-10" d="M2725.63,1789.23s1.67-12.28,26.39-14.08,136-3,263.69-28.79c18.67-5.59,31.17,38.47,36.49,65.87s7.61,52.64,7.61,52.64-53.86,30.18-116.29,38.51-142,6.89-157.72-.28-15.77-21.55-17.81-38.57S2757.72,1798.19,2725.63,1789.23Z"/><g class="cls-72"><path class="cls-73" d="M2752.75,1877.24s29.78,30.3,111.43,25.16,159.2-24.13,174.6-45.19,11.81-50.32-1-98.6c14.89,27.22,22.59,77,24.13,93l1.54,15.92-1,4.11-156.62,49.81L2781,1912.16Z"/></g><rect class="cls-8" x="2827.2" y="1722.89" width="11.29" height="51.7" rx="5.64" transform="translate(-138.49 247.32) rotate(-4.88)"/><rect class="cls-8" x="2920.67" y="1712.97" width="11.29" height="51.7" rx="5.64" transform="translate(-137.31 255.23) rotate(-4.88)"/><rect class="cls-16" x="2801.02" y="1704.69" width="148.92" height="24.14" rx="12.07" transform="translate(-134.35 248.23) rotate(-4.83)"/><path class="cls-3" d="M2942.75,1336.24s7.36,115.8,5,142.16-41.94,170.83-39.37,180.08,9.75,58,9.24,65.73-17.46,17.46-37.75,18.74-32.6-.77-32.35-10,6.93-15.15-2-24.14c-4.62-4.62-4.62-10.27.77-28.76s15.66-23.87,15.66-23.87,26.45-173.32,27.47-193.35-8.73-107.33-8.73-107.33Z"/><g class="cls-74"><path class="cls-53" d="M2911.43,1361.66s22.59,5.64,27.21,38.51,7.19,62.14,4.11,75.49-42.11,178.71-42.11,183.33,5.14,43.14,2.57,58-37,27.73-60.6,17.46c-.51,14.38,3.08,17.46,33.9,14.89s49.81-14.38,50.32-18-14.38-75-14.38-75l46.74-180.76-8.73-128.38Z"/></g><path class="cls-6" d="M2898.26,1163.26c34.42-8,44.6,51,48.4,86.62s7.9,105.1,7.9,105.1-28.78,48.61-89.82,19.51c-4.75-65.73-5.06-105.1-5.7-136.94S2867.27,1170.45,2898.26,1163.26Z"/><g class="cls-75"><path class="cls-65" d="M2900.13,1150.34s32.87,55,35.95,117.6-9.76,121.7-9.76,121.7l39-38-11-156.11S2913,1153.42,2900.13,1150.34Z"/></g><path class="cls-11" d="M2758.22,1494c36-.1,116.75-27.39,121.54-28.42s6.5,9.24,5.48,24-94.84,36.64-156.46,28.42c-42.11-6.5-34.32-9.41-35.6-16.86s-2.31-20,6.67-18S2725.44,1494.06,2758.22,1494Z"/><g class="cls-76"><path class="cls-77" d="M2849,1464.36l-9.42,13.35s11.81-1,12.33,10.27-37.49,23.37-61.63,26.45-63.42,5.39-101.93-10.78c-1.54,10,0,10,0,10l68,13.1,73.18-5.4,54.95-19.51,11.55-15.41-11-29.52Z"/></g><path class="cls-65" d="M2749.84,1118.76s-18.66,6-25.17,12.83c.52,24.14-3.08,50.5-3.08,50.5l26.71-33.21,3.08-9.07Z"/><path class="cls-6" d="M2754.29,1117.21l-5.91,2.06s-11.6,2.57-23.71,12.32c8.82,12.07,30.64,54.27,30.64,54.27l-7-37,4.32-5.86Z"/><path class="cls-3" d="M2809.88,1076.65c.33.32,1.07,12.32,1.07,12.32v44.16l-55.64,52.73-7-37,.08-54,22.34-22.34S2792.8,1060.21,2809.88,1076.65Z"/><g class="cls-78"><path class="cls-53" d="M2739.65,1115.16s24.39-15.92,49.3-9.24,29,21.31,29,21.31l-5.9-56.23-53.92-7.45-20.54,31.33Z"/></g><path class="cls-12" d="M2867.55,856.91l-1.91-4.68s5.1-41.2,60.08-24.64c49.92,15,45.67,86.92,16.23,100.67-27.66,12.92-41-4.83-41-4.83L2889.81,911Z"/><g class="cls-79"><path class="cls-80" d="M2970.14,891.77s-38.34,31.84-75.32,6.17c-2.05,14.38-.34,34.92-.34,34.92s31.5,15.06,34.24,10.27S2968.43,930.12,2970.14,891.77Z"/></g><path class="cls-13" d="M2852.29,860.56l13.35-8.33a91.17,91.17,0,0,1,27.29,31.91c10.67,20.87,8.06,39.29,8.06,39.29l-17.74,9Z"/><g class="cls-81"><path class="cls-82" d="M2878.56,904.78l2.91-3.42s7.36,7,17.29-1.54c7.87,10.1,6,23.62,6,23.62l-2.57,5.82-18.66,4.45Z"/></g><path class="cls-12" d="M2675.72,985.75s-21.57,1-30.82-42.62,25.56-64.2,49-60.6c0,0,23.94-52.89,117.91-40.57s79.39,129.48,69.84,164.33C2869.66,1050,2811,1089,2811,1089s-11.47.86-22.94-13.69c-17,12.49-30,12-30,12Z"/><g class="cls-83"><path class="cls-80" d="M2639.77,952.37s8.47,5.65,35.43-1,46.22-21.31,49.56-34.92c17.2,25.94,34.15,72.67,53.92,74.47s30.55,13.6,29,37,42.11,7.45,58.55-22.6,21.31-83.44,13.35-115.28c20.8,45.7,15.4,111.95,11.81,124.53s-64.71,71.64-67.79,74.2-14.38,6.68-14.38,6.68l-43.39-2.82s-2.31,8.47-10-3.09-32.1-80.36-32.1-80.36l-61.11-10.79S2643.62,980.1,2639.77,952.37Z"/><path class="cls-84" d="M2854.42,863.92s.69,41.89-123.93,23.75c13,13,86.1,48.35,141.91,2.82C2867.86,875.56,2854.42,863.92,2854.42,863.92Z"/></g><path class="cls-3" d="M2782.27,1044s19.77-1.8,20.8-22.34c1.14-22.83-10.74-30.23-29.27-21.83-18.23-9.5-43.91-70.22-43.91-70.22s-11.81,19.38-29.52,27.6c-13.38,6.2-22.09,7.45-29.1,7.1-4.63,34.41,1,32.64,1.16,51.92s-14.34,27-13.5,34.72c1,9.89,14,11.28,14,11.28s5.08,29.29,8.3,37.31,8.63,23.31,43.78,13.81c11.64-3.14,29.88-11.49,37.28-19.54C2782.79,1071.51,2782.27,1044,2782.27,1044Z"/><g class="cls-85"><circle class="cls-86" cx="2733.71" cy="1046.09" r="21.5"/><path class="cls-53" d="M2664.42,971.2s5.65,6.16,25.85-.68,48.1-37,48.95-37.49-10.78-15.24-10.78-15.24-36,34.07-39.89,37.15-18.48,5.82-18.48,5.82Z"/><path class="cls-53" d="M2654.83,1043.27a14.91,14.91,0,0,0,10,11.72c9,3,16.17-.34,14.2,4s-8,5-8.3,4.88-9.24-1.71-10.53-3a18.05,18.05,0,0,1-3.68-7.36C2656,1050.8,2654.83,1043.27,2654.83,1043.27Z"/></g><path class="cls-14" d="M2704.41,1008.2a5.37,5.37,0,0,0-2.88.79,13.06,13.06,0,0,1-9.82-2.53,11.59,11.59,0,0,0,6.29,6.88,14,14,0,0,0-1.1,5.31c-.11,5.85,3.08,10.65,7.12,10.73s7.41-4.61,7.52-10.46S2708.45,1008.27,2704.41,1008.2Z"/><path class="cls-14" d="M2701.14,987c13.49-1.8,24.78.27,24.57,3.47s-13-1.38-23.18,1.88-14.71,4.28-15.79,1.8S2694.48,987.85,2701.14,987Z"/><path class="cls-14" d="M2682.06,1081.13c.11-4.69,31.41-9.91,34.48-6.47s-7.52,15.38-18.44,16.9S2682,1084.42,2682.06,1081.13Z"/><g class="cls-87"><path class="cls-88" d="M2681.69,1075c-.07.22,1.89,6.09,4.34,7.12s20.1-1.48,24.44-3.77a12.17,12.17,0,0,0,5.59-7Z"/></g><path class="cls-89" d="M2783.56,1009.54c7-4.14,14,10.1,8.56,18.32s-6.17,3.08-6-3.42S2774.31,1015,2783.56,1009.54Z"/><path class="cls-65" d="M2784.07,1141.09l-8-10.78s-5.39,40.48-20.8,55.55c26.19-16.52,32.36-26,32.36-26Z"/><path class="cls-6" d="M2811.8,1106.43s-11.3,16.43-35.69,23.88c3.08,14.12,4.37,49.3,4.37,49.3s28-19,38.77-40.83C2814.88,1119.27,2811.8,1106.43,2811.8,1106.43Z"/><path class="cls-3" d="M1958.1,1692.54s14.82,46,18.43,72,8.41,46-21.64,56.07-38.06,8.54-51.28,2.6-11.62-37.14-12.42-62.39,10.41-45.3,10.41-45.3l-2.8-14.11Z"/><path class="cls-19" d="M1968.59,1667.21l1.53,28.07s-20.76,18.83-61.15,9.24l-1.15-19.85Z"/><path class="cls-90" d="M1851.67,1079.73l11.64,3.42s22.25-2.4,36.63,19.51,43,196.09,52.21,285.44,20.8,289.63,20.8,289.63-30.81,27.73-71.64,13.87C1894.38,1528.3,1851.67,1079.73,1851.67,1079.73Z"/><path class="cls-15" d="M1906.1,2414.91s1,64.19,3.09,67.27,127.69,37,139.5,49.3,7.71,69.84,7.71,69.84l-265-2.57s-3.09-15.92-3.09-50.84,20.55-64.7,20.55-64.7l-1-68.3Z"/><g class="cls-91"><path class="cls-3" d="M1779.6,2479.1l29.28,4.11s37.14,22.59,100.31-1c10.78-12.32,12.15-91.41,12.15-91.41l-126.84,6.68Z"/><polygon class="cls-92" points="1779.09 2584.37 2071.29 2584.37 2071.29 2615.7 1783.2 2606.97 1779.09 2584.37"/></g><rect class="cls-8" x="1985.79" y="1785.58" width="13.35" height="59.06"/><rect class="cls-8" x="1876.41" y="1785.58" width="13.35" height="59.06"/><rect class="cls-8" x="1738.78" y="1837.96" width="395.16" height="254.2" rx="17.72"/><g class="cls-93"><path class="cls-94" d="M1930.15,1828.05s-68.55,61.62-35.43,162.53S2162,2069.92,2162,2069.92l-16.94,60.85s-450.63.78-447.54-6.93,12.32-320.44,12.32-320.44Z"/></g><rect class="cls-16" x="1854.32" y="1766.71" width="165.87" height="31.19" rx="15.6"/><g class="cls-95"><rect class="cls-96" x="1841.49" y="1786.09" width="185.9" height="16.43"/></g><path class="cls-17" d="M1926,1686.72l7.7,24.39s14.9,190.78,13.36,294-24.65,422.12-24.65,422.12-73.95,41.6-144.82-10.78c6.16-124.79,17-295.8,12.33-371.29s-18.49-117.08-18.49-117.08l29.27-232.63Z"/><g class="cls-97"><path class="cls-98" d="M1882.82,1720.61s-41.08,102.71-50.32,224.93-21.57,504.29-21.57,504.29-44.16-2.06-53.41-3.08-23.62-381-20.54-388.23,9.25-171.52,9.25-171.52l31.83-156.12Z"/></g><path class="cls-15" d="M1550.06,2409.26s-17.46,39-14.9,44.68,19,44.67,45.19,54.43,47.51,54.18,17.72,91.92c-54.43,7.45-91.83,6.68-125.73-22.08s-82.85-79.08-82.85-94.83,31.84-71.55,63.34-72.58c16.09-37,20.88-53.07,20.88-53.07Z"/><g class="cls-99"><path class="cls-3" d="M1414.14,2388.2c-.34,5.14,38.69,22.6,38.69,22.6s14,53.41,82.33,43.14c18.32-15.41,32.7-58.89,32.7-58.89L1470,2349.18Z"/><path class="cls-92" d="M1385.38,2464.89c0,1,63.34,86.27,98.6,107.84s62.65,25.34,125,16.78c-2.74,12-15.06,20.2-15.06,20.2l-81.82-2.06-70.87-34.58S1375.8,2493,1375.8,2495,1385.38,2464.89,1385.38,2464.89Z"/></g><path class="cls-18" d="M1838.66,1684.67s-8.47,83.19-36.2,201.81-37.75,126.33-57,171S1574.71,2418,1574.71,2418s-71.9,14.38-125.31-73.95c58.55-103.73,157.14-332.77,159.2-355.36s5.13-306.07,5.13-306.07Z"/><g class="cls-100"><path class="cls-101" d="M1790.39,1711.37s21.57,50.33,3.08,142.76-37,144.82-85.25,249.58-150,274.22-212.6,319.41c39.54,30.82,88.33,7.19,92.44,5.14s168.44-362.55,168.44-362.55l87.3-180.77,13.35-167.41Z"/></g><path class="cls-19" d="M1773.7,1053.54s52.64,18.31,76.6,22.76,28.07,37,32.52,54.1,23.63,169.12,28.76,277,24.65,298.87,24.65,298.87-26.7,36-87.3,25.68c-75,18.49-143.79,17.46-238.28-40.05,4.11-95.52,14.38-211.58,11.3-276.28s-26.7-235.89-21.91-278.34,38.69-61.62,102.36-84.22C1745.2,1060.21,1773.7,1053.54,1773.7,1053.54Z"/><g class="cls-102"><path class="cls-12" d="M1745.54,1075.62l18.15,29.78,9.24,2.06,23.62,114L1830.1,1268s12.33-55.46,12.33-57.86-50-105.78-50-105.78l3.43-9.59-8.9-36.29-25.68-2.74Z"/><path class="cls-20" d="M1660,1051s56.49,29.78,100.14,86.27,64.19,94,65.73,122.22,25.17,319.42,23.11,472.45c-33.89,58.54-151,37-151,37l-113-74-6.17-223.9-8.21-391.31Z"/><g class="cls-103"><path class="cls-18" d="M1651.74,1055.08s60.08,92.43,61.62,103.73c43.31-13,32.52,1.37,32.52,1.37l-17.63,9.41s80.11,43.14,102.71,113.5c2.57-73.44-41.08-180.25-43.65-184.88s-120.17-69.32-120.17-69.32Z"/><path class="cls-90" d="M1696.41,1537.54s39.54,13.27,110.75,7.79l-1,15.4s-57.86,13-112.29-7.87C1692.82,1545,1696.41,1537.54,1696.41,1537.54Z"/></g><path class="cls-21" d="M1825.27,1048.89l-1.54,184.36,26.49,508.93s19.21,9.22,72.62-11.32,29.78-80.11,28.75-83.19S1897.16,1092,1897.16,1092,1863.27,1046.33,1825.27,1048.89Z"/><g class="cls-104"><path class="cls-105" d="M1820.86,1052.68l20.54,13.7,13,83.19L1837,1153l16.09,6.16s-22.25,52-26,101.68C1802.37,1139,1820.86,1052.68,1820.86,1052.68Z"/></g><path class="cls-106" d="M1625.55,1227.88c0,2.31,59.31,208.75,106.3,241.1s216.45,46.22,216.45,46.22l-3.08-30Z"/></g><path class="cls-3" d="M2118.86,1528.93s-7.25-25.79,8.53-50.36c28.64-19.51,42.23-24.27,63-34.15s29.92-16.13,34.48-10.11-8.75,19.06-18.47,23.56-20.22,15.1-20.22,15.1l32.57,7.22s63.11,7.32,76,8.57,5.69,14.7-5,14.26-62.53-2.51-62.53-2.51l.15,4.37s45.51,10.16,62.15,13.73,17.42,9.11,15.9,14-11.86,4.52-21.33,2.42-61.86-12.62-61.86-12.62l-2.36,5.6s33.77,9.84,49.44,13.9,19.1,6,18.67,12.32-8.06,6.34-21.56,2.72-52.35-12.41-52.35-12.41l-.72,6.1s37.43,9.72,41.93,13.24-.27,11.24-9.87,8.93-47.6-14.11-58.1-16a278.7,278.7,0,0,1-44-12.09C2126.41,1538.46,2118.86,1528.93,2118.86,1528.93Z"/><path class="cls-107" d="M1774.64,1036a125.49,125.49,0,0,0,23.88,6.16c1.54,20.54,4.36,49.3,4.36,49.3l-24.39-32.09-5.65-6.42Z"/><path class="cls-3" d="M1703.43,983.53s3.77,4.1,3.77,9.41-1.37,37.49-1.37,37.49l-1.2,24.65s31.58,31.32,71.89,35.69c7.19-19.52,4.37-27,4.37-27l2-45.19-29-41.6Z"/><g class="cls-108"><path class="cls-53" d="M1695.21,1019.81s20.55-11.38,50,2.4,43.82,34.92,43.82,34.92l1-31.49-48.62-47.93s-43.48,5.13-43.48,6.16S1695.21,1019.81,1695.21,1019.81Z"/></g><path class="cls-23" d="M1836.26,873.29c1-.34,29.45,1.37,41.77-31.16s-7.19-51.35-28.76-53.75c-17.11-18.48-72.58-62-147.89-32.86s-74.81,102.36-65.56,141.39,71.38,96,71.38,96,29.52,6.68,41.85-3.08c22.59-31.33,48.79-71.64,48.79-71.64Z"/><g class="cls-109"><path class="cls-110" d="M1659.44,952.11a61.9,61.9,0,0,0,39.54,7.45c22.6-3.42,9.24-30.47,20.2-46.9s34.58-4.11,34.58-4.11-2.74-56.49,24-75.32c21.57,8.56,75.32,40.4,111.61-6.84-6.51,37.65-49,62.3-49,62.3l-33.21,90.38-54.43,32.53s-56.83-5.14-57.17-6.16S1659.44,952.11,1659.44,952.11Z"/><path class="cls-111" d="M1815.09,769s-42,29.37-139.57,20.14c55.51,33.79,121.52,25.91,163.37-1C1832.86,776.67,1815.09,769,1815.09,769Z"/></g><path class="cls-3" d="M1839.94,864.3s4.11,19.51,2.57,50.84c-.77,9.5,20.54,31.84,19,40.31s-14.63,12.07-15.4,14.89,1,51.1-21.31,61.89-67-16.69-75.24-29.79S1739.29,967,1739.29,967s-20,0-22.08-28.76,24.65-32.87,31.33-21.31,5.9,25.16,5.9,25.16l8.47-.51s-2.56-15.92,1.8-47.76,19-46,19-46S1818.63,869.44,1839.94,864.3Z"/><g class="cls-112"><circle class="cls-113" cx="1789.36" cy="953.91" r="21.05"/><path class="cls-53" d="M1760.6,844.87s21.91,18.15,49,27.39,37.32,8.56,37.32,8.56l-4.8-27.05-60.25-10.95Z"/><path class="cls-53" d="M1864.77,953s-11.47,11-19.26,11.47-6.16,4.62,1.45,6.5C1854.49,967.09,1861.86,965,1864.77,953Z"/></g><ellipse class="cls-14" cx="1812.39" cy="912.4" rx="8.82" ry="11.21"/><path class="cls-14" d="M1814.1,882.87c8.59.13,14.2,3.34,12.32,6.59s-5.48-2.39-16.77-1.11-14,.86-13.36-1.37S1802.63,882.7,1814.1,882.87Z"/><path class="cls-114" d="M1805.79,980.62a31.78,31.78,0,0,0,28.59,7.18"/><path class="cls-89" d="M1737.5,924.13c5.9-.56,7.78,10.18,5.9,15.32s-3.59,7.7-2.31,11.12-4.28,7.62-9.16,1.46S1723,925.5,1737.5,924.13Z"/><path class="cls-107" d="M1703.86,1024.52s12.32,14.12,51.87,14.89a406.8,406.8,0,0,0,3.85,54.95s-43.65-10-60.86-38C1699.49,1045.83,1703.86,1024.52,1703.86,1024.52Z"/><path class="cls-19" d="M2097.82,1459.4l33.55,7.87s5.14,27.73,0,50-13.35,28.07-13.35,28.07l-27.39-8.56Z"/><path class="cls-18" d="M1605.52,1099.24c29.37-17.82,65.47,21.57,110.92,91.67s82.42,130.18,107.84,143.27,283.47,121.71,283.47,121.71,6.93,69.32-13.86,84.73c-144.13-33.81-262.62-73.39-318.91-90.89-46.38-14.43-110.92-125.56-137.88-169.47S1558.53,1127.74,1605.52,1099.24Z"/><g class="cls-115"><circle class="cls-116" cx="2086.18" cy="1470.01" r="9.93"/><circle class="cls-116" cx="2052.63" cy="1459.74" r="9.93"/><path class="cls-117" d="M1572.39,1223.26s128.64,161,194.12,198,343.55,111.7,343.55,111.7l-12.32,17.71-369-106.3Z"/></g></svg>