<svg xmlns="http://www.w3.org/2000/svg" viewBox="0 0 2340 1560"><defs><style>.cls-1{isolation:isolate;}.cls-2{fill:#6e99d6;}.cls-3{fill:#95b5e8;}.cls-4{fill:#b7cfe2;}.cls-5{fill:#492c1e;}.cls-6{fill:#ffd6d2;}.cls-7{fill:#f49d98;}.cls-8{fill:#fff;}.cls-9{fill:#5a3c2a;}.cls-10{fill:#ce4d69;}.cls-11{opacity:0.3;mix-blend-mode:overlay;}.cls-12{fill:#96173e;}.cls-13{fill:#d67636;}.cls-14{fill:#2b160e;}.cls-15{fill:#e8f1f9;}.cls-16{fill:#d7e8f7;}.cls-17{fill:none;stroke:#b7cfe2;stroke-linecap:round;stroke-linejoin:round;stroke-width:3px;}</style></defs><title>image website</title><g class="cls-1"><g id="Layer_2" data-name="Layer 2"><polygon class="cls-2" points="1058.78 818.23 857.87 839.32 817.13 825.22 817.13 806.78 1058.78 806.78 1058.78 818.23"/><polygon class="cls-3" points="790.09 1380 819.53 1380 853.72 824.13 824.27 807.87 790.09 1380"/><polygon class="cls-3" points="1072.28 1380 1042.84 1380 907.07 823.47 936.51 807.2 1072.28 1380"/><polygon class="cls-2" points="1516.8 759.65 1566.14 759.65 1521.92 1021.71 1472.57 1021.71 1516.8 759.65"/><rect class="cls-3" x="1300.86" y="1008.51" width="282.19" height="26.39" rx="2.4" transform="translate(2883.91 2043.41) rotate(-180)"/><rect class="cls-4" x="1285.43" y="964.81" width="313.04" height="43.71" rx="12" transform="translate(2883.91 1973.32) rotate(-180)"/><rect class="cls-2" x="1418.12" y="1034.9" width="47.67" height="313.99" transform="translate(2883.91 2383.8) rotate(-180)"/><path class="cls-4" d="M1421.56,794.07a1044.16,1044.16,0,0,0,213.23.11,15.19,15.19,0,0,0,12.87-12L1675.2,633c1.36-7.33-3.93-13-11.23-12q-106.52,14.6-207.63-.11c-6.94-1-14.32,4.66-15.67,12L1413.13,782C1412,788.21,1415.62,793.45,1421.56,794.07Z"/><path class="cls-3" d="M1667.4,621h14.68c6.56,0,10.88,5.43,9.65,12.12l-27.41,148.4c-1.23,6.69-7.55,12.12-14.12,12.11h-15.32Z"/><polygon class="cls-2" points="1313.97 1379.75 1569.93 1379.75 1465.79 1348.9 1418.12 1348.9 1313.97 1379.75"/><rect class="cls-4" x="1332.98" y="1236.81" width="217.95" height="16.97" rx="8.48" transform="translate(2883.91 2490.59) rotate(180)"/><path class="cls-5" d="M1385.14,432l-9.69-4.47A23.86,23.86,0,0,1,1362.62,399h0a32.19,32.19,0,0,1,22.56-21.82,240.29,240.29,0,0,1,47.22-7.64,4.81,4.81,0,0,1,5,5.62l-.58,3.38s40.55-6.17,45.21,22.12c0,0,41.91,40.81-6.55,90.6Z"/><path class="cls-6" d="M1471.2,479.79l4.31,52.85h0a34.34,34.34,0,0,1-36.17,26.78h0a34.34,34.34,0,0,1-30.65-25.87l-1-3.85,2.55-32.88Z"/><polygon class="cls-7" points="1445.36 514.39 1407.71 529.7 1410.26 496.82 1445.36 514.39"/><path class="cls-6" d="M1380.6,423.54a549.36,549.36,0,0,0,8.59,63.75c5.33,27.24,34.36,43,59.74,31.73,13.52-6,25.58-17.14,29.19-37.52,0,0,14,2.12,14.94-20.05s-18-18.48-21.28-12.73l-.69,6.41a4.4,4.4,0,0,1-2.9,3.67h0a4.39,4.39,0,0,1-5.84-3.92l-2-36.05C1435,428.05,1408.36,429.07,1380.6,423.54Z"/><path class="cls-7" d="M1426.92,482.3a1.42,1.42,0,0,1-.29,0l-13.69-2.42a1.35,1.35,0,0,1-1.11-1.39l1.23-29a1.4,1.4,0,0,1,1.4-1.29,1.35,1.35,0,0,1,1.29,1.41l-1.17,27.78,12.52,2.22a1.35,1.35,0,0,1-.18,2.68Z"/><rect class="cls-5" x="1434.21" y="449.73" width="6.13" height="9.33" rx="3.07" transform="translate(2889.36 858.99) rotate(178.03)"/><rect class="cls-5" x="1396.54" y="453.01" width="6.13" height="9.33" rx="3.07" transform="translate(2814.15 866.85) rotate(178.03)"/><path class="cls-8" d="M1420.5,493.41a10.25,10.25,0,1,0,19-7.66Z"/><path class="cls-5" d="M1426.51,443.9a1.35,1.35,0,0,1-.9-2.4,21.71,21.71,0,0,1,24-2.79,1.35,1.35,0,0,1-1.38,2.33c-.42-.25-10.42-5.93-20.94,2.56A1.37,1.37,0,0,1,1426.51,443.9Z"/><path class="cls-5" d="M1386.54,448.5a1.38,1.38,0,0,1-1.1-.5,1.36,1.36,0,0,1,.21-1.9,21.72,21.72,0,0,1,24-2.79,1.35,1.35,0,0,1-1.37,2.32c-.43-.24-10.43-5.92-21,2.57A1.32,1.32,0,0,1,1386.54,448.5Z"/><path class="cls-7" d="M1473.91,468.69h0a1.19,1.19,0,0,0,1.37-.79c.34-1,1.67-4,3.33-4.58a1.88,1.88,0,0,1,1.7.23,1.18,1.18,0,0,0,1.64-.43,1.2,1.2,0,0,0-.43-1.64,4.26,4.26,0,0,0-3.75-.4,5.17,5.17,0,0,0-1.51.9c.79-3.05,2.14-6,4.26-6.18,4.48-.3,5.7,4.78,5.74,5a1.2,1.2,0,0,0,2.34-.55c-.59-2.52-3.07-7.2-8.24-6.85-6.38.44-7.33,12.65-7.41,14A1.2,1.2,0,0,0,1473.91,468.69Z"/><polygon class="cls-6" points="1161.99 1281.82 1147.33 1329.72 1123.04 1348.37 1094.41 1329.72 1103.82 1277.94 1161.99 1281.82"/><polygon class="cls-7" points="1103.82 1277.94 1101.61 1290.13 1156.32 1300.36 1161.99 1281.82 1103.82 1277.94"/><path class="cls-9" d="M1165.53,1366a18.94,18.94,0,0,1-2.52,5.62.56.56,0,0,1-.12.16,18,18,0,0,1-15.07,8h-116.3a7.82,7.82,0,0,1-7.88-8.11,7.58,7.58,0,0,1,4.2-6.7l66.56-35.22s29.95,10.84,52.94,0l15.26,21A17.88,17.88,0,0,1,1165.53,1366Z"/><path class="cls-5" d="M1163,1371.64a.56.56,0,0,1-.12.16,18,18,0,0,1-15.07,8h-116.3a7.82,7.82,0,0,1-7.88-8.11Z"/><polygon class="cls-6" points="1286.67 1281.82 1282.08 1329.72 1257.78 1348.37 1229.15 1329.72 1228.51 1277.94 1286.67 1281.82"/><polygon class="cls-7" points="1228.51 1277.94 1228.76 1298.06 1284.47 1304.76 1286.67 1281.82 1228.51 1277.94"/><path class="cls-9" d="M1300.28,1366a18.94,18.94,0,0,1-2.52,5.62,1.67,1.67,0,0,1-.12.16,18,18,0,0,1-15.08,8h-116.3a7.81,7.81,0,0,1-7.87-8.11,7.54,7.54,0,0,1,4.2-6.7l66.55-35.22s29.95,10.84,52.94,0l15.27,21A17.91,17.91,0,0,1,1300.28,1366Z"/><path class="cls-5" d="M1297.76,1371.64a1.67,1.67,0,0,1-.12.16,18,18,0,0,1-15.08,8h-116.3a7.81,7.81,0,0,1-7.87-8.11Z"/><path class="cls-10" d="M1100.07,1281.9l61.43,8.85a4.79,4.79,0,0,0,5.22-3.19l96.42-279,29.49-4.8,132.2-21.45a58.85,58.85,0,0,0,47.66-72.46l-9-36-125.93-14.35-142.44,84.37a73.47,73.47,0,0,0-36,62.19l-63,270.06A4.8,4.8,0,0,0,1100.07,1281.9Z"/><path class="cls-11" d="M1146.38,1287.91l15,2.68a4.79,4.79,0,0,0,5.38-3.16l96.38-278.91,29.49-4.8,3.08-13.46-10.8-25.46L1235,1000.62a38.4,38.4,0,0,0-14.63,21Z"/><path class="cls-10" d="M1547.35,935.82a58.81,58.81,0,0,1-48.29,46.45L1312.83,1006l-15.62,278.84c.19,2.76-.76,6.47-3,8.55l-63.46-.9c-3.13.12-9.2-1.15-9.68-7.51l-6.88-280.18a77.38,77.38,0,0,1,36.77-80.05l147-57.16.43,0,139.35,6.14,9,36A59.06,59.06,0,0,1,1547.35,935.82Z"/><path class="cls-11" d="M1547.35,935.82c-15.22-56-140.69-67.45-149-68.17l139.35,6.14,9,36A59.06,59.06,0,0,1,1547.35,935.82Z"/><path class="cls-12" d="M1217.68,1150a1.15,1.15,0,0,0,.26,0,1.2,1.2,0,0,0,.91-1.44c-.27-1.17-4-146.33-4.23-147.48-5.56-30.81,9.41-52.28,23.26-65a68.91,68.91,0,0,1,21.79-13.39l75.11-29.21a1.21,1.21,0,0,0,.68-1.56,1.2,1.2,0,0,0-1.55-.68l-75.11,29.21a71.35,71.35,0,0,0-22.54,13.86c-14.26,13.11-29.66,35.18-24.06,66.88.23,1.29,4,146.59,4.31,147.91A1.2,1.2,0,0,0,1217.68,1150Z"/><path class="cls-9" d="M1356.61,538.51l-8.23,106.2-3,38.62-3.72,47.8a5.25,5.25,0,0,1-8.21,3.92l-30.67-21.12-35.3-24.36a5.23,5.23,0,0,1-2-6.12l8.67-23.64,12-32.86,14.43-39.31a77.2,77.2,0,0,1,49.51-47.12Z"/><path class="cls-13" d="M1348.38,644.71l-3,38.62a18.8,18.8,0,0,1-1.68-2.14L1315.81,639l-41.61,20.81,12-32.86,22.66-11.33a19.24,19.24,0,0,1,24.6,6.6Z"/><path class="cls-6" d="M1328,731.26h0a46.41,46.41,0,0,1-53,23.61l-2.35-.62c-21.1-5.52-28.3-22.35-33.82-46.78l-17.91-158.61,25.6,2.17,45.15,155.19Z"/><path class="cls-5" d="M1221.71,556.25l-1.48-10a2.4,2.4,0,0,1,2.18-2.75,91.63,91.63,0,0,1,25.58,1.74,2.39,2.39,0,0,1,1.82,2.87l-1.81,8.12Z"/><path class="cls-7" d="M1291.63,706.22l1.67,12s18.76-8.49,17.61,31.37a51.9,51.9,0,0,0,17-18.31Z"/><path class="cls-9" d="M1341.67,731.14s-8.73,33.13-45.75,33.13-53.42-15.47-65.28-60.73-15.76-129-8.93-147.29c0,0,9.75-8.44,26.29,0,0,0,21.64,24.78,53.29,153.92Z"/><path class="cls-14" d="M1301.29,711.37a1.19,1.19,0,0,1-1.16-.91c-29.85-121.8-51-150.85-52.9-153.26a32,32,0,0,0-10.88-3.37,1.2,1.2,0,0,1-1.06-1.32,1.16,1.16,0,0,1,1.32-1.06,34.29,34.29,0,0,1,11.94,3.73,1.21,1.21,0,0,1,.36.28c.89,1,22.19,26.47,53.55,154.43a1.2,1.2,0,0,1-.88,1.45A1.43,1.43,0,0,1,1301.29,711.37Z"/><path class="cls-11" d="M1353.12,583.52l-11.45,147.62c-.31,4-10.53,27.43-34.78,32.05l-4.11-49.27Z"/><path class="cls-9" d="M1562.58,878.37a24,24,0,0,1-9.5,19.06l-5.5,4.18s-151.06-48.12-220.87-35.76l-4.54-7.3a31.57,31.57,0,0,1-4.08-10,32.05,32.05,0,0,1,4.18-24l13.87-22-.38-133.34-.15-43.73V622l21-83.52,46.73-9.15,27.05,11.38,51.67-6.53,52,22s5.49,44.64,11.69,102.39c1.17,11.06,2.37,22.61,3.57,34.42q.4,3.91.79,7.87C1556.63,765.84,1562.6,837,1562.58,878.37Z"/><path class="cls-5" d="M1482.06,534.22l-3.3-14a4.67,4.67,0,0,0-4.55-3.61h0s-37.7,31.47-66,6.09h0a4.36,4.36,0,0,0-4.28,3.5l-.65,3.18s-5.33,33,27.05,35.32C1459.62,566.78,1474.83,550.62,1482.06,534.22Z"/><path class="cls-13" d="M1549.33,693.05a18.32,18.32,0,0,1-1.65-1.25l-38.4-32.71-36,35.25a19.25,19.25,0,0,1-13.44,5.47h-.55a19.35,19.35,0,0,1-13.66-6.28l-33.91-37.42L1371.11,686a19.22,19.22,0,0,1-27.41-4.85l-7.94-12-.15-43.73,25.32,38.28,40-29.5a19.17,19.17,0,0,1,25.63,2.57L1460,673.7l35.59-34.85a19.14,19.14,0,0,1,25.9-.88l24.24,20.66C1546.93,669.69,1548.13,681.24,1549.33,693.05Z"/><path class="cls-11" d="M1553.08,897.44l-5.5,4.17s-151-48.13-220.88-35.76l-4.54-7.31a31.6,31.6,0,0,1-4.06-10c37-8,104.27,1.52,142.91,8.26a24,24,0,0,0,28.06-24.68l-7-162.69,20.3-5.65,47.77,37.16c6.49,64.91,12.48,136.06,12.44,177.45A23.93,23.93,0,0,1,1553.08,897.44Z"/><path class="cls-14" d="M1335.75,706.22h.11a1.2,1.2,0,0,0,1.19-1.21l-.83-74.63,1.13-32.47a1.2,1.2,0,0,0-1.11-1.23h0a1.2,1.2,0,0,0-1.24,1.16l-1.13,32.52.83,74.69A1.19,1.19,0,0,0,1335.75,706.22Z"/><path class="cls-7" d="M1234,512.62l11-10.34,9.66-12.1a3.5,3.5,0,0,1,6.1,3.18l-4.56,15.45-10.82,23.34-5.13,8.4Z"/><rect class="cls-4" x="1251.83" y="461.83" width="115.73" height="102.85" rx="5.17"/><path class="cls-15" d="M1301.29,538.11l20.42-30.22a4.8,4.8,0,0,1,7.77-.26l23.71,30.48Z"/><path class="cls-8" d="M1265.29,538.11l22.09-48.3a2.4,2.4,0,0,1,4.31-.12l25.5,48.42Z"/><path class="cls-6" d="M1267.57,497.08a3.38,3.38,0,0,1-2.4,2.33l-6.67,1.75-6.67,1.76-.51.12-11.88,8.23,12.39-4.95,1.2-.48,4.25-.55,3.76-.5a2.91,2.91,0,0,1,1,5.73l-7.35,1.59-1.29.29,1,.24,5.16,1.2a2.75,2.75,0,0,1,2,3.43,2.79,2.79,0,0,1-2.38,2l-7.41.69-.79.07-.27,0,0,.43,1,10.68v0l.43,4.52-.43,1.46-2.62,8.83a2.15,2.15,0,0,0-1.22-.72,92,92,0,0,0-25.59-1.73,2.41,2.41,0,0,0-1.17.44l3.17-43.35,18.88-21.84,8.55-2.85L1263,472.2a3.64,3.64,0,0,1,2.74,6.72l-13.87,6.72-1.85.88-12,14.88,12.17-6.09.53-.1,1.15-.21,9-1.71,2.85-.53A3.4,3.4,0,0,1,1267.57,497.08Z"/><path class="cls-7" d="M1234.86,525.7a1.06,1.06,0,0,1-.39.55A1,1,0,0,1,1233,526c-7.18-10.22-6.67-18.8-6.64-19.16a1,1,0,1,1,2.06.14h0c0,.08-.47,8.25,6.27,17.83A1.05,1.05,0,0,1,1234.86,525.7Z"/><path class="cls-7" d="M1250.78,520l-9.64,4.17,3.4-.07a6.06,6.06,0,0,1,5.58,3.44l1.71,3.58Z"/><path class="cls-9" d="M1587.71,747.36l-84.22-6.55a5.23,5.23,0,0,1-4.68-4l-13.49-54.32-3.26-13.12a119.73,119.73,0,0,1-.62-16.66c.55-25.22,8-72.65,52.65-96.51A58.33,58.33,0,0,1,1567,598.56l9.38,50.78,5.74,31.18,11.21,60.65A5.27,5.27,0,0,1,1587.71,747.36Z"/><path class="cls-13" d="M1582.07,680.52l-7,8.69a19.19,19.19,0,0,1-27.43,2.59l-38.4-32.71-24,23.44-3.26-13.12a119.73,119.73,0,0,1-.62-16.66l14.18-13.9a19.14,19.14,0,0,1,25.9-.88l38,32.35,16.85-21Z"/><path class="cls-6" d="M1554.32,744.33l-84.71-132.24L1447,632.32l54.29,130.87A65,65,0,0,0,1546,801.43h0a30.84,30.84,0,0,0,37.69-34.87l-3.17-19.77Z"/><path class="cls-6" d="M1412.2,579.84c-2.85,3.84-5.14,7.28-6.93,10.18a13.64,13.64,0,0,0,2.52,17.3l25.13,22.54a22.11,22.11,0,0,0,10.93,5.32l4.15.73,5,4.52,20.61-22-60.09-78a3.07,3.07,0,0,0-4.61-.29h0a3.07,3.07,0,0,0-.37,3.87l13.72,23.51c-1.07,1.18.35-.4,0,0-3.63,4-6.73,7.87-9.38,11.37C1412.67,579.19,1412.43,579.52,1412.2,579.84Z"/><path class="cls-6" d="M1469.09,612.45l-3.23-20.5a15.92,15.92,0,0,0-4.74-9l-2.83-2.71a15.92,15.92,0,0,0-9.13-4.29l-8.9-1,3.78,4.93,4.94,6.44-2.49,26.7Z"/><path class="cls-7" d="M1405.68,596.09a1.1,1.1,0,0,0,1.19-.42c9.17-12.69,24.81-21.82,25-21.91a1.11,1.11,0,1,0-1.11-1.92c-.65.38-16.2,9.45-25.65,22.54a1.1,1.1,0,0,0,.25,1.54A1.14,1.14,0,0,0,1405.68,596.09Z"/><polygon class="cls-7" points="1448.98 586.24 1453.51 592.14 1454.39 587.06 1443.34 578.88 1448.98 586.24"/><polygon class="cls-7" points="1554.32 744.33 1583.33 764.27 1580.53 746.79 1554.32 744.33"/><path class="cls-5" d="M1468.43,608.26l5.22,10.14L1447,643.11l-6.65-8.86S1449.12,622.51,1468.43,608.26Z"/><path class="cls-9" d="M1447,643.11s38.23,144.31,71.38,159.2,54.36,5.59,65.73-4.65,11-46.47,9.17-56.48-39-2.66-39-2.66-58.76-117.84-80.67-120.12C1473.65,618.4,1451.5,631,1447,643.11Z"/><path class="cls-14" d="M1518.37,803.51a1.19,1.19,0,0,1-.49-.1c-33.29-15-70.48-154.07-72.05-160a1.18,1.18,0,0,1,0-.72c1.5-4,5-8.49,10.32-13.25a1.2,1.2,0,1,1,1.6,1.8c-4.89,4.35-8.1,8.36-9.53,11.93,2.2,8.19,39.16,143.92,70.6,158a1.2,1.2,0,0,1-.49,2.29Z"/><path class="cls-14" d="M1554.32,739.72a1.2,1.2,0,0,1-1.07-.67c-20.23-40.55-62.91-117.71-79.72-119.46a1.2,1.2,0,0,1,.25-2.39c22.3,2.33,79.2,115.94,81.62,120.78a1.21,1.21,0,0,1-.54,1.61A1.16,1.16,0,0,1,1554.32,739.72Z"/><rect class="cls-4" x="1249.14" y="764.27" width="168.94" height="15.6" rx="2.4" transform="translate(2667.22 1544.14) rotate(-180)"/><path class="cls-16" d="M1046.3,779.87h222.6a4.8,4.8,0,0,0,4.24-7.06l-70-130.94a4.79,4.79,0,0,0-4.24-2.54H976.34a4.8,4.8,0,0,0-4.23,7.06l70,130.94A4.8,4.8,0,0,0,1046.3,779.87Z"/><circle class="cls-8" cx="1122.62" cy="709.6" r="14.4"/><path class="cls-3" d="M906.28,770.23l1.31,8.46,5.64-6.44,25-85.84a3.63,3.63,0,0,0-2.47-4.49h0a3.63,3.63,0,0,0-4.48,2.47Z"/><path class="cls-3" d="M891.87,682.71,888,675.07l-3.38,7.86,2.71,89.36a3.61,3.61,0,0,0,3.72,3.5h0a3.61,3.61,0,0,0,3.5-3.72Z"/><rect class="cls-16" x="897.84" y="646.05" width="17.36" height="132.43" rx="3" transform="translate(1849.35 1375.71) rotate(176.98)"/><line class="cls-3" x1="900.39" y1="651.11" x2="906.75" y2="771.47"/><path class="cls-3" d="M906.81,772.6a1.14,1.14,0,0,0,1.06-1.19l-6.36-120.36a1.13,1.13,0,1,0-2.25.11l6.36,120.37A1.14,1.14,0,0,0,906.81,772.6Z"/><path class="cls-3" d="M886.82,721.61H931.2a7,7,0,0,1,7,7V780a0,0,0,0,1,0,0H879.82a0,0,0,0,1,0,0V728.62A7,7,0,0,1,886.82,721.61Z" transform="translate(1818.02 1501.61) rotate(-180)"/><rect class="cls-4" x="875.39" y="713.02" width="67.23" height="8.59" rx="4.3" transform="translate(1818.02 1434.63) rotate(-180)"/><path class="cls-2" d="M938.33,721.61v3.21H895.81a9,9,0,0,0-9,9V764a9,9,0,0,0,9,9h42.4a6.88,6.88,0,0,1-6.88,6.88H886.84a7,7,0,0,1-7-7V721.61Z"/><rect class="cls-4" x="802.87" y="779.87" width="824.35" height="26.91" rx="5.23" transform="translate(2430.09 1586.65) rotate(-180)"/><rect class="cls-3" x="1359.06" y="779.87" width="269.64" height="26.91" rx="5.46" transform="translate(2987.76 1586.65) rotate(-180)"/><polygon class="cls-3" points="1346.51 1380 1375.95 1380 1409.08 837.51 1379.64 821.25 1346.51 1380"/><polygon class="cls-3" points="1628.7 1380 1599.25 1380 1464.93 829.38 1494.37 813.11 1628.7 1380"/><polygon class="cls-2" points="1615.19 818.23 1414.29 839.32 1373.55 825.22 1373.55 806.78 1615.19 806.78 1615.19 818.23"/><rect class="cls-3" x="817.13" y="806.78" width="556.42" height="18.43" transform="translate(2190.68 1632) rotate(-180)"/><rect class="cls-4" x="570" y="180" width="617.16" height="363.8" rx="11.23"/><rect class="cls-3" x="1063.96" y="211.28" width="95.28" height="23.1" rx="4.8"/><rect class="cls-15" x="596.22" y="211.28" width="95.28" height="23.1" rx="4.8"/><rect class="cls-8" x="618.6" y="342.28" width="154.2" height="38.43" rx="4.8"/><rect class="cls-15" x="618.6" y="399.14" width="67.03" height="20.12" rx="10.06"/><rect class="cls-3" x="824.32" y="280.22" width="309.9" height="199.22" rx="12"/><path class="cls-15" d="M960.77,437.69l47.53-70.37a11.18,11.18,0,0,1,18.08-.6l55.2,71Z"/><path class="cls-8" d="M877,437.69l51.43-112.45a5.58,5.58,0,0,1,10-.28l59.36,112.73Z"/><path class="cls-15" d="M1147.33,500.58H811.21a7.41,7.41,0,0,1-7.41-7.41V266.49a7.41,7.41,0,0,1,7.41-7.41h336.12a7.41,7.41,0,0,1,7.41,7.41V493.17A7.41,7.41,0,0,1,1147.33,500.58ZM811.21,263.88a2.61,2.61,0,0,0-2.61,2.61V493.17a2.61,2.61,0,0,0,2.61,2.61h336.12a2.61,2.61,0,0,0,2.61-2.61V266.49a2.61,2.61,0,0,0-2.61-2.61Z"/><rect class="cls-8" x="971.85" y="253.59" width="14.84" height="14.84" rx="2.4"/><rect class="cls-8" x="799.05" y="253.59" width="14.84" height="14.84" rx="2.4"/><rect class="cls-8" x="1144.4" y="253.59" width="14.84" height="14.84" rx="2.4"/><rect class="cls-8" x="799.05" y="372.41" width="14.84" height="14.84" rx="2.4"/><rect class="cls-8" x="1144.4" y="372.41" width="14.84" height="14.84" rx="2.4"/><rect class="cls-8" x="971.85" y="491.23" width="14.84" height="14.84" rx="2.4"/><rect class="cls-8" x="799.05" y="491.23" width="14.84" height="14.84" rx="2.4"/><rect class="cls-8" x="1144.4" y="491.23" width="14.84" height="14.84" rx="2.4"/><path class="cls-8" d="M1082,445.63l-.08,60.29a2.4,2.4,0,0,0,4.08,1.72l9.57-9.34a2.39,2.39,0,0,1,3.83.67l12.26,25.28a2.41,2.41,0,0,0,3.21,1.11l6.63-3.22,6.63-3.21a2.41,2.41,0,0,0,1.11-3.21L1117,490.44a2.39,2.39,0,0,1,1.85-3.42l13.26-1.74a2.39,2.39,0,0,0,1.17-4.26l-47.39-37.27A2.4,2.4,0,0,0,1082,445.63Z"/><rect class="cls-4" x="1501.8" y="180" width="268.2" height="181.49" rx="10.46"/><circle class="cls-3" cx="1635.9" cy="270.74" r="64.16"/><path class="cls-8" d="M1657.45,245.65l-25.6,32a2.36,2.36,0,0,1-3.52.2L1614,263.48a8,8,0,0,0-11.25,0l-.2.21a8,8,0,0,0,0,11.25l21.56,21.56a8,8,0,0,0,11.7-.5l34-40.25a8,8,0,0,0-.45-10.76h0A7.94,7.94,0,0,0,1657.45,245.65Z"/><line class="cls-17" x1="1209.39" y1="270.74" x2="1475.51" y2="270.74"/></g></g></svg>