<svg xmlns="http://www.w3.org/2000/svg" width="1250.638" height="1638.096" viewBox="0 0 1250.638 1638.096">
  <g id="Ipad" transform="translate(-1647.201 -71.217)">
    <g id="Groupe_1" data-name="Groupe 1">
      <path id="Tracé_1" data-name="Tracé 1" d="M1670.576,975.55l-5.933-888.567,18.363-10.765a36.43,36.43,0,0,1,36.63-.125L2859.72,733.956a75.942,75.942,0,0,1,38.119,65.4v855.833a39.168,39.168,0,0,1-19.525,33.886l-24.066,13.949L1710.061,1043.839A78.8,78.8,0,0,1,1670.576,975.55Z" fill="#7070cc"/>
      <path id="Tracé_2" data-name="Tracé 2" d="M1647.2,987.553V115.49a32.188,32.188,0,0,1,48.276-27.879L2836.345,745.959a76.239,76.239,0,0,1,38.135,66.035v855.658c0,32-34.619,52.016-62.352,36.052L1686.686,1055.842A78.8,78.8,0,0,1,1647.2,987.553Z" fill="#171755"/>
      <path id="Tracé_3" data-name="Tracé 3" d="M1671.842,973.822V154.135a30.465,30.465,0,0,1,45.692-26.386L2818.168,766.011a72.159,72.159,0,0,1,36.093,62.5v804.16c0,30.286-32.766,49.231-59.013,34.121L1709.213,1038.455A74.579,74.579,0,0,1,1671.842,973.822Z" fill="#dcd4fe" opacity="0.78"/>
    </g>
    <path id="Tracé_4" data-name="Tracé 4" d="M2305.9,575.7V868.093L2052.8,721.7V429.515Z" fill="#7070cc"/>
    <path id="Tracé_5" data-name="Tracé 5" d="M2287.695,586.214v250.34L2071,711.213V461.054Z" fill="#fff"/>
    <g id="Groupe_2" data-name="Groupe 2">
      <path id="Tracé_6" data-name="Tracé 6" d="M2198.527,994.445V1258.29L1708.659,974.356V710.7Z" fill="#fff"/>
      <path id="Tracé_7" data-name="Tracé 7" d="M2202.442,1265.084l-497.7-288.472V703.91l497.7,288.278ZM1712.574,972.1l482.038,279.4V996.7L1712.574,717.494Z" fill="#7070cc"/>
    </g>
    <path id="Tracé_8" data-name="Tracé 8" d="M2155.657,599.876v69.158a4.3,4.3,0,0,0,4.756,4.278l47.879-5.078a4.3,4.3,0,0,0,2.992-6.853l-47.879-64.08A4.3,4.3,0,0,0,2155.657,599.876Z" fill="#7070cc"/>
    <ellipse id="Ellipse_1" data-name="Ellipse 1" cx="10.136" cy="14.556" rx="10.136" ry="14.556" transform="translate(1710.247 630.133) rotate(-27.387)" fill="#fff"/>
    <ellipse id="Ellipse_2" data-name="Ellipse 2" cx="10.136" cy="14.556" rx="10.136" ry="14.556" transform="translate(1710.247 672.232) rotate(-27.387)" fill="#fff"/>
    <path id="Tracé_9" data-name="Tracé 9" d="M1747.808,652.3v.869a3.492,3.492,0,0,0,1.741,3.021L1949.686,772.3a3.492,3.492,0,0,0,5.243-3.021v-.869a3.492,3.492,0,0,0-1.741-3.021L1753.05,649.28A3.491,3.491,0,0,0,1747.808,652.3Z" fill="#fff"/>
    <path id="Tracé_10" data-name="Tracé 10" d="M1747.808,694.151v.869a3.49,3.49,0,0,0,1.741,3.021l200.137,116.113a3.492,3.492,0,0,0,5.243-3.021v-.869a3.494,3.494,0,0,0-1.741-3.021L1753.05,691.13A3.491,3.491,0,0,0,1747.808,694.151Z" fill="#fff"/>
    <ellipse id="Ellipse_3" data-name="Ellipse 3" cx="10.136" cy="14.556" rx="10.136" ry="14.556" transform="translate(1710.247 1016.308) rotate(-27.387)" fill="#fff"/>
    <path id="Tracé_11" data-name="Tracé 11" d="M1747.808,1038.227v.869a3.492,3.492,0,0,0,1.741,3.021l200.137,116.113a3.492,3.492,0,0,0,5.243-3.021v-.869a3.492,3.492,0,0,0-1.741-3.021L1753.05,1035.206A3.491,3.491,0,0,0,1747.808,1038.227Z" fill="#fff"/>
    <path id="Tracé_12" data-name="Tracé 12" d="M1708.659,974.356s8.234-37.055,39.157-20.4,69.06-50.068,111.2-38.639c35.086,9.515,33.9,156.4,70.766,140.937s73.739-70.186,97.526-22.612,11.894,92.768,47.574,96.336,35.086-23.011,66.6,0c26.13,19.079,55.8,96.07,57.038,128.316Z" fill="#7070cc" opacity="0.7"/>
    <path id="Tracé_13" data-name="Tracé 13" d="M1708.659,974.356v-98.9s59.376,7.568,74.838,109.041,102.68-6.148,145.893,13.674c44.335,20.338,18.236,118.722,63.431,112.775s199.708-83.254,205.706-48.763V1258.29Z" fill="#7070cc" opacity="0.57"/>
    <path id="Tracé_14" data-name="Tracé 14" d="M2790.244,840.441v769.09l-335.131-193.77V646.882Z" fill="#7070cc"/>
    <path id="Tracé_15" data-name="Tracé 15" d="M2772.043,850.955v727.037l-298.729-172.715V678.421Z" fill="#fff"/>
    <path id="Tracé_16" data-name="Tracé 16" d="M1967.822,395.092V687.485l-253.1-146.4V248.907Z" fill="#e5e1ff"/>
    <path id="Tracé_17" data-name="Tracé 17" d="M2510.278,746.01v25.11l224.8,130v-25.09Z" fill="#fc5d9d"/>
    <path id="Tracé_18" data-name="Tracé 18" d="M2574.24,880.145v25.11l91.1,52.446v-25.09Z" fill="#7070cc"/>
    <path id="Tracé_19" data-name="Tracé 19" d="M2500.623,840.735v66.454l55.457,33.693v-66.4Z" fill="#7070cc"/>
    <path id="Tracé_20" data-name="Tracé 20" d="M2500.623,954.8v66.454l55.457,33.693v-66.4Z" fill="#7070cc"/>
    <path id="Tracé_21" data-name="Tracé 21" d="M2574.24,926.608V939.8l160.84,94.073V1020.7Z" fill="#7070cc"/>
    <path id="Tracé_22" data-name="Tracé 22" d="M2574.24,999.253v25.11l91.1,52.446v-25.09Z" fill="#7070cc"/>
    <path id="Tracé_23" data-name="Tracé 23" d="M2574.24,1045.716v13.193l160.84,94.073v-13.173Z" fill="#7070cc"/>
    <g id="Groupe_3" data-name="Groupe 3" opacity="0.51">
      <path id="Tracé_24" data-name="Tracé 24" d="M2684.656,688.83l-26.716-15.493L1856.2,1123.5l26.808,15.51Z" fill="#fff" opacity="0.54"/>
      <path id="Tracé_25" data-name="Tracé 25" d="M1710.382,1039.13l92.686,53.624,801.738-450.23-108.7-63.036-799.85,449.1A74.485,74.485,0,0,0,1710.382,1039.13Z" fill="#fff" opacity="0.54"/>
      <path id="Tracé_26" data-name="Tracé 26" d="M2737.787,719.641l-801.642,450.107,30.344,17.556,801.546-450.122Z" fill="#fff" opacity="0.54"/>
    </g>
    <g id="Groupe_4" data-name="Groupe 4">
      <path id="Tracé_27" data-name="Tracé 27" d="M2505.278,1284.851v.869a3.49,3.49,0,0,0,1.741,3.021l155.521,90.119a3.491,3.491,0,0,0,5.242-3.021v-.869a3.491,3.491,0,0,0-1.741-3.021L2510.52,1281.83A3.491,3.491,0,0,0,2505.278,1284.851Z" fill="#7070cc"/>
      <path id="Tracé_28" data-name="Tracé 28" d="M2578.239,1389.319v.868a3.49,3.49,0,0,0,1.741,3.021l155.522,90.119a3.492,3.492,0,0,0,5.242-3.021v-.869a3.494,3.494,0,0,0-1.741-3.021L2583.481,1386.3A3.492,3.492,0,0,0,2578.239,1389.319Z" fill="#7070cc"/>
      <path id="Tracé_29" data-name="Tracé 29" d="M2504.614,1326.638v.869a3.493,3.493,0,0,0,1.741,3.021l155.522,90.119a3.491,3.491,0,0,0,5.242-3.021v-.869a3.489,3.489,0,0,0-1.741-3.021l-155.521-90.119A3.492,3.492,0,0,0,2504.614,1326.638Z" fill="#7070cc"/>
      <path id="Tracé_30" data-name="Tracé 30" d="M2673.42,1382.022v.869a3.492,3.492,0,0,0,1.741,3.021l60.341,34.735a3.492,3.492,0,0,0,5.242-3.021v-.869a3.491,3.491,0,0,0-1.741-3.021L2678.662,1379A3.492,3.492,0,0,0,2673.42,1382.022Z" fill="#7070cc"/>
      <path id="Tracé_31" data-name="Tracé 31" d="M2581.887,1350.516v.869a3.49,3.49,0,0,0,1.741,3.021l60.34,34.735a3.491,3.491,0,0,0,5.242-3.021v-.869a3.489,3.489,0,0,0-1.741-3.021l-60.34-34.735A3.492,3.492,0,0,0,2581.887,1350.516Z" fill="#7070cc"/>
      <path id="Tracé_32" data-name="Tracé 32" d="M2673.42,1422.483v.869a3.494,3.494,0,0,0,1.741,3.021l60.341,34.734a3.492,3.492,0,0,0,5.242-3.021v-.869A3.494,3.494,0,0,0,2739,1454.2l-60.341-34.734A3.491,3.491,0,0,0,2673.42,1422.483Z" fill="#7070cc"/>
      <path id="Tracé_33" data-name="Tracé 33" d="M2504.614,1346.868v.869a3.492,3.492,0,0,0,1.741,3.021l60.341,34.735a3.492,3.492,0,0,0,5.242-3.021v-.869a3.492,3.492,0,0,0-1.741-3.021l-60.34-34.735A3.492,3.492,0,0,0,2504.614,1346.868Z" fill="#7070cc"/>
      <path id="Tracé_34" data-name="Tracé 34" d="M2655.843,1392.967v.868a3.492,3.492,0,0,0,1.741,3.021l77.918,45.016a3.492,3.492,0,0,0,5.242-3.021v-.869a3.492,3.492,0,0,0-1.741-3.021l-77.918-45.016A3.492,3.492,0,0,0,2655.843,1392.967Z" fill="#7070cc"/>
      <path id="Tracé_35" data-name="Tracé 35" d="M2504.614,1305.413v.869c0,1.245.664,2.4,2.405,3.684l60.34,34.735c1.664.685,4.579-.994,4.579-3.685v-.868a3.5,3.5,0,0,0-1.741-3.022l-60.34-34.734A3.492,3.492,0,0,0,2504.614,1305.413Z" fill="#7070cc"/>
      <path id="Tracé_36" data-name="Tracé 36" d="M2505.278,1367.43v.869a3.492,3.492,0,0,0,1.741,3.021l155.521,90.119a3.491,3.491,0,0,0,5.242-3.021v-.869a3.49,3.49,0,0,0-1.741-3.021l-155.521-90.119A3.491,3.491,0,0,0,2505.278,1367.43Z" fill="#7070cc"/>
      <path id="Tracé_37" data-name="Tracé 37" d="M2673.42,1464.6v.869a3.492,3.492,0,0,0,1.741,3.021l60.341,34.735a3.492,3.492,0,0,0,5.242-3.021v-.869a3.491,3.491,0,0,0-1.741-3.021l-60.341-34.735A3.492,3.492,0,0,0,2673.42,1464.6Z" fill="#7070cc"/>
      <path id="Tracé_38" data-name="Tracé 38" d="M2581.887,1433.095v.869a3.49,3.49,0,0,0,1.741,3.021l60.34,34.735a3.491,3.491,0,0,0,5.242-3.021v-.869a3.489,3.489,0,0,0-1.741-3.021l-60.34-34.735A3.492,3.492,0,0,0,2581.887,1433.095Z" fill="#7070cc"/>
      <path id="Tracé_39" data-name="Tracé 39" d="M2655.843,1475.546v.868a3.492,3.492,0,0,0,1.741,3.021l77.918,45.016a3.492,3.492,0,0,0,5.242-3.021v-.869a3.492,3.492,0,0,0-1.741-3.021l-77.918-45.016A3.492,3.492,0,0,0,2655.843,1475.546Z" fill="#7070cc"/>
      <path id="Tracé_40" data-name="Tracé 40" d="M2504.614,1387.992v.869c0,1.245.664,2.4,2.405,3.684l60.34,34.735c1.664.685,4.579-.994,4.579-3.685v-.869a3.494,3.494,0,0,0-1.741-3.021l-60.34-34.734A3.492,3.492,0,0,0,2504.614,1387.992Z" fill="#7070cc"/>
    </g>
    <g id="Groupe_5" data-name="Groupe 5">
      <path id="Tracé_41" data-name="Tracé 41" d="M2505.278,1079.28v.869a3.492,3.492,0,0,0,1.741,3.021l155.521,90.118a3.491,3.491,0,0,0,5.242-3.021v-.868a3.489,3.489,0,0,0-1.741-3.021l-155.521-90.119A3.491,3.491,0,0,0,2505.278,1079.28Z" fill="#7070cc"/>
      <path id="Tracé_42" data-name="Tracé 42" d="M2578.239,1183.747v.869a3.491,3.491,0,0,0,1.741,3.021l155.522,90.119a3.492,3.492,0,0,0,5.242-3.021v-.869a3.491,3.491,0,0,0-1.741-3.021l-155.522-90.119A3.491,3.491,0,0,0,2578.239,1183.747Z" fill="#7070cc"/>
      <path id="Tracé_43" data-name="Tracé 43" d="M2504.614,1121.067v.868a3.5,3.5,0,0,0,1.741,3.022l155.522,90.118a3.491,3.491,0,0,0,5.242-3.021v-.869a3.492,3.492,0,0,0-1.741-3.021l-155.521-90.118A3.492,3.492,0,0,0,2504.614,1121.067Z" fill="#7070cc"/>
      <path id="Tracé_44" data-name="Tracé 44" d="M2673.42,1176.451v.869a3.494,3.494,0,0,0,1.741,3.021l60.341,34.734a3.491,3.491,0,0,0,5.242-3.021v-.869a3.494,3.494,0,0,0-1.741-3.021l-60.341-34.734A3.492,3.492,0,0,0,2673.42,1176.451Z" fill="#7070cc"/>
      <path id="Tracé_45" data-name="Tracé 45" d="M2581.887,1144.945v.869a3.492,3.492,0,0,0,1.741,3.021l60.34,34.734a3.491,3.491,0,0,0,5.242-3.021v-.868a3.492,3.492,0,0,0-1.741-3.022l-60.34-34.734A3.492,3.492,0,0,0,2581.887,1144.945Z" fill="#7070cc"/>
      <path id="Tracé_46" data-name="Tracé 46" d="M2673.42,1216.911v.869a3.493,3.493,0,0,0,1.741,3.021l60.341,34.735a3.492,3.492,0,0,0,5.242-3.021v-.869a3.491,3.491,0,0,0-1.741-3.021l-60.341-34.735A3.492,3.492,0,0,0,2673.42,1216.911Z" fill="#7070cc"/>
      <path id="Tracé_47" data-name="Tracé 47" d="M2504.614,1141.3v.869a3.494,3.494,0,0,0,1.741,3.021l60.341,34.734a3.491,3.491,0,0,0,5.242-3.021v-.869a3.494,3.494,0,0,0-1.741-3.021l-60.34-34.734A3.492,3.492,0,0,0,2504.614,1141.3Z" fill="#7070cc"/>
      <path id="Tracé_48" data-name="Tracé 48" d="M2655.843,1187.4v.869a3.494,3.494,0,0,0,1.741,3.021L2735.5,1236.3a3.492,3.492,0,0,0,5.242-3.022v-.869a3.491,3.491,0,0,0-1.741-3.02l-77.918-45.016A3.492,3.492,0,0,0,2655.843,1187.4Z" fill="#7070cc"/>
      <path id="Tracé_49" data-name="Tracé 49" d="M2504.614,1099.842v.868c0,1.246.664,2.4,2.405,3.685l60.34,34.734c1.664.686,4.579-.994,4.579-3.684v-.869a3.494,3.494,0,0,0-1.741-3.021l-60.34-34.735A3.493,3.493,0,0,0,2504.614,1099.842Z" fill="#7070cc"/>
      <path id="Tracé_50" data-name="Tracé 50" d="M2581.887,1290.2v.869a3.49,3.49,0,0,0,1.741,3.021l60.34,34.735a3.492,3.492,0,0,0,5.242-3.021v-.869a3.489,3.489,0,0,0-1.741-3.021l-60.34-34.735A3.492,3.492,0,0,0,2581.887,1290.2Z" fill="#7070cc"/>
      <path id="Tracé_51" data-name="Tracé 51" d="M2655.843,1332.654v.869a3.492,3.492,0,0,0,1.741,3.021l77.918,45.016a3.492,3.492,0,0,0,5.242-3.021v-.869a3.492,3.492,0,0,0-1.741-3.021l-77.918-45.016A3.492,3.492,0,0,0,2655.843,1332.654Z" fill="#7070cc"/>
      <path id="Tracé_52" data-name="Tracé 52" d="M2504.614,1245.1v.869c0,1.245.664,2.4,2.405,3.684l60.34,34.735c1.664.685,4.579-.994,4.579-3.685v-.868a3.5,3.5,0,0,0-1.741-3.022l-60.34-34.734A3.492,3.492,0,0,0,2504.614,1245.1Z" fill="#7070cc"/>
      <path id="Tracé_53" data-name="Tracé 53" d="M2505.278,1161.859v.869a3.492,3.492,0,0,0,1.741,3.021l155.521,90.118a3.491,3.491,0,0,0,5.242-3.021v-.868a3.493,3.493,0,0,0-1.741-3.022l-155.521-90.119A3.492,3.492,0,0,0,2505.278,1161.859Z" fill="#7070cc"/>
      <path id="Tracé_54" data-name="Tracé 54" d="M2578.239,1266.326v.869a3.492,3.492,0,0,0,1.741,3.021l155.522,90.119a3.492,3.492,0,0,0,5.242-3.021v-.869a3.491,3.491,0,0,0-1.741-3.021l-155.522-90.119A3.491,3.491,0,0,0,2578.239,1266.326Z" fill="#7070cc"/>
      <path id="Tracé_55" data-name="Tracé 55" d="M2504.614,1203.646v.868a3.492,3.492,0,0,0,1.741,3.021l155.522,90.119a3.491,3.491,0,0,0,5.242-3.021v-.868a3.492,3.492,0,0,0-1.741-3.022l-155.521-90.119A3.493,3.493,0,0,0,2504.614,1203.646Z" fill="#7070cc"/>
      <path id="Tracé_56" data-name="Tracé 56" d="M2673.42,1259.03v.869a3.494,3.494,0,0,0,1.741,3.021l60.341,34.734a3.491,3.491,0,0,0,5.242-3.021v-.868a3.494,3.494,0,0,0-1.741-3.022l-60.341-34.734A3.492,3.492,0,0,0,2673.42,1259.03Z" fill="#7070cc"/>
      <path id="Tracé_57" data-name="Tracé 57" d="M2581.887,1227.524v.869a3.492,3.492,0,0,0,1.741,3.021l60.34,34.734a3.491,3.491,0,0,0,5.242-3.021v-.869a3.491,3.491,0,0,0-1.741-3.021l-60.34-34.734A3.492,3.492,0,0,0,2581.887,1227.524Z" fill="#7070cc"/>
      <path id="Tracé_58" data-name="Tracé 58" d="M2673.42,1299.49v.869a3.492,3.492,0,0,0,1.741,3.021l60.341,34.735a3.492,3.492,0,0,0,5.242-3.021v-.869A3.491,3.491,0,0,0,2739,1331.2l-60.341-34.735A3.492,3.492,0,0,0,2673.42,1299.49Z" fill="#7070cc"/>
      <path id="Tracé_59" data-name="Tracé 59" d="M2504.614,1223.876v.869a3.494,3.494,0,0,0,1.741,3.021L2566.7,1262.5a3.492,3.492,0,0,0,5.242-3.021v-.869a3.494,3.494,0,0,0-1.741-3.021l-60.34-34.734A3.492,3.492,0,0,0,2504.614,1223.876Z" fill="#7070cc"/>
      <path id="Tracé_60" data-name="Tracé 60" d="M2655.843,1269.974v.869a3.494,3.494,0,0,0,1.741,3.021l77.918,45.015a3.491,3.491,0,0,0,5.242-3.021v-.869a3.491,3.491,0,0,0-1.741-3.02l-77.918-45.016A3.492,3.492,0,0,0,2655.843,1269.974Z" fill="#7070cc"/>
      <path id="Tracé_61" data-name="Tracé 61" d="M2504.614,1182.42v.869c0,1.246.664,2.4,2.405,3.685l60.34,34.734c1.664.686,4.579-.994,4.579-3.684v-.869a3.493,3.493,0,0,0-1.741-3.021l-60.34-34.735A3.492,3.492,0,0,0,2504.614,1182.42Z" fill="#7070cc"/>
    </g>
  </g>
</svg>
