<svg xmlns="http://www.w3.org/2000/svg" width="539.041" height="1207.504" viewBox="0 0 539.041 1207.504">
  <g id="Man" transform="translate(-1286.017 -248.907)">
    <path id="Tracé_100" data-name="Tracé 100" d="M1806.395,393.623v279.63L1564.346,533.247V253.819Z" fill="#7070cc"/>
    <path id="Tracé_101" data-name="Tracé 101" d="M1788.988,403.678V643.09L1581.752,523.22V283.982Z" fill="#fff"/>
    <path id="Tracé_102" data-name="Tracé 102" d="M1599.438,515.38,1771.3,615.021,1737.531,504.2l-37.34,23.785-53.634-134.6Z" fill="#7070cc"/>
    <ellipse id="Ellipse_5" data-name="Ellipse 5" cx="13.561" cy="19.475" rx="13.561" ry="19.475" transform="translate(1718.964 425.173) rotate(-27.387)" fill="#7070cc"/>
    <path id="Tracé_103" data-name="Tracé 103" d="M1572.633,248.907l-8.287,4.912,242.049,139.8v279.63l8.287-4.912V388.71Z" fill="#171755"/>
    <ellipse id="Ellipse_6" data-name="Ellipse 6" cx="268.11" cy="110.248" rx="268.11" ry="110.248" transform="translate(1286.017 1235.916)" fill="#7070cc"/>
    <path id="Tracé_104" data-name="Tracé 104" d="M1611.8,726.445c-117.444-139.465-57.691-161.282-57.691-161.282,50.235-47.82,116.574,89.991,116.574,89.991l25.706,43.328,71.5-61.96,25.621,23.712s-81.625,134.885-118.4,114.1C1638.014,753.359,1606.157,720.456,1611.8,726.445Z" fill="#c4bef3"/>
    <path id="Tracé_105" data-name="Tracé 105" d="M1617.214,854.76l60.418,251.935,20.6,216.727s-42.825,23.619-93.117,2.483c-.865-5.191-26.41-193.062-26.41-193.062l-53.071-136.014-26.216,147.66-33.171,223.2s-61.714,32.121-102.1,5.935c-.575-2.872,28.039-230.326,28.039-230.326L1419.3,811.741S1455.994,880,1617.214,854.76Z" fill="#161856"/>
    <path id="Tracé_106" data-name="Tracé 106" d="M1764.595,1297.962c-.072-.346-.718-10.318-.8-10.659-3.72-15.3-19.887-23.995-34.928-19.336-12.92,4-33.694,8.256-33.694,8.256l-1.477.394,4.535,46.805s-52.175,24.264-92.124,1.436l-.993-.262v26.448c26.163,39.656,82.768,7.149,82.768,7.149v-8.034C1739,1331.056,1769.743,1322.978,1764.595,1297.962Z" fill="#232323"/>
    <path id="Tracé_107" data-name="Tracé 107" d="M1603.518,875.07c-22.445,7.574-46.486,10.591-62.429,11.339a246.56,246.56,0,0,1-31.459-.475c-73.869-7.091-95.642-25.723-92.278-72.105,3.55-48.929-7.09-158.128-7.09-158.128-27.693-194.961,78.461-148.051,78.461-148.051.313-.769,6.246,2.7,13.075,7.009a98.658,98.658,0,0,0,40.481,14.461c18.8,2.347,46.175,11.724,69.137,37.785,100.494,114.061,7.772,140.3,8.6,156.724.85,16.761-.44,26.388-.886,47.866-.084,4.087-.928,14.685,1.969,42.959,0,0,3.6,30.418.068,44.971C1619.4,866.731,1610.642,872.666,1603.518,875.07Z" fill="#c4bef3"/>
    <path id="Tracé_108" data-name="Tracé 108" d="M1586.788,405.288c2.2.812,15.311,116.423-38.951,103.432,0,0,.126,13.62,4.729,22.258,0,0-38.5,13.847-61.724-5.26a12.812,12.812,0,0,1-3.977-13.973c1.626-4.846,4-11.791,6.892-19.871C1501.405,470.493,1482.481,366.769,1586.788,405.288Z" fill="#fbaa78"/>
    <path id="Tracé_109" data-name="Tracé 109" d="M1555.136,531.619l-5.309-7.985s-43.913,12-61.1-15.984c0,0-13.813,18.976,20.71,26.769C1542.836,541.19,1555.136,531.619,1555.136,531.619Z" fill="#120621"/>
    <path id="Tracé_110" data-name="Tracé 110" d="M1611.311,725.863c-.312-.28-.171-.117.487.582l-.487-.582c.724.65,3.911,3.705,8.931,8.17-.307,18.464-1.428,41.087-1.231,50.317-45.814-32.435-75.527-90.394-70.794-152.67C1558.107,654.651,1577.175,685.251,1611.311,725.863Z" fill="#9a9ae8"/>
    <g id="Groupe_6" data-name="Groupe 6">
      <path id="Tracé_111" data-name="Tracé 111" d="M1438.945,508.657l-.02.012.023-.015Z" fill="#333"/>
    </g>
    <path id="Tracé_112" data-name="Tracé 112" d="M1490.955,884.292c5.717.815,12.167,1.018,18.675,1.642a246.56,246.56,0,0,0,31.459.475c15.943-.748,39.984-3.765,62.429-11.339,5.131-1.732,11.109-5.3,14.715-9.884v25.037s-175.015,42.1-198.435-47.078h.005c6.485,20.727,24.929,32.495,61.574,39.048Z" fill="#101047"/>
    <g id="Groupe_7" data-name="Groupe 7">
      <path id="Tracé_113" data-name="Tracé 113" d="M1687.882,1350.159c45.111-16.857,74.347-25.132,77.059-44.035,3.043,23.4-27.386,31.554-77.059,50.117Z" fill="#ebedf6"/>
      <path id="Tracé_114" data-name="Tracé 114" d="M1687.882,1358.193v6.081s-56.6,32.507-82.768-7.149v-6.081C1631.277,1390.7,1687.882,1358.193,1687.882,1358.193Z" fill="#ebedf6"/>
    </g>
    <path id="Tracé_115" data-name="Tracé 115" d="M1522.628,1346.733c-.071-.346-.717-10.318-.8-10.659-3.719-15.3-19.582-22.866-34.928-19.336-10.8,2.484-10.528,2.363-10.528,2.363l-1.823.486-12.578,49.248s-57.882,27.622-97.83,4.794l-.993-.262v26.448c26.163,39.656,82.768,7.149,82.768,7.149v-8.033C1497.035,1379.827,1527.777,1371.749,1522.628,1346.733Z" fill="#232323"/>
    <g id="Groupe_8" data-name="Groupe 8">
      <path id="Tracé_116" data-name="Tracé 116" d="M1445.916,1398.93c45.111-16.857,74.347-25.132,77.059-44.035,3.043,23.4-27.386,31.554-77.059,50.117Z" fill="#ebedf6"/>
      <path id="Tracé_117" data-name="Tracé 117" d="M1445.916,1406.964v6.081s-56.6,32.507-82.768-7.149v-6.081C1389.311,1439.471,1445.916,1406.964,1445.916,1406.964Z" fill="#ebedf6"/>
    </g>
    <path id="Tracé_118" data-name="Tracé 118" d="M1559.986,464.024c-3.846.682-3.47-44.564-23.549,11.487s-51,22.938-47.81,15.938-15.325-30.567-15.3-33.326-41.64-39.8.584-91.7c18.419-22.641,93.034-20.308,104.1-33.48s55.33,59.15-8.968,83.52C1569.045,416.458,1572.507,461.8,1559.986,464.024Z" fill="#171755"/>
    <g id="Groupe_9" data-name="Groupe 9">
      <path id="Tracé_119" data-name="Tracé 119" d="M1650.419,1306.426l-22.634-177.419c-2.985-9.3-53.142-165.542-54.015-169.034l4.638-1.162v0h0c.8,3.088,35.666,111.846,54,168.941l.1.428,22.662,177.638Z" fill="#fff"/>
    </g>
    <g id="Groupe_10" data-name="Groupe 10">
      <path id="Tracé_120" data-name="Tracé 120" d="M1422.165,1356.579l-4.734-.676,29.03-203.3,17.406-175.142,4.758.473-17.423,175.3Z" fill="#fff"/>
    </g>
    <path id="Tracé_121" data-name="Tracé 121" d="M1784.674,597.785c-1.214,4.728-4.155,16.545-3.049,28.236l-10.093,14.422,20.012,18.52,8.48-10.893s49.169-10.137,9.689-58.911l-11.776,25.066a2.115,2.115,0,0,1-4.029-.882l-.122-14.373C1793.74,593.582,1786.014,592.566,1784.674,597.785Z" fill="#fbaa78"/>
  </g>
</svg>
