<?xml version="1.0" encoding="utf-8"?>
<!-- Generator: Adobe Illustrator 16.0.0, SVG Export Plug-In . SVG Version: 6.00 Build 0)  -->
<!DOCTYPE svg PUBLIC "-//W3C//DTD SVG 1.1//EN" "http://www.w3.org/Graphics/SVG/1.1/DTD/svg11.dtd">
<svg version="1.1" id="icons" xmlns="http://www.w3.org/2000/svg" xmlns:xlink="http://www.w3.org/1999/xlink" x="0px" y="0px"
	 width="64px" height="64px" viewBox="0 0 64 64" enable-background="new 0 0 64 64" xml:space="preserve">
<g>
	<g>
		<path fill="#545C66" d="M50,58.004c0,3.3-2.7,6-6,6H20c-3.3,0-6-2.7-6-6V9.999c0-3.3,2.7-6,6-6h24c3.3,0,6,2.7,6,6V58.004z"/>
		<path fill="#656D78" d="M50,54.001c0,3.3-2.7,6-6,6H20c-3.3,0-6-2.7-6-6V5.996c0-3.3,2.7-6,6-6h24c3.3,0,6,2.7,6,6V54.001z"/>
		<path fill="#AAB2BD" d="M32,53.496c1.1,0,2,0.9,2,2c0,1.11-0.9,2-2,2s-2-0.89-2-2C30,54.396,30.9,53.496,32,53.496z"/>
		<g>
			<g>
				<path fill="#5D9CEC" d="M29.03,4.498c-0.553,0-1.005-0.447-1.005-1s0.442-1,0.994-1h0.011c0.552,0,1,0.447,1,1
					S29.582,4.498,29.03,4.498z"/>
			</g>
			<g>
				<path fill="#545C66" d="M35,4.498h-3c-0.553,0-1-0.447-1-1s0.447-1,1-1h3c0.553,0,1,0.447,1,1S35.553,4.498,35,4.498z"/>
			</g>
		</g>
	</g>
	<rect x="16" y="6.998" fill="#E6E9ED" width="32" height="44"/>
	<path fill="#5D9CEC" d="M44,37.01H20c-0.55,0-1,0.45-1,1v12.991h26V38.01C45,37.46,44.55,37.01,44,37.01z"/>
	<path fill="#ED5565" d="M20,11c-0.55,0-1,0.45-1,1v14c0,0.55,0.45,1,1,1h24c0.55,0,1-0.45,1-1V12c0-0.55-0.45-1-1-1H20z"/>
	<path fill="#FFCE54" d="M24.5,40.5c1.106,0,2,0.906,2,2c0,1.12-0.894,2-2,2s-2-0.894-2-2C22.5,41.406,23.394,40.5,24.5,40.5z"/>
	<polygon fill="#F5F7FA" points="34,19 30,22 30,16 	"/>
	<g>
		<g>
			<path fill="#CCD1D9" d="M44.012,30.996H20.001c-0.553,0-1-0.447-1-1s0.447-1,1-1h24.011c0.553,0,1,0.447,1,1
				S44.564,30.996,44.012,30.996z"/>
		</g>
		<g>
			<path fill="#CCD1D9" d="M32,34H20.001c-0.553,0-1-0.447-1-1s0.447-1,1-1H32c0.553,0,1,0.447,1,1S32.553,34,32,34z"/>
		</g>
	</g>
	<path fill="#545C66" d="M29.673,46.368c-0.024-0.03-0.059-0.044-0.085-0.07c-0.026-0.027-0.041-0.062-0.071-0.086
		c-0.025-0.021-0.056-0.024-0.082-0.042c-0.056-0.036-0.111-0.064-0.172-0.089c-0.062-0.024-0.121-0.046-0.185-0.058
		c-0.063-0.012-0.123-0.015-0.187-0.015s-0.124,0.003-0.187,0.015c-0.063,0.012-0.122,0.033-0.184,0.058s-0.117,0.052-0.173,0.089
		c-0.026,0.018-0.057,0.021-0.082,0.042c-0.03,0.024-0.045,0.059-0.071,0.086c-0.026,0.026-0.062,0.041-0.085,0.07l-3.698,4.623
		h8.385c0.093-0.306,0.058-0.646-0.157-0.914L29.673,46.368z"/>
	<path fill="#656D78" d="M37.439,43.169c-0.061-0.04-0.125-0.065-0.191-0.091c-0.056-0.021-0.107-0.046-0.165-0.058
		c-0.066-0.013-0.131-0.011-0.198-0.01c-0.062,0-0.121-0.003-0.181,0.009c-0.062,0.012-0.117,0.038-0.176,0.062
		c-0.064,0.024-0.126,0.049-0.185,0.088c-0.017,0.011-0.036,0.013-0.052,0.024c-0.039,0.029-0.061,0.072-0.095,0.106
		c-0.034,0.033-0.076,0.055-0.105,0.094l-5.698,7.598H43.39l-5.698-7.598c-0.029-0.039-0.071-0.061-0.105-0.094
		c-0.034-0.034-0.056-0.077-0.095-0.106C37.476,43.182,37.456,43.18,37.439,43.169z"/>
</g>
</svg>
