<?xml version="1.0" encoding="utf-8"?>
<!-- Generator: Adobe Illustrator 16.0.0, SVG Export Plug-In . SVG Version: 6.00 Build 0)  -->
<!DOCTYPE svg PUBLIC "-//W3C//DTD SVG 1.0//EN" "http://www.w3.org/TR/2001/REC-SVG-20010904/DTD/svg10.dtd">
<svg version="1.0" id="Layer_1" xmlns="http://www.w3.org/2000/svg" xmlns:xlink="http://www.w3.org/1999/xlink" x="0px" y="0px"
	 width="100px" height="100px" viewBox="0 0 100 100" enable-background="new 0 0 100 100" xml:space="preserve">
<path fill="none" stroke="#000000" stroke-width="2" stroke-linecap="round" stroke-linejoin="round" stroke-miterlimit="10" d="
	M85.001,35h-5v35c0,2.76-2.239,5-5.001,5H29.999v5c0,2.762,2.239,5,4.999,5H85c2.761,0,5-2.238,5-4.998v-40
	C90,37.24,87.763,35,85.001,35z"/>
<path fill="none" stroke="#000000" stroke-width="2" stroke-linecap="round" stroke-linejoin="round" stroke-miterlimit="10" d="
	M75.002,25h-5v35.002c0,2.758-2.239,4.998-5.001,4.998H20.002v4.998C20.002,72.76,22.237,75,25,75h50c2.762,0,5.001-2.24,5.001-5
	V30.001C80.001,27.239,77.764,25,75.002,25z"/>
<path fill="none" stroke="#000000" stroke-width="2" stroke-linecap="round" stroke-linejoin="round" stroke-miterlimit="10" d="
	M50.001,30.001L70.002,60c0,2.76-2.239,5-5.001,5H25l6.467-9.053L50.001,30.001z"/>
<path fill="none" stroke="#000000" stroke-width="2" stroke-linecap="round" stroke-linejoin="round" stroke-miterlimit="10" d="
	M50.001,30.001L70.002,60c0,0.002,0-40,0-40c0-2.762-2.238-5.001-4.999-5.001l-50,0.002C12.24,15.001,10,17.239,10,20v40
	c0,0,12.503-17.5,12.501-17.5l8.966,13.447L50.001,30.001z"/>
<path fill="none" stroke="#000000" stroke-width="2" stroke-linecap="round" stroke-linejoin="round" stroke-miterlimit="10" d="
	M25,65H14.999C12.24,65,10,62.76,10,60c0,0,12.503-17.5,12.501-17.5l8.966,13.447L25,65z"/>
<circle fill="none" stroke="#000000" stroke-width="2" stroke-linecap="round" stroke-linejoin="round" stroke-miterlimit="10" cx="23.75" cy="28.75" r="6.25"/>
</svg>
