<?xml version="1.0" encoding="utf-8"?>
<!-- Generator: Adobe Illustrator 16.0.0, SVG Export Plug-In . SVG Version: 6.00 Build 0)  -->
<!DOCTYPE svg PUBLIC "-//W3C//DTD SVG 1.1//EN" "http://www.w3.org/Graphics/SVG/1.1/DTD/svg11.dtd">
<svg version="1.1" id="icons" xmlns="http://www.w3.org/2000/svg" xmlns:xlink="http://www.w3.org/1999/xlink" x="0px" y="0px"
	 width="64px" height="64px" viewBox="0 0 64 64" enable-background="new 0 0 64 64" xml:space="preserve">
<g>
	<g>
		<rect x="30" y="46.995" fill="#545C66" width="4" height="7"/>
		<path fill="#656D78" d="M4,10.005v32.99h56v-32.99H4z M63,9.005v35.99c0,1.1-0.9,2-2,2H34h-4H3c-1.1,0-2-0.9-2-2V9.005
			c0-1.1,0.9-2,2-2h58C62.1,7.005,63,7.905,63,9.005z"/>
		<path fill="#656D78" d="M48,55.995v1H15.99v-1c0-1.11,0.899-2,2-2H30h4h12C47.11,53.995,48,54.885,48,55.995z"/>
		<rect x="4" y="10.005" fill="#5D9CEC" width="56" height="32.99"/>
		<g>
			<polygon fill="#87BCF4" points="36.002,43 30,43 25.996,10 31.998,10 			"/>
			<polygon fill="#87BCF4" points="38.004,43 37.008,43 33.004,10 34,10 			"/>
		</g>
	</g>
	<g>
		<g>
			<path fill="#545C66" d="M32.055,45.998c-0.553,0-1.005-0.447-1.005-1s0.442-1,0.994-1h0.011c0.552,0,1,0.447,1,1
				S32.606,45.998,32.055,45.998z"/>
		</g>
	</g>
</g>
</svg>
