<svg xmlns="http://www.w3.org/2000/svg" width="377.334" height="533.476" viewBox="0 0 377.334 533.476">
  <g id="plant" transform="translate(-666.097 -1195.176)">
    <ellipse id="Ellipse_10" data-name="Ellipse 10" cx="72.858" cy="37.592" rx="72.858" ry="37.592" transform="translate(776.948 1653.469)" fill="#7070cc"/>
    <g id="plant-2" data-name="plant">
      <path id="Tracé_136" data-name="Tracé 136" d="M848.469,1500.642c-37.414,0-68.264-13.055-72.63-29.9a7.746,7.746,0,0,1-.533-.724L811.5,1701.593s12.676,11.051,36.744,11.051c23.82,0,36.171-11.051,36.171-11.051l36.606-230.552C916.373,1487.741,885.663,1500.642,848.469,1500.642Z" fill="#171755"/>
      <g id="Groupe_12" data-name="Groupe 12">
        <path id="Tracé_137" data-name="Tracé 137" d="M848.544,1602.42c21.2,0,40.29-4.2,53.652-10.893l3.824-24.084c-13.405,7.819-34.065,12.832-57.246,12.832-23.625,0-44.63-5.207-58.007-13.284l3.811,24.38C807.953,1598.161,827.177,1602.42,848.544,1602.42Z" fill="#fff"/>
        <path id="Tracé_138" data-name="Tracé 138" d="M848.544,1618.671c-19.947,0-38.024-3.712-51.22-9.729l1.831,11.718c13.04,5.6,30.469,9.019,49.619,9.019,18.723,0,35.8-3.271,48.737-8.648l1.9-11.929C886.241,1615.024,868.312,1618.671,848.544,1618.671Z" fill="#fff"/>
      </g>
      <ellipse id="Ellipse_11" data-name="Ellipse 11" cx="73.163" cy="34.006" rx="73.163" ry="34.006" transform="translate(775.306 1434.335)" fill="#7070cc"/>
      <ellipse id="Ellipse_12" data-name="Ellipse 12" cx="60.899" cy="26.734" rx="60.899" ry="26.734" transform="translate(788.619 1440.43)" fill="#fff"/>
      <path id="Tracé_139" data-name="Tracé 139" d="M901.76,1419.773" fill="none" stroke="#727b8e" stroke-miterlimit="10" stroke-width="1"/>
      <path id="Tracé_140" data-name="Tracé 140" d="M900.831,1419.773s37.505,29,102.3-11.694a72.376,72.376,0,0,1,24.739-10.08c18.041-3.51,21.385-28.086,4.757-35.916-26.081-12.281-57.742-15.881-93.41,2.145C939.222,1364.228,902.533,1382.052,900.831,1419.773Z" fill="#9b94fd"/>
      <path id="Tracé_141" data-name="Tracé 141" d="M818.5,1440.423a11.7,11.7,0,0,1-8.874,11.63c-14.977,3.654-48.669,5.512-90.324-32.163-13.88-12.553-28.283-17.61-41.923-18.294-12.095-.606-15.637-16.769-4.808-22.188,32.884-16.457,74.918-23.313,117.287,8.394C789.857,1387.8,817.806,1408.041,818.5,1440.423Z" fill="#9b94fd"/>
      <path id="Tracé_142" data-name="Tracé 142" d="M863.944,1404.042s43.062-1.212,74.534-70.959c6.869-15.225,20.689-26.365,35.321-34.35,15.406-8.408,8.865-31.85-8.677-31.353-29.461.833-64.224,13.477-90.878,58.032C874.244,1325.412,849.519,1371.271,863.944,1404.042Z" fill="#9b94fd"/>
      <path id="Tracé_143" data-name="Tracé 143" d="M825.479,1377.386a12.488,12.488,0,0,1-15.686,11.305c-15.75-4.092-42.963-17.461-68.476-60.58-11.08-18.728-33.121-29.266-52.862-35.153-12.265-3.657-11.819-21.141.614-24.177,31.594-7.713,76.656-5.936,115,44.3.185.241.358.485.527.737C807.177,1317.694,826.934,1348.307,825.479,1377.386Z" fill="#9b94fd"/>
      <path id="Tracé_144" data-name="Tracé 144" d="M832.827,1363.24a15.241,15.241,0,0,0,23.882-1.933c11.794-17.876,26.2-52.619,5.726-99.508a257.508,257.508,0,0,1-17.14-54.286c-3.107-16.12-25.983-16.571-29.764-.595-2.781,11.752-5.466,25.783-7.886,42.531-4.2,29.055-4.212,57.681,6.159,85.144C817.549,1344.512,825.065,1354.933,832.827,1363.24Z" fill="#9b94fd"/>
      <path id="Tracé_145" data-name="Tracé 145" d="M865.322,1493.195c5.838-36.151,28.823-68.76,59.975-87.732A118.75,118.75,0,0,1,953.248,1393c2.011-.6,1.155-3.752-.868-3.151-35.881,10.66-66,38.3-81.159,72.358a121.832,121.832,0,0,0-9.05,30.117c-.332,2.057,2.816,2.942,3.151.869Z" fill="#7070cc"/>
      <path id="Tracé_146" data-name="Tracé 146" d="M835.94,1493.409c-5.571-34.462-27.394-65.513-57.165-83.512a115.362,115.362,0,0,0-26.8-11.857c-2.019-.6-2.882,2.551-.868,3.15,32.707,9.722,59.92,34.683,73.639,65.788a111.991,111.991,0,0,1,8.042,27.3c.335,2.07,3.484,1.192,3.151-.869Z" fill="#7070cc"/>
      <path id="Tracé_147" data-name="Tracé 147" d="M860.321,1493.844c-2.637-30.63-1.247-61.534,5.946-91.492,6.462-26.912,17.29-52.734,33.179-75.468a183.313,183.313,0,0,1,30.528-33.867c1.595-1.375-.724-3.677-2.31-2.311-20.671,17.813-37,40.307-48.607,64.942-12.562,26.656-19.745,55.763-22.261,85.075a310.089,310.089,0,0,0,.258,53.121c.179,2.079,3.448,2.1,3.267,0Z" fill="#7070cc"/>
      <path id="Tracé_148" data-name="Tracé 148" d="M840.677,1493.9c1.139-13.229,1.583-26.552.052-39.77-1.386-11.952-4.3-23.615-7.675-35.145-3.943-13.492-8.138-26.885-13.823-39.759a208.756,208.756,0,0,0-20.012-35.6,186.485,186.485,0,0,0-30.819-34.216c-1.586-1.367-3.907.934-2.311,2.31,20.486,17.653,36.59,39.866,48.1,64.28,5.929,12.581,10.265,25.68,14.269,38.975,3.505,11.635,6.78,23.39,8.524,35.437,2.087,14.415,1.678,29.018.432,43.488-.18,2.095,3.088,2.083,3.267,0Z" fill="#7070cc"/>
      <path id="Tracé_149" data-name="Tracé 149" d="M838.888,1285.813a1007.527,1007.527,0,0,1,6.926,162.207q-.878,22.941-2.8,45.824c-.175,2.095,3.093,2.083,3.267,0a1007.526,1007.526,0,0,0,.494-162.355q-1.785-22.887-4.617-45.676c-.255-2.06-3.525-2.085-3.267,0Z" fill="#7070cc"/>
    </g>
  </g>
</svg>
