<svg xmlns="http://www.w3.org/2000/svg" width="377.334" height="533.476" viewBox="0 0 377.334 533.476">
  <g id="plant" transform="translate(-1667.58 -1771.386)">
    <ellipse id="Ellipse_7" data-name="Ellipse 7" cx="72.858" cy="37.592" rx="72.858" ry="37.592" transform="translate(1778.431 2229.678)" fill="#7070cc"/>
    <g id="plant-2" data-name="plant">
      <path id="Tracé_122" data-name="Tracé 122" d="M1849.952,2076.852c-37.414,0-68.264-13.055-72.629-29.9a7.613,7.613,0,0,1-.534-.723l36.194,231.571s12.676,11.052,36.745,11.052c23.819,0,36.17-11.052,36.17-11.052l36.606-230.551C1917.856,2063.951,1887.146,2076.852,1849.952,2076.852Z" fill="#171755"/>
      <g id="Groupe_11" data-name="Groupe 11">
        <path id="Tracé_123" data-name="Tracé 123" d="M1850.027,2178.63c21.2,0,40.291-4.195,53.652-10.893l3.824-24.084c-13.405,7.819-34.065,12.831-57.246,12.831-23.625,0-44.63-5.206-58.007-13.283l3.811,24.38C1809.436,2174.371,1828.66,2178.63,1850.027,2178.63Z" fill="#fff"/>
        <path id="Tracé_124" data-name="Tracé 124" d="M1850.027,2194.881c-19.947,0-38.023-3.712-51.22-9.729l1.832,11.718c13.039,5.6,30.468,9.019,49.618,9.019,18.723,0,35.8-3.271,48.738-8.648l1.894-11.929C1887.724,2191.234,1869.8,2194.881,1850.027,2194.881Z" fill="#fff"/>
      </g>
      <ellipse id="Ellipse_8" data-name="Ellipse 8" cx="73.163" cy="34.006" rx="73.163" ry="34.006" transform="translate(1776.789 2010.545)" fill="#7070cc"/>
      <ellipse id="Ellipse_9" data-name="Ellipse 9" cx="60.899" cy="26.734" rx="60.899" ry="26.734" transform="translate(1790.102 2016.639)" fill="#fff"/>
      <path id="Tracé_125" data-name="Tracé 125" d="M1903.243,1995.983" fill="none" stroke="#727b8e" stroke-miterlimit="10" stroke-width="1"/>
      <path id="Tracé_126" data-name="Tracé 126" d="M1902.314,1995.983s37.505,29,102.305-11.694a72.374,72.374,0,0,1,24.74-10.08c18.04-3.51,21.384-28.086,4.757-35.916-26.082-12.282-57.743-15.881-93.411,2.145C1940.7,1940.438,1904.016,1958.262,1902.314,1995.983Z" fill="#9b94fd"/>
      <path id="Tracé_127" data-name="Tracé 127" d="M1819.983,2016.633a11.7,11.7,0,0,1-8.875,11.63c-14.976,3.654-48.669,5.512-90.324-32.163-13.88-12.553-28.282-17.61-41.923-18.294-12.094-.606-15.637-16.769-4.808-22.188,32.885-16.457,74.918-23.314,117.287,8.394C1791.34,1964.012,1819.29,1984.251,1819.983,2016.633Z" fill="#9b94fd"/>
      <path id="Tracé_128" data-name="Tracé 128" d="M1865.427,1980.252s43.062-1.212,74.534-70.96c6.87-15.224,20.689-26.364,35.322-34.35,15.405-8.407,8.865-31.849-8.678-31.352-29.461.833-64.224,13.477-90.877,58.032C1875.728,1901.622,1851,1947.481,1865.427,1980.252Z" fill="#9b94fd"/>
      <path id="Tracé_129" data-name="Tracé 129" d="M1826.962,1953.6a12.488,12.488,0,0,1-15.686,11.305c-15.749-4.092-42.963-17.461-68.476-60.581-11.08-18.727-33.121-29.265-52.862-35.152-12.265-3.657-11.819-21.141.615-24.177,31.593-7.713,76.655-5.936,115,44.3.184.241.357.485.526.737C1808.661,1893.9,1828.417,1924.516,1826.962,1953.6Z" fill="#9b94fd"/>
      <path id="Tracé_130" data-name="Tracé 130" d="M1834.31,1939.45a15.241,15.241,0,0,0,23.882-1.933c11.8-17.876,26.2-52.619,5.726-99.508a257.533,257.533,0,0,1-17.14-54.286c-3.107-16.12-25.983-16.571-29.764-.595-2.781,11.752-5.466,25.783-7.885,42.531-4.2,29.054-4.213,57.681,6.158,85.144C1819.032,1920.722,1826.548,1931.142,1834.31,1939.45Z" fill="#9b94fd"/>
      <path id="Tracé_131" data-name="Tracé 131" d="M1866.805,2069.405c5.838-36.151,28.823-68.76,59.975-87.732a118.769,118.769,0,0,1,27.951-12.461c2.011-.6,1.155-3.752-.868-3.151-35.881,10.66-66,38.3-81.159,72.358a121.834,121.834,0,0,0-9.05,30.117c-.332,2.057,2.816,2.942,3.151.869Z" fill="#7070cc"/>
      <path id="Tracé_132" data-name="Tracé 132" d="M1837.423,2069.619c-5.57-34.462-27.393-65.514-57.165-83.512a115.383,115.383,0,0,0-26.8-11.858c-2.019-.6-2.882,2.552-.868,3.151,32.707,9.722,59.92,34.683,73.639,65.788a111.945,111.945,0,0,1,8.042,27.3c.335,2.07,3.484,1.192,3.151-.869Z" fill="#7070cc"/>
      <path id="Tracé_133" data-name="Tracé 133" d="M1861.8,2070.054c-2.637-30.63-1.247-61.535,5.946-91.492,6.463-26.912,17.29-52.734,33.18-75.468a183.264,183.264,0,0,1,30.527-33.867c1.6-1.375-.724-3.678-2.31-2.311-20.671,17.813-37,40.306-48.607,64.942-12.561,26.656-19.744,55.763-22.261,85.075a310.083,310.083,0,0,0,.258,53.121c.179,2.079,3.448,2.1,3.267,0Z" fill="#7070cc"/>
      <path id="Tracé_134" data-name="Tracé 134" d="M1842.161,2070.107c1.138-13.229,1.583-26.552.051-39.77-1.385-11.952-4.305-23.615-7.675-35.145-3.942-13.492-8.138-26.885-13.823-39.759a208.751,208.751,0,0,0-20.011-35.6,186.568,186.568,0,0,0-30.82-34.217c-1.586-1.366-3.907.935-2.31,2.311,20.486,17.653,36.59,39.866,48.095,64.28,5.929,12.581,10.265,25.68,14.27,38.975,3.505,11.635,6.779,23.39,8.524,35.437,2.086,14.415,1.677,29.018.431,43.488-.18,2.095,3.088,2.083,3.268,0Z" fill="#7070cc"/>
      <path id="Tracé_135" data-name="Tracé 135" d="M1840.371,1862.023a1007.41,1007.41,0,0,1,6.926,162.207q-.876,22.941-2.8,45.824c-.175,2.095,3.093,2.083,3.267,0a1007.526,1007.526,0,0,0,.494-162.355q-1.785-22.887-4.616-45.676c-.255-2.06-3.526-2.085-3.268,0Z" fill="#7070cc"/>
    </g>
  </g>
</svg>
