<svg id="Capa_1" enable-background="new 0 0 512 512" height="512" viewBox="0 0 512 512" width="512" xmlns="http://www.w3.org/2000/svg"><g><path d="m0 211 256 225-28.647-125.672-76.353-99.328-72.25-30z" fill="#c2fb3b"/><path d="m361 211-75.65 97.822-29.35 127.178 256-225-82.5-30z" fill="#9cdd05"/><path d="m256 181-105 30 105 225 105-225z" fill="#9cdd05"/><path d="m256 181v255l105-225z" fill="#64c37d"/><path d="m211 76h-76l-135 135h151l58.969-65.18z" fill="#9cdd05"/><path d="m512 211-135-135h-76l2.604 73.358 57.396 61.642z" fill="#64c37d"/><path d="m301 76h-45-45l-60 135h105 105z" fill="#c2fb3b"/><path d="m301 76h-45v135h105z" fill="#9cdd05"/></g></svg>