<svg id="Layer_1" data-name="Layer 1" xmlns="http://www.w3.org/2000/svg" viewBox="0 0 1000 1000"><defs><style>.cls-1{fill:#4f8ae0;}.cls-2{fill:#ffece5;}.cls-3{fill:#f99192;}.cls-10,.cls-12,.cls-16,.cls-17,.cls-18,.cls-4,.cls-7,.cls-8{fill:none;}.cls-10,.cls-4,.cls-7{stroke:#3a3144;}.cls-12,.cls-16,.cls-17,.cls-18,.cls-4,.cls-7,.cls-8{stroke-miterlimit:10;}.cls-4{stroke-width:2px;}.cls-5{fill:#f97171;}.cls-6{fill:#2e60b8;}.cls-7,.cls-8{stroke-width:80px;}.cls-8{stroke:#385a7d;}.cls-9{fill:#3a3144;}.cls-10,.cls-16,.cls-17{stroke-linecap:round;}.cls-10{stroke-linejoin:round;stroke-width:7px;}.cls-11{fill:#385a7d;}.cls-12,.cls-16,.cls-17{stroke:#3eb7b2;}.cls-12{stroke-width:30px;}.cls-13{fill:#3eb7b2;}.cls-14{fill:#b2eee6;}.cls-15{fill:#fff;}.cls-16{stroke-width:8px;}.cls-17{stroke-width:6px;}.cls-18{stroke:#b2eee6;stroke-width:50px;}</style></defs><title>Flat Illustration</title><path class="cls-1" d="M119.23,705.32V150.2a5,5,0,0,1,6.39-4.8C145.09,151,206.4,164,271.7,127.69c46.37-25.76,85.1-21.34,109.23-13.26a3.92,3.92,0,0,1-1.51,7.62c-23-1.35-55.41,4.3-79.64,38.87C258,220.54,194.49,261.41,119.23,241.65"/><rect class="cls-2" x="735.33" y="858.55" width="172.02" height="33.31" rx="9.76"/><path class="cls-3" d="M745.09,841.9H897.58a9.76,9.76,0,0,1,9.76,9.76V875.2a0,0,0,0,1,0,0h-172a0,0,0,0,1,0,0V851.66A9.76,9.76,0,0,1,745.09,841.9Z"/><line class="cls-4" x1="907.34" y1="875.2" x2="735.33" y2="875.2"/><rect class="cls-2" x="520.66" y="812.26" width="172.02" height="33.31" rx="9.76"/><path class="cls-3" d="M530.42,795.61H682.91a9.76,9.76,0,0,1,9.76,9.76v23.54a0,0,0,0,1,0,0h-172a0,0,0,0,1,0,0V805.37A9.76,9.76,0,0,1,530.42,795.61Z"/><line class="cls-4" x1="692.67" y1="828.92" x2="520.66" y2="828.92"/><rect class="cls-2" x="307.33" y="764.64" width="172.02" height="33.31" rx="9.76"/><path class="cls-3" d="M317.09,748H469.58a9.76,9.76,0,0,1,9.76,9.76v23.54a0,0,0,0,1,0,0h-172a0,0,0,0,1,0,0V757.75A9.76,9.76,0,0,1,317.09,748Z"/><path class="cls-5" d="M469.58,748h-84.2a33.3,33.3,0,0,0,33.3,33.3h60.66V757.75A9.76,9.76,0,0,0,469.58,748Z"/><line class="cls-4" x1="479.34" y1="781.29" x2="307.33" y2="781.29"/><rect class="cls-2" x="92.66" y="718.35" width="172.02" height="33.31" rx="9.76"/><path class="cls-3" d="M102.42,701.7H254.91a9.76,9.76,0,0,1,9.76,9.76V735a0,0,0,0,1,0,0h-172a0,0,0,0,1,0,0V711.46A9.76,9.76,0,0,1,102.42,701.7Z"/><line class="cls-4" x1="264.67" y1="735.01" x2="92.66" y2="735.01"/><path class="cls-1" d="M362.62,670.25l47.68-17.6c.28.75,24.89,37.74,37.15,56.14a9.64,9.64,0,0,1-4.69,14.4l-52.63,19.43a4.17,4.17,0,0,1-5.36-5.38C389.53,725.08,391.8,701.61,362.62,670.25Z"/><path class="cls-6" d="M431.22,684.4,383.68,702c-3.63-9.34-10.14-20-21.06-31.7l47.68-17.6C410.48,653.13,420.69,668.55,431.22,684.4Z"/><path class="cls-6" d="M394,700.31a19.77,19.77,0,0,0-10.94.43c-2.43.81-1.39,4.67,1.06,3.86a15.77,15.77,0,0,1,8.82-.43c2.5.59,3.57-3.26,1.06-3.86Z"/><path class="cls-6" d="M395.78,709.77a19.77,19.77,0,0,0-10.94.43c-2.43.8-1.39,4.67,1.07,3.85a15.73,15.73,0,0,1,8.81-.42c2.5.59,3.57-3.26,1.06-3.86Z"/><path class="cls-6" d="M396.16,719.74a19.77,19.77,0,0,0-10.94.43c-2.43.8-1.39,4.67,1.07,3.85a15.73,15.73,0,0,1,8.81-.42c2.5.59,3.57-3.26,1.06-3.86Z"/><path class="cls-7" d="M529.57,475S366.66,440.12,336,477s59.3,199,59.3,199"/><path class="cls-1" d="M750.24,579.9l-35.62-36.25c.57-.56,24.21-38.19,36-56.92a9.65,9.65,0,0,1,15.06-1.63l39.31,40a4.17,4.17,0,0,1-2.7,7.09C789.21,532.87,766.87,540.43,750.24,579.9Z"/><path class="cls-6" d="M735,511.54l35.51,36.15c-7,7.15-14,17.45-20.27,32.21l-35.62-36.25C715,543.29,724.87,527.64,735,511.54Z"/><path class="cls-6" d="M764.82,539.17a19.45,19.45,0,0,0,5,9.71c1.76,1.9,4.58-.94,2.83-2.82a15.7,15.7,0,0,1-3.93-7.95c-.47-2.53-4.33-1.46-3.86,1.06Z"/><path class="cls-6" d="M772.72,533.67a19.52,19.52,0,0,0,5,9.72c1.75,1.89,4.58-.95,2.83-2.83a15.63,15.63,0,0,1-3.93-7.95c-.47-2.53-4.33-1.46-3.86,1.06Z"/><path class="cls-6" d="M781.66,529.23a19.5,19.5,0,0,0,5,9.72c1.76,1.89,4.58-1,2.83-2.83a15.75,15.75,0,0,1-3.93-8c-.47-2.53-4.32-1.46-3.85,1.06Z"/><path class="cls-8" d="M537.82,441.68s-21.27,179.46,57.89,206.83S753.17,541,753.17,541"/><rect class="cls-9" x="689.45" y="444.19" width="127.44" height="84.8" rx="12.04" transform="translate(-142.65 525.73) rotate(-35.37)"/><path class="cls-9" d="M770.77,422.1l-84.29,59.83a12,12,0,0,0-2.84,16.78l10.69,15.06c17.84-3.49,38.8-12.73,58.95-27s35.79-31,45-46.73L787.56,425A12,12,0,0,0,770.77,422.1Z"/><rect class="cls-10" x="696.48" y="438.2" width="58.72" height="19.78" transform="translate(-125.41 502.81) rotate(-35.37)"/><rect class="cls-1" x="724.7" y="497.79" width="6.11" height="8.9" rx="1.87" transform="translate(-156.4 513.91) rotate(-35.37)"/><rect class="cls-1" x="773.28" y="463.31" width="6.11" height="8.9" rx="1.87" transform="translate(-127.48 535.66) rotate(-35.37)"/><path class="cls-9" d="M521.44,258.76c-7-.31-11,5.17-10.53,11.82a13.22,13.22,0,0,0,9.26,11.32,15.14,15.14,0,0,0,6.64.77c8.21-1,8-20,8-20"/><circle class="cls-11" cx="534.14" cy="440.49" r="44.29"/><path class="cls-9" d="M489,427.5l86.2,54.71s10.1-50.53,0-62.33"/><path class="cls-12" d="M534.1,306.57c2.48,9.07,3.19,25.08,6.14,34"/><path class="cls-9" d="M519.55,308.49,521.18,319s16.7,0,18.4-14.09A33.28,33.28,0,0,1,519.55,308.49Z"/><path class="cls-13" d="M535,259.33h0a22.24,22.24,0,0,1,22.24,22.24v6.9a28.64,28.64,0,0,1-28.64,28.64h0a15.85,15.85,0,0,1-15.85-15.85V281.57A22.24,22.24,0,0,1,535,259.33Z" transform="translate(136.65 -170.71) rotate(20.73)"/><path class="cls-13" d="M509.65,287.22c-.54,2.27,1,5.93,3.82,6l1-6.36c.07-.43-1.92-1.37-2.27-1.42A2.11,2.11,0,0,0,509.65,287.22Z"/><path class="cls-9" d="M510.23,290.9s-9.88,15.86-5,26.61,26.82,3.91,31.93-3.26,2-28,7.56-27.53,4.88,8,1.3,8.39l2.77,11.73s29.76-21,6.16-38.46c-1-.76-2-2.45-2.83-3.47-6.84-8-19.06-18.24-30.33-13.12a11.18,11.18,0,0,0-5.87,5.73c-1.48,3.72.55,7.78,3,10.55.19.22.39.43.59.63,3.67,3.69,16.54,4,16.54,4s-1.63,5.27.17,9.24.91,15.52-5.7,13.89C525.63,294.63,525.18,287.05,510.23,290.9Z"/><circle class="cls-9" cx="520.36" cy="283.55" r="1.61"/><path class="cls-9" d="M520.71,276.47a9.06,9.06,0,0,1,2.44.29,1,1,0,0,0,.53-1.92,10.94,10.94,0,0,0-3-.37,1,1,0,0,0,0,2Z"/><path class="cls-14" d="M565.78,333.47l-63.75.65a25.61,25.61,0,0,0-25.3,27.35L480.64,419A9.19,9.19,0,0,0,489,427.5l93.26,8.29a9.2,9.2,0,0,0,9.93-7.87L600,372.54A34.25,34.25,0,0,0,565.78,333.47Z"/><path class="cls-15" d="M516,295.54a18.57,18.57,0,0,0,6.28-2.71c1.06-.71.06-2.44-1-1.72a16.88,16.88,0,0,1-5.81,2.5c-1.25.28-.72,2.21.54,1.93Z"/><path class="cls-16" d="M706.63,464.11c-1-1.9-9.29-8.93-13.63-23.31"/><path class="cls-13" d="M712,410.91l-28.85,28.77s35.29,27.41,48.17,8S712,410.91,712,410.91Z"/><path class="cls-17" d="M743.14,453.52s-16.94,9.45-41-4.79"/><path class="cls-17" d="M724.62,446.91c.26.11,13.28-.15,20.47-5.23"/><path class="cls-17" d="M727.19,435.51c.27.06,9.5,1.64,15.74-4.56"/><path class="cls-17" d="M721.49,423.81c.25.1,9.09,3.18,16.27-1.89"/><path class="cls-14" d="M564.83,336.6l-6-10.19a6.19,6.19,0,0,0-5.56-3.05l-35.16,1.33a6.17,6.17,0,0,0-5.81,7.4l1.75,8.51"/><path class="cls-18" d="M540.24,354.09s71.49,3.25,89.1,14.14S703.6,430,703.6,430"/><path class="cls-16" d="M360.44,242.26c.43,2.1,6.37,11.2,6.44,26.22"/><path class="cls-13" d="M340.16,291.73,376,272.36S350,236,332.1,251,340.16,291.73,340.16,291.73Z"/><path class="cls-17" d="M322.43,242s18.93-4.24,38,16.26"/><path class="cls-17" d="M338.3,253.62c-.22-.17-12.77-3.63-21.1-.81"/><path class="cls-17" d="M332.6,263.82c-.25-.13-8.64-4.27-16.39-.11"/><path class="cls-17" d="M334.73,276.66c-.22-.17-7.81-5.64-16.14-2.82"/><path class="cls-18" d="M533.29,355.37s-96.3-2.29-113.83-13.32-63.62-66.73-63.62-66.73"/><path class="cls-9" d="M486,348.43a36.66,36.66,0,0,0-8.27,24.37c0,1.28,2,1.29,2,0a34.56,34.56,0,0,1,7.68-22.95c.81-1-.6-2.42-1.41-1.42Z"/><path class="cls-1" d="M524.48,338l1.47-1.16a1.71,1.71,0,0,0,.26-2.41l-2.12-2.62a1.7,1.7,0,0,0-2.61-.05L518.65,335a1.7,1.7,0,0,0,.45,2.61l.94.52a1.71,1.71,0,0,1,.82,1l20.06,73.18a1.7,1.7,0,0,0,1,1.12L552.8,418a1.71,1.71,0,0,0,2.32-1.19l2.25-9.82a1.69,1.69,0,0,0-.14-1.15L524,340.09A1.71,1.71,0,0,1,524.48,338Z"/><path class="cls-9" d="M358.19,254.8c-4.16,3.16-5,8.07-5.52,13-.14,1.27,1.86,1.26,2,0,.45-4.08,1-8.59,4.53-11.26,1-.77,0-2.5-1-1.72Z"/><path class="cls-9" d="M586.92,386.32A69.49,69.49,0,0,1,596,386a1,1,0,0,0,0-2,69.49,69.49,0,0,0-9.12.37c-1.26.14-1.28,2.14,0,2Z"/><path class="cls-9" d="M379.42,121.05c-15.81-.89-31.78,1.79-46,8.85a87.47,87.47,0,0,0-23.72,17.45c-7.75,8-13.6,17.47-20.51,26.14-25.25,31.7-58.8,58.4-98.76,68.19-23.36,5.72-47.68,5-70.91-1a1,1,0,0,0-.53,1.93,147.92,147.92,0,0,0,62.24,3,154.65,154.65,0,0,0,54.71-21.14,208.41,208.41,0,0,0,46.26-39.57c7-7.93,13.29-16.36,19.5-24.93a93.32,93.32,0,0,1,23.95-23.32c15.93-10.49,34.89-14.69,53.8-13.62,1.28.08,1.28-1.92,0-2Z"/><path class="cls-9" d="M120.23,705.32V172.71c0-7.19.1-14.38,0-21.56,0-.32,0-.63,0-1a1,1,0,0,0-2,0V682.82c0,7.18-.1,14.37,0,21.56v.94a1,1,0,0,0,2,0Z"/></svg>