<?xml version="1.0" encoding="iso-8859-1"?>
<!-- Generator: Adobe Illustrator 23.0.4, SVG Export Plug-In . SVG Version: 6.00 Build 0)  -->
<svg version="1.1" xmlns="http://www.w3.org/2000/svg" xmlns:xlink="http://www.w3.org/1999/xlink" x="0px" y="0px"
	 viewBox="0 0 64 64" style="enable-background:new 0 0 64 64;" xml:space="preserve">
<g id="tv-box">
	<path style="fill:#0E77F6;" d="M8.107,25.857v1.596h4.458v11.936h1.789V27.453h4.479v-1.596H8.107z M30.619,25.857l-3.649,9.832
		c-0.279,0.737-0.522,1.474-0.73,2.211c-0.193-0.687-0.429-1.424-0.716-2.211l-3.513-9.832h-1.939l5.245,13.531h1.832l5.302-13.531
		H30.619z M30.619,25.857l-3.649,9.832c-0.279,0.737-0.522,1.474-0.73,2.211c-0.193-0.687-0.429-1.424-0.716-2.211l-3.513-9.832
		h-1.939l5.245,13.531h1.832l5.302-13.531H30.619z M8.107,27.453h4.458v11.936h1.789V27.453h4.479v-1.596H8.107V27.453z
		 M37.996,12.19H2.862C1.281,12.19,0,13.478,0,15.052v35.134c0,1.581,1.281,2.862,2.862,2.862h35.134
		c1.581,0,2.862-1.281,2.862-2.862V15.052C40.859,13.478,39.578,12.19,37.996,12.19z M39.428,50.186
		c0,0.794-0.644,1.431-1.431,1.431H2.862c-0.787,0-1.431-0.637-1.431-1.431V15.052c0-0.787,0.644-1.431,1.431-1.431h35.134
		c0.787,0,1.431,0.644,1.431,1.431V50.186z M26.97,35.689c-0.279,0.737-0.522,1.474-0.73,2.211
		c-0.193-0.687-0.429-1.424-0.716-2.211l-3.513-9.832h-1.939l5.245,13.531h1.832l5.302-13.531h-1.832L26.97,35.689z M8.107,27.453
		h4.458v11.936h1.789V27.453h4.479v-1.596H8.107V27.453z M8.107,25.857v1.596h4.458v11.936h1.789V27.453h4.479v-1.596H8.107z
		 M30.619,25.857l-3.649,9.832c-0.279,0.737-0.522,1.474-0.73,2.211c-0.193-0.687-0.429-1.424-0.716-2.211l-3.513-9.832h-1.939
		l5.245,13.531h1.832l5.302-13.531H30.619z M8.107,25.857v1.596h4.458v11.936h1.789V27.453h4.479v-1.596H8.107z M30.619,25.857
		l-3.649,9.832c-0.279,0.737-0.522,1.474-0.73,2.211c-0.193-0.687-0.429-1.424-0.716-2.211l-3.513-9.832h-1.939l5.245,13.531h1.832
		l5.302-13.531H30.619z M48.809,15.374v1.431h3.17v-1.431H48.809z M48.809,18.758v1.431h3.17v-1.431H48.809z M48.809,22.15v1.431
		h3.17V22.15H48.809z M48.809,25.542v1.431h3.17v-1.431H48.809z M48.809,44.182v1.431h3.17v-1.431H48.809z M48.809,48.14v1.431h3.17
		V48.14H48.809z M53.331,15.374v1.431h3.17v-1.431H53.331z M53.331,18.758v1.431h3.17v-1.431H53.331z M53.331,22.15v1.431h3.17
		V22.15H53.331z M53.331,25.542v1.431h3.17v-1.431H53.331z M53.331,44.182v1.431h3.17v-1.431H53.331z M53.331,48.14v1.431h3.17
		V48.14H53.331z M55.02,29.728c-3.356,0-6.082,2.726-6.082,6.082c0,3.356,2.726,6.082,6.082,6.082s6.082-2.726,6.082-6.082
		C61.102,32.454,58.376,29.728,55.02,29.728z M55.02,40.462c-2.569,0-4.651-2.089-4.651-4.651c0-2.569,2.082-4.651,4.651-4.651
		c2.562,0,4.651,2.082,4.651,4.651C59.671,38.372,57.581,40.462,55.02,40.462z M57.846,15.374v1.431h3.17v-1.431H57.846z
		 M57.846,18.758v1.431h3.17v-1.431H57.846z M57.846,22.15v1.431h3.17V22.15H57.846z M57.846,25.542v1.431h3.17v-1.431H57.846z
		 M57.846,44.182v1.431h3.17v-1.431H57.846z M57.846,48.14v1.431h3.17V48.14H57.846z M57.846,49.571h3.17V48.14h-3.17V49.571z
		 M57.846,45.614h3.17v-1.431h-3.17V45.614z M61.016,25.542h-3.17v1.431h3.17V25.542z M61.016,22.15h-3.17v1.431h3.17V22.15z
		 M61.016,18.758h-3.17v1.431h3.17V18.758z M61.016,15.374h-3.17v1.431h3.17V15.374z M55.02,29.728
		c-3.356,0-6.082,2.726-6.082,6.082c0,3.356,2.726,6.082,6.082,6.082s6.082-2.726,6.082-6.082
		C61.102,32.454,58.376,29.728,55.02,29.728z M55.02,40.462c-2.569,0-4.651-2.089-4.651-4.651c0-2.569,2.082-4.651,4.651-4.651
		c2.562,0,4.651,2.082,4.651,4.651C59.671,38.372,57.581,40.462,55.02,40.462z M53.331,49.571h3.17V48.14h-3.17V49.571z
		 M53.331,45.614h3.17v-1.431h-3.17V45.614z M56.501,25.542h-3.17v1.431h3.17V25.542z M56.501,22.15h-3.17v1.431h3.17V22.15z
		 M56.501,18.758h-3.17v1.431h3.17V18.758z M56.501,15.374h-3.17v1.431h3.17V15.374z M48.809,49.571h3.17V48.14h-3.17V49.571z
		 M48.809,45.614h3.17v-1.431h-3.17V45.614z M51.979,25.542h-3.17v1.431h3.17V25.542z M51.979,22.15h-3.17v1.431h3.17V22.15z
		 M51.979,18.758h-3.17v1.431h3.17V18.758z M51.979,15.374h-3.17v1.431h3.17V15.374z M61.853,10.401H48.186
		c-1.188,0-2.147,0.966-2.147,2.147v38.905c0,1.181,0.959,2.147,2.147,2.147h13.667c1.181,0,2.147-0.966,2.147-2.147V12.547
		C64,11.367,63.034,10.401,61.853,10.401z M62.569,51.453c0,0.394-0.322,0.716-0.716,0.716H48.186c-0.394,0-0.716-0.322-0.716-0.716
		V12.547c0-0.394,0.322-0.716,0.716-0.716h13.667c0.394,0,0.716,0.322,0.716,0.716V51.453z M57.846,49.571h3.17V48.14h-3.17V49.571z
		 M57.846,45.614h3.17v-1.431h-3.17V45.614z M61.016,25.542h-3.17v1.431h3.17V25.542z M61.016,22.15h-3.17v1.431h3.17V22.15z
		 M61.016,18.758h-3.17v1.431h3.17V18.758z M61.016,15.374h-3.17v1.431h3.17V15.374z M55.02,29.728
		c-3.356,0-6.082,2.726-6.082,6.082c0,3.356,2.726,6.082,6.082,6.082s6.082-2.726,6.082-6.082
		C61.102,32.454,58.376,29.728,55.02,29.728z M55.02,40.462c-2.569,0-4.651-2.089-4.651-4.651c0-2.569,2.082-4.651,4.651-4.651
		c2.562,0,4.651,2.082,4.651,4.651C59.671,38.372,57.581,40.462,55.02,40.462z M53.331,49.571h3.17V48.14h-3.17V49.571z
		 M53.331,45.614h3.17v-1.431h-3.17V45.614z M56.501,25.542h-3.17v1.431h3.17V25.542z M56.501,22.15h-3.17v1.431h3.17V22.15z
		 M56.501,18.758h-3.17v1.431h3.17V18.758z M56.501,15.374h-3.17v1.431h3.17V15.374z M48.809,49.571h3.17V48.14h-3.17V49.571z
		 M48.809,45.614h3.17v-1.431h-3.17V45.614z M51.979,25.542h-3.17v1.431h3.17V25.542z M51.979,22.15h-3.17v1.431h3.17V22.15z
		 M51.979,18.758h-3.17v1.431h3.17V18.758z M51.979,15.374h-3.17v1.431h3.17V15.374z M48.809,15.374v1.431h3.17v-1.431H48.809z
		 M48.809,18.758v1.431h3.17v-1.431H48.809z M48.809,22.15v1.431h3.17V22.15H48.809z M48.809,25.542v1.431h3.17v-1.431H48.809z
		 M48.809,44.182v1.431h3.17v-1.431H48.809z M48.809,48.14v1.431h3.17V48.14H48.809z M53.331,15.374v1.431h3.17v-1.431H53.331z
		 M53.331,18.758v1.431h3.17v-1.431H53.331z M53.331,22.15v1.431h3.17V22.15H53.331z M53.331,25.542v1.431h3.17v-1.431H53.331z
		 M53.331,44.182v1.431h3.17v-1.431H53.331z M53.331,48.14v1.431h3.17V48.14H53.331z M55.02,29.728
		c-3.356,0-6.082,2.726-6.082,6.082c0,3.356,2.726,6.082,6.082,6.082s6.082-2.726,6.082-6.082
		C61.102,32.454,58.376,29.728,55.02,29.728z M55.02,40.462c-2.569,0-4.651-2.089-4.651-4.651c0-2.569,2.082-4.651,4.651-4.651
		c2.562,0,4.651,2.082,4.651,4.651C59.671,38.372,57.581,40.462,55.02,40.462z M57.846,15.374v1.431h3.17v-1.431H57.846z
		 M57.846,18.758v1.431h3.17v-1.431H57.846z M57.846,22.15v1.431h3.17V22.15H57.846z M57.846,25.542v1.431h3.17v-1.431H57.846z
		 M57.846,44.182v1.431h3.17v-1.431H57.846z M57.846,48.14v1.431h3.17V48.14H57.846z M53.331,15.374v1.431h3.17v-1.431H53.331z
		 M57.846,25.542v1.431h3.17v-1.431H57.846z M53.331,18.758v1.431h3.17v-1.431H53.331z M57.846,22.15v1.431h3.17V22.15H57.846z
		 M53.331,22.15v1.431h3.17V22.15H53.331z M57.846,15.374v1.431h3.17v-1.431H57.846z M57.846,18.758v1.431h3.17v-1.431H57.846z
		 M48.809,18.758v1.431h3.17v-1.431H48.809z M53.331,44.182v1.431h3.17v-1.431H53.331z M53.331,48.14v1.431h3.17V48.14H53.331z
		 M57.846,48.14v1.431h3.17V48.14H57.846z M48.809,44.182v1.431h3.17v-1.431H48.809z M57.846,44.182v1.431h3.17v-1.431H57.846z
		 M48.809,15.374v1.431h3.17v-1.431H48.809z M48.809,48.14v1.431h3.17V48.14H48.809z M53.331,25.542v1.431h3.17v-1.431H53.331z
		 M48.809,22.15v1.431h3.17V22.15H48.809z M48.809,25.542v1.431h3.17v-1.431H48.809z M55.02,29.728
		c-3.356,0-6.082,2.726-6.082,6.082c0,3.356,2.726,6.082,6.082,6.082s6.082-2.726,6.082-6.082
		C61.102,32.454,58.376,29.728,55.02,29.728z M55.02,40.462c-2.569,0-4.651-2.089-4.651-4.651c0-2.569,2.082-4.651,4.651-4.651
		c2.562,0,4.651,2.082,4.651,4.651C59.671,38.372,57.581,40.462,55.02,40.462z"/>
	<circle style="fill:#BEDAFF;" cx="55.02" cy="35.81" r="4.651"/>
	<path style="fill:#BEDAFF;" d="M37.996,13.621H2.862c-0.787,0-1.431,0.644-1.431,1.431v35.134c0,0.794,0.644,1.431,1.431,1.431
		h35.134c0.787,0,1.431-0.637,1.431-1.431V15.052C39.428,14.265,38.784,13.621,37.996,13.621z M18.834,27.453h-4.479v11.936h-1.789
		V27.453H8.107v-1.596h10.726V27.453z M27.148,39.388h-1.832l-5.245-13.531h1.939l3.513,9.832c0.286,0.787,0.522,1.524,0.716,2.211
		c0.208-0.737,0.451-1.474,0.73-2.211l3.649-9.832h1.832L27.148,39.388z"/>
</g>
<g id="Layer_1">
</g>
</svg>
