<svg xmlns="http://www.w3.org/2000/svg" width="370.658" height="1140.501" viewBox="0 0 370.658 1140.501">
  <g id="Woman" transform="translate(-1174.448 -1003.367)">
    <path id="Tracé_182" data-name="Tracé 182" d="M1313.958,1565.05l11.971,89.249s-1.53,19.543-1.456,18.592S1308.589,1613.619,1313.958,1565.05Z" fill="#3a3c49"/>
    <ellipse id="Ellipse_14" data-name="Ellipse 14" cx="185.329" cy="95.624" rx="185.329" ry="95.624" transform="translate(1174.448 1952.62)" fill="#7070cc"/>
    <path id="Tracé_183" data-name="Tracé 183" d="M1264.77,1968.819c-.952-.6-25.121,9.9-13.194,46.047,1.229,3.724,2.57,7.41,2.7,11.33l.947,27.838a3.414,3.414,0,0,0,2.78,3.239l2.261.426a1.549,1.549,0,0,0,1.837-1.5c.074-5.557.293-22.163.361-28.708a7.009,7.009,0,0,1,3.13-5.784c3.368-2.225,9.157-4.385,15.726.336,7.376,5.3,25.392,17.151,35.214,23.573a13.674,13.674,0,0,0,14,.582c11.962-6.49,34.8-20.6,39.73-36a3.272,3.272,0,0,0-1.675-3.934c-4.509-2.213-17.244-5.847-47.131-1.611,0,0,8.8,15.354-.389,17.54a9.291,9.291,0,0,1-9.542-3.727C1304.2,2008.418,1282.534,1979.955,1264.77,1968.819Z" fill="#191919"/>
    <path id="Tracé_184" data-name="Tracé 184" d="M1359.661,2013.285c-.953-.6-25.121,9.9-13.2,46.047,1.229,3.724,2.57,7.41,2.7,11.329l.947,27.839a3.413,3.413,0,0,0,2.779,3.238l2.262.427a1.549,1.549,0,0,0,1.836-1.5c.074-5.556.293-22.163.362-28.707a7.009,7.009,0,0,1,3.129-5.784c3.368-2.226,9.158-4.386,15.727.335,7.375,5.3,25.392,17.151,35.213,23.573a13.674,13.674,0,0,0,14,.582c11.963-6.489,34.805-20.6,39.73-36a3.272,3.272,0,0,0-1.674-3.933c-4.509-2.213-17.244-5.848-47.131-1.612,0,0,8.8,15.355-.389,17.54a9.294,9.294,0,0,1-9.543-3.726C1399.086,2052.883,1377.424,2024.42,1359.661,2013.285Z" fill="#191919"/>
    <path id="Tracé_185" data-name="Tracé 185" d="M1265.365,1940.181c1.094,13.968-.553,20.878-.475,28.754v0c0,.031,0,.065,0,.1.039-.009.059-.016.088-.023,17.747,11.173,39.35,39.557,46.673,49.587a9.4,9.4,0,0,0,9.542,3.726,7.648,7.648,0,0,0,1.611-.533c3.995-2.219,2.554-8.214.888-12.438l-9.495-20.2c-8.026-17.441-8.864-28.307-9.012-47.541,0,0,12.567-184.261,20.715-286.985,5.349,31.742,10.251,55.526,10.251,55.526s11.441,74.089,6.523,106.454c-4.678,30.794,3.255,63.141,7.713,91.353,3.826,24.207,9.866,76.683,9.866,76.683h0c1.095,13.967-.552,20.878-.475,28.753v0c0,.032,0,.065,0,.1.039-.009.059-.016.088-.024,17.747,11.174,39.349,39.557,46.672,49.588a9.4,9.4,0,0,0,9.543,3.726,7.665,7.665,0,0,0,1.61-.533c3.995-2.219,2.555-8.214.888-12.439l-9.495-20.2c-8.026-17.44-8.863-28.246-9.011-47.479v-.017s17.262-252.491,24.442-331.016c9.6-104.953-1.5-152.252-1.5-152.252s-46.447,26.275-110.37,20.7c-.153,3.042-.225,6.277-.225,9.671-.007-3.573.065-6.972.225-10.159l.6.048a207.114,207.114,0,0,1-73.971-20.625c-17.654,75.374,3.6,174.081,3.6,174.081s9.825,62.723,4.908,95.088c-4.679,30.793,3.254,63.141,7.713,91.352,3.825,24.207,9.873,77.269,9.873,77.269Z" fill="#f2b5a7"/>
    <path id="Tracé_186" data-name="Tracé 186" d="M1239.276,1502.977s1.657-22.431,2.283-33.014c4-67.67-15.423-170.694-15.423-170.694-27.124-190.952,76.846-145.006,76.846-145.006.307-.754,6.118,2.639,12.807,6.865a96.654,96.654,0,0,0,39.649,14.164c18.409,2.3,50.5,10.806,72.989,36.331,18.051,66.371,8.435,95.544,12.021,111.246,3,13.122-3.766,47.9-11.117,77.718-1.962,7.958-7.046,61.634-6.314,102.271C1423.017,1502.858,1337.751,1551.1,1239.276,1502.977Z" fill="#6d209a"/>
    <path id="Tracé_187" data-name="Tracé 187" d="M1381.891,1182.43s-4.762-23.063,0-31.049c3.276-.328,55.617-4.05,10.354-119.2,0,0-74.641-42.737-79.505,78.412,0,0,11.785,29.343,3.049,50.535C1317.6,1193.95,1381.891,1182.43,1381.891,1182.43Z" fill="#f2b5a7"/>
    <path id="Tracé_188" data-name="Tracé 188" d="M1426.023,1428.634l-41.271-97.612s8.257,71.854,39.2,127.823C1423.954,1458.845,1425.071,1437.873,1426.023,1428.634Z" fill="#171755"/>
    <path id="Tracé_189" data-name="Tracé 189" d="M1239.276,1502.489s88.633,40.417,183.741.369c0,0,31.8,89.024,24.08,242.353,0,0-127.706,90.443-232.751-20.959C1214.346,1724.252,1214.346,1555.65,1239.276,1502.489Z" fill="#262668"/>
    <path id="Tracé_190" data-name="Tracé 190" d="M1239.276,1502.977c46.615,62.073,172.552,27.172,183.741-.119C1423.017,1502.858,1337.751,1551.1,1239.276,1502.977Z" fill="#171755"/>
    <path id="Tracé_191" data-name="Tracé 191" d="M1488.432,1390.593a174.03,174.03,0,0,1-16.561-43.136c-12.113-49.553-25.822-113.065-35.9-127.637a37.974,37.974,0,0,0-34.495-16.432c-18.634,1.691-28.546,16.515-33.817,31.527a87.694,87.694,0,0,0-2.3,49.4c22.719,95.2,59.809,145.6,75.77,163.833l.136.155a18.774,18.774,0,0,0,26.9.981C1480.985,1437.165,1500.976,1413.217,1488.432,1390.593Z" fill="#6d209a"/>
    <path id="Tracé_192" data-name="Tracé 192" d="M1393.039,1073.466a65.814,65.814,0,0,0,2.28-6.927,61.351,61.351,0,0,0,.53-28.653c-1.146-5.187-2.761-10.459-6.147-14.648-.117-.145-.259-.267-.476-.558-14.5-17.95-72.929-30.521-105.407-4.4-35.512,28.556-35.752,80.966-35.923,82.41s-2.077,44.677-39.823,86.387-35.132,185.14,55.61,199.5c48.6,7.69,74-4.86,88.832-26.246a90.185,90.185,0,0,0,13.932-69.406,258.105,258.105,0,0,0-16.186-51.153c-18.484-42.468,4.947-68.827,4.947-68.827s16.96-24.578,13.914-47.753a35.013,35.013,0,0,1,.979,4.089,61.424,61.424,0,0,1,.8,9.758,102.687,102.687,0,0,1-.339,11.122c-1.637,17.569-8.782,34.07-10.885,51.57a68.731,68.731,0,0,0,1.561,25.389,129.074,129.074,0,0,0,8.727,22.76c7.137,15.162,14.792,30.063,18.6,46.505,3.54,15.283,3.666,32.031-2.811,46.586a56.74,56.74,0,0,1-2.664,5.226,1.608,1.608,0,0,0,2.774,1.622c8.073-14.037,9.681-30.782,7.283-46.577-2.588-17.04-9.709-32.848-17.167-48.231-3.657-7.543-7.334-15.113-9.976-23.085a67.174,67.174,0,0,1-3.578-24.95c.988-18.065,8.449-34.96,10.88-52.793a90.684,90.684,0,0,0,.368-22.486c-.775-6.659-2.793-13.16-7.317-18.255a23.218,23.218,0,0,0-1.75-1.759c-.33-.568-.671-1.133-1.039-1.691,0,0-21.029-16.14-10.3-27.037a6.157,6.157,0,0,1,3.729-1.845c3.379-.356,9.808.807,14.312,12.908a2.105,2.105,0,0,0,2.512,1.317l.01,0c1.272-.345,4.661-.4,5.4-4.515a8.38,8.38,0,0,0-.94-5.429c-1.548-2.893-3.9-9.457,2.868-14.625a33.26,33.26,0,0,0,12.752-22.059q.183,2.407.17,4.827a57.4,57.4,0,0,1-1.742,13.7,61.706,61.706,0,0,1-2.174,6.8,54,54,0,0,0-2.363,6.989,27.932,27.932,0,0,0,1.057,16.074,1.653,1.653,0,0,0,1.977,1.122,1.619,1.619,0,0,0,1.122-1.976,24.861,24.861,0,0,1-1.186-13.779A45.165,45.165,0,0,1,1393.039,1073.466Z" fill="#171755"/>
    <path id="Tracé_193" data-name="Tracé 193" d="M1471.12,1347.628s8.371.578,10.832,13.678,4.766,16.739,4.766,16.739,4.053,8.929-4.766,11.56-34.534-3.8-45.086-14.957-6.187-24.259,2.547-24.744S1455.159,1356.268,1471.12,1347.628Z" fill="#f2b5a7"/>
  </g>
</svg>
