<svg xmlns="http://www.w3.org/2000/svg" width="535.106" height="1117.467" viewBox="0 0 535.106 1117.467">
  <g id="Woman" transform="translate(-2270.723 -1162.747)">
    <path id="Tracé_62" data-name="Tracé 62" d="M2406.131,1671.95c.2.017.392.03.588.047a202.924,202.924,0,0,1-72.477-20.208c-17.3,73.852,3.529,170.565,3.529,170.565s9.627,61.456,4.808,93.168c-4.584,30.171,3.189,61.865,7.558,89.507,3.748,23.718,9.666,75.134,9.666,75.134,21.267,15.818,39.019,1.406,39.019,1.406s12.339-180.45,20.322-281.036C2412.208,1759.393,2404.494,1704.541,2406.131,1671.95Z" fill="#dbd6ff"/>
    <ellipse id="Ellipse_4" data-name="Ellipse 4" cx="181.586" cy="93.692" rx="181.586" ry="93.692" transform="translate(2270.723 2092.829)" fill="#7070cc"/>
    <path id="Tracé_63" data-name="Tracé 63" d="M2407.415,1713.086l11.729,87.447s-1.5,19.149-1.426,18.216S2402.154,1760.675,2407.415,1713.086Z" fill="#aeabdd"/>
    <path id="Tracé_64" data-name="Tracé 64" d="M2406.131,1672.428c-2.872,57.17,23.032,182.834,23.032,182.834s11.209,72.594,6.391,104.305c-4.585,30.172,3.188,61.866,7.557,89.508,3.748,23.718,9.666,75.134,9.666,75.134,21.267,15.818,39.019,1.406,39.019,1.406s16.914-247.348,23.948-324.287c9.4-102.834-1.472-149.177-1.472-149.177S2468.763,1677.9,2406.131,1672.428Z" fill="#dbd6ff"/>
    <path id="Tracé_65" data-name="Tracé 65" d="M2359.221,2108.7c-.933-.585-24.613,9.7-12.928,45.117,1.2,3.649,2.518,7.261,2.649,11.1l.927,27.276a3.345,3.345,0,0,0,2.724,3.173l2.216.418a1.517,1.517,0,0,0,1.8-1.471c.073-5.444.287-21.715.354-28.127a6.871,6.871,0,0,1,3.067-5.668c3.3-2.18,8.972-4.3,15.408.329,7.227,5.194,24.88,16.8,34.5,23.1a13.4,13.4,0,0,0,13.72.57c11.721-6.359,34.1-20.182,38.928-35.274a3.207,3.207,0,0,0-1.641-3.854c-4.418-2.168-16.9-5.729-46.179-1.579,0,0,8.619,15.044-.381,17.186a9.106,9.106,0,0,1-9.35-3.651C2397.85,2147.5,2376.625,2119.612,2359.221,2108.7Z" fill="#191919"/>
    <path id="Tracé_66" data-name="Tracé 66" d="M2398.822,2082.048c.145,18.845.965,29.492,8.829,46.58l9.3,19.789c1.633,4.139,3.045,10.013-.87,12.187a7.494,7.494,0,0,1-1.578.523,9.211,9.211,0,0,1-9.349-3.651c-7.175-9.828-28.342-37.639-45.73-48.586-.028.007-.048.014-.087.023,0-.031,0-.064,0-.095v0c-.076-7.716,1.538-14.487.465-28.173C2359.8,2080.641,2378.41,2096.138,2398.822,2082.048Z" fill="#f2b5a7"/>
    <path id="Tracé_67" data-name="Tracé 67" d="M2387.11,1756.677q-.474,55.659-.947,111.318t-.946,111.318q-.267,31.31-.533,62.617a1.309,1.309,0,0,0,2.616,0q.472-55.659.946-111.318t.947-111.319q.266-31.308.532-62.616a1.308,1.308,0,0,0-2.615,0Z" fill="#aeabdd"/>
    <path id="Tracé_68" data-name="Tracé 68" d="M2452.2,2152.269c-.933-.585-24.614,9.7-12.928,45.117,1.2,3.648,2.518,7.26,2.649,11.1l.928,27.277a3.344,3.344,0,0,0,2.723,3.173l2.216.417a1.517,1.517,0,0,0,1.8-1.471c.073-5.444.287-21.715.354-28.127a6.873,6.873,0,0,1,3.067-5.668,12.777,12.777,0,0,1,15.409.329c7.226,5.2,24.879,16.8,34.5,23.1a13.4,13.4,0,0,0,13.72.571c11.721-6.359,34.1-20.183,38.928-35.275a3.207,3.207,0,0,0-1.641-3.854c-4.418-2.168-16.9-5.729-46.179-1.578,0,0,8.619,15.044-.381,17.185a9.1,9.1,0,0,1-9.35-3.651C2490.824,2191.067,2469.6,2163.179,2452.2,2152.269Z" fill="#191919"/>
    <path id="Tracé_69" data-name="Tracé 69" d="M2491.8,2125.615c.145,18.845.966,29.492,8.829,46.581l9.3,19.788c1.632,4.14,3.044,10.014-.871,12.188a7.455,7.455,0,0,1-1.578.522,9.21,9.21,0,0,1-9.349-3.651c-7.175-9.827-28.342-37.638-45.73-48.586-.028.008-.048.015-.087.023,0-.031,0-.063,0-.094v0c-.076-7.717,1.538-14.487.465-28.173C2452.777,2124.209,2471.384,2139.706,2491.8,2125.615Z" fill="#f2b5a7"/>
    <path id="Tracé_70" data-name="Tracé 70" d="M2480.064,1741.832q-.568,67.007-1.139,134.013t-1.14,134.013q-.319,37.69-.641,75.382a1.575,1.575,0,0,0,3.149,0q.57-67.007,1.14-134.013t1.139-134.013q.321-37.69.641-75.382a1.575,1.575,0,0,0-3.149,0Z" fill="#aeabdd"/>
    <path id="Tracé_71" data-name="Tracé 71" d="M2334.242,1652.267s2.771-16.7,5.455-26.738c17.8-66.552-18.33-172.856-18.33-172.856-26.576-187.095,75.294-142.077,75.294-142.077.3-.739,5.994,2.586,12.549,6.726a94.693,94.693,0,0,0,38.847,13.877c18.038,2.252,44.312,11.251,66.347,36.261,96.44,109.459,13.433,92.952,16.947,108.336,2.937,12.857-3.69,46.928-10.893,76.149-1.922,7.8-6.9,60.389-6.186,100.205C2514.272,1652.15,2430.728,1699.417,2334.242,1652.267Z" fill="#fc5d9d"/>
    <path id="Tracé_72" data-name="Tracé 72" d="M2473.977,1338.194s-4.667-22.6,0-30.422c3.209-.321,54.493-3.969,10.144-116.793,0,0-73.134-41.874-77.9,76.828,0,0,11.546,28.751,2.988,49.515C2410.987,1349.481,2473.977,1338.194,2473.977,1338.194Z" fill="#f2b5a7"/>
    <path id="Tracé_73" data-name="Tracé 73" d="M2531.929,1479.907l-77.771-68.684s25.24,55.9,76.172,92.409C2530.33,1503.632,2532.725,1487.454,2531.929,1479.907Z" fill="#d8368d"/>
    <path id="Tracé_74" data-name="Tracé 74" d="M2488.989,1341.881c22.52,7.985,68.767,34.171,149.913,118.491,0,0,9.959,26.7-4.2,61.98,0,0-70.444-7.255-165.055-88.914a85.584,85.584,0,0,1-26.322-40.472c-4.381-14.874-4.993-32.219,8.648-44.222A37.212,37.212,0,0,1,2488.989,1341.881Z" fill="#fc5d9d"/>
    <path id="Tracé_75" data-name="Tracé 75" d="M2484.9,1231.431a64.521,64.521,0,0,0,2.234-6.788,60.107,60.107,0,0,0,.519-28.074c-1.123-5.083-2.705-10.248-6.022-14.352-.115-.143-.254-.262-.467-.547-14.207-17.587-71.456-29.905-103.279-4.316-34.794,27.979-35.029,79.331-35.2,80.746s-2.036,43.774-39.019,84.642-36.266,169.283,54.487,195.469,104.2-68.513,104.2-68.513-1.264-33.718-19.374-75.328,4.847-67.436,4.847-67.436,16.618-24.082,13.633-46.789a34.311,34.311,0,0,1,.96,4.006,60.162,60.162,0,0,1,.779,9.562,100.866,100.866,0,0,1-.331,10.9c-1.6,17.214-8.606,33.381-10.666,50.529a67.323,67.323,0,0,0,1.53,24.876,126.476,126.476,0,0,0,8.55,22.3c6.993,14.856,14.494,29.456,18.226,45.566,3.469,14.974,3.591,31.384-2.754,45.645a55.6,55.6,0,0,1-2.611,5.12,1.576,1.576,0,0,0,2.719,1.59c7.909-13.754,9.485-30.161,7.135-45.637-2.536-16.7-9.513-32.184-16.82-47.257-3.584-7.391-7.186-14.807-9.775-22.618a65.833,65.833,0,0,1-3.506-24.446c.968-17.7,8.279-34.255,10.661-51.728a88.872,88.872,0,0,0,.36-22.032c-.759-6.523-2.736-12.894-7.169-17.886a22.681,22.681,0,0,0-1.715-1.723c-.323-.557-.657-1.11-1.018-1.657,0,0-20.6-15.814-10.092-26.491a6.037,6.037,0,0,1,3.654-1.808c3.308-.349,9.6.789,14.009,12.612a2.086,2.086,0,0,0,2.437,1.336l.048-.012c1.247-.339,4.567-.4,5.3-4.425a8.213,8.213,0,0,0-.921-5.319c-1.517-2.835-3.821-9.266,2.81-14.33a32.586,32.586,0,0,0,12.495-21.613q.179,2.358.166,4.73a56.239,56.239,0,0,1-1.707,13.419,60.271,60.271,0,0,1-2.13,6.666,52.735,52.735,0,0,0-2.315,6.848,27.359,27.359,0,0,0,1.036,15.749,1.619,1.619,0,0,0,1.936,1.1,1.587,1.587,0,0,0,1.1-1.937,24.358,24.358,0,0,1-1.162-13.5A44.226,44.226,0,0,1,2484.9,1231.431Z" fill="#171755"/>
    <path id="Tracé_76" data-name="Tracé 76" d="M2802.187,1407.355a4.046,4.046,0,0,0-6.853-.845c-7.994,9.909-21.759,8.393-21.759,8.393,8.967-33.411-17.723,10.028-17.723,10.028L2639,1460.666c.926,3.016,8.273,29.137-4.288,61.686l128.145-72.574C2814.019,1443.557,2807.727,1419.858,2802.187,1407.355Z" fill="#f2b5a7"/>
    <path id="Tracé_77" data-name="Tracé 77" d="M2334.242,1652.267c45.673,60.819,169.067,26.623,180.03-.116C2514.272,1652.151,2430.728,1699.417,2334.242,1652.267Z" fill="#aeabdd"/>
    <path id="Tracé_78" data-name="Tracé 78" d="M2459.321,1548.13a5.342,5.342,0,1,1-5.341-5.341A5.341,5.341,0,0,1,2459.321,1548.13Z" fill="#e0e0e0"/>
    <path id="Tracé_79" data-name="Tracé 79" d="M2448.562,1352.768a5.342,5.342,0,1,1-5.341-5.341A5.341,5.341,0,0,1,2448.562,1352.768Z" fill="#e0e0e0"/>
    <path id="Tracé_80" data-name="Tracé 80" d="M2630.743,1462.312a5.341,5.341,0,1,1-5.342-5.341A5.341,5.341,0,0,1,2630.743,1462.312Z" fill="#e0e0e0"/>
    <path id="Tracé_81" data-name="Tracé 81" d="M2625.4,1503.632a5.341,5.341,0,1,1-5.341-5.341A5.341,5.341,0,0,1,2625.4,1503.632Z" fill="#e0e0e0"/>
    <path id="Tracé_82" data-name="Tracé 82" d="M2571.908,1478.836a5.341,5.341,0,1,1-5.341-5.341A5.341,5.341,0,0,1,2571.908,1478.836Z" fill="#e0e0e0"/>
    <path id="Tracé_83" data-name="Tracé 83" d="M2473.423,1476.761a5.341,5.341,0,1,1-5.341-5.341A5.341,5.341,0,0,1,2473.423,1476.761Z" fill="#e0e0e0"/>
    <path id="Tracé_84" data-name="Tracé 84" d="M2501.343,1365.857a5.341,5.341,0,1,1-5.341-5.341A5.342,5.342,0,0,1,2501.343,1365.857Z" fill="#e0e0e0"/>
    <path id="Tracé_85" data-name="Tracé 85" d="M2399.02,1558.812a5.341,5.341,0,1,1-5.341-5.341A5.341,5.341,0,0,1,2399.02,1558.812Z" fill="#e0e0e0"/>
    <path id="Tracé_86" data-name="Tracé 86" d="M2359.868,1575.28a5.341,5.341,0,1,1-5.341-5.341A5.341,5.341,0,0,1,2359.868,1575.28Z" fill="#e0e0e0"/>
    <path id="Tracé_87" data-name="Tracé 87" d="M2418.08,1609.953a5.341,5.341,0,1,1-5.341-5.341A5.341,5.341,0,0,1,2418.08,1609.953Z" fill="#e0e0e0"/>
    <path id="Tracé_88" data-name="Tracé 88" d="M2462.741,1593.93a5.341,5.341,0,1,1-5.341-5.342A5.342,5.342,0,0,1,2462.741,1593.93Z" fill="#e0e0e0"/>
    <path id="Tracé_89" data-name="Tracé 89" d="M2511.556,1580.622a5.341,5.341,0,1,1-5.341-5.342A5.34,5.34,0,0,1,2511.556,1580.622Z" fill="#e0e0e0"/>
    <path id="Tracé_90" data-name="Tracé 90" d="M2531.762,1393.819a5.341,5.341,0,1,1-5.341-5.341A5.341,5.341,0,0,1,2531.762,1393.819Z" fill="#e0e0e0"/>
    <path id="Tracé_91" data-name="Tracé 91" d="M2443.221,1649.432a5.341,5.341,0,1,1-5.342-5.341A5.341,5.341,0,0,1,2443.221,1649.432Z" fill="#e0e0e0"/>
    <path id="Tracé_92" data-name="Tracé 92" d="M2390.225,1662.082a5.341,5.341,0,1,1-5.341-5.342A5.341,5.341,0,0,1,2390.225,1662.082Z" fill="#e0e0e0"/>
    <path id="Tracé_93" data-name="Tracé 93" d="M2509.148,1531.225a5.341,5.341,0,1,1-5.341-5.341A5.341,5.341,0,0,1,2509.148,1531.225Z" fill="#e0e0e0"/>
    <path id="Tracé_94" data-name="Tracé 94" d="M2462.741,1407.613a5.341,5.341,0,1,1-5.341-5.341A5.341,5.341,0,0,1,2462.741,1407.613Z" fill="#e0e0e0"/>
    <path id="Tracé_95" data-name="Tracé 95" d="M2519.613,1489.518a5.341,5.341,0,1,1-5.341-5.341A5.341,5.341,0,0,1,2519.613,1489.518Z" fill="#e0e0e0"/>
    <path id="Tracé_96" data-name="Tracé 96" d="M2537.432,1452.96a5.341,5.341,0,1,1-5.341-5.341A5.341,5.341,0,0,1,2537.432,1452.96Z" fill="#e0e0e0"/>
    <path id="Tracé_97" data-name="Tracé 97" d="M2571.908,1422.129a5.341,5.341,0,1,1-5.341-5.341A5.341,5.341,0,0,1,2571.908,1422.129Z" fill="#e0e0e0"/>
    <path id="Tracé_98" data-name="Tracé 98" d="M2498.466,1623.7a5.341,5.341,0,1,1-5.341-5.341A5.341,5.341,0,0,1,2498.466,1623.7Z" fill="#e0e0e0"/>
    <path id="Tracé_99" data-name="Tracé 99" d="M2370.668,1623.7a5.341,5.341,0,1,1-5.341-5.341A5.341,5.341,0,0,1,2370.668,1623.7Z" fill="#e0e0e0"/>
  </g>
</svg>
